<svg xmlns="http://www.w3.org/2000/svg" xmlns:xlink="http://www.w3.org/1999/xlink" width="100" zoomAndPan="magnify" viewBox="0 0 75 74.999997" height="100" preserveAspectRatio="xMidYMid meet" version="1.0"><defs><clipPath id="63628d9fab"><path d="M 18.921875 34 L 39 34 L 39 55.054688 L 18.921875 55.054688 Z M 18.921875 34 " clip-rule="nonzero"/></clipPath><clipPath id="f159ca07db"><path d="M 37 34 L 56.421875 34 L 56.421875 55.054688 L 37 55.054688 Z M 37 34 " clip-rule="nonzero"/></clipPath><clipPath id="8f6402be3a"><path d="M 30 19.804688 L 37 19.804688 L 37 27 L 30 27 Z M 30 19.804688 " clip-rule="nonzero"/></clipPath></defs><rect x="-7.5" width="90" fill="#ffffff" y="-7.5" height="89.999996" fill-opacity="1"/><rect x="-7.5" width="90" fill="#ffffff" y="-7.5" height="89.999996" fill-opacity="1"/><g clip-path="url(#63628d9fab)"><path fill="#000000" d="M 25.773438 55.054688 C 25.394531 55.054688 25.023438 54.902344 24.675781 54.613281 C 23.113281 53.304688 22.253906 49.121094 22.195312 47.753906 C 22.144531 46.582031 21.703125 46.113281 20.976562 45.347656 C 20.785156 45.148438 20.574219 44.914062 20.351562 44.65625 C 18.097656 42.023438 18.800781 38.199219 20.734375 36.160156 C 21.6875 35.148438 22.894531 34.574219 24.21875 34.5 C 25.621094 34.417969 27.082031 34.882812 28.550781 35.882812 C 30.019531 34.882812 31.472656 34.417969 32.882812 34.5 C 34.210938 34.574219 35.417969 35.148438 36.371094 36.160156 C 38.304688 38.199219 39.003906 42.023438 36.75 44.65625 C 36.53125 44.914062 36.3125 45.148438 36.125 45.347656 C 35.398438 46.113281 34.96875 46.582031 34.910156 47.753906 C 34.851562 49.121094 33.988281 53.304688 32.429688 54.613281 C 32.023438 54.945312 31.601562 55.09375 31.152344 55.039062 C 29.902344 54.886719 30.011719 53.554688 30.070312 52.914062 C 30.082031 52.769531 30.097656 52.636719 30.097656 52.546875 C 30.089844 51.386719 29.886719 49.4375 28.5625 49.164062 C 27.242188 49.4375 27.03125 51.394531 27.023438 52.546875 C 27.023438 52.636719 27.03125 52.769531 27.050781 52.914062 C 27.101562 53.554688 27.21875 54.886719 25.96875 55.039062 C 25.890625 55.054688 25.832031 55.054688 25.773438 55.054688 Z M 28.550781 48.207031 C 28.578125 48.207031 28.601562 48.207031 28.628906 48.214844 C 30.183594 48.457031 31.050781 49.996094 31.058594 52.554688 C 31.058594 52.6875 31.050781 52.847656 31.035156 53.003906 C 30.957031 53.894531 31.050781 54.070312 31.261719 54.097656 C 31.320312 54.105469 31.515625 54.128906 31.792969 53.886719 C 33.003906 52.878906 33.871094 49.105469 33.9375 47.722656 C 34.007812 46.1875 34.65625 45.496094 35.410156 44.699219 C 35.601562 44.496094 35.796875 44.28125 36.007812 44.039062 C 37.917969 41.816406 37.308594 38.558594 35.660156 36.816406 C 33.929688 34.992188 31.378906 35.015625 28.839844 36.867188 C 28.671875 36.992188 28.433594 36.992188 28.265625 36.867188 C 25.722656 35.015625 23.171875 34.992188 21.441406 36.816406 C 19.789062 38.558594 19.1875 41.816406 21.097656 44.039062 C 21.308594 44.28125 21.5 44.488281 21.695312 44.699219 C 22.445312 45.496094 23.097656 46.1875 23.164062 47.722656 C 23.222656 49.113281 24.101562 52.886719 25.308594 53.886719 C 25.589844 54.121094 25.78125 54.105469 25.839844 54.097656 C 26.0625 54.070312 26.144531 53.902344 26.070312 53.003906 C 26.054688 52.847656 26.042969 52.6875 26.042969 52.554688 C 26.054688 49.996094 26.921875 48.457031 28.476562 48.214844 C 28.5 48.207031 28.527344 48.207031 28.550781 48.207031 Z M 28.550781 48.207031 " fill-opacity="1" fill-rule="nonzero"/></g><g clip-path="url(#f159ca07db)"><path fill="#000000" d="M 49.558594 55.054688 C 49.5 55.054688 49.441406 55.054688 49.382812 55.046875 C 48.132812 54.894531 48.242188 53.5625 48.300781 52.921875 C 48.308594 52.78125 48.328125 52.644531 48.328125 52.554688 C 48.320312 51.394531 48.117188 49.445312 46.789062 49.171875 C 45.472656 49.445312 45.261719 51.40625 45.253906 52.554688 C 45.253906 52.644531 45.261719 52.78125 45.277344 52.921875 C 45.328125 53.5625 45.449219 54.894531 44.199219 55.046875 C 43.75 55.09375 43.320312 54.953125 42.921875 54.621094 C 41.359375 53.3125 40.5 49.128906 40.441406 47.765625 C 40.390625 46.589844 39.953125 46.121094 39.226562 45.355469 C 39.03125 45.15625 38.820312 44.921875 38.601562 44.664062 C 37.054688 42.855469 36.75 40.183594 37.839844 37.859375 C 38.8125 35.765625 40.652344 34.515625 42.746094 34.5 C 42.871094 34.5 43 34.550781 43.09375 34.640625 L 46.554688 38.058594 L 48.75 35.890625 L 48.539062 35.683594 C 48.421875 35.566406 48.371094 35.398438 48.402344 35.242188 C 48.4375 35.082031 48.554688 34.949219 48.707031 34.890625 C 51.230469 33.96875 53.636719 34.691406 55.160156 36.824219 C 56.636719 38.898438 57.058594 42.257812 54.996094 44.664062 C 54.777344 44.921875 54.558594 45.15625 54.375 45.355469 C 53.648438 46.121094 53.214844 46.589844 53.15625 47.765625 C 53.097656 49.128906 52.238281 53.3125 50.675781 54.621094 C 50.3125 54.902344 49.941406 55.054688 49.558594 55.054688 Z M 46.789062 48.207031 C 46.816406 48.207031 46.839844 48.207031 46.867188 48.214844 C 48.421875 48.457031 49.289062 49.996094 49.296875 52.554688 C 49.296875 52.6875 49.289062 52.847656 49.273438 53.003906 C 49.195312 53.894531 49.289062 54.070312 49.5 54.097656 C 49.558594 54.105469 49.753906 54.128906 50.03125 53.886719 C 51.242188 52.878906 52.109375 49.105469 52.179688 47.722656 C 52.246094 46.1875 52.894531 45.496094 53.648438 44.699219 C 53.839844 44.488281 54.035156 44.28125 54.246094 44.039062 C 55.984375 42.007812 55.621094 39.148438 54.355469 37.375 C 53.257812 35.832031 51.585938 35.191406 49.789062 35.574219 C 49.957031 35.765625 49.949219 36.050781 49.761719 36.226562 L 46.882812 39.066406 C 46.789062 39.15625 46.671875 39.207031 46.539062 39.207031 C 46.402344 39.207031 46.285156 39.15625 46.191406 39.066406 L 42.542969 35.457031 C 40.914062 35.542969 39.496094 36.574219 38.710938 38.25 C 37.78125 40.242188 38.027344 42.515625 39.335938 44.039062 C 39.546875 44.28125 39.738281 44.488281 39.933594 44.699219 C 40.6875 45.496094 41.335938 46.1875 41.402344 47.722656 C 41.472656 49.113281 42.339844 52.886719 43.546875 53.886719 C 43.828125 54.121094 44.019531 54.105469 44.082031 54.097656 C 44.300781 54.070312 44.382812 53.902344 44.308594 53.003906 C 44.292969 52.847656 44.28125 52.6875 44.28125 52.554688 C 44.292969 49.996094 45.160156 48.457031 46.714844 48.214844 C 46.730469 48.207031 46.765625 48.207031 46.789062 48.207031 Z M 46.789062 48.207031 " fill-opacity="1" fill-rule="nonzero"/></g><path fill="#000000" d="M 46.539062 39.207031 C 46.410156 39.207031 46.285156 39.15625 46.191406 39.066406 L 35.46875 28.476562 C 35.375 28.386719 35.324219 28.269531 35.324219 28.136719 C 35.324219 28 35.375 27.886719 35.46875 27.792969 L 38.347656 24.953125 C 38.542969 24.761719 38.84375 24.769531 39.03125 24.953125 L 49.761719 35.542969 C 49.949219 35.726562 49.949219 36.035156 49.761719 36.214844 L 46.882812 39.058594 C 46.789062 39.15625 46.664062 39.207031 46.539062 39.207031 Z M 36.496094 28.136719 L 46.539062 38.042969 L 48.734375 35.875 L 38.691406 25.976562 Z M 36.496094 28.136719 " fill-opacity="1" fill-rule="nonzero"/><path fill="#000000" d="M 48.808594 40.515625 C 48.683594 40.515625 48.5625 40.464844 48.460938 40.375 L 46.664062 38.597656 C 46.476562 38.417969 46.476562 38.109375 46.664062 37.925781 L 48.605469 36.007812 C 48.792969 35.824219 49.105469 35.824219 49.289062 36.007812 L 51.089844 37.78125 C 51.179688 37.875 51.230469 37.992188 51.230469 38.125 C 51.230469 38.257812 51.179688 38.375 51.089844 38.464844 L 49.144531 40.382812 C 49.054688 40.472656 48.925781 40.515625 48.808594 40.515625 Z M 47.695312 38.265625 L 48.808594 39.367188 L 50.066406 38.125 L 48.953125 37.023438 Z M 47.695312 38.265625 " fill-opacity="1" fill-rule="nonzero"/><path fill="#000000" d="M 53.316406 43.046875 C 53.191406 43.046875 53.074219 43 52.972656 42.90625 L 49.433594 39.414062 C 49.246094 39.234375 49.246094 38.925781 49.433594 38.742188 C 49.621094 38.558594 49.933594 38.558594 50.117188 38.742188 L 53.65625 42.230469 C 53.839844 42.414062 53.839844 42.722656 53.65625 42.90625 C 53.570312 43.007812 53.445312 43.046875 53.316406 43.046875 Z M 53.316406 43.046875 " fill-opacity="1" fill-rule="nonzero"/><path fill="#000000" d="M 34.800781 29.226562 C 34.421875 29.226562 34.058594 29.078125 33.789062 28.820312 C 33.515625 28.558594 33.375 28.203125 33.375 27.820312 C 33.375 27.445312 33.527344 27.085938 33.789062 26.820312 L 37.351562 23.304688 C 37.90625 22.753906 38.8125 22.753906 39.367188 23.304688 C 39.640625 23.570312 39.78125 23.917969 39.78125 24.304688 C 39.78125 24.6875 39.628906 25.035156 39.367188 25.300781 L 35.804688 28.820312 C 35.542969 29.078125 35.179688 29.226562 34.800781 29.226562 Z M 38.363281 23.851562 C 38.246094 23.851562 38.128906 23.902344 38.042969 23.984375 L 34.480469 27.503906 C 34.394531 27.585938 34.34375 27.703125 34.34375 27.820312 C 34.34375 27.933594 34.394531 28.050781 34.480469 28.136719 C 34.5625 28.21875 34.683594 28.269531 34.800781 28.269531 C 34.917969 28.269531 35.035156 28.21875 35.121094 28.136719 L 38.683594 24.621094 C 38.769531 24.535156 38.820312 24.417969 38.820312 24.304688 C 38.820312 24.1875 38.769531 24.070312 38.683594 23.984375 C 38.601562 23.902344 38.492188 23.851562 38.363281 23.851562 Z M 38.363281 23.851562 " fill-opacity="1" fill-rule="nonzero"/><path fill="#000000" d="M 35.246094 26.535156 C 35.121094 26.535156 35.003906 26.484375 34.902344 26.394531 L 33.101562 24.621094 C 33.011719 24.527344 32.960938 24.410156 32.960938 24.277344 C 32.960938 24.152344 33.011719 24.027344 33.101562 23.9375 L 34.4375 22.628906 C 34.53125 22.535156 34.648438 22.488281 34.785156 22.488281 C 34.910156 22.488281 35.035156 22.535156 35.128906 22.628906 L 36.929688 24.402344 C 37.113281 24.585938 37.113281 24.894531 36.929688 25.078125 L 35.59375 26.394531 C 35.5 26.492188 35.375 26.535156 35.246094 26.535156 Z M 34.140625 24.285156 L 35.257812 25.386719 L 35.898438 24.753906 L 34.785156 23.652344 Z M 34.140625 24.285156 " fill-opacity="1" fill-rule="nonzero"/><g clip-path="url(#8f6402be3a)"><path fill="#000000" d="M 31.667969 26.136719 C 31.304688 26.136719 30.933594 26.003906 30.65625 25.726562 C 30.097656 25.175781 30.097656 24.285156 30.65625 23.734375 L 34.21875 20.21875 C 34.773438 19.671875 35.679688 19.671875 36.234375 20.21875 C 36.792969 20.769531 36.792969 21.660156 36.234375 22.210938 L 32.671875 25.726562 C 32.402344 26.003906 32.03125 26.136719 31.667969 26.136719 Z M 35.230469 20.761719 C 35.113281 20.761719 34.996094 20.8125 34.910156 20.894531 L 31.347656 24.410156 C 31.261719 24.496094 31.210938 24.609375 31.210938 24.726562 C 31.210938 24.84375 31.261719 24.960938 31.347656 25.042969 C 31.429688 25.128906 31.550781 25.175781 31.667969 25.175781 C 31.785156 25.175781 31.902344 25.128906 31.988281 25.042969 L 35.550781 21.527344 C 35.636719 21.445312 35.6875 21.328125 35.6875 21.210938 C 35.6875 21.09375 35.636719 20.980469 35.550781 20.894531 C 35.46875 20.8125 35.359375 20.761719 35.230469 20.761719 Z M 35.230469 20.761719 " fill-opacity="1" fill-rule="nonzero"/></g><path fill="#000000" d="M 27.988281 41.90625 C 27.714844 41.90625 27.496094 41.691406 27.496094 41.421875 L 27.496094 40.300781 C 27.496094 40.03125 27.714844 39.816406 27.988281 39.816406 C 28.257812 39.816406 28.476562 40.03125 28.476562 40.300781 L 28.476562 41.421875 C 28.476562 41.691406 28.257812 41.90625 27.988281 41.90625 Z M 27.988281 41.90625 " fill-opacity="1" fill-rule="nonzero"/><path fill="#000000" d="M 27.988281 45.40625 C 27.714844 45.40625 27.496094 45.191406 27.496094 44.921875 L 27.496094 43.796875 C 27.496094 43.53125 27.714844 43.316406 27.988281 43.316406 C 28.257812 43.316406 28.476562 43.53125 28.476562 43.796875 L 28.476562 44.921875 C 28.476562 45.191406 28.257812 45.40625 27.988281 45.40625 Z M 27.988281 45.40625 " fill-opacity="1" fill-rule="nonzero"/><path fill="#000000" d="M 30.332031 43.089844 L 29.195312 43.089844 C 28.921875 43.089844 28.703125 42.875 28.703125 42.605469 C 28.703125 42.339844 28.921875 42.125 29.195312 42.125 L 30.332031 42.125 C 30.605469 42.125 30.824219 42.339844 30.824219 42.605469 C 30.824219 42.875 30.605469 43.089844 30.332031 43.089844 Z M 30.332031 43.089844 " fill-opacity="1" fill-rule="nonzero"/><path fill="#000000" d="M 26.789062 43.089844 L 25.648438 43.089844 C 25.378906 43.089844 25.15625 42.875 25.15625 42.605469 C 25.15625 42.339844 25.378906 42.125 25.648438 42.125 L 26.789062 42.125 C 27.058594 42.125 27.277344 42.339844 27.277344 42.605469 C 27.277344 42.875 27.058594 43.089844 26.789062 43.089844 Z M 26.789062 43.089844 " fill-opacity="1" fill-rule="nonzero"/><path fill="#000000" d="M 50.09375 27.910156 C 49.820312 27.910156 49.601562 27.695312 49.601562 27.425781 L 49.601562 26.300781 C 49.601562 26.035156 49.820312 25.820312 50.09375 25.820312 C 50.363281 25.820312 50.582031 26.035156 50.582031 26.300781 L 50.582031 27.425781 C 50.574219 27.695312 50.363281 27.910156 50.09375 27.910156 Z M 50.09375 27.910156 " fill-opacity="1" fill-rule="nonzero"/><path fill="#000000" d="M 50.09375 31.410156 C 49.820312 31.410156 49.601562 31.191406 49.601562 30.925781 L 49.601562 29.800781 C 49.601562 29.535156 49.820312 29.316406 50.09375 29.316406 C 50.363281 29.316406 50.582031 29.535156 50.582031 29.800781 L 50.582031 30.925781 C 50.574219 31.191406 50.363281 31.410156 50.09375 31.410156 Z M 50.09375 31.410156 " fill-opacity="1" fill-rule="nonzero"/><path fill="#000000" d="M 52.429688 29.09375 L 51.292969 29.09375 C 51.019531 29.09375 50.800781 28.875 50.800781 28.609375 C 50.800781 28.34375 51.019531 28.125 51.292969 28.125 L 52.429688 28.125 C 52.703125 28.125 52.921875 28.34375 52.921875 28.609375 C 52.921875 28.875 52.703125 29.09375 52.429688 29.09375 Z M 52.429688 29.09375 " fill-opacity="1" fill-rule="nonzero"/><path fill="#000000" d="M 48.882812 29.09375 L 47.746094 29.09375 C 47.472656 29.09375 47.253906 28.875 47.253906 28.609375 C 47.253906 28.34375 47.472656 28.125 47.746094 28.125 L 48.882812 28.125 C 49.15625 28.125 49.375 28.34375 49.375 28.609375 C 49.375 28.875 49.15625 29.09375 48.882812 29.09375 Z M 48.882812 29.09375 " fill-opacity="1" fill-rule="nonzero"/><path fill="#000000" d="M 26.847656 29.535156 C 26.578125 29.535156 26.355469 29.316406 26.355469 29.050781 L 26.355469 27.925781 C 26.355469 27.660156 26.578125 27.445312 26.847656 27.445312 C 27.117188 27.445312 27.335938 27.660156 27.335938 27.925781 L 27.335938 29.050781 C 27.335938 29.316406 27.117188 29.535156 26.847656 29.535156 Z M 26.847656 29.535156 " fill-opacity="1" fill-rule="nonzero"/><path fill="#000000" d="M 26.847656 33.035156 C 26.578125 33.035156 26.355469 32.816406 26.355469 32.550781 L 26.355469 31.425781 C 26.355469 31.160156 26.578125 30.941406 26.847656 30.941406 C 27.117188 30.941406 27.335938 31.160156 27.335938 31.425781 L 27.335938 32.550781 C 27.335938 32.816406 27.117188 33.035156 26.847656 33.035156 Z M 26.847656 33.035156 " fill-opacity="1" fill-rule="nonzero"/><path fill="#000000" d="M 29.195312 30.71875 L 28.054688 30.71875 C 27.785156 30.71875 27.5625 30.5 27.5625 30.234375 C 27.5625 29.96875 27.785156 29.75 28.054688 29.75 L 29.195312 29.75 C 29.464844 29.75 29.683594 29.96875 29.683594 30.234375 C 29.683594 30.5 29.464844 30.71875 29.195312 30.71875 Z M 29.195312 30.71875 " fill-opacity="1" fill-rule="nonzero"/><path fill="#000000" d="M 25.648438 30.71875 L 24.507812 30.71875 C 24.238281 30.71875 24.019531 30.5 24.019531 30.234375 C 24.019531 29.96875 24.238281 29.75 24.507812 29.75 L 25.648438 29.75 C 25.917969 29.75 26.136719 29.96875 26.136719 30.234375 C 26.136719 30.5 25.917969 30.71875 25.648438 30.71875 Z M 25.648438 30.71875 " fill-opacity="1" fill-rule="nonzero"/></svg>