<svg xmlns="http://www.w3.org/2000/svg" xmlns:xlink="http://www.w3.org/1999/xlink" width="100" zoomAndPan="magnify" viewBox="0 0 75 74.999997" height="100" preserveAspectRatio="xMidYMid meet" version="1.0"><defs><clipPath id="781111e2eb"><path d="M 22.5 25.0625 L 52.5 25.0625 L 52.5 49.8125 L 22.5 49.8125 Z M 22.5 25.0625 " clip-rule="nonzero"/></clipPath></defs><rect x="-7.5" width="90" fill="#ffffff" y="-7.5" height="89.999996" fill-opacity="1"/><rect x="-7.5" width="90" fill="#ffffff" y="-7.5" height="89.999996" fill-opacity="1"/><g clip-path="url(#781111e2eb)"><path fill="#000000" d="M 47.90625 35.167969 C 47.460938 36.363281 46.78125 37.511719 45.882812 38.578125 C 45.777344 41.558594 45.457031 44.140625 44.949219 46.054688 C 44.371094 48.253906 43.570312 49.445312 42.578125 49.589844 C 42.511719 49.597656 42.441406 49.605469 42.375 49.605469 C 40.925781 49.605469 39.476562 47.386719 37.945312 42.84375 C 37.929688 42.789062 37.863281 42.753906 37.785156 42.753906 C 37.707031 42.753906 37.644531 42.789062 37.625 42.84375 C 36.023438 47.601562 34.507812 49.808594 32.992188 49.589844 C 32 49.445312 31.203125 48.253906 30.621094 46.054688 C 30.117188 44.140625 29.796875 41.558594 29.691406 38.578125 C 29.222656 38.023438 28.808594 37.4375 28.457031 36.832031 C 28.34375 36.640625 28.410156 36.390625 28.605469 36.277344 C 28.800781 36.164062 29.050781 36.230469 29.164062 36.425781 C 29.515625 37.023438 29.929688 37.605469 30.40625 38.15625 C 30.464844 38.226562 30.5 38.316406 30.503906 38.410156 C 30.601562 41.390625 30.917969 43.960938 31.414062 45.847656 C 32.078125 48.371094 32.824219 48.742188 33.109375 48.78125 C 33.527344 48.84375 34.066406 48.417969 34.628906 47.582031 C 35.339844 46.527344 36.085938 44.847656 36.847656 42.585938 C 36.980469 42.199219 37.355469 41.941406 37.785156 41.941406 C 38.21875 41.941406 38.597656 42.199219 38.722656 42.585938 C 39.484375 44.847656 40.230469 46.527344 40.941406 47.582031 C 41.503906 48.417969 42.046875 48.84375 42.460938 48.78125 C 42.75 48.742188 43.492188 48.371094 44.160156 45.847656 C 44.65625 43.960938 44.972656 41.390625 45.070312 38.410156 C 45.074219 38.316406 45.109375 38.226562 45.167969 38.15625 C 46.050781 37.132812 46.710938 36.03125 47.140625 34.886719 C 47.21875 34.675781 47.453125 34.566406 47.667969 34.644531 C 47.878906 34.722656 47.988281 34.957031 47.90625 35.167969 Z M 30.972656 27.023438 C 32.820312 26.394531 35.152344 27.003906 37.546875 28.742188 C 37.546875 28.742188 37.546875 28.746094 37.550781 28.746094 C 37.554688 28.746094 37.554688 28.75 37.558594 28.753906 C 38.640625 29.472656 39.804688 29.984375 41.015625 30.261719 C 41.046875 30.269531 41.078125 30.273438 41.109375 30.273438 C 41.292969 30.273438 41.460938 30.148438 41.507812 29.960938 C 41.558594 29.738281 41.421875 29.519531 41.199219 29.46875 C 40.277344 29.253906 39.378906 28.894531 38.527344 28.394531 C 41.074219 26.707031 43.527344 26.324219 45.324219 27.355469 C 45.523438 27.464844 45.773438 27.398438 45.882812 27.203125 C 45.996094 27.007812 45.929688 26.757812 45.734375 26.648438 C 44.691406 26.050781 43.429688 25.839844 42.089844 26.042969 C 40.710938 26.253906 39.265625 26.882812 37.785156 27.914062 C 35.253906 26.148438 32.75 25.558594 30.707031 26.253906 C 30.496094 26.328125 30.378906 26.558594 30.453125 26.773438 C 30.527344 26.984375 30.761719 27.097656 30.972656 27.023438 Z M 29.378906 35.582031 L 26.210938 35.582031 C 25.984375 35.582031 25.800781 35.398438 25.800781 35.175781 L 25.800781 32.308594 L 22.917969 32.308594 C 22.691406 32.308594 22.511719 32.125 22.511719 31.898438 L 22.511719 28.742188 C 22.511719 28.519531 22.691406 28.335938 22.917969 28.335938 L 25.800781 28.335938 L 25.800781 25.46875 C 25.800781 25.242188 25.984375 25.0625 26.210938 25.0625 L 29.378906 25.0625 C 29.605469 25.0625 29.789062 25.242188 29.789062 25.46875 L 29.789062 28.335938 L 32.671875 28.335938 C 32.894531 28.335938 33.078125 28.519531 33.078125 28.742188 L 33.078125 31.898438 C 33.078125 32.125 32.894531 32.308594 32.671875 32.308594 L 29.789062 32.308594 L 29.789062 35.175781 C 29.789062 35.398438 29.605469 35.582031 29.378906 35.582031 Z M 29.378906 31.492188 L 32.261719 31.492188 L 32.261719 29.152344 L 29.378906 29.152344 C 29.152344 29.152344 28.96875 28.96875 28.96875 28.742188 L 28.96875 25.875 L 26.621094 25.875 L 26.621094 28.742188 C 26.621094 28.96875 26.4375 29.152344 26.210938 29.152344 L 23.328125 29.152344 L 23.328125 31.492188 L 26.210938 31.492188 C 26.4375 31.492188 26.621094 31.675781 26.621094 31.898438 L 26.621094 34.769531 L 28.96875 34.769531 L 28.96875 31.898438 C 28.96875 31.675781 29.152344 31.492188 29.378906 31.492188 Z M 52.273438 30.132812 L 47.003906 34.105469 C 46.929688 34.164062 46.84375 34.1875 46.757812 34.1875 C 46.632812 34.1875 46.511719 34.132812 46.429688 34.027344 L 46.222656 33.753906 L 43.925781 35.484375 C 43.855469 35.539062 43.765625 35.566406 43.679688 35.566406 C 43.558594 35.566406 43.433594 35.511719 43.355469 35.40625 L 42.632812 34.460938 L 40.121094 36.355469 C 39.941406 36.492188 39.683594 36.457031 39.546875 36.277344 L 39.101562 35.695312 C 38.675781 35.132812 38.101562 34.851562 37.527344 34.925781 C 37.003906 34.988281 36.542969 35.34375 36.328125 35.851562 C 36.011719 36.597656 36.242188 37.5625 36.960938 38.503906 C 37.097656 38.683594 37.0625 38.9375 36.878906 39.074219 C 36.808594 39.132812 36.71875 39.15625 36.632812 39.15625 C 36.511719 39.15625 36.386719 39.101562 36.308594 38.996094 C 35.410156 37.816406 35.140625 36.554688 35.574219 35.535156 C 35.902344 34.761719 36.613281 34.21875 37.425781 34.117188 C 38.296875 34.007812 39.144531 34.402344 39.753906 35.203125 L 39.953125 35.460938 L 42.140625 33.8125 L 41.417969 32.863281 C 41.351562 32.777344 41.324219 32.671875 41.339844 32.5625 C 41.355469 32.457031 41.410156 32.359375 41.496094 32.292969 L 43.792969 30.5625 L 43.585938 30.289062 C 43.519531 30.203125 43.492188 30.097656 43.507812 29.988281 C 43.523438 29.882812 43.578125 29.785156 43.664062 29.71875 L 48.9375 25.746094 C 49.023438 25.679688 49.132812 25.652344 49.242188 25.667969 C 49.347656 25.683594 49.445312 25.738281 49.511719 25.824219 L 52.355469 29.5625 C 52.492188 29.742188 52.457031 29.996094 52.273438 30.132812 Z M 45.726562 33.105469 L 44.289062 31.214844 L 42.320312 32.699219 L 43.03125 33.636719 C 43.035156 33.636719 43.035156 33.640625 43.039062 33.644531 C 43.039062 33.644531 43.042969 33.648438 43.042969 33.652344 L 43.757812 34.589844 Z M 51.453125 29.730469 L 49.105469 26.640625 L 44.484375 30.125 L 44.683594 30.382812 C 44.6875 30.386719 44.691406 30.390625 44.695312 30.394531 C 44.699219 30.402344 44.699219 30.40625 44.703125 30.410156 L 46.625 32.9375 C 46.628906 32.9375 46.628906 32.9375 46.628906 32.9375 L 46.835938 33.210938 Z M 51.453125 29.730469 " fill-opacity="1" fill-rule="nonzero"/></g></svg>