<?xml version="1.0" encoding="UTF-8" standalone="no"?>
<!-- Created with Inkscape (http://www.inkscape.org/) -->

<svg
   version="1.1"
   id="svg1"
   width="575.37732"
   height="210.79066"
   viewBox="0 0 575.37732 210.79066"
   sodipodi:docname="WDC-logo-remastered-white.ai"
   xmlns:inkscape="http://www.inkscape.org/namespaces/inkscape"
   xmlns:sodipodi="http://sodipodi.sourceforge.net/DTD/sodipodi-0.dtd"
   xmlns="http://www.w3.org/2000/svg"
   xmlns:svg="http://www.w3.org/2000/svg">
  <defs
     id="defs1">
    <clipPath
       clipPathUnits="userSpaceOnUse"
       id="clipPath2">
      <path
         d="M 0,158.093 H 431.533 V 0 H 0 Z"
         transform="translate(-89.743405,-126.3528)"
         id="path2" />
    </clipPath>
    <clipPath
       clipPathUnits="userSpaceOnUse"
       id="clipPath4">
      <path
         d="M 0,158.093 H 431.533 V 0 H 0 Z"
         transform="translate(-396.34101,-126.5759)"
         id="path4" />
    </clipPath>
    <clipPath
       clipPathUnits="userSpaceOnUse"
       id="clipPath6">
      <path
         d="M 0,158.093 H 431.533 V 0 H 0 Z"
         transform="translate(-358.57251,-157.9523)"
         id="path6" />
    </clipPath>
    <clipPath
       clipPathUnits="userSpaceOnUse"
       id="clipPath8">
      <path
         d="M 0,158.093 H 431.533 V 0 H 0 Z"
         transform="translate(-366.49241,-157.9523)"
         id="path8" />
    </clipPath>
    <clipPath
       clipPathUnits="userSpaceOnUse"
       id="clipPath10">
      <path
         d="M 0,158.093 H 431.533 V 0 H 0 Z"
         transform="translate(-215.04271,-37.431898)"
         id="path10" />
    </clipPath>
    <clipPath
       clipPathUnits="userSpaceOnUse"
       id="clipPath12">
      <path
         d="M 0,158.093 H 431.533 V 0 H 0 Z"
         transform="translate(-393.35671,-82.577902)"
         id="path12" />
    </clipPath>
    <clipPath
       clipPathUnits="userSpaceOnUse"
       id="clipPath14">
      <path
         d="M 0,158.093 H 431.533 V 0 H 0 Z"
         transform="translate(-252.36061,-66.750202)"
         id="path14" />
    </clipPath>
    <clipPath
       clipPathUnits="userSpaceOnUse"
       id="clipPath16">
      <path
         d="M 0,158.093 H 431.533 V 0 H 0 Z"
         transform="translate(-54.466501,-79.021702)"
         id="path16" />
    </clipPath>
    <clipPath
       clipPathUnits="userSpaceOnUse"
       id="clipPath18">
      <path
         d="M 0,158.093 H 431.533 V 0 H 0 Z"
         transform="translate(-36.956801,-5.5655976)"
         id="path18" />
    </clipPath>
    <clipPath
       clipPathUnits="userSpaceOnUse"
       id="clipPath20">
      <path
         d="M 0,158.093 H 431.533 V 0 H 0 Z"
         transform="translate(-107.5539,-16.5749)"
         id="path20" />
    </clipPath>
    <clipPath
       clipPathUnits="userSpaceOnUse"
       id="clipPath22">
      <path
         d="M 0,158.093 H 431.533 V 0 H 0 Z"
         transform="translate(-376.38111,-7.8772027)"
         id="path22" />
    </clipPath>
    <clipPath
       clipPathUnits="userSpaceOnUse"
       id="clipPath24">
      <path
         d="M 0,158.093 H 431.533 V 0 H 0 Z"
         transform="translate(-246.38691,-8.1692002)"
         id="path24" />
    </clipPath>
    <clipPath
       clipPathUnits="userSpaceOnUse"
       id="clipPath26">
      <path
         d="M 0,158.093 H 431.533 V 0 H 0 Z"
         transform="translate(-171.3357,-13.195498)"
         id="path26" />
    </clipPath>
    <clipPath
       clipPathUnits="userSpaceOnUse"
       id="clipPath28">
      <path
         d="M 0,158.093 H 431.533 V 0 H 0 Z"
         transform="translate(-86.504605,-13.078303)"
         id="path28" />
    </clipPath>
    <clipPath
       clipPathUnits="userSpaceOnUse"
       id="clipPath30">
      <path
         d="M 0,158.093 H 431.533 V 0 H 0 Z"
         transform="translate(-201.26241,-13.174003)"
         id="path30" />
    </clipPath>
    <clipPath
       clipPathUnits="userSpaceOnUse"
       id="clipPath32">
      <path
         d="M 0,158.093 H 431.533 V 0 H 0 Z"
         transform="translate(-156.8703,-12.881998)"
         id="path32" />
    </clipPath>
    <clipPath
       clipPathUnits="userSpaceOnUse"
       id="clipPath34">
      <path
         d="M 0,158.093 H 431.533 V 0 H 0 Z"
         transform="translate(-129.0276,-13.1477)"
         id="path34" />
    </clipPath>
    <clipPath
       clipPathUnits="userSpaceOnUse"
       id="clipPath36">
      <path
         d="M 0,158.093 H 431.533 V 0 H 0 Z"
         transform="translate(-116.63991,-70.342004)"
         id="path36" />
    </clipPath>
    <clipPath
       clipPathUnits="userSpaceOnUse"
       id="clipPath38">
      <path
         d="M 0,158.093 H 431.533 V 0 H 0 Z"
         transform="translate(-280.0285,-21.588598)"
         id="path38" />
    </clipPath>
    <clipPath
       clipPathUnits="userSpaceOnUse"
       id="clipPath40">
      <path
         d="M 0,158.093 H 431.533 V 0 H 0 Z"
         transform="translate(-400.08221,-12.997798)"
         id="path40" />
    </clipPath>
    <clipPath
       clipPathUnits="userSpaceOnUse"
       id="clipPath42">
      <path
         d="M 0,158.093 H 431.533 V 0 H 0 Z"
         transform="translate(-317.78051,-12.731203)"
         id="path42" />
    </clipPath>
    <clipPath
       clipPathUnits="userSpaceOnUse"
       id="clipPath44">
      <path
         d="M 0,158.093 H 431.533 V 0 H 0 Z"
         transform="translate(-217.24971,-13.114498)"
         id="path44" />
    </clipPath>
    <clipPath
       clipPathUnits="userSpaceOnUse"
       id="clipPath46">
      <path
         d="M 0,158.093 H 431.533 V 0 H 0 Z"
         transform="translate(-259.40941,-11.2922)"
         id="path46" />
    </clipPath>
    <clipPath
       clipPathUnits="userSpaceOnUse"
       id="clipPath48">
      <path
         d="M 0,158.093 H 431.533 V 0 H 0 Z"
         transform="translate(-337.48951,-13.115398)"
         id="path48" />
    </clipPath>
    <clipPath
       clipPathUnits="userSpaceOnUse"
       id="clipPath50">
      <path
         d="M 0,158.093 H 431.533 V 0 H 0 Z"
         transform="translate(-57.889901,-13.0676)"
         id="path50" />
    </clipPath>
    <clipPath
       clipPathUnits="userSpaceOnUse"
       id="clipPath52">
      <path
         d="M 0,158.093 H 431.533 V 0 H 0 Z"
         transform="translate(-292.09101,-13.157)"
         id="path52" />
    </clipPath>
    <clipPath
       clipPathUnits="userSpaceOnUse"
       id="clipPath54">
      <path
         d="M 0,158.093 H 431.533 V 0 H 0 Z"
         transform="translate(-48.049501,-13.116403)"
         id="path54" />
    </clipPath>
    <clipPath
       clipPathUnits="userSpaceOnUse"
       id="clipPath56">
      <path
         d="M 0,158.093 H 431.533 V 0 H 0 Z"
         transform="translate(-354.76971,-13.1267)"
         id="path56" />
    </clipPath>
    <clipPath
       clipPathUnits="userSpaceOnUse"
       id="clipPath58">
      <path
         d="M 0,158.093 H 431.533 V 0 H 0 Z"
         transform="translate(-385.69061,-13.122298)"
         id="path58" />
    </clipPath>
    <clipPath
       clipPathUnits="userSpaceOnUse"
       id="clipPath60">
      <path
         d="M 0,158.093 H 431.533 V 0 H 0 Z"
         transform="translate(-277.40841,-140.9118)"
         id="path60" />
    </clipPath>
    <clipPath
       clipPathUnits="userSpaceOnUse"
       id="clipPath62">
      <path
         d="M 0,158.093 H 431.533 V 0 H 0 Z"
         transform="translate(-201.64231,-144.0295)"
         id="path62" />
    </clipPath>
    <clipPath
       clipPathUnits="userSpaceOnUse"
       id="clipPath64">
      <path
         d="M 0,158.093 H 431.533 V 0 H 0 Z"
         transform="translate(-117.74001,-137.9953)"
         id="path64" />
    </clipPath>
    <clipPath
       clipPathUnits="userSpaceOnUse"
       id="clipPath66">
      <path
         d="M 0,158.093 H 431.533 V 0 H 0 Z"
         transform="translate(-62.341502,-131.0715)"
         id="path66" />
    </clipPath>
    <clipPath
       clipPathUnits="userSpaceOnUse"
       id="clipPath68">
      <path
         d="M 0,158.093 H 431.533 V 0 H 0 Z"
         transform="translate(-113.4919,-5.8238976)"
         id="path68" />
    </clipPath>
    <clipPath
       clipPathUnits="userSpaceOnUse"
       id="clipPath70">
      <path
         d="M 0,158.093 H 431.533 V 0 H 0 Z"
         transform="translate(-107.5539,-16.5749)"
         id="path70" />
    </clipPath>
    <clipPath
       clipPathUnits="userSpaceOnUse"
       id="clipPath72">
      <path
         d="M 0,158.093 H 431.533 V 0 H 0 Z"
         transform="translate(-36.956801,-5.5655976)"
         id="path72" />
    </clipPath>
    <clipPath
       clipPathUnits="userSpaceOnUse"
       id="clipPath74">
      <path
         d="M 0,158.093 H 431.533 V 0 H 0 Z"
         transform="translate(-246.38691,-8.1692002)"
         id="path74" />
    </clipPath>
    <clipPath
       clipPathUnits="userSpaceOnUse"
       id="clipPath76">
      <path
         d="M 0,158.093 H 431.533 V 0 H 0 Z"
         transform="translate(-387.66041,-127.2976)"
         id="path76" />
    </clipPath>
    <clipPath
       clipPathUnits="userSpaceOnUse"
       id="clipPath78">
      <path
         d="M 0,158.093 H 431.533 V 0 H 0 Z"
         transform="translate(-225.65551,-144.0676)"
         id="path78" />
    </clipPath>
  </defs>
  <sodipodi:namedview
     id="namedview1"
     pagecolor="#ffffff"
     bordercolor="#000000"
     borderopacity="0.25"
     inkscape:showpageshadow="2"
     inkscape:pageopacity="0.0"
     inkscape:pagecheckerboard="0"
     inkscape:deskcolor="#d1d1d1">
    <inkscape:page
       x="0"
       y="0"
       inkscape:label="1"
       id="page1"
       width="575.37732"
       height="210.79066"
       margin="0 0 0.18799999 0.29502401"
       bleed="0" />
  </sodipodi:namedview>
  <g
     id="layer-MC0"
     inkscape:groupmode="layer"
     inkscape:label="Layer 1">
    <path
       id="path1"
       d="m 0,0 c -1.14,-0.118 -2.128,-0.196 -3.11,-0.326 -6.926,-0.912 -13.848,-1.85 -20.776,-2.737 -0.951,-0.121 -1.119,-0.367 -0.822,-1.311 3.715,-11.822 7.386,-23.659 11.055,-35.496 0.191,-0.617 0.406,-1.235 1.159,-0.989 0.358,0.117 0.722,0.614 0.839,1.011 3.027,10.244 6.023,20.496 9.02,30.748 0.87,2.978 1.726,5.96 2.635,9.1 m 23.107,-44.669 c -0.133,0.441 -0.195,0.665 -0.268,0.885 -4.801,14.532 -9.6,29.063 -14.42,43.588 C 8.291,0.189 7.936,0.5 7.687,0.845 7.448,0.483 7.106,0.152 6.986,-0.246 4.987,-6.845 3.012,-13.45 1.039,-20.057 c -2.053,-6.874 -4.09,-13.752 -6.158,-20.621 -0.231,-0.767 -0.339,-1.159 0.739,-1.249 3.102,-0.259 6.189,-0.698 9.289,-1.006 5.994,-0.594 11.992,-1.147 18.198,-1.736 m -61.804,7.872 c -0.05,0.249 -0.062,0.363 -0.096,0.47 -2.97,9.382 -5.952,18.759 -8.895,28.148 -0.223,0.711 -0.56,0.597 -1.054,0.456 -5.247,-1.504 -10.532,-2.885 -15.732,-4.535 -3.919,-1.243 -7.698,-2.898 -10.884,-5.611 -2.595,-2.209 -2.581,-4.386 -0.022,-6.62 2.411,-2.104 5.256,-3.455 8.184,-4.633 9.143,-3.677 18.733,-5.7 28.499,-7.675 m 85.371,-8.645 c 0.17,0.498 0.286,0.793 0.373,1.096 4.483,15.554 8.967,31.108 13.441,46.665 0.68,2.364 0.661,2.368 -1.845,2.207 -0.16,-0.01 -0.321,0.001 -0.48,-0.008 -8.61,-0.51 -17.22,-1.015 -25.83,-1.537 -1.48,-0.089 -1.468,-0.12 -0.994,-1.572 4.236,-12.956 8.465,-25.915 12.7,-38.871 0.852,-2.606 1.719,-5.207 2.635,-7.98 m 148.431,-1.405 c 0.113,0 0.338,-0.012 0.561,0.002 9.644,0.62 19.286,1.262 28.932,1.837 1.123,0.067 1.083,0.375 0.747,1.251 -5.042,13.142 -5.302,26.478 -1.481,39.946 0.603,2.125 1.447,4.182 2.218,6.379 -10.255,0.659 -20.424,1.312 -30.447,1.956 7.776,-17.309 8.159,-34.353 -0.53,-51.371 m -59.235,25.706 c 0,-8.758 0.014,-17.517 -0.021,-26.276 -0.004,-0.888 0.198,-1.148 1.113,-1.125 4.074,0.104 8.152,0.103 12.227,0.187 7.07,0.147 14.138,0.337 21.207,0.48 0.693,0.014 1.08,0.193 1.265,0.902 0.686,2.621 1.599,5.195 2.099,7.848 1.744,9.252 1.957,18.583 0.937,27.93 -0.594,5.455 -1.843,10.769 -4.005,15.843 -0.246,0.577 -0.508,0.84 -1.198,0.854 -4.432,0.091 -8.862,0.285 -13.295,0.367 -6.392,0.119 -12.788,0.144 -19.18,0.281 -0.966,0.021 -1.174,-0.201 -1.17,-1.136 0.035,-8.718 0.021,-17.437 0.021,-26.155 m 111.723,2.088 c 0,-1.997 -0.074,-3.998 0.013,-5.991 0.251,-5.641 1.001,-11.207 2.632,-16.636 0.216,-0.72 0.502,-0.959 1.243,-0.851 1.462,0.213 2.943,0.3 4.404,0.516 11.69,1.729 23.403,3.32 35.057,5.27 8.854,1.481 17.593,3.574 26.053,6.663 3.79,1.383 7.534,2.887 10.649,5.567 2.631,2.265 2.715,4.563 -0.079,6.644 -2.154,1.605 -4.523,3.018 -6.98,4.098 -8.674,3.807 -17.887,5.821 -27.123,7.676 -14.339,2.881 -28.823,4.799 -43.358,6.369 -0.673,0.073 -0.873,-0.065 -1.005,-0.735 -1.222,-6.139 -1.629,-12.346 -1.506,-18.59 M 82.914,-47.998 c 0.002,0.041 0.003,0.083 0.005,0.124 1.236,-0.055 2.472,-0.137 3.708,-0.162 8.269,-0.168 16.538,-0.313 24.806,-0.5 0.885,-0.02 1.224,0.136 1.221,1.144 -0.035,17.436 -0.034,34.871 -0.002,52.307 0.002,1.016 -0.288,1.249 -1.266,1.225 C 104.157,5.961 96.925,5.871 89.696,5.689 83.387,5.53 77.081,5.27 70.772,5.104 69.979,5.084 69.669,4.794 69.446,4.094 64.144,-12.501 58.83,-29.094 53.491,-45.678 c -0.258,-0.8 -0.173,-0.987 0.7,-1.024 9.575,-0.407 19.149,-0.857 28.723,-1.296 M 251.793,8.796 C 251.292,7.33 250.817,5.853 250.275,4.402 250.036,3.76 250.08,3.523 250.85,3.449 c 2.461,-0.239 4.913,-0.569 7.369,-0.855 12.085,-1.406 24.118,-3.148 36.052,-5.534 1.779,-0.356 3.556,-0.717 5.603,-1.13 -0.72,1.846 -1.339,3.43 -1.957,5.015 -0.227,0.615 -0.452,1.23 -0.679,1.845 -2.103,5.424 -4.743,10.552 -8.743,14.839 -5.832,6.251 -13.038,8.42 -21.321,6.508 -7.416,-1.712 -11.705,-6.991 -14.629,-13.632 -0.251,-0.57 -0.501,-1.139 -0.752,-1.709 m -90.744,8.628 c -2.72,2.112 -5.778,3.513 -9.115,4.321 -5.135,1.243 -10.332,0.602 -15.51,0.464 -0.191,-0.005 -0.522,-0.426 -0.528,-0.661 -0.04,-1.277 0.002,-2.555 0.016,-3.833 -0.009,-0.576 -0.018,-1.152 -0.028,-1.728 -0.005,-1.638 -0.011,-3.276 -0.014,-4.914 -0.002,-1.749 0,-1.734 1.708,-1.756 7.665,-0.1 15.329,-0.218 22.994,-0.311 2.615,-0.031 5.23,-0.005 7.801,-0.005 -0.818,1.898 -3.638,5.462 -5.304,6.66 -0.673,0.587 -1.346,1.175 -2.02,1.763 m -49.15,0.253 c -0.344,1.533 -1.391,2.59 -2.725,3.127 -2.126,0.857 -4.36,1.447 -6.558,2.121 -0.452,0.139 -0.945,0.146 -1.418,0.219 -2.249,0.343 -2.261,0.343 -2.243,2.567 0.008,1.028 -0.309,2.438 0.225,2.975 0.532,0.534 1.945,0.228 2.972,0.229 15.667,0.007 31.336,0.173 47,-0.05 11.899,-0.17 23.169,-2.894 33.057,-9.962 1.264,-0.904 2.509,-1.833 3.763,-2.75 0.564,-0.531 1.129,-1.063 1.693,-1.594 1.757,-2.11 3.497,-4.235 5.291,-6.312 0.234,-0.272 0.739,-0.407 1.13,-0.432 6.21,-0.394 12.423,-0.74 18.633,-1.139 4.657,-0.3 9.31,-0.673 13.969,-0.966 0.419,-0.026 1.056,0.169 1.259,0.479 1.07,1.631 2.032,3.331 3.032,5.007 0.391,0.541 0.783,1.083 1.174,1.624 2.868,3.542 5.982,6.832 9.706,9.502 7.288,5.223 15.417,8.179 24.326,9.045 0.88,0.077 1.762,0.155 2.644,0.233 h 5.521 c 0.802,-0.077 1.605,-0.153 2.408,-0.229 6.652,-0.596 12.804,-2.804 18.682,-5.856 0.638,-0.331 1.072,-0.383 1.502,0.212 2.02,2.781 4.747,3.714 8.097,3.226 0.72,-0.105 1.002,-0.175 1.012,-0.99 0.087,-7.818 0.216,-15.637 0.35,-23.455 0.025,-1.429 0.129,-2.857 0.197,-4.285 -0.015,-0.515 -0.029,-1.03 -0.043,-1.545 -0.002,-1.038 0.089,-2.087 -0.031,-3.112 -0.127,-1.091 0.385,-1.408 1.318,-1.647 5.299,-1.36 10.517,-2.977 15.482,-5.304 2.939,-1.377 5.796,-2.919 7.893,-5.503 2.249,-2.771 2.224,-5.899 -0.039,-8.64 -0.506,-0.612 -1.03,-1.278 -1.691,-1.68 -2.582,-1.569 -5.102,-3.32 -7.861,-4.502 -9.552,-4.095 -19.667,-6.26 -29.821,-8.214 -14.051,-2.705 -28.214,-4.685 -42.455,-6.009 -14.159,-1.316 -28.326,-2.614 -42.516,-3.484 -15.147,-0.927 -30.323,-1.445 -45.493,-1.947 -9.825,-0.325 -19.662,-0.385 -29.495,-0.409 -10.235,-0.025 -20.471,0.098 -30.705,0.231 -6.632,0.085 -13.266,0.2 -19.891,0.485 -13.847,0.595 -27.699,1.137 -41.528,2.028 -12.275,0.791 -24.532,1.925 -36.779,3.091 -14.677,1.396 -29.272,3.432 -43.746,6.264 -8.853,1.731 -17.641,3.732 -26.1,6.942 -3.93,1.491 -7.78,3.162 -10.924,6.063 -3.662,3.379 -3.673,7.531 -0.034,10.931 0.784,0.733 1.657,1.388 2.556,1.977 4.249,2.786 8.978,4.505 13.795,5.962 3.852,1.165 7.77,2.112 11.655,3.172 0.379,0.104 1.092,-0.063 0.778,0.791 -0.437,1.19 -0.836,2.394 -1.252,3.592 -0.153,0.533 -0.306,1.066 -0.459,1.599 -1.291,4.02 -2.366,8.125 -3.926,12.038 -2.124,5.33 -6.395,8.309 -11.901,9.546 -2.585,0.581 -2.601,0.508 -2.601,3.108 0,2.873 0,2.873 2.827,2.873 15.115,0 30.229,-0.013 45.343,0.028 1.086,0.003 1.392,-0.287 1.299,-1.33 -0.119,-1.344 0.382,-3.093 -0.295,-3.933 -0.613,-0.76 -2.465,-0.466 -3.744,-0.754 -1.864,-0.42 -3.739,-0.844 -5.547,-1.454 -1.806,-0.61 -2.395,-1.607 -1.914,-3.434 1.051,-3.995 2.265,-7.947 3.412,-11.917 l 0.433,-1.407 c 0.38,-1.34 0.791,-2.672 1.125,-4.024 0.175,-0.709 0.514,-0.813 1.189,-0.696 1.966,0.34 3.942,0.632 5.922,0.883 6.495,0.823 12.995,1.614 19.489,2.445 C 0.614,3.364 1.045,3.623 1.115,3.864 1.606,5.57 2.021,7.299 2.46,9.021 L 2.44,9.01 c 0.062,0.076 0.124,0.153 0.186,0.229 0.178,0.57 0.355,1.14 0.533,1.71 1.672,5.655 3.356,11.307 5,16.97 0.204,0.703 0.439,1.033 1.258,1.023 3.997,-0.049 7.994,-0.041 11.99,-0.005 0.724,0.006 1.015,-0.212 1.241,-0.915 1.548,-4.817 3.157,-9.615 4.746,-14.419 0.201,-0.653 0.401,-1.307 0.603,-1.96 0.52,-1.589 1.068,-3.169 1.545,-4.771 0.192,-0.648 0.453,-0.834 1.166,-0.782 5.331,0.391 10.664,0.742 15.999,1.056 4.738,0.278 9.48,0.478 14.217,0.763 0.409,0.025 1.073,0.365 1.145,0.671 0.444,1.888 0.753,3.809 1.108,5.719 L 63.163,14.29 c 0.062,0.077 0.124,0.155 0.186,0.232 0.075,0.586 0.15,1.173 0.225,1.759 0.343,1.982 -0.594,3.277 -2.223,4.24 -2.328,1.377 -4.913,1.839 -7.534,2.189 -1.306,0.175 -2.624,0.28 -3.921,0.508 -0.271,0.048 -0.66,0.487 -0.675,0.763 -0.071,1.316 0.016,2.64 -0.05,3.956 -0.04,0.801 0.222,1.01 1.004,1 3.479,-0.04 6.959,-0.017 10.439,-0.017 8.238,0 16.477,-0.015 24.716,0.022 0.895,0.004 1.176,-0.209 1.121,-1.118 -0.083,-1.395 0.467,-3.119 -0.174,-4.102 -0.569,-0.873 -2.407,-0.889 -3.66,-1.35 -2.64,-0.97 -5.16,-2.165 -7.144,-4.239 -0.407,-0.425 -0.717,-0.942 -1.072,-1.416 l -0.92,-1.689 C 72.768,13.262 72.02,11.509 71.353,9.726 70.816,8.292 70.858,8.313 72.343,8.359 c 8.964,0.276 17.928,0.554 26.894,0.786 4.187,0.109 8.377,0.112 12.565,0.192 0.276,0.006 0.787,0.266 0.785,0.401 -0.029,2.103 -0.124,4.205 -0.204,6.307 -0.161,0.544 -0.323,1.088 -0.484,1.632"
       style="fill:#ffffff;fill-opacity:1;fill-rule:nonzero;stroke:none"
       transform="matrix(1.3333333,0,0,-1.3333333,119.65787,42.320267)"
       clip-path="url(#clipPath2)" />
    <path
       id="path3"
       d="m 0,0 c 5.061,-1.613 10.153,-3.135 15.173,-4.867 4.415,-1.524 8.618,-3.561 12.532,-6.129 3.196,-2.096 5.931,-4.628 7.213,-8.39 0.046,-0.135 0.181,-0.239 0.273,-0.358 v -3.6 c -0.544,-0.982 -1.046,-1.989 -1.639,-2.941 -1.7,-2.727 -4.241,-4.537 -6.887,-6.228 -4.996,-3.194 -10.489,-5.313 -16.033,-7.275 -3.517,-1.244 -7.147,-2.168 -10.725,-3.236 l -2.891,-0.974 c -0.468,-0.058 -0.946,-0.076 -1.403,-0.179 -4.297,-0.968 -8.571,-2.041 -12.887,-2.905 -5.396,-1.08 -10.819,-2.026 -16.242,-2.963 -4.311,-0.745 -8.641,-1.393 -12.963,-2.077 -1.661,-0.262 -3.325,-0.503 -4.986,-0.754 -0.557,-0.019 -1.119,0.002 -1.671,-0.062 -6.017,-0.695 -12.037,-1.389 -18.051,-2.122 -1.189,-0.144 -2.359,-0.449 -3.538,-0.68 -0.964,0 -1.937,0.072 -2.894,-0.013 -3.11,-0.279 -6.212,-0.634 -9.321,-0.922 -2.171,-0.201 -4.347,-0.346 -6.522,-0.509 -4.276,-0.319 -8.55,-0.694 -12.83,-0.936 -5.407,-0.306 -10.82,-0.502 -16.231,-0.746 -0.512,-0.068 -1.022,-0.179 -1.536,-0.199 -6.64,-0.261 -13.281,-0.509 -19.921,-0.761 -1.312,-0.056 -2.623,-0.142 -3.934,-0.164 -6.89,-0.114 -13.78,-0.211 -20.671,-0.314 -8.244,0.001 -16.488,0.006 -24.732,-0.009 -0.453,0 -0.905,-0.17 -1.357,-0.261 -0.364,0.098 -0.726,0.275 -1.091,0.282 -5.552,0.112 -11.107,0.139 -16.657,0.312 -8.578,0.266 -17.157,0.574 -25.73,0.968 -5.782,0.265 -11.554,0.717 -17.332,1.057 -0.529,0.031 -1.07,-0.138 -1.605,-0.214 -0.429,0.147 -0.849,0.384 -1.288,0.424 -1.543,0.141 -3.094,0.194 -4.638,0.315 -3.682,0.29 -7.361,0.618 -11.044,0.894 -1.878,0.141 -3.761,0.204 -5.642,0.302 -1.25,0.169 -2.497,0.361 -3.751,0.5 -2.86,0.318 -5.722,0.619 -8.586,0.91 -2.634,0.267 -5.277,0.466 -7.906,0.78 -3.28,0.392 -6.547,0.889 -9.824,1.305 -1.794,0.227 -3.598,0.381 -5.398,0.568 -0.551,0.163 -1.093,0.386 -1.656,0.479 -5.726,0.942 -11.457,1.856 -17.183,2.794 -2.626,0.429 -5.247,0.895 -7.87,1.344 -3.074,0.707 -6.152,1.403 -9.223,2.126 -3.148,0.741 -6.313,1.428 -9.431,2.282 -6.435,1.763 -12.81,3.733 -18.939,6.397 -5.131,2.231 -10.142,4.693 -13.962,8.97 -3.317,3.715 -3.648,8.083 -0.535,12.193 2.301,3.038 5.456,4.927 8.664,6.706 5.978,3.314 12.409,5.546 18.957,7.445 2.984,0.866 5.972,1.712 8.959,2.567 0.153,-0.533 0.305,-1.066 0.459,-1.599 -0.693,-0.192 -1.384,-0.386 -2.077,-0.575 -8.291,-2.257 -16.502,-4.748 -24.199,-8.661 -3.402,-1.729 -6.62,-3.729 -9.155,-6.659 -2.563,-2.962 -2.854,-6.314 -0.583,-9.366 1.003,-1.348 2.263,-2.558 3.587,-3.603 3.581,-2.825 7.699,-4.704 11.886,-6.446 9.063,-3.771 18.52,-6.247 28.057,-8.394 6.806,-1.532 13.677,-2.799 20.552,-3.987 6.992,-1.209 14.018,-2.236 21.045,-3.228 4.316,-0.61 8.662,-1.013 12.996,-1.493 5.041,-0.558 10.081,-1.137 15.128,-1.636 4.62,-0.456 9.247,-0.854 13.876,-1.213 4.673,-0.363 9.351,-0.674 14.029,-0.959 4.224,-0.256 8.45,-0.47 12.677,-0.66 6.144,-0.276 12.288,-0.537 18.433,-0.759 5.07,-0.183 10.14,-0.344 15.212,-0.433 5.622,-0.099 11.246,-0.167 16.869,-0.142 11.987,0.054 23.974,0.16 35.961,0.277 5.065,0.049 10.129,0.148 15.192,0.292 2.445,0.07 4.885,0.318 7.33,0.445 4.917,0.255 9.836,0.462 14.753,0.728 3.829,0.207 7.656,0.456 11.483,0.717 4.429,0.303 8.858,0.615 13.283,0.969 3.477,0.278 6.947,0.611 10.419,0.945 3.941,0.38 7.883,0.743 11.817,1.193 5.977,0.684 11.956,1.371 17.917,2.181 5.802,0.788 11.605,1.612 17.37,2.637 7.592,1.35 15.188,2.734 22.71,4.424 9.684,2.176 19.256,4.81 28.393,8.781 4.742,2.061 9.414,4.307 12.986,8.199 2.946,3.211 3.356,6.144 1.142,9.482 -0.908,1.369 -2.154,2.58 -3.446,3.614 -4.446,3.56 -9.608,5.829 -14.914,7.727 C 9.232,-4.436 4.575,-3.044 -0.043,-1.545 -0.028,-1.03 -0.015,-0.515 0,0"
       style="fill:#ffffff;fill-opacity:1;fill-rule:nonzero;stroke:none"
       transform="matrix(1.3333333,0,0,-1.3333333,528.45467,42.0228)"
       clip-path="url(#clipPath4)" />
    <path
       id="path5"
       d="m 0,0 c -0.882,-0.078 -1.764,-0.155 -2.645,-0.232 0.016,0.051 0.038,0.101 0.044,0.154 0.003,0.024 -0.025,0.052 -0.039,0.078 z"
       style="fill:#ffffff;fill-opacity:1;fill-rule:nonzero;stroke:none"
       transform="matrix(1.3333333,0,0,-1.3333333,478.09667,0.1876)"
       clip-path="url(#clipPath6)" />
    <path
       id="path7"
       d="M 0,0 C 0.003,-0.077 0.006,-0.153 0.009,-0.229 -0.794,-0.153 -1.597,-0.077 -2.399,0 Z"
       style="fill:#ffffff;fill-opacity:1;fill-rule:nonzero;stroke:none"
       transform="matrix(1.3333333,0,0,-1.3333333,488.65653,0.1876)"
       clip-path="url(#clipPath8)" />
    <path
       id="path9"
       d="m 0,0 c -69.756,0 -139.513,0 -209.27,0.011 -0.475,0 -1.342,0.112 -1.361,0.258 -0.117,0.899 -0.052,1.824 -0.007,2.738 0.003,0.059 0.338,0.134 0.522,0.146 0.359,0.024 0.72,0.008 1.079,0.008 139.393,0 278.786,0 418.179,-0.008 0.534,0 1.506,-0.051 1.529,-0.198 0.144,-0.896 0.084,-1.827 0.051,-2.745 C 210.719,0.135 210.405,0.027 210.229,0.011 209.872,-0.021 209.509,0 209.15,0 Z"
       style="fill:#ffffff;fill-opacity:1;fill-rule:nonzero;stroke:none"
       transform="matrix(1.3333333,0,0,-1.3333333,286.7236,160.88147)"
       clip-path="url(#clipPath10)" />
    <path
       id="path11"
       d="M 0,0 2.892,0.974 C 4.006,0.226 5.108,-0.54 6.238,-1.263 6.71,-1.564 6.892,-1.825 6.62,-2.408 1.729,-12.925 -5.309,-21.332 -16.235,-26.028 c -6.782,-2.915 -13.883,-3.605 -21.13,-3.176 -8.818,0.522 -16.999,3.087 -24.359,8.074 -3.837,2.6 -7.13,5.776 -10.016,9.388 1.178,0.231 2.348,0.536 3.538,0.68 6.014,0.733 12.033,1.427 18.051,2.123 0.551,0.063 1.113,0.043 1.671,0.061 6.537,-9.294 15.654,-11.927 26.38,-9.959 6.551,1.201 11.734,4.929 15.901,9.968 C -3.908,-6.099 -2.052,-2.968 0,0"
       style="fill:#ffffff;fill-opacity:1;fill-rule:nonzero;stroke:none"
       transform="matrix(1.3333333,0,0,-1.3333333,524.4756,100.6868)"
       clip-path="url(#clipPath12)" />
    <path
       id="path13"
       d="m 0,0 c 6.641,0.251 13.281,0.5 19.922,0.76 0.514,0.021 1.023,0.132 1.535,0.2 C 21.15,0.663 20.875,0.32 20.531,0.074 12.908,-5.378 4.341,-8.511 -4.866,-9.78 c -4.689,-0.646 -9.461,-0.898 -14.198,-0.936 -14.386,-0.117 -28.773,-0.03 -43.159,-0.069 -1.055,-0.002 -1.451,0.242 -1.3,1.309 0.083,0.588 0.015,1.197 0.015,1.796 0,2.431 0.004,2.388 2.486,2.619 1.943,0.181 3.897,0.375 5.807,0.763 2.045,0.415 3.649,1.558 4.522,3.549 0.452,0.092 0.904,0.261 1.356,0.262 8.244,0.015 16.488,0.01 24.733,0.009 1.324,-1.848 3.211,-2.85 5.347,-3.35 3.687,-0.861 7.385,-0.612 11.057,0.167 2.989,0.635 5.804,1.683 8.2,3.661"
       style="fill:#ffffff;fill-opacity:1;fill-rule:nonzero;stroke:none"
       transform="matrix(1.3333333,0,0,-1.3333333,336.4808,121.7904)"
       clip-path="url(#clipPath14)" />
    <path
       id="path15"
       d="m 0,0 c 2.623,-0.449 5.243,-0.915 7.869,-1.344 5.727,-0.938 11.457,-1.852 17.183,-2.794 0.563,-0.093 1.105,-0.316 1.657,-0.479 -0.902,-3.139 -1.789,-6.283 -2.71,-9.417 -0.899,-3.06 -1.87,-6.1 -2.73,-9.171 -0.22,-0.786 -0.572,-0.973 -1.328,-0.966 -3.718,0.035 -7.438,0.049 -11.155,-0.009 -0.864,-0.013 -1.141,0.316 -1.379,1.066 C 4.959,-15.403 2.474,-7.703 0,0"
       style="fill:#ffffff;fill-opacity:1;fill-rule:nonzero;stroke:none"
       transform="matrix(1.3333333,0,0,-1.3333333,72.622,105.4284)"
       clip-path="url(#clipPath16)" />
    <path
       id="path17"
       d="m 0,0 c 0.6,4.875 1.193,9.75 1.802,14.624 0.182,1.465 0.463,2.921 0.586,4.391 0.07,0.844 0.403,1.083 1.198,1.036 0.997,-0.06 2.001,-0.052 2.998,-0.003 0.713,0.036 0.848,-0.153 0.71,-0.872 C 6.326,14.118 5.414,9.05 4.478,3.986 3.969,1.239 3.426,-1.502 2.949,-4.255 2.845,-4.859 2.626,-5.047 2.03,-5.029 0.712,-4.989 -0.612,-4.965 -1.927,-5.037 -2.644,-5.076 -2.898,-4.824 -3.013,-4.159 -3.928,1.149 -4.868,6.453 -5.78,11.645 -5.898,10.744 -6.018,9.653 -6.187,8.57 -6.854,4.312 -7.538,0.055 -8.211,-4.203 -8.292,-4.719 -8.434,-5.061 -9.1,-5.033 c -1.398,0.057 -2.801,-0.024 -4.197,0.05 -0.292,0.015 -0.757,0.412 -0.813,0.698 -1.537,7.834 -3.025,15.679 -4.543,23.517 -0.133,0.684 0.1,0.835 0.724,0.814 1.039,-0.036 2.086,-0.08 3.117,0.011 0.834,0.074 1.019,-0.339 1.11,-1.008 0.889,-6.487 1.787,-12.973 2.684,-19.46 0.016,-0.117 0.044,-0.233 0.068,-0.361 0.458,3.209 0.868,6.409 1.38,9.592 0.556,3.468 1.222,6.917 1.802,10.381 0.104,0.624 0.308,0.841 0.971,0.854 3.125,0.063 3.13,0.088 3.669,-2.992 0.852,-4.874 1.702,-9.748 2.532,-14.625 0.134,-0.786 0.158,-1.59 0.233,-2.385 0.032,-0.435 0.066,-0.871 0.098,-1.306 0.089,0.005 0.177,0.01 0.265,0.016 z"
       style="fill:#ffffff;fill-opacity:1;fill-rule:nonzero;stroke:none"
       transform="matrix(1.3333333,0,0,-1.3333333,49.275733,203.36987)"
       clip-path="url(#clipPath18)" />
    <path
       id="path19"
       d="m 0,0 c -0.773,-5.089 -1.552,-10.178 -2.311,-15.269 -0.085,-0.576 -0.302,-0.794 -0.915,-0.772 -1.357,0.05 -2.719,0.04 -4.078,0.004 -0.59,-0.016 -0.815,0.165 -0.929,0.771 -1.475,7.807 -2.978,15.608 -4.486,23.408 -0.131,0.678 0.058,0.94 0.777,0.897 0.877,-0.053 1.767,-0.087 2.636,0.007 1.038,0.113 1.436,-0.25 1.58,-1.294 0.732,-5.3 1.545,-10.589 2.306,-15.885 0.164,-1.137 0.231,-2.287 0.316,-3.159 1.032,6.196 2.115,12.617 3.158,19.046 0.148,0.912 0.378,1.35 1.467,1.308 2.65,-0.103 2.719,-0.018 3.16,-2.587 0.985,-5.74 1.897,-11.493 2.84,-17.24 v -1.514 c 0.139,10e-4 0.278,0.003 0.417,0.004 v 1.524 c 0.694,5.506 1.387,11.012 2.084,16.518 0.105,0.832 0.291,1.658 0.331,2.492 0.031,0.658 0.321,0.795 0.899,0.777 0.998,-0.033 2.006,-0.082 2.997,0.01 1,0.094 1.098,-0.274 0.93,-1.145 -1.031,-5.369 -2.013,-10.747 -3.013,-16.122 -0.424,-2.276 -0.892,-4.545 -1.253,-6.831 -0.118,-0.745 -0.34,-1.028 -1.118,-0.99 -1.316,0.062 -2.64,-0.025 -3.956,0.047 -0.309,0.017 -0.816,0.38 -0.862,0.647 C 2.099,-10.236 1.276,-5.115 0.442,0.004 0.423,0.435 0.403,0.865 0.383,1.295 0.255,1.293 0.127,1.292 0,1.29 Z"
       style="fill:#ffffff;fill-opacity:1;fill-rule:nonzero;stroke:none"
       transform="matrix(1.3333333,0,0,-1.3333333,143.4052,188.6908)"
       clip-path="url(#clipPath20)" />
    <path
       id="path21"
       d="m 0,0 c -0.151,2.535 -0.359,5.067 -0.44,7.605 -0.1,3.114 -0.077,6.231 -0.144,9.347 -0.014,0.674 0.27,0.813 0.854,0.778 C 1.531,17.657 2.795,17.618 4.058,17.565 4.092,16.374 4.154,15.184 4.156,13.993 4.166,7.278 4.143,0.563 4.182,-6.152 4.187,-7.083 3.966,-7.429 2.996,-7.347 c -1.225,0.104 -2.75,-0.361 -3.614,0.216 -0.863,0.577 -1.122,2.116 -1.556,3.268 -1.7,4.508 -3.364,9.03 -5.043,13.546 -0.05,0.133 -0.12,0.258 -0.335,0.352 0.151,-2.733 0.348,-5.463 0.438,-8.197 0.091,-2.795 0.058,-5.592 0.121,-8.388 0.014,-0.657 -0.223,-0.817 -0.83,-0.789 -1.236,0.057 -2.911,-0.417 -3.584,0.209 -0.641,0.597 -0.281,2.316 -0.283,3.542 -0.016,6.715 0.012,13.43 -0.031,20.145 -0.006,0.959 0.263,1.257 1.204,1.185 1.192,-0.092 2.671,0.36 3.511,-0.198 0.831,-0.551 1.069,-2.05 1.485,-3.164 C -3.776,9.714 -2.063,5.038 -0.338,0.365 -0.288,0.23 -0.237,0.097 -0.187,-0.036 -0.125,-0.024 -0.062,-0.012 0,0"
       style="fill:#ffffff;fill-opacity:1;fill-rule:nonzero;stroke:none"
       transform="matrix(1.3333333,0,0,-1.3333333,501.84147,200.28773)"
       clip-path="url(#clipPath22)" />
    <path
       id="path23"
       d="m 0,0 c -0.192,5.469 -0.368,10.938 -0.594,16.406 -0.036,0.882 0.282,1.103 1.091,1.038 1.184,-0.094 2.745,0.318 3.448,-0.291 0.587,-0.508 0.199,-2.173 0.2,-3.325 C 4.152,7.069 4.13,0.311 4.171,-6.447 4.177,-7.386 3.946,-7.716 2.983,-7.639 c -1.23,0.1 -2.762,-0.371 -3.628,0.208 -0.858,0.574 -1.079,2.133 -1.527,3.281 -1.823,4.669 -3.626,9.345 -5.392,13.904 0.092,-1.636 0.229,-3.451 0.29,-5.269 0.125,-3.713 0.198,-7.427 0.317,-11.141 0.021,-0.678 -0.102,-1.039 -0.905,-0.981 -0.994,0.072 -1.999,0.046 -2.997,0.007 -0.594,-0.023 -0.852,0.114 -0.851,0.781 0.021,7.839 0.006,15.677 0.044,23.515 0.001,0.256 0.452,0.512 0.698,0.763 0.02,0.02 0.077,0.002 0.117,0.003 3.944,0.164 3.998,0.184 5.39,-3.48 1.754,-4.618 3.409,-9.273 5.107,-13.912 0.09,-0.358 0.18,-0.716 0.271,-1.074 0.077,0.018 0.153,0.036 0.23,0.054 C 0.098,-0.653 0.049,-0.327 0,0"
       style="fill:#ffffff;fill-opacity:1;fill-rule:nonzero;stroke:none"
       transform="matrix(1.3333333,0,0,-1.3333333,328.51587,199.8984)"
       clip-path="url(#clipPath24)" />
    <path
       id="path25"
       d="m 0,0 v -6.944 c 0,-1.995 0,-1.995 2.044,-1.934 2.682,0.079 3.839,0.87 3.996,3.555 C 6.253,-1.68 6.204,1.996 5.982,5.64 5.843,7.929 4.692,8.672 2.363,8.675 1.924,8.675 1.479,8.627 1.047,8.685 0.229,8.793 -0.044,8.532 -0.022,7.663 0.041,5.11 0,2.555 0,0 m -4.726,-0.204 c 0,3.838 0.034,7.677 -0.024,11.514 -0.014,0.931 0.276,1.134 1.147,1.116 2.598,-0.054 5.197,-0.018 7.795,-0.02 3.592,-0.004 5.933,-1.7 6.533,-5.22 0.817,-4.79 0.807,-9.631 -0.174,-14.412 -0.225,-1.098 -0.801,-2.177 -1.425,-3.128 -0.954,-1.453 -2.419,-2.183 -4.173,-2.21 -2.957,-0.047 -5.914,-0.034 -8.871,-0.098 -0.766,-0.016 -0.82,0.342 -0.817,0.944 0.018,3.838 0.009,7.676 0.009,11.514"
       style="fill:#ffffff;fill-opacity:1;fill-rule:nonzero;stroke:none"
       transform="matrix(1.3333333,0,0,-1.3333333,228.4476,193.19667)"
       clip-path="url(#clipPath26)" />
    <path
       id="path27"
       d="m 0,0 c -0.109,1.737 -0.151,3.538 -0.35,5.321 -0.297,2.669 -1.252,3.47 -3.894,3.471 -0.319,0 -0.646,-0.042 -0.958,0.007 -0.963,0.15 -1.282,-0.158 -1.269,-1.199 0.063,-4.879 0.028,-9.76 0.028,-14.64 0,-1.75 0,-1.75 1.797,-1.723 0.121,0.002 0.241,10e-4 0.36,0.006 2.602,0.093 3.682,1.055 3.955,3.672 C -0.157,-3.419 -0.109,-1.74 0,0 m -11.175,-0.02 c 0,3.76 0.051,7.521 -0.032,11.279 -0.024,1.115 0.333,1.316 1.343,1.287 2.478,-0.07 4.959,-0.022 7.439,-0.023 C 1.444,12.522 3.769,10.79 4.348,7.005 5.051,2.406 5.046,-2.237 4.193,-6.836 4.028,-7.722 3.655,-8.597 3.236,-9.403 c -0.974,-1.872 -2.52,-2.991 -4.677,-3.038 -2.998,-0.066 -5.997,-0.037 -8.995,-0.103 -0.853,-0.019 -0.74,0.486 -0.74,1.005 0.002,3.84 10e-4,7.68 10e-4,11.519"
       style="fill:#ffffff;fill-opacity:1;fill-rule:nonzero;stroke:none"
       transform="matrix(1.3333333,0,0,-1.3333333,115.33947,193.35293)"
       clip-path="url(#clipPath28)" />
    <path
       id="path29"
       d="m 0,0 v -6.587 c 0,-2.367 0,-2.367 2.44,-2.246 2.184,0.108 3.466,0.962 3.574,3.074 C 6.209,-1.95 6.224,1.886 5.999,5.692 5.862,7.992 4.71,8.693 2.353,8.696 1.874,8.696 1.389,8.65 0.917,8.707 0.176,8.796 -0.03,8.522 -0.017,7.785 0.027,5.19 0,2.595 0,0 m -4.692,-0.063 c 0,3.838 0.025,7.677 -0.02,11.515 -0.01,0.806 0.232,1.004 1.004,0.992 2.797,-0.042 5.597,0.01 8.395,-0.024 2.953,-0.035 5.141,-1.669 5.884,-4.517 0.35,-1.34 0.582,-2.758 0.559,-4.136 -0.059,-3.545 -0.161,-7.101 -0.519,-10.624 -0.129,-1.27 -0.901,-2.547 -1.623,-3.664 -0.841,-1.298 -2.217,-1.963 -3.78,-2 -3.077,-0.072 -6.155,-0.054 -9.231,-0.117 -0.796,-0.016 -0.668,0.473 -0.668,0.94 -0.001,3.878 -0.001,7.757 -0.001,11.635"
       style="fill:#ffffff;fill-opacity:1;fill-rule:nonzero;stroke:none"
       transform="matrix(1.3333333,0,0,-1.3333333,268.34987,193.22533)"
       clip-path="url(#clipPath30)" />
    <path
       id="path31"
       d="m 0,0 c -0.034,0.001 -0.067,0.003 -0.101,0.005 0,1.16 0.003,2.319 -0.002,3.479 C -0.105,3.923 -0.068,4.374 -0.152,4.8 -0.357,5.848 -0.465,6.956 -0.897,7.911 -1.714,9.715 -4.416,10.09 -5.62,8.563 -6.154,7.883 -6.569,6.912 -6.592,6.061 -6.695,2.188 -6.641,-1.688 -6.637,-5.564 c 10e-4,-0.237 0.041,-0.479 0.095,-0.712 0.44,-1.891 1.497,-2.798 3.214,-2.769 1.661,0.028 2.71,0.879 2.965,2.836 C -0.095,-4.159 -0.109,-2.071 0,0 m 4.88,-0.132 c -0.2,-2.462 -0.257,-4.947 -0.636,-7.381 -0.472,-3.033 -2.395,-4.87 -5.459,-5.168 -1.764,-0.171 -3.617,-0.155 -5.346,0.191 -3.225,0.646 -4.485,3.15 -4.788,6.128 -0.461,4.538 -0.512,9.097 0.173,13.624 0.561,3.702 2.295,5.457 6.003,5.891 1.557,0.181 3.209,0.086 4.747,-0.227 C 2.425,12.347 3.94,10.29 4.41,6.822 4.496,6.189 4.608,5.553 4.619,4.917 4.648,3.239 4.629,1.561 4.629,-0.118 4.713,-0.123 4.796,-0.127 4.88,-0.132"
       style="fill:#ffffff;fill-opacity:1;fill-rule:nonzero;stroke:none"
       transform="matrix(1.3333333,0,0,-1.3333333,209.1604,193.61467)"
       clip-path="url(#clipPath32)" />
    <path
       id="path33"
       d="m 0,0 c 0.112,-2.112 0.106,-4.353 0.383,-6.559 0.251,-2.005 1.619,-2.933 3.525,-2.731 1.5,0.159 2.573,1.168 2.652,3.039 C 6.715,-2.512 6.67,1.235 6.68,4.98 6.681,5.489 6.564,6.01 6.433,6.508 5.936,8.395 4.925,9.251 3.302,9.204 1.708,9.157 0.585,8.206 0.354,6.321 0.103,4.271 0.111,2.191 0,0 m -4.871,0.107 c 0.184,2.09 0.259,4.735 0.682,7.323 0.554,3.392 2.296,5.018 5.744,5.43 1.596,0.19 3.283,0.107 4.866,-0.19 2.763,-0.519 4.243,-2.512 4.664,-5.151 0.809,-5.075 0.889,-10.189 0.045,-15.267 -0.51,-3.07 -2.251,-4.714 -5.327,-5.172 -1.444,-0.215 -2.965,-0.262 -4.408,-0.068 -3.539,0.476 -5.408,2.457 -5.825,6.094 -0.244,2.137 -0.278,4.299 -0.441,7.001"
       style="fill:#ffffff;fill-opacity:1;fill-rule:nonzero;stroke:none"
       transform="matrix(1.3333333,0,0,-1.3333333,172.0368,193.2604)"
       clip-path="url(#clipPath34)" />
    <path
       id="path35"
       d="m 0,0 c 1.881,-0.098 3.765,-0.161 5.643,-0.302 3.682,-0.276 7.361,-0.604 11.043,-0.894 1.544,-0.121 3.095,-0.175 4.638,-0.315 0.439,-0.04 0.859,-0.278 1.288,-0.425 -1.364,-4.327 -2.717,-8.658 -4.12,-12.973 -0.082,-0.256 -0.564,-0.539 -0.862,-0.542 -3.955,-0.036 -7.91,-0.042 -11.865,0.012 -0.311,0.004 -0.783,0.46 -0.898,0.8 C 3.216,-9.769 1.614,-4.882 0,0"
       style="fill:#ffffff;fill-opacity:1;fill-rule:nonzero;stroke:none"
       transform="matrix(1.3333333,0,0,-1.3333333,155.51987,117.00133)"
       clip-path="url(#clipPath36)" />
    <path
       id="path37"
       d="m 0,0 c -0.495,-2.747 -0.945,-5.453 -1.477,-8.143 -0.565,-2.861 -0.597,-2.81 2.296,-2.836 0.958,-0.008 1.039,0.343 0.877,1.12 -0.268,1.287 -0.48,2.586 -0.701,3.882 C 0.658,-3.992 0.333,-2.005 0,0 m -9.081,-21.039 c 0.987,4.135 1.948,8.164 2.911,12.193 0.955,3.996 1.926,7.989 2.852,11.992 0.139,0.599 0.317,0.9 0.997,0.881 1.597,-0.045 3.199,0.029 4.795,-0.049 0.325,-0.016 0.839,-0.434 0.912,-0.749 1.797,-7.73 3.54,-15.472 5.309,-23.209 0.171,-0.746 0.159,-1.17 -0.819,-1.08 -0.99,0.092 -1.999,0.064 -2.995,0.007 -0.773,-0.045 -1.129,0.162 -1.247,1.003 -0.224,1.579 -0.564,3.144 -0.937,4.695 -0.069,0.287 -0.493,0.557 -0.813,0.692 -0.272,0.115 -0.63,0.033 -0.95,0.022 -1.227,-0.04 -2.844,0.368 -3.573,-0.257 -0.744,-0.639 -0.639,-2.289 -0.864,-3.505 -0.488,-2.635 -0.476,-2.637 -3.092,-2.637 -0.794,10e-4 -1.589,10e-4 -2.486,10e-4"
       style="fill:#ffffff;fill-opacity:1;fill-rule:nonzero;stroke:none"
       transform="matrix(1.3333333,0,0,-1.3333333,373.37133,182.00587)"
       clip-path="url(#clipPath38)" />
    <path
       id="path39"
       d="m 0,0 c 0,-1.918 -0.09,-3.841 0.025,-5.751 0.12,-1.991 1.156,-3.179 2.638,-3.384 1.156,-0.16 2.042,0.265 2.334,1.375 0.302,1.145 0.412,2.349 0.51,3.536 0.046,0.553 0.161,0.779 0.75,0.759 1.118,-0.039 2.241,0.021 3.358,-0.037 0.23,-0.012 0.656,-0.391 0.632,-0.546 -0.266,-1.768 -0.413,-3.586 -0.963,-5.27 -0.738,-2.266 -2.589,-3.378 -4.914,-3.615 -0.949,-0.096 -1.926,-0.082 -2.875,0.024 -3.771,0.421 -5.879,2.327 -6.159,6.424 -0.295,4.325 -0.225,8.704 0.072,13.033 0.33,4.808 3.194,7.197 9.154,6.505 4.743,-0.55 5.573,-4.47 5.548,-7.772 C 10.108,5.118 9.826,4.857 9.637,4.815 9.294,4.739 8.921,4.792 8.562,4.792 7.642,4.794 6.497,4.47 5.87,4.9 5.34,5.265 5.423,6.505 5.211,7.353 4.979,8.276 4.632,9.168 3.549,9.32 2.406,9.481 1.266,9.19 0.777,8.104 0.301,7.045 0.039,5.84 -0.065,4.677 -0.204,3.129 -0.1,1.56 -0.1,0 Z"
       style="fill:#ffffff;fill-opacity:1;fill-rule:nonzero;stroke:none"
       transform="matrix(1.3333333,0,0,-1.3333333,533.44293,193.46027)"
       clip-path="url(#clipPath40)" />
    <path
       id="path41"
       d="m 0,0 c 0.14,2.19 0.218,4.387 0.432,6.571 0.517,5.275 3.497,7.262 8.862,6.807 3.569,-0.303 5.53,-2.513 5.821,-6.155 0.173,-2.164 0.173,-2.164 -1.938,-2.164 -0.04,0 -0.08,-0.001 -0.119,0 C 12.265,5.088 11.271,4.845 10.742,5.233 10.315,5.548 10.46,6.626 10.331,7.363 10.145,8.436 9.796,9.406 8.534,9.605 7.355,9.791 6.04,9.142 5.604,7.979 5.259,7.064 5.045,6.05 5.022,5.075 4.951,1.957 4.94,-1.165 5.027,-4.282 c 0.03,-1.05 0.286,-2.143 0.681,-3.118 0.467,-1.154 1.686,-1.682 2.874,-1.472 1.125,0.2 1.553,1.063 1.721,2.049 0.16,0.94 0.242,1.9 0.269,2.854 0.016,0.568 0.181,0.783 0.757,0.768 1.119,-0.03 2.241,0.029 3.358,-0.04 0.231,-0.015 0.65,-0.456 0.625,-0.655 -0.206,-1.618 -0.333,-3.273 -0.796,-4.823 -0.726,-2.426 -2.565,-3.696 -5.052,-3.946 -0.987,-0.099 -2.008,-0.087 -2.993,0.037 -3.983,0.503 -5.913,2.774 -6.201,7.351 -0.111,1.75 -0.018,3.513 -0.018,5.271 C 0.168,-0.004 0.084,-0.002 0,0"
       style="fill:#ffffff;fill-opacity:1;fill-rule:nonzero;stroke:none"
       transform="matrix(1.3333333,0,0,-1.3333333,423.70733,193.81573)"
       clip-path="url(#clipPath42)" />
    <path
       id="path43"
       d="m 0,0 c 0,3.797 0.034,7.595 -0.024,11.391 -0.015,0.931 0.277,1.126 1.147,1.115 3.676,-0.046 7.354,-0.034 11.031,-0.006 0.721,0.005 1.042,-0.103 1.037,-0.96 C 13.175,8.756 13.218,8.755 10.418,8.755 8.82,8.755 7.219,8.71 5.623,8.775 4.854,8.806 4.683,8.546 4.71,7.83 4.765,6.434 4.777,5.031 4.708,3.635 4.665,2.781 4.838,2.451 5.793,2.494 c 1.955,0.088 3.916,0.008 5.874,0.037 0.583,0.008 0.819,-0.106 0.838,-0.773 0.088,-2.97 0.114,-2.969 -2.859,-2.97 -1.359,0 -2.719,-0.036 -4.076,0.015 C 4.867,-1.171 4.702,-1.436 4.713,-2.089 4.75,-4.047 4.757,-6.007 4.71,-7.964 4.694,-8.672 4.951,-8.822 5.601,-8.813 c 2.237,0.035 4.477,-0.012 6.714,0.029 0.69,0.013 0.855,-0.214 0.867,-0.88 0.052,-2.901 0.074,-2.901 -2.787,-2.901 -3.118,0 -6.236,0.03 -9.353,-0.02 -0.852,-0.014 -1.07,0.242 -1.061,1.074 C 0.024,-7.674 0,-3.837 0,0"
       style="fill:#ffffff;fill-opacity:1;fill-rule:nonzero;stroke:none"
       transform="matrix(1.3333333,0,0,-1.3333333,289.66627,193.30467)"
       clip-path="url(#clipPath44)" />
    <path
       id="path45"
       d="m 0,0 c 0,3.196 -0.023,6.393 0.018,9.589 0.009,0.766 -0.173,1.051 -0.984,1.007 -1.274,-0.069 -2.557,-0.051 -3.833,0.012 -0.236,0.011 -0.633,0.392 -0.652,0.627 -0.265,3.074 -0.251,3.075 2.809,3.075 3.876,0 7.752,-0.036 11.627,0.024 0.975,0.015 1.181,-0.292 1.161,-1.203 -0.051,-2.552 -0.011,-2.553 -2.636,-2.553 -2.778,0 -2.778,0 -2.778,-2.766 0,-5.794 -0.02,-11.587 0.022,-17.381 0.007,-0.934 -0.22,-1.29 -1.186,-1.192 -0.83,0.085 -1.68,0.073 -2.513,0.003 -0.832,-0.07 -1.088,0.196 -1.075,1.049 C 0.03,-6.473 0,-3.236 0,0"
       style="fill:#ffffff;fill-opacity:1;fill-rule:nonzero;stroke:none"
       transform="matrix(1.3333333,0,0,-1.3333333,345.8792,195.7344)"
       clip-path="url(#clipPath46)" />
    <path
       id="path47"
       d="m 0,0 c 0.001,3.798 0.02,7.596 -0.016,11.393 -0.006,0.78 0.119,1.184 1.024,1.108 1.185,-0.099 2.807,0.361 3.45,-0.251 C 5.074,11.663 4.717,10.014 4.72,8.831 4.734,3.314 4.751,-2.203 4.702,-7.719 4.694,-8.642 4.959,-8.847 5.835,-8.821 c 2.196,0.064 4.396,-0.007 6.595,0.036 0.727,0.015 0.949,-0.185 0.957,-0.935 0.028,-2.846 0.057,-2.846 -2.749,-2.846 -3.199,0 -6.397,0.029 -9.594,-0.02 -0.85,-0.013 -1.072,0.237 -1.063,1.073 C 0.024,-7.676 0,-3.838 0,0"
       style="fill:#ffffff;fill-opacity:1;fill-rule:nonzero;stroke:none"
       transform="matrix(1.3333333,0,0,-1.3333333,449.986,193.30347)"
       clip-path="url(#clipPath48)" />
    <path
       id="path49"
       d="m 0,0 c 0,3.839 0.02,7.679 -0.017,11.518 -0.007,0.759 0.162,1.088 0.981,1.03 0.915,-0.065 1.843,-0.069 2.757,0.002 0.838,0.065 1.07,-0.206 1.064,-1.052 C 4.746,6.019 4.765,0.54 4.765,-4.939 c 0,-0.88 0.057,-1.764 -0.015,-2.638 -0.075,-0.897 0.15,-1.24 1.143,-1.202 2.196,0.085 4.399,-0.007 6.597,0.045 0.752,0.018 0.929,-0.211 0.934,-0.94 0.019,-2.845 0.047,-2.845 -2.729,-2.844 -3.2,0 -6.4,0.037 -9.598,-0.024 -0.921,-0.017 -1.129,0.262 -1.118,1.145 C 0.028,-7.599 0,-3.799 0,0"
       style="fill:#ffffff;fill-opacity:1;fill-rule:nonzero;stroke:none"
       transform="matrix(1.3333333,0,0,-1.3333333,77.186533,193.3672)"
       clip-path="url(#clipPath50)" />
    <path
       id="path51"
       d="m 0,0 c 0,3.835 0.018,7.67 -0.017,11.505 -0.005,0.712 0.143,1.013 0.915,0.955 0.914,-0.067 1.841,-0.072 2.754,10e-4 0.869,0.07 1.06,-0.269 1.056,-1.085 C 4.678,5.024 4.711,-1.328 4.669,-7.68 c -0.006,-0.934 0.232,-1.216 1.18,-1.185 2.195,0.073 4.394,0.002 6.59,0.036 0.658,0.011 0.888,-0.161 0.91,-0.858 0.089,-2.921 0.113,-2.921 -2.79,-2.921 -3.196,0.001 -6.392,0.027 -9.587,-0.018 -0.796,-0.012 -0.998,0.222 -0.991,1.001 C 0.021,-7.751 0,-3.875 0,0"
       style="fill:#ffffff;fill-opacity:1;fill-rule:nonzero;stroke:none"
       transform="matrix(1.3333333,0,0,-1.3333333,389.45467,193.248)"
       clip-path="url(#clipPath52)" />
    <path
       id="path53"
       d="m 0,0 c 0,3.795 0.018,7.59 -0.015,11.385 -0.006,0.769 0.098,1.193 1.014,1.116 C 2.185,12.402 3.8,12.865 4.45,12.254 5.066,11.675 4.716,10.024 4.719,8.844 4.733,2.093 4.705,-4.659 4.75,-11.409 c 0.006,-0.966 -0.269,-1.258 -1.202,-1.175 -0.872,0.078 -1.759,0.066 -2.633,0.002 -0.767,-0.057 -0.936,0.241 -0.93,0.957 C 0.017,-7.75 0,-3.875 0,0"
       style="fill:#ffffff;fill-opacity:1;fill-rule:nonzero;stroke:none"
       transform="matrix(1.3333333,0,0,-1.3333333,64.066,193.30213)"
       clip-path="url(#clipPath54)" />
    <path
       id="path55"
       d="M 0,0 C 0,3.795 0.02,7.59 -0.016,11.385 -0.023,12.168 0.108,12.566 1.009,12.49 2.231,12.386 3.85,12.833 4.573,12.207 5.178,11.683 4.761,9.957 4.762,8.763 4.769,2.011 4.746,-4.74 4.788,-11.491 c 0.006,-0.916 -0.244,-1.184 -1.131,-1.104 -0.872,0.079 -1.761,0.077 -2.634,0.001 -0.882,-0.077 -1.048,0.285 -1.041,1.089 C 0.021,-7.67 0,-3.835 0,0"
       style="fill:#ffffff;fill-opacity:1;fill-rule:nonzero;stroke:none"
       transform="matrix(1.3333333,0,0,-1.3333333,473.02627,193.2884)"
       clip-path="url(#clipPath56)" />
    <path
       id="path57"
       d="m 0,0 c 0,3.833 0.023,7.666 -0.02,11.497 -0.008,0.791 0.208,1.05 0.996,0.998 0.953,-0.064 1.916,-0.04 2.873,-0.007 0.588,0.021 0.856,-0.13 0.854,-0.792 C 4.685,3.872 4.686,-3.953 4.701,-11.777 4.702,-12.41 4.489,-12.612 3.87,-12.584 c -1.231,0.056 -2.891,-0.417 -3.574,0.206 -0.638,0.58 -0.278,2.298 -0.288,3.516 C -0.017,-5.908 0,-2.954 0,0"
       style="fill:#ffffff;fill-opacity:1;fill-rule:nonzero;stroke:none"
       transform="matrix(1.3333333,0,0,-1.3333333,514.25413,193.29427)"
       clip-path="url(#clipPath58)" />
    <path
       id="path59"
       d="M 0,0 C -0.564,0.531 -1.129,1.063 -1.693,1.594 0.656,1.519 3.008,1.486 5.354,1.356 8.422,1.187 11.485,0.961 14.548,0.725 21.509,0.19 28.47,-0.354 35.428,-0.918 c 3.022,-0.245 6.04,-0.546 9.06,-0.821 -0.391,-0.541 -0.783,-1.083 -1.175,-1.624 -0.43,0.077 -0.858,0.189 -1.292,0.227 -4.93,0.431 -9.856,0.905 -14.791,1.263 C 18.156,-1.212 9.077,-0.62 0,0"
       style="fill:#ffffff;fill-opacity:1;fill-rule:nonzero;stroke:none"
       transform="matrix(1.3333333,0,0,-1.3333333,369.87787,22.908267)"
       clip-path="url(#clipPath60)" />
    <path
       id="path61"
       d="m 0,0 c 0.161,-0.544 0.323,-1.087 0.484,-1.631 -5.949,-0.102 -11.899,-0.16 -17.845,-0.319 -7.02,-0.187 -14.038,-0.462 -21.056,-0.699 l 0.919,1.689 c 5.27,0.165 10.539,0.356 15.81,0.488 C -14.459,-0.292 -7.229,-0.155 0,0"
       style="fill:#ffffff;fill-opacity:1;fill-rule:nonzero;stroke:none"
       transform="matrix(1.3333333,0,0,-1.3333333,268.8564,18.751333)"
       clip-path="url(#clipPath62)" />
    <path
       id="path63"
       d="m 0,0 c -0.201,0.653 -0.402,1.307 -0.603,1.96 3.453,0.257 6.906,0.509 10.359,0.772 3.77,0.287 7.537,0.62 11.31,0.87 4.49,0.297 8.985,0.523 13.477,0.794 0.349,0.021 0.69,0.159 1.035,0.242 C 35.502,4.052 35.427,3.466 35.352,2.879 35.29,2.802 35.229,2.725 35.167,2.647 l 0.013,0.01 C 32.199,2.525 29.213,2.457 26.237,2.251 18.285,1.702 10.337,1.104 2.39,0.495 1.585,0.433 0.796,0.17 0,0"
       style="fill:#ffffff;fill-opacity:1;fill-rule:nonzero;stroke:none"
       transform="matrix(1.3333333,0,0,-1.3333333,156.98667,26.796933)"
       clip-path="url(#clipPath64)" />
    <path
       id="path65"
       d="M 0,0 -0.434,1.408 C 2.142,1.893 4.704,2.46 7.294,2.849 15.044,4.013 22.804,5.108 30.561,6.23 30.383,5.661 30.206,5.09 30.028,4.521 29.966,4.444 29.904,4.368 29.842,4.291 l 0.02,0.011 c -0.436,0 -0.879,0.052 -1.306,-0.009 C 22.725,3.472 16.893,2.66 11.068,1.792 7.372,1.241 3.689,0.601 0,0"
       style="fill:#ffffff;fill-opacity:1;fill-rule:nonzero;stroke:none"
       transform="matrix(1.3333333,0,0,-1.3333333,83.122,36.028667)"
       clip-path="url(#clipPath66)" />
    <path
       id="path67"
       d="m 0,0 v -1.524 c -0.139,-10e-4 -0.278,-0.003 -0.417,-0.004 v 1.514 C -0.278,-0.009 -0.139,-0.004 0,0"
       style="fill:#ffffff;fill-opacity:1;fill-rule:nonzero;stroke:none"
       transform="matrix(1.3333333,0,0,-1.3333333,151.32253,203.02547)"
       clip-path="url(#clipPath68)" />
    <path
       id="path69"
       d="m 0,0 v 1.29 c 0.127,0.002 0.255,0.003 0.383,0.005 0.02,-0.43 0.04,-0.86 0.059,-1.291 z"
       style="fill:#ffffff;fill-opacity:1;fill-rule:nonzero;stroke:none"
       transform="matrix(1.3333333,0,0,-1.3333333,143.4052,188.6908)"
       clip-path="url(#clipPath70)" />
    <path
       id="path71"
       d="m 0,0 v -1.237 c -0.088,-0.006 -0.176,-0.011 -0.265,-0.016 -0.032,0.435 -0.066,0.871 -0.098,1.306 z"
       style="fill:#ffffff;fill-opacity:1;fill-rule:nonzero;stroke:none"
       transform="matrix(1.3333333,0,0,-1.3333333,49.275733,203.36987)"
       clip-path="url(#clipPath72)" />
    <path
       id="path73"
       d="M 0,0 C 0.049,-0.327 0.098,-0.653 0.147,-0.98 0.07,-0.998 -0.006,-1.016 -0.083,-1.034 -0.174,-0.676 -0.264,-0.318 -0.354,0.04 Z"
       style="fill:#ffffff;fill-opacity:1;fill-rule:nonzero;stroke:none"
       transform="matrix(1.3333333,0,0,-1.3333333,328.51587,199.8984)"
       clip-path="url(#clipPath74)" />
    <path
       id="path75"
       d="m 0,0 c -3.701,0.782 -7.385,1.656 -11.105,2.327 -7.874,1.419 -15.762,2.76 -23.654,4.073 -3.298,0.549 -6.62,0.952 -9.933,1.404 -0.471,0.065 -0.954,0.034 -1.432,0.047 0.251,0.57 0.501,1.139 0.752,1.709 6.261,-0.946 12.543,-1.771 18.777,-2.867 C -18.017,5.185 -9.476,3.472 -0.918,1.848 -0.841,1.833 -0.759,1.845 -0.679,1.845 -0.452,1.23 -0.227,0.615 0,0"
       style="fill:#ffffff;fill-opacity:1;fill-rule:nonzero;stroke:none"
       transform="matrix(1.3333333,0,0,-1.3333333,516.88053,41.060533)"
       clip-path="url(#clipPath76)" />
    <path
       id="path77"
       d="m 0,0 c 4.226,-0.035 8.451,-0.033 12.675,-0.114 3.899,-0.075 7.796,-0.243 11.694,-0.354 0.254,-0.008 0.512,0.115 0.768,0.177 0.674,-0.588 1.346,-1.176 2.02,-1.763 -2.539,0.034 -5.078,0.063 -7.617,0.103 -6.287,0.098 -12.573,0.203 -18.86,0.3 C 0.444,-1.648 0.208,-1.701 -0.028,-1.728 -0.019,-1.152 -0.009,-0.576 0,0"
       style="fill:#ffffff;fill-opacity:1;fill-rule:nonzero;stroke:none"
       transform="matrix(1.3333333,0,0,-1.3333333,300.874,18.700533)"
       clip-path="url(#clipPath78)" />
  </g>
</svg>
