<svg xmlns="http://www.w3.org/2000/svg" viewBox="0 0 32 32" role="img" aria-label="Able Family Dental">
  <rect width="32" height="32" rx="6" fill="#008080"/>
  <path fill="#fff" d="M16 5c-3.8 0-7 3-7 6.8 0 2.2.9 4.2 2.4 5.7-.3 1.5-.9 3.1-1.6 4.5-.2.4 0 .9.4 1.1.5.2 1 .1 1.3-.3.8-1.1 1.5-2.3 2-3.6.5 1.3 1.2 2.5 2 3.6.3.4.8.5 1.3.3.4-.2.6-.7.4-1.1-.7-1.4-1.3-3-1.6-4.5 1.5-1.5 2.4-3.5 2.4-5.7C23 8 19.8 5 16 5zm0 2.2c2.6 0 4.8 2 4.8 4.6 0 1.6-.8 3-2.1 3.9-.4.3-.5.8-.4 1.2.2.8.5 1.7.9 2.5-.9-.9-1.6-2-2.1-3.2-.5 1.2-1.2 2.3-2.1 3.2.4-.8.7-1.7.9-2.5.1-.4 0-.9-.4-1.2-1.3-.9-2.1-2.3-2.1-3.9 0-2.6 2.2-4.6 4.8-4.6z"/>
</svg>