<?xml version="1.0" encoding="UTF-8"?>
<svg version="1.1" xmlns="http://www.w3.org/2000/svg" width="200" height="200">
<path d="M0 0 C1.984375 1.4375 1.984375 1.4375 4.359375 4.125 C7.39134627 6.79602231 8.74745557 6.90393853 12.671875 7.4375 C22.35230747 8.75593927 29.05844851 12.40306703 35.29296875 19.97265625 C43.84914516 32.44135674 43.42641777 49.10937714 40.859375 63.5 C39.24165207 71.743503 36.71652909 81.37652102 31.69458008 88.18652344 C27.11012643 94.41020717 27.36320599 100.15133767 27.421875 107.6875 C27.1038104 129.04921863 22.71552571 147.7186718 12.921875 166.6875 C12.44766113 167.61816284 12.44766113 167.61816284 11.96386719 168.56762695 C9.86001144 172.45760228 7.67490269 175.00046907 3.984375 177.4375 C-0.69444713 178.60720553 -3.74128437 178.75785634 -8.015625 176.4375 C-10.61996543 173.83315957 -10.33604825 172.56753546 -10.5078125 168.93359375 C-10.5706543 167.80864502 -10.63349609 166.68369629 -10.69824219 165.5246582 C-10.76172852 164.320271 -10.82521484 163.11588379 -10.890625 161.875 C-11.81239461 147.55088835 -14.24098826 134.91388312 -19.078125 121.4375 C-19.32336914 120.74760986 -19.56861328 120.05771973 -19.82128906 119.34692383 C-20.5998857 117.22384832 -20.5998857 117.22384832 -22.015625 114.4375 C-23.500625 113.9425 -23.500625 113.9425 -25.015625 113.4375 C-33.17118489 130.11628847 -36.17402128 146.33506104 -37.05078125 164.73632812 C-37.11910156 165.80173828 -37.18742187 166.86714844 -37.2578125 167.96484375 C-37.3079248 168.92124756 -37.35803711 169.87765137 -37.40966797 170.86303711 C-38.17461947 174.11300228 -39.44176578 175.36747529 -42.015625 177.4375 C-44.41796875 177.96875 -44.41796875 177.96875 -46.953125 177.9375 C-47.78714844 177.9478125 -48.62117188 177.958125 -49.48046875 177.96875 C-53.46335272 177.13412408 -55.83096727 175.13342039 -58.15551758 171.80566406 C-59.33334548 169.84149111 -60.40631702 167.84953174 -61.453125 165.8125 C-61.84000488 165.06613281 -62.22688477 164.31976563 -62.62548828 163.55078125 C-72.2367784 144.41604829 -75.78299142 125.26042015 -74.64208984 103.96508789 C-74.38094986 95.80833869 -76.04213036 91.77123206 -81.015625 85.4375 C-90.05862039 67.73297553 -93.09922532 46.09331612 -87.23828125 26.890625 C-83.74233286 18.1882642 -77.45842187 11.50897961 -69.015625 7.4375 C-60.9357051 4.20100547 -51.27656575 4.18770602 -43.015625 6.875 C-40.97669078 7.52511223 -40.97669078 7.52511223 -39.015625 7.4375 C-36.95076593 5.94772229 -35.46392942 4.25293259 -33.796875 2.33203125 C-25.34515842 -6.65718485 -9.97653001 -5.73813491 0 0 Z M-33.58203125 8.71875 C-35.33588884 10.44844339 -35.33588884 10.44844339 -35.015625 13.4375 C-33.08275601 15.37036899 -29.48104343 14.75681311 -26.828125 14.875 C-21.78808059 15.10746525 -17.77543771 15.84405695 -13.015625 17.4375 C-10.66939647 16.81774152 -8.33671169 16.14562814 -6.015625 15.4375 C-0.22350178 14.88194999 4.41011422 15.78586718 9.984375 17.4375 C12.31653344 17.51153678 14.65298288 17.53265886 16.984375 17.4375 C17.479375 19.4175 17.479375 19.4175 17.984375 21.4375 C12.41972323 21.66008607 8.29308193 21.20706898 2.984375 19.4375 C-0.03239267 19.17071102 -3.01011744 19.02875097 -6.015625 19.4375 C-6.675625 20.0975 -7.335625 20.7575 -8.015625 21.4375 C-7.025625 22.5821875 -7.025625 22.5821875 -6.015625 23.75 C-4.015625 26.4375 -4.015625 26.4375 -4.015625 29.4375 C-6.40060506 28.09594872 -8.65194403 26.74605286 -10.7421875 24.97265625 C-16.06542553 20.4928119 -21.0066235 18.54443345 -28.015625 18.4375 C-32.33603229 19.19493466 -36.2414894 20.51271952 -40.12890625 22.5390625 C-42.51575804 23.67565859 -44.40559562 23.58250163 -47.015625 23.4375 C-47.510625 21.4575 -47.510625 21.4575 -48.015625 19.4375 C-46.345 19.2209375 -46.345 19.2209375 -44.640625 19 C-41.19420453 18.65377965 -41.19420453 18.65377965 -39.015625 17.4375 C-39.95889798 14.39806485 -41.01195016 13.43989292 -43.703125 11.6875 C-50.56665241 9.10290809 -58.99287352 9.28662011 -65.96484375 11.28125 C-73.87213274 14.86556476 -79.01498003 20.56723431 -82.390625 28.5 C-88.56063892 45.92897094 -84.72382652 66.09005015 -77.015625 82.4375 C-74.30244507 87.21353581 -71.29825769 91.91962315 -67.015625 95.4375 C-66.355625 95.4375 -65.695625 95.4375 -65.015625 95.4375 C-65.345625 96.7575 -65.675625 98.0775 -66.015625 99.4375 C-67.335625 99.4375 -68.655625 99.4375 -70.015625 99.4375 C-70.66729991 124.86284711 -67.51434027 150.25059645 -52.015625 171.4375 C-49.38970488 173.19637102 -48.50270822 173.48281007 -45.328125 173.1875 C-44.1834375 172.81625 -44.1834375 172.81625 -43.015625 172.4375 C-41.881462 170.16917401 -41.87787141 168.87123706 -41.83984375 166.3515625 C-41.43423152 149.99658565 -39.31494521 134.7609586 -33.578125 119.375 C-33.30210449 118.61872314 -33.02608398 117.86244629 -32.74169922 117.08325195 C-31.41618497 113.76870235 -30.30131077 111.66375961 -27.48046875 109.4296875 C-25.015625 108.4375 -25.015625 108.4375 -22.015625 108.625 C-12.93880107 114.10891446 -11.08172698 129.46313214 -8.57836914 139.09619141 C-6.71139069 146.86379371 -6.7095931 154.74942995 -6.49804688 162.6953125 C-6.46388672 163.64664063 -6.42972656 164.59796875 -6.39453125 165.578125 C-6.3694751 166.43954102 -6.34441895 167.30095703 -6.31860352 168.18847656 C-6.14519627 170.71834466 -6.14519627 170.71834466 -4.015625 173.4375 C-1.20048522 173.4938028 0.41566682 173.45146376 2.984375 172.4375 C5.62892729 169.81288152 7.24615102 166.71049172 8.984375 163.4375 C9.56316406 162.35984375 10.14195312 161.2821875 10.73828125 160.171875 C17.28758682 147.36516969 22.15986362 132.07838283 22.08203125 117.6015625 C22.07880859 116.53808594 22.07558594 115.47460938 22.07226562 114.37890625 C22.06388672 113.28449219 22.05550781 112.19007812 22.046875 111.0625 C22.04236328 109.94488281 22.03785156 108.82726562 22.03320312 107.67578125 C22.02146744 104.92963196 22.00504863 102.18359414 21.984375 99.4375 C20.664375 99.4375 19.344375 99.4375 17.984375 99.4375 C18.46140058 95.1442698 21.02929321 93.39258179 23.984375 90.4375 C35.95385825 74.58901755 38.41093581 54.83162742 36.73828125 35.609375 C35.43759176 27.93932974 30.98701603 21.72370152 24.921875 17 C18.31396517 12.49517259 11.35928613 10.65266784 3.3359375 11.82421875 C1.19507777 12.30034055 -0.91088407 12.82234625 -3.015625 13.4375 C-3.015625 12.1175 -3.015625 10.7975 -3.015625 9.4375 C-2.025625 9.1075 -1.035625 8.7775 -0.015625 8.4375 C-1.14877438 5.03805187 -1.48109063 4.84180899 -4.515625 3.3125 C-15.67716518 -1.84051053 -24.65009925 0.77925489 -33.58203125 8.71875 Z " fill="#000000" transform="translate(124.015625,13.5625)"/>
</svg>
