<svg xmlns="http://www.w3.org/2000/svg" xmlns:xlink="http://www.w3.org/1999/xlink" width="100" zoomAndPan="magnify" viewBox="0 0 75 74.999997" height="100" preserveAspectRatio="xMidYMid meet" version="1.0"><defs><clipPath id="ba713325d9"><path d="M 17.28125 40 L 57.78125 40 L 57.78125 53.554688 L 17.28125 53.554688 Z M 17.28125 40 " clip-rule="nonzero"/></clipPath><clipPath id="f2184f7756"><path d="M 35 16.804688 L 57.78125 16.804688 L 57.78125 26 L 35 26 Z M 35 16.804688 " clip-rule="nonzero"/></clipPath></defs><rect x="-7.5" width="90" fill="#ffffff" y="-7.5" height="89.999996" fill-opacity="1"/><rect x="-7.5" width="90" fill="#ffffff" y="-7.5" height="89.999996" fill-opacity="1"/><g clip-path="url(#ba713325d9)"><path fill="#000000" d="M 40.445312 41.132812 L 34.648438 41.132812 C 34.402344 41.132812 34.203125 40.933594 34.203125 40.691406 C 34.203125 40.449219 34.402344 40.25 34.648438 40.25 L 40.445312 40.25 C 40.6875 40.25 40.886719 40.449219 40.886719 40.691406 C 40.886719 40.933594 40.6875 41.132812 40.445312 41.132812 Z M 55.425781 53.570312 L 19.664062 53.570312 C 18.359375 53.570312 17.296875 52.511719 17.296875 51.210938 L 17.296875 42.609375 C 17.296875 41.308594 18.359375 40.25 19.664062 40.25 L 22.207031 40.25 C 22.449219 40.25 22.648438 40.449219 22.648438 40.691406 C 22.648438 40.933594 22.449219 41.132812 22.207031 41.132812 L 19.664062 41.132812 C 18.847656 41.132812 18.179688 41.796875 18.179688 42.613281 L 18.179688 51.210938 C 18.179688 52.027344 18.847656 52.691406 19.664062 52.691406 L 55.425781 52.691406 C 56.246094 52.691406 56.910156 52.027344 56.910156 51.210938 L 56.910156 42.609375 C 56.910156 41.796875 56.246094 41.132812 55.425781 41.132812 L 52.882812 41.132812 C 52.640625 41.132812 52.441406 40.933594 52.441406 40.691406 C 52.441406 40.449219 52.640625 40.25 52.882812 40.25 L 55.425781 40.25 C 56.730469 40.25 57.792969 41.308594 57.792969 42.613281 L 57.792969 51.210938 C 57.792969 52.511719 56.730469 53.570312 55.425781 53.570312 Z M 55.425781 53.570312 " fill-opacity="1" fill-rule="evenodd"/></g><path fill="#000000" d="M 27.261719 42.726562 Z M 23.949219 30.4375 C 22.835938 30.4375 22.132812 31.027344 21.726562 31.570312 C 20.640625 33.007812 20.546875 35.425781 21.5 37.449219 C 22.652344 39.902344 22.984375 41.789062 23.167969 44.210938 C 23.277344 45.65625 23.5 46.675781 23.871094 47.417969 C 24.207031 48.09375 24.972656 48.820312 25.300781 48.785156 C 25.40625 48.773438 25.496094 48.5625 25.542969 48.367188 C 25.667969 47.855469 25.796875 47.121094 25.933594 46.347656 C 26.195312 44.832031 26.46875 43.269531 26.855469 42.546875 C 27.140625 41.78125 27.738281 41.3125 28.425781 41.3125 C 29.113281 41.3125 29.710938 41.78125 29.996094 42.546875 C 30.382812 43.269531 30.65625 44.832031 30.921875 46.347656 C 31.054688 47.121094 31.183594 47.855469 31.3125 48.367188 C 31.359375 48.5625 31.449219 48.773438 31.554688 48.785156 C 31.882812 48.824219 32.644531 48.09375 32.980469 47.417969 C 33.351562 46.675781 33.574219 45.65625 33.683594 44.210938 C 33.867188 41.789062 34.199219 39.902344 35.355469 37.449219 C 36.304688 35.425781 36.210938 33.007812 35.125 31.566406 C 34.65625 30.945312 33.792969 30.25 32.355469 30.480469 C 31.941406 30.546875 31.222656 30.773438 30.527344 30.988281 C 29.46875 31.320312 28.800781 31.519531 28.425781 31.519531 C 28.054688 31.519531 27.382812 31.320312 26.328125 30.988281 C 25.632812 30.773438 24.910156 30.546875 24.496094 30.480469 C 24.304688 30.449219 24.121094 30.4375 23.949219 30.4375 Z M 31.570312 49.667969 C 31.53125 49.667969 31.492188 49.667969 31.457031 49.664062 C 31.113281 49.625 30.65625 49.40625 30.453125 48.578125 C 30.316406 48.039062 30.1875 47.289062 30.050781 46.496094 C 29.816406 45.171875 29.53125 43.519531 29.207031 42.941406 C 29.195312 42.921875 29.183594 42.898438 29.175781 42.875 C 29.023438 42.449219 28.742188 42.191406 28.425781 42.191406 C 28.109375 42.191406 27.832031 42.449219 27.675781 42.875 C 27.667969 42.898438 27.660156 42.921875 27.648438 42.941406 C 27.324219 43.519531 27.035156 45.171875 26.804688 46.496094 C 26.667969 47.289062 26.535156 48.039062 26.402344 48.578125 C 26.195312 49.40625 25.742188 49.625 25.394531 49.664062 C 24.496094 49.761719 23.480469 48.617188 23.078125 47.8125 C 22.65625 46.964844 22.40625 45.84375 22.285156 44.277344 C 22.109375 41.957031 21.792969 40.15625 20.699219 37.824219 C 19.613281 35.515625 19.746094 32.726562 21.019531 31.039062 C 21.894531 29.882812 23.175781 29.375 24.636719 29.609375 C 25.113281 29.6875 25.863281 29.921875 26.589844 30.148438 C 27.289062 30.367188 28.160156 30.636719 28.425781 30.636719 C 28.691406 30.636719 29.5625 30.367188 30.261719 30.148438 C 30.988281 29.921875 31.738281 29.6875 32.21875 29.609375 C 33.675781 29.375 34.960938 29.882812 35.832031 31.039062 C 37.105469 32.726562 37.238281 35.515625 36.15625 37.824219 C 35.058594 40.15625 34.742188 41.957031 34.566406 44.277344 C 34.449219 45.84375 34.195312 46.964844 33.773438 47.8125 C 33.390625 48.582031 32.441406 49.667969 31.570312 49.667969 Z M 31.570312 49.667969 " fill-opacity="1" fill-rule="evenodd"/><path fill="#000000" d="M 45.5 42.726562 Z M 48.234375 42.546875 C 48.621094 43.269531 48.894531 44.832031 49.15625 46.347656 C 49.292969 47.121094 49.421875 47.855469 49.546875 48.367188 C 49.597656 48.5625 49.6875 48.773438 49.789062 48.785156 C 50.117188 48.824219 50.882812 48.09375 51.21875 47.417969 C 51.589844 46.675781 51.8125 45.65625 51.921875 44.210938 C 52.105469 41.785156 52.4375 39.902344 53.589844 37.449219 C 54.542969 35.425781 54.449219 33.007812 53.363281 31.566406 C 52.894531 30.945312 52.03125 30.25 50.59375 30.480469 C 50.179688 30.546875 49.460938 30.773438 48.761719 30.988281 C 47.707031 31.320312 47.035156 31.519531 46.664062 31.519531 C 46.289062 31.519531 45.621094 31.320312 44.5625 30.988281 C 43.867188 30.773438 43.148438 30.546875 42.734375 30.480469 C 41.296875 30.25 40.433594 30.945312 39.964844 31.566406 C 38.878906 33.007812 38.785156 35.425781 39.734375 37.449219 C 40.890625 39.902344 41.222656 41.789062 41.40625 44.210938 C 41.515625 45.660156 41.738281 46.675781 42.109375 47.417969 C 42.445312 48.09375 43.207031 48.820312 43.535156 48.785156 C 43.640625 48.773438 43.730469 48.5625 43.78125 48.367188 C 43.90625 47.855469 44.035156 47.121094 44.171875 46.347656 C 44.433594 44.832031 44.707031 43.269531 45.09375 42.546875 C 45.378906 41.78125 45.976562 41.3125 46.664062 41.3125 C 47.351562 41.3125 47.949219 41.78125 48.234375 42.546875 Z M 49.804688 49.667969 C 49.769531 49.667969 49.730469 49.667969 49.695312 49.664062 C 49.351562 49.625 48.894531 49.40625 48.6875 48.578125 C 48.554688 48.039062 48.425781 47.289062 48.285156 46.496094 C 48.054688 45.171875 47.765625 43.519531 47.441406 42.941406 C 47.429688 42.921875 47.421875 42.898438 47.414062 42.875 C 47.261719 42.449219 46.980469 42.191406 46.664062 42.191406 C 46.347656 42.191406 46.066406 42.449219 45.914062 42.875 C 45.90625 42.898438 45.894531 42.921875 45.882812 42.941406 C 45.558594 43.519531 45.269531 45.171875 45.039062 46.496094 C 44.902344 47.289062 44.773438 48.039062 44.636719 48.578125 C 44.433594 49.40625 43.976562 49.625 43.632812 49.664062 C 42.730469 49.761719 41.71875 48.617188 41.316406 47.8125 C 40.894531 46.964844 40.640625 45.84375 40.523438 44.277344 C 40.347656 41.957031 40.03125 40.15625 38.9375 37.824219 C 37.851562 35.515625 37.984375 32.726562 39.257812 31.039062 C 40.128906 29.882812 41.414062 29.375 42.875 29.609375 C 43.351562 29.6875 44.101562 29.921875 44.828125 30.148438 C 45.527344 30.367188 46.398438 30.636719 46.664062 30.636719 C 46.929688 30.636719 47.796875 30.367188 48.5 30.148438 C 49.226562 29.921875 49.976562 29.6875 50.453125 29.609375 C 51.914062 29.375 53.199219 29.882812 54.070312 31.039062 C 55.34375 32.726562 55.476562 35.515625 54.390625 37.824219 C 53.296875 40.15625 52.980469 41.957031 52.804688 44.277344 C 52.683594 45.84375 52.433594 46.964844 52.011719 47.8125 C 51.625 48.582031 50.679688 49.667969 49.804688 49.667969 Z M 49.804688 49.667969 " fill-opacity="1" fill-rule="evenodd"/><g clip-path="url(#f2184f7756)"><path fill="#000000" d="M 36.324219 19.046875 C 36.078125 19.066406 35.894531 19.261719 35.894531 19.507812 L 35.894531 22.527344 C 35.894531 22.773438 36.078125 22.972656 36.324219 22.988281 L 55.53125 24.339844 C 55.894531 24.367188 56.207031 24.238281 56.476562 23.945312 C 56.765625 23.640625 56.910156 23.253906 56.910156 22.796875 L 56.910156 19.238281 C 56.910156 18.785156 56.765625 18.398438 56.476562 18.089844 C 56.207031 17.800781 55.894531 17.667969 55.53125 17.695312 Z M 55.621094 25.226562 C 55.570312 25.226562 55.519531 25.226562 55.46875 25.222656 L 36.261719 23.871094 C 35.558594 23.820312 35.011719 23.230469 35.011719 22.527344 L 35.011719 19.507812 C 35.011719 18.804688 35.558594 18.21875 36.261719 18.167969 L 55.46875 16.816406 C 56.101562 16.769531 56.671875 17.003906 57.125 17.492188 C 57.5625 17.957031 57.792969 18.5625 57.792969 19.238281 L 57.792969 22.796875 C 57.792969 23.472656 57.5625 24.078125 57.125 24.546875 C 56.707031 24.992188 56.191406 25.226562 55.621094 25.226562 Z M 55.621094 25.226562 " fill-opacity="1" fill-rule="evenodd"/></g><path fill="#000000" d="M 35.453125 22.96875 L 30.898438 22.96875 C 30.65625 22.96875 30.457031 22.769531 30.457031 22.527344 L 30.457031 19.507812 C 30.457031 19.265625 30.65625 19.066406 30.898438 19.066406 L 35.453125 19.066406 C 35.695312 19.066406 35.894531 19.265625 35.894531 19.507812 C 35.894531 19.753906 35.695312 19.949219 35.453125 19.949219 L 31.34375 19.949219 L 31.34375 22.085938 L 35.453125 22.085938 C 35.695312 22.085938 35.894531 22.285156 35.894531 22.527344 C 35.894531 22.769531 35.695312 22.96875 35.453125 22.96875 Z M 35.453125 22.96875 " fill-opacity="1" fill-rule="evenodd"/><path fill="#000000" d="M 27.367188 18.351562 C 27.152344 18.351562 26.980469 18.527344 26.980469 18.738281 L 26.980469 24.984375 C 26.980469 25.199219 27.152344 25.371094 27.367188 25.371094 L 30.070312 25.371094 C 30.285156 25.371094 30.457031 25.199219 30.457031 24.984375 L 30.457031 18.738281 C 30.457031 18.527344 30.285156 18.351562 30.070312 18.351562 Z M 30.070312 26.253906 L 27.367188 26.253906 C 26.667969 26.253906 26.097656 25.683594 26.097656 24.984375 L 26.097656 18.738281 C 26.097656 18.039062 26.667969 17.46875 27.367188 17.46875 L 30.070312 17.46875 C 30.773438 17.46875 31.34375 18.039062 31.34375 18.738281 L 31.34375 24.984375 C 31.34375 25.683594 30.773438 26.253906 30.070312 26.253906 Z M 30.070312 26.253906 " fill-opacity="1" fill-rule="evenodd"/><path fill="#000000" d="M 28.71875 28.523438 C 28.476562 28.523438 28.277344 28.324219 28.277344 28.082031 L 28.277344 25.8125 C 28.277344 25.570312 28.476562 25.371094 28.71875 25.371094 C 28.964844 25.371094 29.160156 25.570312 29.160156 25.8125 L 29.160156 28.082031 C 29.160156 28.324219 28.964844 28.523438 28.71875 28.523438 Z M 28.71875 28.523438 " fill-opacity="1" fill-rule="evenodd"/><path fill="#000000" d="M 30.117188 28.523438 L 27.320312 28.523438 C 27.078125 28.523438 26.878906 28.324219 26.878906 28.082031 C 26.878906 27.835938 27.078125 27.640625 27.320312 27.640625 L 30.117188 27.640625 C 30.363281 27.640625 30.558594 27.839844 30.558594 28.082031 C 30.558594 28.324219 30.359375 28.523438 30.117188 28.523438 Z M 30.117188 28.523438 " fill-opacity="1" fill-rule="evenodd"/><path fill="#000000" d="M 29.078125 35.90625 L 29.988281 36.398438 C 30.0625 36.441406 30.125 36.503906 30.167969 36.578125 L 30.660156 37.488281 L 31.152344 36.578125 C 31.195312 36.503906 31.257812 36.441406 31.332031 36.398438 L 32.242188 35.90625 L 31.332031 35.414062 C 31.257812 35.375 31.195312 35.3125 31.152344 35.238281 L 30.660156 34.328125 L 30.167969 35.238281 C 30.125 35.3125 30.0625 35.375 29.988281 35.414062 Z M 30.660156 38.855469 C 30.496094 38.855469 30.347656 38.765625 30.269531 38.625 L 29.453125 37.113281 L 27.9375 36.296875 C 27.796875 36.21875 27.707031 36.070312 27.707031 35.90625 C 27.707031 35.746094 27.796875 35.597656 27.9375 35.519531 L 29.453125 34.703125 L 30.269531 33.191406 C 30.347656 33.050781 30.496094 32.960938 30.660156 32.960938 C 30.824219 32.960938 30.972656 33.050781 31.050781 33.191406 L 31.867188 34.703125 L 33.382812 35.519531 C 33.523438 35.597656 33.613281 35.746094 33.613281 35.90625 C 33.613281 36.070312 33.523438 36.21875 33.382812 36.296875 L 31.867188 37.113281 L 31.050781 38.625 C 30.972656 38.765625 30.824219 38.855469 30.660156 38.855469 Z M 30.660156 38.855469 " fill-opacity="1" fill-rule="evenodd"/></svg>