<?xml version="1.0" encoding="UTF-8"?>
<svg version="1.1" xmlns="http://www.w3.org/2000/svg" width="463" height="664">
<path d="M0 0 C3.40323356 0.4607595 6.81277797 0.83307004 10.2265625 1.20703125 C23.20328358 3.12890569 34.99334304 7.30683533 46.9375 12.5625 C62.38273741 19.76073677 62.38273741 19.76073677 79 22 C80.33333333 22.33333333 81.66666667 22.66666667 83 23 C85.18703385 22.62092718 85.18703385 22.62092718 87 22 C87 22.66 87 23.32 87 24 C108.08165661 23.14374224 127.67457829 17.40945086 146.91796875 8.84765625 C149 8 149 8 151 8 C151.33 7.34 151.66 6.68 152 6 C153.79296875 5.47265625 153.79296875 5.47265625 156.1875 5.0625 C160.39155475 4.31006975 164.5290793 3.41094848 168.6875 2.4375 C176.11540674 0.842353 183.417692 0.26033676 191 0 C192.05703125 -0.04125 193.1140625 -0.0825 194.203125 -0.125 C227.16435583 -0.7875373 258.39793151 10.70925769 282.42944336 33.40185547 C308.69813415 59.02289207 320.44244276 91.13413124 321.25 127.4375 C321.23837043 151.46709938 314.55524804 174.5848366 304 196 C303.50790039 197.01078613 303.50790039 197.01078613 303.00585938 198.04199219 C296.81170465 210.63188655 289.24830863 222.37388991 281.75341797 234.21679688 C279.31920085 238.08063357 276.92533074 241.96716649 274.5625 245.875 C274.19125 246.48102051 273.82 247.08704102 273.4375 247.71142578 C271.56291524 250.64688122 271.56291524 250.64688122 271 254 C270.34 254 269.68 254 269 254 C268.26919734 255.97746603 267.60578253 257.98072489 267 260 C267.33 260.66 267.66 261.32 268 262 C267.01 262 266.02 262 265 262 C262.98449092 267.64342542 261.33867991 273.3186221 259.875 279.125 C259.70452148 279.79337891 259.53404297 280.46175781 259.35839844 281.15039062 C257.23936779 289.70234335 256.84489594 297.67093135 256.7890625 306.44921875 C256.76096031 308.93294892 256.7322957 311.41667278 256.703125 313.90039062 C256.66219368 317.77449126 256.62526827 321.64847843 256.59863281 325.52270508 C256.45366189 344.97255426 255.40972058 363.65205489 250.3125 382.5 C250.05903809 383.44939453 249.80557617 384.39878906 249.54443359 385.37695312 C242.45991949 410.92710239 230.37164686 433.82000068 212 453 C210.7315625 454.3303125 210.7315625 454.3303125 209.4375 455.6875 C208.633125 456.450625 207.82875 457.21375 207 458 C206.43023437 458.54140625 205.86046875 459.0828125 205.2734375 459.640625 C195.65950932 468.45020062 184.13907645 474.95632063 170.8125 475.4375 C161.99527202 474.99449503 154.33162242 472.26111437 148 466 C137.21057999 452.49263449 139.8558241 432.28017545 139.92483521 415.95742416 C139.93782398 412.85223458 139.94417042 409.74708867 139.94897461 406.64187622 C139.9602916 400.05289763 139.97953367 393.4639557 140 386.875 C140.02374496 379.22158166 140.04408363 371.56818448 140.05593872 363.9147377 C140.06233981 360.88061894 140.07484159 357.84656692 140.08764648 354.81246948 C140.14852198 332.10225691 139.82916326 308.57666145 123.2265625 290.98046875 C119.53171284 287.69399721 114.16637921 283 109 283 C109 282.34 109 281.68 109 281 C95.73695677 278.06075415 83.02096917 278.03083896 71 285 C59.97101048 292.88011016 52.98533282 303.84234019 50 317 C47.70374891 332.12485948 47.74406456 347.37764371 47.83984375 362.6328125 C47.84613678 364.9305699 47.85136927 367.22833042 47.85560608 369.52609253 C47.86875767 375.50904555 47.89312455 381.49189171 47.92095947 387.47479248 C47.96449115 397.08147838 47.99393143 406.68819405 48.0170002 416.29494858 C48.02712834 419.62449893 48.04417504 422.95396093 48.06199646 426.28347778 C48.06882862 428.33758468 48.07543726 430.39169234 48.08178711 432.44580078 C48.08852448 433.35508835 48.09526184 434.26437592 48.10220337 435.20121765 C48.14189854 457.94100934 48.14189854 457.94100934 41.05078125 466.296875 C34.85438112 472.22292609 28.79053454 474.98218879 20.25 475.4375 C2.59116056 474.78144405 -11.18976554 464.08812233 -23 452 C-25.22596683 449.58824923 -27.39885178 447.15554018 -29.51171875 444.64453125 C-30.9194311 442.88899599 -30.9194311 442.88899599 -33 442 C-33.495 440.515 -33.495 440.515 -34 439 C-34.99 438.34 -35.98 437.68 -37 437 C-37 436.34 -37 435.68 -37 435 C-37.66 434.34 -38.32 433.68 -39 433 C-40.40984521 430.63893393 -41.78120205 428.27294333 -43.125 425.875 C-43.49753906 425.21628906 -43.87007813 424.55757812 -44.25390625 423.87890625 C-45.17218988 422.2542506 -46.08648058 420.62733925 -47 419 C-47.66 419 -48.32 419 -49 419 C-49.09410156 418.16210938 -49.18820313 417.32421875 -49.28515625 416.4609375 C-50.24135383 411.83147816 -52.27979558 407.92608672 -54.38476562 403.7421875 C-56.02785808 400.37957969 -57.26344517 397.24407131 -58.09765625 393.5859375 C-58.54431641 391.81089844 -58.54431641 391.81089844 -59 390 C-59.66 389.67 -60.32 389.34 -61 389 C-61.33333333 387.33333333 -61.66666667 385.66666667 -62 384 C-62.66 383.67 -63.32 383.34 -64 383 C-64.28715634 380.85899609 -64.56039941 378.71496712 -64.75390625 376.56347656 C-64.9874325 374.13091149 -65.32612245 371.74735875 -65.71875 369.3359375 C-68.42475079 352.33903068 -69.07947796 335.6010126 -68.90991211 318.40429688 C-68.72863102 298.76997709 -69.22014491 279.01699431 -78 261 C-78.99 260.67 -79.98 260.34 -81 260 C-81.08378906 258.99582031 -81.16757813 257.99164063 -81.25390625 256.95703125 C-81.87510187 252.62176268 -83.68972892 249.39134933 -85.9375 245.6875 C-86.29779297 245.06810547 -86.65808594 244.44871094 -87.02929688 243.81054688 C-88.52102506 241.28037807 -89.91547376 239.08452624 -92 237 C-92.82391086 235.55963785 -93.60886546 234.09690696 -94.375 232.625 C-97.43663138 226.91751435 -100.72473551 221.36251561 -104.0625 215.8125 C-104.56894043 214.96961426 -105.07538086 214.12672852 -105.59716797 213.25830078 C-106.0923291 212.43700684 -106.58749023 211.61571289 -107.09765625 210.76953125 C-107.58741943 209.95718018 -108.07718262 209.1448291 -108.58178711 208.30786133 C-109.46037797 206.87812826 -110.35646962 205.45880008 -111.27954102 204.05737305 C-115.19399761 198.09815558 -117.97804134 191.71545886 -120.8125 185.1875 C-121.31458984 184.05634766 -121.81667969 182.92519531 -122.33398438 181.75976562 C-126 173.38528912 -126 173.38528912 -126 170 C-126.66 169.67 -127.32 169.34 -128 169 C-127.505 168.01 -127.505 168.01 -127 167 C-127.66 166.67 -128.32 166.34 -129 166 C-130.06370315 162.43856426 -130.43429443 158.66746534 -131 155 C-131.26400506 153.45697683 -131.52835214 151.91401216 -131.79296875 150.37109375 C-135.06178896 130.52318425 -134.67326471 111.75079008 -131 92 C-130.79890625 90.89011719 -130.5978125 89.78023438 -130.390625 88.63671875 C-129.4915552 83.93022457 -128.70484879 80.05727319 -126 76 C-125.11586229 73.99209847 -124.26463886 71.96954561 -123.4375 69.9375 C-120.38972566 62.47633136 -120.38972566 62.47633136 -118.3125 59.9375 C-116.49880116 57.63361228 -114.98678257 55.40918781 -113.4375 52.9375 C-95.85003551 26.15250944 -67.1894802 9.02316197 -36.36743164 2.21655273 C-6.97734982 -3.48867491 -6.97734982 -3.48867491 0 0 Z M-85.62890625 52.390625 C-104.90974743 73.60907954 -113.07288273 101.08954708 -111.875 129.4375 C-110.07640825 159.89407286 -96.36194061 185.86132583 -80 211 C-79.50967285 211.75506836 -79.0193457 212.51013672 -78.51416016 213.28808594 C-76.66640368 216.13185434 -74.81747782 218.97485814 -72.96630859 221.81640625 C-56.17201023 247.72020835 -44.95844726 273.64352633 -44.82421875 304.97265625 C-44.80098182 307.11263963 -44.77686304 309.25261357 -44.75195312 311.39257812 C-44.71725707 314.70229063 -44.68770946 318.01166323 -44.67407227 321.3215332 C-44.57241791 342.0449468 -42.54273723 362.23258112 -36 382 C-35.01 382 -34.02 382 -33 382 C-33.66 382.33 -34.32 382.66 -35 383 C-29.17988044 407.67488189 -12.20254199 434.11998111 9.38671875 447.5546875 C14.26597043 450.26965733 14.26597043 450.26965733 19.6875 450.875 C22.09747693 450.22312172 22.09747693 450.22312172 23.13034058 448.26665211 C24.13895677 445.63782757 24.24090971 443.67215205 24.22705078 440.85856628 C24.22690979 439.81982864 24.2267688 438.781091 24.22662354 437.71087646 C24.21629089 436.57676331 24.20595825 435.44265015 24.1953125 434.27416992 C24.19239197 433.07538712 24.18947144 431.87660431 24.1864624 430.64149475 C24.17685854 427.35616208 24.15850165 424.07100901 24.13692474 420.78573775 C24.11695012 417.34304615 24.10993125 413.90033272 24.10205078 410.45759583 C24.07797131 400.95732686 24.03391662 391.45717011 23.98959351 381.95697784 C23.94919085 373.25667202 23.91305177 364.55640462 23.89316368 355.85602456 C23.88485183 352.43133484 23.87222789 349.0067716 23.84967041 345.58214378 C23.82572896 341.75940869 23.81396011 337.93680839 23.8046875 334.11401367 C23.78918854 332.42195297 23.78918854 332.42195297 23.77337646 330.69570923 C23.77261555 325.04406711 24.09750165 320.33290594 26 315 C26.32218506 313.89084229 26.32218506 313.89084229 26.65087891 312.75927734 C33.01760706 291.48824919 43.42815389 276.23983163 63 265 C78.54973852 256.92416806 97.61558071 255.81638598 114.32421875 261.0390625 C133.2517418 268.55190776 147.76148034 281.68103522 156.26635742 300.21484375 C161.12802375 311.48912246 163.14212558 322.81063549 163.6015625 335.04296875 C163.64168961 336.08200851 163.68181671 337.12104828 163.72315979 338.1915741 C164.44688074 360.60240712 164.01756679 383.06474204 163.90405273 405.4831543 C163.87732115 410.86765258 163.86025816 416.25211132 163.84918404 421.63666344 C163.84298735 423.67365709 163.83299848 425.71064295 163.81910515 427.74759865 C163.79994802 430.57242641 163.79300382 433.39704001 163.78881836 436.22192383 C163.78005676 437.05658676 163.77129517 437.89124969 163.76226807 438.75120544 C163.76915391 444.17540313 163.76915391 444.17540313 166 449 C166.33 448.67 166.66 448.34 167 448 C167.33 448.99 167.66 449.98 168 451 C186.77586435 445.93983798 199.99635796 430.41933767 209.54541016 414.19677734 C227.24918681 383.05054351 232.2813485 350.67598822 231.92932129 315.23921204 C231.56465817 277.89946438 241.7757904 249.30735728 262.47851562 218.28857422 C278.00605002 194.93249152 292.17100738 172.00120903 297 144 C297.27457031 142.43185547 297.27457031 142.43185547 297.5546875 140.83203125 C300.83897423 112.56987964 295.45327003 82.15000556 277.63330078 59.24316406 C274.60047497 55.64660428 271.33012996 52.31991484 268 49 C267.40703125 48.34773438 266.8140625 47.69546875 266.203125 47.0234375 C251.55322413 31.14062419 228.31318271 21.26860765 207.01489258 19.79321289 C203.92351221 19.69733104 200.84280132 19.67099038 197.75 19.6875 C196.65316895 19.69241455 195.55633789 19.6973291 194.42626953 19.70239258 C177.57340716 19.94485297 162.17948783 24.52294129 146.98828125 31.6796875 C116.87754452 44.98351628 83.40077274 50.04382705 52 38 C45.8376022 35.36331659 39.73770259 32.58902871 33.67944336 29.72143555 C-7.80543211 10.37773138 -54.01388047 19.83849237 -85.62890625 52.390625 Z M-80 257 C-79 259 -79 259 -79 259 Z M-64 376 C-63 379 -63 379 -63 379 Z M-63 379 C-62 382 -62 382 -62 382 Z " fill="#090909" transform="translate(138,187)"/>
<path d="M0 0 C4.95078882 1.06088332 6.6086834 3.74387227 9.5 7.75 C11.56810767 11.13163551 13.41428105 14.61291058 15.25 18.125 C16.30765271 20.10666758 17.36757202 22.087127 18.4296875 24.06640625 C18.95014648 25.03723145 19.47060547 26.00805664 20.00683594 27.00830078 C22.04271327 30.74651244 24.18989454 34.41009713 26.375 38.0625 C31.1782623 46.1117936 35.74019494 54.28910042 40.296875 62.47998047 C44.29999906 69.65849011 48.39492122 76.77218714 52.65625 83.80078125 C55.5 88.54036458 55.5 88.54036458 55.5 90.75 C69.38508233 83.66230463 83.17225984 76.48064025 96.70117188 68.72900391 C105.60131702 63.64606634 114.63169612 58.81939955 123.68408203 54.01538086 C130.82317276 50.21796028 137.85590993 46.3155135 144.73828125 42.0703125 C149.2816621 39.89822943 153.02830101 39.2501777 157.8125 40.875 C160.99157904 43.09296212 161.75872142 43.96124284 162.5 47.75 C162.19423193 53.82323308 160.97346759 59.73341977 159.61401367 65.64355469 C159.42522141 66.48230133 159.23642914 67.32104797 159.04191589 68.18521118 C158.4222303 70.93191636 157.79536547 73.67692178 157.16796875 76.421875 C156.73028566 78.35078467 156.29289753 80.27976128 155.85578918 82.20880127 C154.94021064 86.24411007 154.02106285 90.27858459 153.09936523 94.3125 C151.92598999 99.44922425 150.76150823 104.58791523 149.59974194 109.72727585 C148.69822325 113.71069474 147.79191068 117.6930115 146.88421059 121.67502594 C146.45341932 123.56746639 146.02407167 125.46023612 145.59627342 127.35335541 C138.65820305 158.01746657 138.65820305 158.01746657 132.3125 162.1875 C128.55174081 162.93965184 126.69018429 161.80562066 123.3671875 160.0859375 C121.15021975 158.49973882 119.93680057 157.07167189 118.5 154.75 C117.76803999 145.50730604 121.2806999 135.67476373 123.50390625 126.80664062 C123.77332031 125.69611328 124.04273438 124.58558594 124.3203125 123.44140625 C124.57055176 122.44310791 124.82079102 121.44480957 125.07861328 120.41625977 C125.49544633 117.77881265 125.37006169 116.24355978 124.5 113.75 C125.16 113.42 125.82 113.09 126.5 112.75 C127.18242741 110.96848728 127.18242741 110.96848728 127.64501953 108.78100586 C127.84507599 107.94020981 128.04513245 107.09941376 128.25125122 106.23313904 C128.45966644 105.31960159 128.66808167 104.40606415 128.8828125 103.46484375 C129.10194305 102.53402481 129.32107361 101.60320587 129.54684448 100.6441803 C130.24738114 97.66038698 130.9362952 94.67404415 131.625 91.6875 C132.09689523 89.66844177 132.56954168 87.64955896 133.04296875 85.63085938 C134.20405068 80.67256907 135.35471352 75.71196154 136.5 70.75 C135.88846573 71.08356506 135.27693146 71.41713013 134.64686584 71.76080322 C133.03077764 72.64230383 131.41468266 73.52379202 129.79858398 74.40527344 C127.81627532 75.48656281 125.83401783 76.56794602 123.85180664 77.64941406 C118.95574328 80.32048393 114.05915946 82.9905754 109.16015625 85.65625 C101.07770566 90.0563252 93.00180618 94.46735616 84.94921875 98.921875 C83.97688545 99.4595047 83.97688545 99.4595047 82.98490906 100.00799561 C79.78744382 101.77621347 76.59100691 103.54624705 73.39624023 105.31933594 C54.73558185 115.66053597 54.73558185 115.66053597 49.5 114.75 C43.26706874 112.09768883 41.10703525 107.05513844 38.015625 101.234375 C37.26539063 100.00460938 37.26539063 100.00460938 36.5 98.75 C35.84 98.75 35.18 98.75 34.5 98.75 C34.40323975 98.05326172 34.30647949 97.35652344 34.20678711 96.63867188 C33.36491211 93.19788948 31.9428857 90.61026627 30.19140625 87.53125 C29.86462387 86.95088989 29.53784149 86.37052979 29.20115662 85.77258301 C28.16136724 83.92799594 27.11256272 82.08875506 26.0625 80.25 C25.01734147 78.41054028 23.97422741 76.56998332 22.93455505 74.72741699 C21.99000101 73.05480156 21.03923376 71.38569933 20.08813477 69.71679688 C18.5 66.75 18.5 66.75 17.47241211 63.92382812 C17.15151611 63.20646484 16.83062012 62.48910156 16.5 61.75 C15.51 61.42 14.52 61.09 13.5 60.75 C13.5 59.76 13.5 58.77 13.5 57.75 C12.61948501 55.94087315 11.6586433 54.17033113 10.65625 52.42578125 C10.06972656 51.39775391 9.48320312 50.36972656 8.87890625 49.31054688 C8.25886719 48.23869141 7.63882813 47.16683594 7 46.0625 C6.37996094 44.97904297 5.75992188 43.89558594 5.12109375 42.77929688 C3.58642356 40.09952662 2.04586552 37.42332268 0.5 34.75 C-1.5150177 37.31372306 -3.11592733 39.77509442 -4.48046875 42.734375 C-5.0209082 43.89259766 -5.0209082 43.89259766 -5.57226562 45.07421875 C-5.94029297 45.87472656 -6.30832031 46.67523438 -6.6875 47.5 C-9.76259571 54.15039183 -12.96649349 60.72780786 -16.25549316 67.27468872 C-18.48723188 71.71850922 -20.69818298 76.17185146 -22.89149475 80.63476562 C-24.42905969 83.76177046 -25.97394061 86.8851357 -27.51928711 90.00830078 C-28.30625515 91.60263059 -29.09037992 93.19836664 -29.87182617 94.79541016 C-31.02544207 97.15129559 -32.18942655 99.50180769 -33.35546875 101.8515625 C-33.69829391 102.55785797 -34.04111908 103.26415344 -34.39433289 103.99185181 C-39.78248202 114.77302146 -39.78248202 114.77302146 -44.73828125 116.5546875 C-46.65885417 116.61979167 -48.57942708 116.68489583 -50.5 116.75 C-50.5 116.09 -50.5 115.43 -50.5 114.75 C-51.01949219 114.65332031 -51.53898437 114.55664062 -52.07421875 114.45703125 C-55.35049788 113.50210931 -58.28448044 111.98233029 -61.3125 110.4375 C-62.00263184 110.08848633 -62.69276367 109.73947266 -63.40380859 109.37988281 C-65.77287281 108.17695976 -68.13707671 106.96494063 -70.5 105.75 C-71.37221191 105.30156738 -72.24442383 104.85313477 -73.14306641 104.39111328 C-87.37761455 97.05280585 -101.46952677 89.47014081 -115.5 81.75 C-117.44135968 80.68350898 -119.3827662 79.61710321 -121.32421875 78.55078125 C-126.05112048 75.95349722 -130.77628926 73.35308263 -135.5 70.75 C-134.34816097 75.8976862 -133.19444779 81.04494832 -132.03930664 86.19189453 C-131.65017254 87.92681696 -131.26147104 89.66183651 -130.87329102 91.39697266 C-128.25348195 103.1054247 -125.56565354 114.79712739 -122.83422852 126.47998047 C-122.50904369 127.87205758 -122.18389142 129.26414229 -121.85877228 130.65623474 C-121.07288889 134.02091063 -120.28656934 137.3854844 -119.5 140.75 C-117.92352345 140.75358253 -117.92352345 140.75358253 -116.3151989 140.75723743 C-90.75167655 140.81601153 -65.18824861 140.89188143 -39.62483025 140.98571491 C-27.26259081 141.03069546 -14.90038033 141.07010495 -2.53808594 141.09643555 C8.23590177 141.11939728 19.00979802 141.15277494 29.78371322 141.19870156 C35.48930782 141.2226583 41.19481171 141.24137105 46.90045547 141.24761391 C52.27009567 141.25365361 57.63950368 141.27361333 63.009058 141.30427551 C64.98029151 141.31307358 66.95155534 141.31677467 68.92280769 141.31500816 C71.61410088 141.3133578 74.30468426 141.33003446 76.99588013 141.35127258 C77.77604748 141.34642501 78.55621483 141.34157743 79.36002362 141.33658296 C84.14340556 141.39888545 87.42690305 142.23362773 91.5 144.75 C93.69336296 147.32481738 93.60990927 149.50343337 93.375 152.75 C92.91409018 155.66186555 92.50299051 156.74597828 90.6875 159.1875 C87.08923975 161.75768589 83.79819172 161.87449038 79.45605469 161.86352539 C78.45531921 161.86344986 77.45458374 161.86337433 76.42352295 161.86329651 C75.35047913 161.85813522 74.2774353 161.85297394 73.171875 161.84765625 C71.51566132 161.84553383 71.51566132 161.84553383 69.82598877 161.84336853 C66.30063158 161.83777258 62.77533798 161.82522079 59.25 161.8125 C56.85937592 161.80748448 54.46875084 161.80292166 52.078125 161.79882812 C46.21872832 161.78780447 40.3593687 161.77107033 34.5 161.75 C34.17 162.41 33.84 163.07 33.5 163.75 C33.5 163.09 33.5 162.43 33.5 161.75 C-26.395 162.245 -26.395 162.245 -87.5 162.75 C-87.5 163.08 -87.5 163.41 -87.5 163.75 C-89.48 163.75 -91.46 163.75 -93.5 163.75 C-93.5 163.42 -93.5 163.09 -93.5 162.75 C-97.95765572 162.52493776 -102.41605688 162.3227757 -106.875 162.125 C-108.14601562 162.06054688 -109.41703125 161.99609375 -110.7265625 161.9296875 C-111.93828125 161.878125 -113.15 161.8265625 -114.3984375 161.7734375 C-115.51911621 161.72106934 -116.63979492 161.66870117 -117.79443359 161.61474609 C-120.65156435 161.45428435 -120.65156435 161.45428435 -122.5 163.75 C-122.5 162.76 -122.5 161.77 -122.5 160.75 C-123.386875 160.915 -124.27375 161.08 -125.1875 161.25 C-126.280625 161.415 -127.37375 161.58 -128.5 161.75 C-129.799375 161.9665625 -129.799375 161.9665625 -131.125 162.1875 C-133.5 161.75 -133.5 161.75 -135.625 158.8125 C-136.24375 157.801875 -136.8625 156.79125 -137.5 155.75 C-138.49 155.42 -139.48 155.09 -140.5 154.75 C-140.17 151.78 -139.84 148.81 -139.5 145.75 C-140.16 145.42 -140.82 145.09 -141.5 144.75 C-141.76948992 142.86357056 -142.02725755 140.97445099 -142.21484375 139.078125 C-142.60029865 135.93112339 -143.33986057 132.90355857 -144.09765625 129.828125 C-144.5 127.75 -144.5 127.75 -144.5 123.75 C-145.16 123.42 -145.82 123.09 -146.5 122.75 C-147.02734375 120.51953125 -147.02734375 120.51953125 -147.4375 117.5625 C-148.34086501 111.53524867 -149.57541793 105.62797087 -150.9140625 99.68359375 C-151.5 96.75 -151.5 96.75 -151.5 93.75 C-152.16 93.42 -152.82 93.09 -153.5 92.75 C-154.02294922 90.51293945 -154.02294922 90.51293945 -154.4296875 87.55078125 C-155.66471548 79.38775383 -157.57045778 71.40826852 -159.46484375 63.37695312 C-162.62931847 49.57329617 -162.62931847 49.57329617 -160.375 43.9375 C-157.77790305 40.90755356 -156.50146138 40.25018267 -152.5 39.75 C-145.02246181 41.76227593 -138.26330305 45.26715803 -131.5625 49.0625 C-129.62956125 50.13659626 -127.69593352 51.20945328 -125.76171875 52.28125 C-124.7464209 52.84585938 -123.73112305 53.41046875 -122.68505859 53.9921875 C-117.11030511 57.0688566 -111.49160265 60.06311919 -105.875 63.0625 C-104.10438832 64.00892859 -102.33390213 64.95559162 -100.56343079 65.90228271 C-99.36776122 66.54159579 -98.1720314 67.18079621 -96.97624207 67.81988525 C-92.61866419 70.14944431 -88.26565556 72.48740907 -83.9140625 74.828125 C-82.04395346 75.83316714 -80.17375855 76.83804929 -78.30352783 77.84286499 C-76.56420889 78.77797922 -74.8257881 79.71476343 -73.08740234 80.65161133 C-65.95417534 84.48198512 -58.76230002 88.17037306 -51.5 91.75 C-51.24845154 90.92387711 -50.99690308 90.09775421 -50.73773193 89.24659729 C-49.32822129 85.26472452 -47.5748281 81.58152955 -45.69628906 77.80444336 C-45.31549194 77.03131302 -44.93469482 76.25818268 -44.5423584 75.46162415 C-43.28800035 72.9187499 -42.02744541 70.37902258 -40.765625 67.83984375 C-40.33364555 66.96898195 -39.90166611 66.09812016 -39.45659637 65.20086861 C-37.17191523 60.59574243 -34.8823703 55.99307248 -32.58886719 51.39233398 C-30.22514224 46.64831118 -27.87830175 41.89614311 -25.5352211 37.14189816 C-23.72582902 33.47830063 -21.90395587 29.82101484 -20.07866669 26.16531563 C-19.20805584 24.41621128 -18.34213728 22.66476298 -17.48108673 20.91093254 C-16.27430802 18.45586391 -15.05005805 16.01028216 -13.82128906 13.56616211 C-13.29731537 12.48517746 -13.29731537 12.48517746 -12.76275635 11.38235474 C-9.85020996 5.66384887 -6.57923667 1.40983643 0 0 Z M-139.5 150.75 C-138.5 152.75 -138.5 152.75 -138.5 152.75 Z " fill="#0A0A0A" transform="translate(230.5,3.25)"/>
<path d="M0 0 C1.02351563 -0.020625 2.04703125 -0.04125 3.1015625 -0.0625 C9.58494081 -0.0962676 13.32506458 0.41040495 18.1875 4.9375 C19.93582685 8.34213649 20.18005827 11.56136937 19.375 15.25 C17.19925584 17.94105198 15.46434144 19.70532928 12.375 21.25 C10.82609421 21.37877362 9.27238056 21.45223175 7.71875 21.49609375 C6.77773437 21.52896484 5.83671875 21.56183594 4.8671875 21.59570312 C2.90373397 21.65593962 0.94019053 21.71332695 -1.0234375 21.76757812 C-16.53720706 22.32464438 -34.03981094 26.48648184 -45.3046875 37.9609375 C-46.625 39.25 -46.625 39.25 -48.625 39.25 C-48.88667969 39.82621094 -49.14835937 40.40242188 -49.41796875 40.99609375 C-50.6999807 43.3900125 -52.18896712 45.23829803 -53.9375 47.3125 C-57.84698359 52.27860077 -60.36627134 57.367377 -62.625 63.25 C-63.10646484 64.42369141 -63.10646484 64.42369141 -63.59765625 65.62109375 C-65.82582473 72.09832771 -65.90307189 78.53242066 -65.9375 85.3125 C-65.94305908 86.23458252 -65.94861816 87.15666504 -65.9543457 88.10668945 C-65.89700347 93.60909322 -65.30299185 98.69583393 -64.05151367 104.05639648 C-63.625 106.25 -63.625 106.25 -63.625 110.25 C-62.965 110.58 -62.305 110.91 -61.625 111.25 C-60.99647066 113.58247815 -60.46964754 115.94291467 -60 118.3125 C-59.73960938 119.60285156 -59.47921875 120.89320313 -59.2109375 122.22265625 C-59.01757812 123.22167969 -58.82421875 124.22070312 -58.625 125.25 C-59.615 125.745 -59.615 125.745 -60.625 126.25 C-60.934375 126.889375 -61.24375 127.52875 -61.5625 128.1875 C-62.625 130.25 -62.625 130.25 -65.625 132.25 C-72.57438661 132.92252128 -72.57438661 132.92252128 -76.17578125 130.6171875 C-78.94978972 127.9360884 -80.30865928 125.48496153 -81.9375 122 C-82.44925781 120.92234375 -82.96101563 119.8446875 -83.48828125 118.734375 C-83.86339844 117.91453125 -84.23851562 117.0946875 -84.625 116.25 C-85.285 116.25 -85.945 116.25 -86.625 116.25 C-90.9549409 86.99364258 -91.4055789 61.15687241 -74.46484375 35.7265625 C-71.91967045 32.30057551 -69.14288116 29.14071097 -66.2265625 26.02734375 C-64.55384834 24.32979159 -64.55384834 24.32979159 -63.625 22.25 C-61.97533353 21.22219733 -60.30534797 20.22683595 -58.625 19.25 C-56.0079427 17.41766753 -53.4195628 15.54951099 -50.83203125 13.67578125 C-48.625 12.25 -48.625 12.25 -46.625 12.25 C-46.295 11.59 -45.965 10.93 -45.625 10.25 C-43.3634406 9.17747711 -41.13973135 8.22015432 -38.8125 7.3125 C-38.13832031 7.04671143 -37.46414062 6.78092285 -36.76953125 6.50708008 C-24.69405051 1.86343117 -12.89166142 0.06543991 0 0 Z M-86.625 109.25 C-85.625 112.25 -85.625 112.25 -85.625 112.25 Z " fill="#0A0A09" transform="translate(144.625,234.75)"/>
<path d="M0 0 C0 0.66 0 1.32 0 2 C-3.08461506 3.02820502 -4.89685239 3.04582849 -8.10546875 2.87890625 C-9.08837891 2.83056641 -10.07128906 2.78222656 -11.08398438 2.73242188 C-12.62022461 2.64831055 -12.62022461 2.64831055 -14.1875 2.5625 C-15.22326172 2.51029297 -16.25902344 2.45808594 -17.32617188 2.40429688 C-19.88442049 2.27461607 -22.44227938 2.13965022 -25 2 C-24.34 1.01 -23.68 0.02 -23 -1 C-20.36272129 -1.44502212 -17.96594579 -1.69526029 -15.3125 -1.8125 C-14.26932617 -1.88887695 -14.26932617 -1.88887695 -13.20507812 -1.96679688 C-8.36416727 -2.23347637 -4.58918021 -1.55779512 0 0 Z " fill="#141413" transform="translate(143,188)"/>
<path d="M0 0 C3.84916523 3.84916523 3.18274832 8.69567263 3.1875 13.875 C3.19974609 14.56980469 3.21199219 15.26460938 3.22460938 15.98046875 C3.23702874 20.37692393 2.61908407 23.91709235 1 28 C0.67 28 0.34 28 0 28 C0 18.76 0 9.52 0 0 Z " fill="#111111" transform="translate(456,301)"/>
<path d="M0 0 C0.66 0.33 1.32 0.66 2 1 C-0.93665736 5.03790387 -4.31475357 8.14226695 -8.09765625 11.3515625 C-9.81221871 12.83728192 -11.41884241 14.37451089 -13 16 C-13.66 15.67 -14.32 15.34 -15 15 C-10 10 -5 5 0 0 Z " fill="#121111" transform="translate(47,215)"/>
<path d="M0 0 C0.33 0.99 0.66 1.98 1 3 C-1.625 5.125 -1.625 5.125 -5 7 C-8.375 6.25 -8.375 6.25 -11 5 C-7.71379848 2.80919899 -4.78119262 2.05033128 -1 1 C-0.67 0.67 -0.34 0.34 0 0 Z " fill="#161515" transform="translate(366,159)"/>
<path d="M0 0 C0 0.33 0 0.66 0 1 C-0.61488281 1.19335938 -1.22976562 1.38671875 -1.86328125 1.5859375 C-3.07564453 1.97652344 -3.07564453 1.97652344 -4.3125 2.375 C-5.51326172 2.75785156 -5.51326172 2.75785156 -6.73828125 3.1484375 C-9.22724528 3.98831811 -9.22724528 3.98831811 -12 6 C-11.0799075 2.82149863 -10.58564751 1.34822284 -7.6875 -0.375 C-4.72850644 -1.06313804 -2.89648559 -0.82756731 0 0 Z " fill="#191818" transform="translate(82,44)"/>
<path d="M0 0 C0.33 0.99 0.66 1.98 1 3 C-4.75 6 -4.75 6 -7 6 C-6 3 -6 3 -2.9375 1.3125 C-1.968125 0.879375 -0.99875 0.44625 0 0 Z " fill="#100F0F" transform="translate(319,97)"/>
<path d="M0 0 C0.66 0.66 1.32 1.32 2 2 C1.72317437 6.24465971 0.81645906 8.81617671 -2 12 C-1 3.42857143 -1 3.42857143 0 0 Z " fill="#171516" transform="translate(364,87)"/>
<path d="M0 0 C2 2 2 2 2.375 4.4375 C2 7 2 7 -2 10 C-1.34 6.7 -0.68 3.4 0 0 Z " fill="#131313" transform="translate(364,558)"/>
<path d="M0 0 C0.66 0.33 1.32 0.66 2 1 C-0.3500189 3.72107452 -2.55674975 4.96702492 -6 6 C-6.99 5.67 -7.98 5.34 -9 5 C-7.54735962 4.1361871 -6.0876837 3.28419546 -4.625 2.4375 C-3.40683594 1.72400391 -3.40683594 1.72400391 -2.1640625 0.99609375 C-1.44992188 0.66738281 -0.73578125 0.33867187 0 0 Z " fill="#161616" transform="translate(203,450)"/>
<path d="M0 0 C0.6875 1.625 0.6875 1.625 1 4 C-0.4375 7.25 -0.4375 7.25 -2 10 C-3.01136941 7.26930259 -3.04557718 6.13998707 -2.125 3.3125 C-1 1 -1 1 0 0 Z " fill="#141313" transform="translate(362,102)"/>
<path d="M0 0 C0.99 0.66 1.98 1.32 3 2 C2.34 2 1.68 2 1 2 C0.34 3.98 -0.32 5.96 -1 8 C-1.66 7.01 -2.32 6.02 -3 5 C-2.01 3.35 -1.02 1.7 0 0 Z " fill="#1A1514" transform="translate(406,439)"/>
<path d="M0 0 C0.99 0.33 1.98 0.66 3 1 C2 3 2 3 -1.0625 4.125 C-2.5165625 4.558125 -2.5165625 4.558125 -4 5 C-4.33 4.34 -4.66 3.68 -5 3 C-2.6875 1.4375 -2.6875 1.4375 0 0 Z " fill="#111211" transform="translate(354,57)"/>
<path d="M0 0 C2.97 0 5.94 0 9 0 C9 0.33 9 0.66 9 1 C6.03 1 3.06 1 0 1 C0 0.67 0 0.34 0 0 Z " fill="#191919" transform="translate(136,233)"/>
<path d="M0 0 C0.33 0 0.66 0 1 0 C1 2.31 1 4.62 1 7 C0.67 7 0.34 7 0 7 C0 4.69 0 2.38 0 0 Z " fill="#000000" transform="translate(3,323)"/>
<path d="M0 0 C1.65 0 3.3 0 5 0 C3.02 0.99 3.02 0.99 1 2 C0.67 1.34 0.34 0.68 0 0 Z " fill="#151509" transform="translate(201,231)"/>
<path d="M0 0 C2.475 0.495 2.475 0.495 5 1 C4.67 1.66 4.34 2.32 4 3 C2.68 2.01 1.36 1.02 0 0 Z " fill="#000000" transform="translate(161,214)"/>
<path d="M0 0 C2.31 0 4.62 0 7 0 C7 0.33 7 0.66 7 1 C4.69 1 2.38 1 0 1 C0 0.67 0 0.34 0 0 Z " fill="#000000" transform="translate(337,208)"/>
<path d="M0 0 C2.31 0 4.62 0 7 0 C7 0.33 7 0.66 7 1 C4.69 1 2.38 1 0 1 C0 0.67 0 0.34 0 0 Z " fill="#000000" transform="translate(122,208)"/>
<path d="M0 0 C1.32 0 2.64 0 4 0 C3.67 0.66 3.34 1.32 3 2 C2.34 1.67 1.68 1.34 1 1 C0.67 1.66 0.34 2.32 0 3 C0 2.01 0 1.02 0 0 Z " fill="#090909" transform="translate(297,166)"/>
<path d="M0 0 C1.65 0 3.3 0 5 0 C4.01 1.485 4.01 1.485 3 3 C3 2.34 3 1.68 3 1 C2.01 0.67 1.02 0.34 0 0 Z " fill="#0C000C" transform="translate(202,166)"/>
<path d="M0 0 C0.66 0.66 1.32 1.32 2 2 C1.67 2.99 1.34 3.98 1 5 C0.67 3.35 0.34 1.7 0 0 Z " fill="#0A0A0A" transform="translate(425,266)"/>
<path d="M0 0 C1.98 0 3.96 0 6 0 C6 0.33 6 0.66 6 1 C4.02 1 2.04 1 0 1 C0 0.67 0 0.34 0 0 Z " fill="#111111" transform="translate(146,233)"/>
<path d="M0 0 C1.98 0 3.96 0 6 0 C6 0.33 6 0.66 6 1 C4.02 1 2.04 1 0 1 C0 0.67 0 0.34 0 0 Z " fill="#0A0A0A" transform="translate(288,166)"/>
<path d="M0 0 C0.33 0 0.66 0 1 0 C1 1.98 1 3.96 1 6 C0.67 6 0.34 6 0 6 C0 4.02 0 2.04 0 0 Z " fill="#000000" transform="translate(73,79)"/>
<path d="M0 0 C1.65 0 3.3 0 5 0 C5 0.33 5 0.66 5 1 C3.35 1 1.7 1 0 1 C0 0.67 0 0.34 0 0 Z " fill="#0C0C0C" transform="translate(153,663)"/>
<path d="M0 0 C0.66 0.99 1.32 1.98 2 3 C1.01 2.67 0.02 2.34 -1 2 C-0.67 1.34 -0.34 0.68 0 0 Z " fill="#000000" transform="translate(90,606)"/>
<path d="M0 0 C0.33 0 0.66 0 1 0 C1 1.65 1 3.3 1 5 C0.67 5 0.34 5 0 5 C0 3.35 0 1.7 0 0 Z " fill="#000000" transform="translate(392,553)"/>
<path d="M0 0 C0.33 0 0.66 0 1 0 C1 1.65 1 3.3 1 5 C0.67 5 0.34 5 0 5 C0 3.35 0 1.7 0 0 Z " fill="#000000" transform="translate(68,527)"/>
<path d="M0 0 C0.66 1.32 1.32 2.64 2 4 C1.34 3.67 0.68 3.34 0 3 C0 2.01 0 1.02 0 0 Z " fill="#0C0C0C" transform="translate(417,251)"/>
<path d="M0 0 C0.99 0.33 1.98 0.66 3 1 C2.01 1.33 1.02 1.66 0 2 C0 1.34 0 0.68 0 0 Z " fill="#1D1D1D" transform="translate(33,225)"/>
<path d="M0 0 C1.65 0 3.3 0 5 0 C5 0.33 5 0.66 5 1 C3.35 1 1.7 1 0 1 C0 0.67 0 0.34 0 0 Z " fill="#000000" transform="translate(234,209)"/>
<path d="M0 0 C1.65 0 3.3 0 5 0 C5 0.33 5 0.66 5 1 C3.35 1 1.7 1 0 1 C0 0.67 0 0.34 0 0 Z " fill="#000000" transform="translate(130,208)"/>
<path d="M0 0 C1.32 0.33 2.64 0.66 4 1 C3.01 1.495 3.01 1.495 2 2 C1.34 1.34 0.68 0.68 0 0 Z " fill="#000000" transform="translate(250,166)"/>
<path d="M0 0 C0.99 0.33 1.98 0.66 3 1 C2.01 1.33 1.02 1.66 0 2 C0 1.34 0 0.68 0 0 Z " fill="#000000" transform="translate(148,166)"/>
<path d="M0 0 C0.99 0 1.98 0 3 0 C2.67 0.66 2.34 1.32 2 2 C1.34 1.34 0.68 0.68 0 0 Z " fill="#000000" transform="translate(361,556)"/>
<path d="M0 0 C1 4 1 4 1 4 Z " fill="#151515" transform="translate(2,307)"/>
<path d="M0 0 C0.99 0.33 1.98 0.66 3 1 C2.01 1.33 1.02 1.66 0 2 C0 1.34 0 0.68 0 0 Z " fill="#1A1A1A" transform="translate(89,249)"/>
<path d="M0 0 C4 1 4 1 4 1 Z " fill="#000000" transform="translate(245,232)"/>
<path d="M0 0 C1.485 0.99 1.485 0.99 3 2 C2.01 2 1.02 2 0 2 C0 1.34 0 0.68 0 0 Z " fill="#151515" transform="translate(226,209)"/>
<path d="M0 0 C4 1 4 1 4 1 Z " fill="#101010" transform="translate(325,208)"/>
<path d="M0 0 C4 1 4 1 4 1 Z " fill="#0C0C0C" transform="translate(117,208)"/>
<path d="M0 0 C0.99 0.495 0.99 0.495 2 1 C1.67 1.66 1.34 2.32 1 3 C0.67 2.01 0.34 1.02 0 0 Z " fill="#000000" transform="translate(180,166)"/>
<path d="M0 0 C4 1 4 1 4 1 Z " fill="#151515" transform="translate(217,166)"/>
<path d="M0 0 C0.99 0.495 0.99 0.495 2 1 C1.34 1.66 0.68 2.32 0 3 C0 2.01 0 1.02 0 0 Z " fill="#000000" transform="translate(361,90)"/>
<path d="M0 0 C3 1 3 1 3 1 Z " fill="#000000" transform="translate(305,663)"/>
<path d="M0 0 C0.33 0.66 0.66 1.32 1 2 C0.34 1.67 -0.32 1.34 -1 1 C-0.67 0.67 -0.34 0.34 0 0 Z " fill="#000000" transform="translate(107,631)"/>
<path d="M0 0 C0.99 0.495 0.99 0.495 2 1 C1.01 1.495 1.01 1.495 0 2 C0 1.34 0 0.68 0 0 Z " fill="#000000" transform="translate(73,571)"/>
<path d="" fill="#000000" transform="translate(0,0)"/>
<path d="" fill="#000000" transform="translate(0,0)"/>
<path d="" fill="#000000" transform="translate(0,0)"/>
<path d="" fill="#000000" transform="translate(0,0)"/>
<path d="" fill="#1C1C1C" transform="translate(0,0)"/>
<path d="" fill="#1C0000" transform="translate(0,0)"/>
<path d="M0 0 C0.66 0.66 1.32 1.32 2 2 C1.34 2 0.68 2 0 2 C0 1.34 0 0.68 0 0 Z " fill="#000000" transform="translate(413,246)"/>
<path d="M0 0 C0.99 0.495 0.99 0.495 2 1 C1.01 1.495 1.01 1.495 0 2 C0 1.34 0 0.68 0 0 Z " fill="#000000" transform="translate(99,243)"/>
<path d="M0 0 C3 1 3 1 3 1 Z " fill="#000000" transform="translate(144,186)"/>
<path d="M0 0 C3 1 3 1 3 1 Z " fill="#151515" transform="translate(121,185)"/>
<path d="" fill="#000000" transform="translate(0,0)"/>
<path d="" fill="#000000" transform="translate(0,0)"/>
<path d="M0 0 C3 1 3 1 3 1 Z " fill="#000000" transform="translate(356,80)"/>
<path d="M0 0 C3 1 3 1 3 1 Z " fill="#151515" transform="translate(321,73)"/>
<path d="M0 0 C2 1 2 1 2 1 Z " fill="#000000" transform="translate(307,635)"/>
<path d="M0 0 C2 1 2 1 2 1 Z " fill="#191919" transform="translate(313,633)"/>
<path d="" fill="#202020" transform="translate(0,0)"/>
<path d="" fill="#000000" transform="translate(0,0)"/>
<path d="" fill="#000000" transform="translate(0,0)"/>
<path d="" fill="#000000" transform="translate(0,0)"/>
<path d="" fill="#000000" transform="translate(0,0)"/>
<path d="" fill="#000000" transform="translate(0,0)"/>
<path d="" fill="#000000" transform="translate(0,0)"/>
<path d="" fill="#000000" transform="translate(0,0)"/>
<path d="" fill="#000000" transform="translate(0,0)"/>
<path d="" fill="#000000" transform="translate(0,0)"/>
<path d="" fill="#000000" transform="translate(0,0)"/>
<path d="" fill="#000000" transform="translate(0,0)"/>
<path d="M0 0 C2 1 2 1 2 1 Z " fill="#000000" transform="translate(261,450)"/>
<path d="" fill="#000000" transform="translate(0,0)"/>
<path d="M0 0 C2 1 2 1 2 1 Z " fill="#000000" transform="translate(259,449)"/>
<path d="M0 0 C2 1 2 1 2 1 Z " fill="#404040" transform="translate(201,449)"/>
<path d="M0 0 C2 1 2 1 2 1 Z " fill="#000000" transform="translate(42,420)"/>
<path d="" fill="#000000" transform="translate(0,0)"/>
<path d="" fill="#000000" transform="translate(0,0)"/>
<path d="" fill="#000000" transform="translate(0,0)"/>
<path d="" fill="#202020" transform="translate(0,0)"/>
<path d="" fill="#000000" transform="translate(0,0)"/>
<path d="M0 0 C2 1 2 1 2 1 Z " fill="#000000" transform="translate(28,399)"/>
<path d="" fill="#000000" transform="translate(0,0)"/>
<path d="M0 0 C2 1 2 1 2 1 Z " fill="#000000" transform="translate(17,380)"/>
<path d="M0 0 C2 1 2 1 2 1 Z " fill="#000000" transform="translate(71,368)"/>
<path d="M0 0 C2 1 2 1 2 1 Z " fill="#202020" transform="translate(68,366)"/>
<path d="" fill="#000000" transform="translate(0,0)"/>
<path d="" fill="#000000" transform="translate(0,0)"/>
<path d="" fill="#000000" transform="translate(0,0)"/>
<path d="" fill="#000000" transform="translate(0,0)"/>
<path d="" fill="#000000" transform="translate(0,0)"/>
<path d="" fill="#000000" transform="translate(0,0)"/>
<path d="" fill="#000000" transform="translate(0,0)"/>
<path d="M0 0 C2 1 2 1 2 1 Z " fill="#000000" transform="translate(1,291)"/>
<path d="" fill="#000000" transform="translate(0,0)"/>
<path d="" fill="#000000" transform="translate(0,0)"/>
<path d="" fill="#000000" transform="translate(0,0)"/>
<path d="M0 0 C2 1 2 1 2 1 Z " fill="#000000" transform="translate(119,261)"/>
<path d="" fill="#000000" transform="translate(0,0)"/>
<path d="" fill="#2A2A2A" transform="translate(0,0)"/>
<path d="" fill="#000000" transform="translate(0,0)"/>
<path d="M0 0 C2 1 2 1 2 1 Z " fill="#000000" transform="translate(104,241)"/>
<path d="M0 0 C2 1 2 1 2 1 Z " fill="#000000" transform="translate(252,231)"/>
<path d="M0 0 C2 1 2 1 2 1 Z " fill="#000000" transform="translate(179,222)"/>
<path d="M0 0 C2 1 2 1 2 1 Z " fill="#000000" transform="translate(42,217)"/>
<path d="M0 0 C2 1 2 1 2 1 Z " fill="#202020" transform="translate(374,216)"/>
<path d="M0 0 C2 1 2 1 2 1 Z " fill="#000000" transform="translate(294,216)"/>
<path d="M0 0 C2 1 2 1 2 1 Z " fill="#2A2A2A" transform="translate(87,216)"/>
<path d="M0 0 C2 1 2 1 2 1 Z " fill="#000000" transform="translate(372,215)"/>
<path d="M0 0 C2 1 2 1 2 1 Z " fill="#000000" transform="translate(93,214)"/>
<path d="M0 0 C2 1 2 1 2 1 Z " fill="#000000" transform="translate(366,213)"/>
<path d="M0 0 C2 1 2 1 2 1 Z " fill="#000000" transform="translate(155,212)"/>
<path d="M0 0 C2 1 2 1 2 1 Z " fill="#000000" transform="translate(333,208)"/>
<path d="" fill="#000000" transform="translate(0,0)"/>
<path d="M0 0 C2 1 2 1 2 1 Z " fill="#000000" transform="translate(260,201)"/>
<path d="M0 0 C2 1 2 1 2 1 Z " fill="#000000" transform="translate(190,201)"/>
<path d="M0 0 C2 1 2 1 2 1 Z " fill="#000000" transform="translate(64,201)"/>
<path d="M0 0 C2 1 2 1 2 1 Z " fill="#000000" transform="translate(80,194)"/>
<path d="M0 0 C2 1 2 1 2 1 Z " fill="#000000" transform="translate(281,193)"/>
<path d="M0 0 C2 1 2 1 2 1 Z " fill="#000000" transform="translate(82,193)"/>
<path d="M0 0 C2 1 2 1 2 1 Z " fill="#000000" transform="translate(317,186)"/>
<path d="M0 0 C2 1 2 1 2 1 Z " fill="#000000" transform="translate(334,185)"/>
<path d="M0 0 C2 1 2 1 2 1 Z " fill="#000000" transform="translate(222,168)"/>
<path d="" fill="#000000" transform="translate(0,0)"/>
<path d="" fill="#000000" transform="translate(0,0)"/>
<path d="" fill="#000000" transform="translate(0,0)"/>
<path d="" fill="#000000" transform="translate(0,0)"/>
<path d="M0 0 C2 1 2 1 2 1 Z " fill="#000000" transform="translate(260,166)"/>
<path d="M0 0 C2 1 2 1 2 1 Z " fill="#000000" transform="translate(210,166)"/>
<path d="M0 0 C2 1 2 1 2 1 Z " fill="#000000" transform="translate(164,166)"/>
<path d="M0 0 C2 1 2 1 2 1 Z " fill="#000000" transform="translate(145,166)"/>
<path d="M0 0 C2 1 2 1 2 1 Z " fill="#000000" transform="translate(129,166)"/>
<path d="" fill="#000000" transform="translate(0,0)"/>
<path d="M0 0 C2 1 2 1 2 1 Z " fill="#000000" transform="translate(196,143)"/>
<path d="" fill="#000000" transform="translate(0,0)"/>
<path d="" fill="#202020" transform="translate(0,0)"/>
<path d="" fill="#000000" transform="translate(0,0)"/>
<path d="M0 0 C2 1 2 1 2 1 Z " fill="#000000" transform="translate(174,117)"/>
<path d="" fill="#000000" transform="translate(0,0)"/>
<path d="" fill="#000000" transform="translate(0,0)"/>
<path d="M0 0 C2 1 2 1 2 1 Z " fill="#000000" transform="translate(160,110)"/>
<path d="M0 0 C2 1 2 1 2 1 Z " fill="#000000" transform="translate(158,109)"/>
<path d="" fill="#000000" transform="translate(0,0)"/>
<path d="" fill="#000000" transform="translate(0,0)"/>
<path d="" fill="#000000" transform="translate(0,0)"/>
<path d="" fill="#000000" transform="translate(0,0)"/>
<path d="" fill="#000000" transform="translate(0,0)"/>
<path d="" fill="#000000" transform="translate(0,0)"/>
<path d="" fill="#000000" transform="translate(0,0)"/>
<path d="M0 0 C2 1 2 1 2 1 Z " fill="#000000" transform="translate(362,84)"/>
<path d="" fill="#191919" transform="translate(0,0)"/>
<path d="" fill="#000000" transform="translate(0,0)"/>
<path d="M0 0 C2 1 2 1 2 1 Z " fill="#000000" transform="translate(336,65)"/>
<path d="" fill="#000000" transform="translate(0,0)"/>
<path d="" fill="#000000" transform="translate(0,0)"/>
<path d="M0 0 C2 1 2 1 2 1 Z " fill="#000000" transform="translate(361,51)"/>
<path d="M0 0 C2 1 2 1 2 1 Z " fill="#000000" transform="translate(210,25)"/>
<path d="" fill="#000000" transform="translate(0,0)"/>
<path d="" fill="#000000" transform="translate(0,0)"/>
<path d="" fill="#000000" transform="translate(0,0)"/>
<path d="" fill="#000000" transform="translate(0,0)"/>
<path d="" fill="#000000" transform="translate(0,0)"/>
<path d="" fill="#000000" transform="translate(0,0)"/>
<path d="" fill="#000000" transform="translate(0,0)"/>
<path d="" fill="#000000" transform="translate(0,0)"/>
<path d="" fill="#000000" transform="translate(0,0)"/>
<path d="" fill="#000000" transform="translate(0,0)"/>
<path d="" fill="#000000" transform="translate(0,0)"/>
<path d="" fill="#000000" transform="translate(0,0)"/>
<path d="" fill="#000000" transform="translate(0,0)"/>
<path d="" fill="#000000" transform="translate(0,0)"/>
<path d="" fill="#000000" transform="translate(0,0)"/>
<path d="" fill="#000000" transform="translate(0,0)"/>
<path d="" fill="#000000" transform="translate(0,0)"/>
<path d="" fill="#000000" transform="translate(0,0)"/>
<path d="" fill="#000000" transform="translate(0,0)"/>
<path d="" fill="#404040" transform="translate(0,0)"/>
<path d="" fill="#000000" transform="translate(0,0)"/>
<path d="" fill="#000000" transform="translate(0,0)"/>
<path d="" fill="#404040" transform="translate(0,0)"/>
<path d="" fill="#000000" transform="translate(0,0)"/>
<path d="" fill="#000000" transform="translate(0,0)"/>
<path d="" fill="#000000" transform="translate(0,0)"/>
<path d="" fill="#000000" transform="translate(0,0)"/>
<path d="" fill="#000000" transform="translate(0,0)"/>
<path d="" fill="#000000" transform="translate(0,0)"/>
<path d="" fill="#000000" transform="translate(0,0)"/>
<path d="" fill="#000000" transform="translate(0,0)"/>
<path d="" fill="#000000" transform="translate(0,0)"/>
<path d="" fill="#000000" transform="translate(0,0)"/>
<path d="" fill="#000000" transform="translate(0,0)"/>
<path d="" fill="#000000" transform="translate(0,0)"/>
<path d="" fill="#000000" transform="translate(0,0)"/>
<path d="" fill="#000000" transform="translate(0,0)"/>
<path d="" fill="#000000" transform="translate(0,0)"/>
<path d="" fill="#000000" transform="translate(0,0)"/>
<path d="" fill="#2B2B2B" transform="translate(0,0)"/>
<path d="" fill="#000000" transform="translate(0,0)"/>
<path d="" fill="#000000" transform="translate(0,0)"/>
<path d="" fill="#000000" transform="translate(0,0)"/>
<path d="" fill="#000000" transform="translate(0,0)"/>
<path d="" fill="#000000" transform="translate(0,0)"/>
<path d="" fill="#000000" transform="translate(0,0)"/>
<path d="" fill="#000000" transform="translate(0,0)"/>
<path d="" fill="#000000" transform="translate(0,0)"/>
<path d="" fill="#000000" transform="translate(0,0)"/>
<path d="" fill="#000000" transform="translate(0,0)"/>
<path d="" fill="#550000" transform="translate(0,0)"/>
<path d="" fill="#000000" transform="translate(0,0)"/>
<path d="" fill="#000000" transform="translate(0,0)"/>
<path d="" fill="#000000" transform="translate(0,0)"/>
<path d="" fill="#000000" transform="translate(0,0)"/>
<path d="" fill="#000000" transform="translate(0,0)"/>
<path d="" fill="#000000" transform="translate(0,0)"/>
<path d="" fill="#000000" transform="translate(0,0)"/>
<path d="" fill="#000000" transform="translate(0,0)"/>
<path d="" fill="#000000" transform="translate(0,0)"/>
<path d="" fill="#000000" transform="translate(0,0)"/>
<path d="" fill="#000000" transform="translate(0,0)"/>
<path d="" fill="#000000" transform="translate(0,0)"/>
<path d="" fill="#000000" transform="translate(0,0)"/>
<path d="" fill="#000000" transform="translate(0,0)"/>
<path d="" fill="#000000" transform="translate(0,0)"/>
<path d="" fill="#000000" transform="translate(0,0)"/>
<path d="" fill="#000000" transform="translate(0,0)"/>
<path d="" fill="#000000" transform="translate(0,0)"/>
<path d="" fill="#000000" transform="translate(0,0)"/>
<path d="" fill="#000000" transform="translate(0,0)"/>
<path d="" fill="#000000" transform="translate(0,0)"/>
<path d="" fill="#000000" transform="translate(0,0)"/>
<path d="" fill="#000000" transform="translate(0,0)"/>
<path d="" fill="#000000" transform="translate(0,0)"/>
<path d="" fill="#000000" transform="translate(0,0)"/>
<path d="" fill="#000000" transform="translate(0,0)"/>
<path d="" fill="#000000" transform="translate(0,0)"/>
<path d="" fill="#000000" transform="translate(0,0)"/>
<path d="" fill="#000000" transform="translate(0,0)"/>
<path d="" fill="#000000" transform="translate(0,0)"/>
<path d="" fill="#333333" transform="translate(0,0)"/>
<path d="" fill="#000000" transform="translate(0,0)"/>
<path d="" fill="#000000" transform="translate(0,0)"/>
<path d="" fill="#000000" transform="translate(0,0)"/>
<path d="" fill="#000000" transform="translate(0,0)"/>
<path d="" fill="#000000" transform="translate(0,0)"/>
<path d="" fill="#000000" transform="translate(0,0)"/>
<path d="" fill="#000000" transform="translate(0,0)"/>
<path d="" fill="#000000" transform="translate(0,0)"/>
<path d="" fill="#000000" transform="translate(0,0)"/>
<path d="" fill="#000000" transform="translate(0,0)"/>
<path d="" fill="#000000" transform="translate(0,0)"/>
<path d="" fill="#000000" transform="translate(0,0)"/>
<path d="" fill="#000000" transform="translate(0,0)"/>
<path d="" fill="#000000" transform="translate(0,0)"/>
<path d="" fill="#000000" transform="translate(0,0)"/>
<path d="" fill="#000000" transform="translate(0,0)"/>
<path d="" fill="#000000" transform="translate(0,0)"/>
<path d="" fill="#000000" transform="translate(0,0)"/>
<path d="" fill="#000000" transform="translate(0,0)"/>
<path d="" fill="#000000" transform="translate(0,0)"/>
<path d="" fill="#000000" transform="translate(0,0)"/>
<path d="" fill="#000000" transform="translate(0,0)"/>
<path d="" fill="#000000" transform="translate(0,0)"/>
<path d="" fill="#000000" transform="translate(0,0)"/>
<path d="" fill="#000000" transform="translate(0,0)"/>
<path d="" fill="#000000" transform="translate(0,0)"/>
<path d="" fill="#000000" transform="translate(0,0)"/>
<path d="" fill="#000000" transform="translate(0,0)"/>
<path d="" fill="#000000" transform="translate(0,0)"/>
<path d="" fill="#000000" transform="translate(0,0)"/>
<path d="" fill="#000000" transform="translate(0,0)"/>
<path d="" fill="#000000" transform="translate(0,0)"/>
<path d="" fill="#000000" transform="translate(0,0)"/>
<path d="" fill="#000000" transform="translate(0,0)"/>
<path d="" fill="#000000" transform="translate(0,0)"/>
<path d="" fill="#000000" transform="translate(0,0)"/>
<path d="" fill="#000000" transform="translate(0,0)"/>
<path d="" fill="#000000" transform="translate(0,0)"/>
<path d="" fill="#000000" transform="translate(0,0)"/>
<path d="" fill="#000000" transform="translate(0,0)"/>
<path d="" fill="#000000" transform="translate(0,0)"/>
<path d="" fill="#000000" transform="translate(0,0)"/>
<path d="" fill="#000000" transform="translate(0,0)"/>
<path d="" fill="#000000" transform="translate(0,0)"/>
<path d="" fill="#000000" transform="translate(0,0)"/>
<path d="" fill="#000000" transform="translate(0,0)"/>
<path d="" fill="#000000" transform="translate(0,0)"/>
<path d="" fill="#000000" transform="translate(0,0)"/>
<path d="" fill="#550000" transform="translate(0,0)"/>
<path d="" fill="#000000" transform="translate(0,0)"/>
<path d="" fill="#000000" transform="translate(0,0)"/>
<path d="" fill="#000000" transform="translate(0,0)"/>
<path d="" fill="#000000" transform="translate(0,0)"/>
<path d="" fill="#000000" transform="translate(0,0)"/>
<path d="" fill="#000000" transform="translate(0,0)"/>
<path d="" fill="#000000" transform="translate(0,0)"/>
<path d="" fill="#000000" transform="translate(0,0)"/>
<path d="" fill="#000000" transform="translate(0,0)"/>
<path d="" fill="#000000" transform="translate(0,0)"/>
<path d="" fill="#000000" transform="translate(0,0)"/>
<path d="" fill="#000000" transform="translate(0,0)"/>
<path d="" fill="#000000" transform="translate(0,0)"/>
<path d="" fill="#000000" transform="translate(0,0)"/>
<path d="" fill="#000000" transform="translate(0,0)"/>
<path d="" fill="#000000" transform="translate(0,0)"/>
<path d="" fill="#000000" transform="translate(0,0)"/>
<path d="" fill="#000000" transform="translate(0,0)"/>
<path d="" fill="#000000" transform="translate(0,0)"/>
<path d="" fill="#000000" transform="translate(0,0)"/>
<path d="" fill="#000000" transform="translate(0,0)"/>
<path d="" fill="#000000" transform="translate(0,0)"/>
<path d="" fill="#000000" transform="translate(0,0)"/>
<path d="" fill="#000000" transform="translate(0,0)"/>
<path d="" fill="#000000" transform="translate(0,0)"/>
<path d="" fill="#000000" transform="translate(0,0)"/>
<path d="" fill="#000000" transform="translate(0,0)"/>
<path d="" fill="#000000" transform="translate(0,0)"/>
<path d="" fill="#404040" transform="translate(0,0)"/>
<path d="" fill="#000000" transform="translate(0,0)"/>
<path d="" fill="#000000" transform="translate(0,0)"/>
<path d="" fill="#333333" transform="translate(0,0)"/>
<path d="" fill="#000000" transform="translate(0,0)"/>
<path d="" fill="#000000" transform="translate(0,0)"/>
<path d="" fill="#000000" transform="translate(0,0)"/>
<path d="" fill="#000000" transform="translate(0,0)"/>
<path d="" fill="#000000" transform="translate(0,0)"/>
<path d="" fill="#000000" transform="translate(0,0)"/>
<path d="" fill="#000000" transform="translate(0,0)"/>
<path d="" fill="#000000" transform="translate(0,0)"/>
<path d="" fill="#000000" transform="translate(0,0)"/>
<path d="" fill="#000000" transform="translate(0,0)"/>
<path d="" fill="#000000" transform="translate(0,0)"/>
<path d="" fill="#000000" transform="translate(0,0)"/>
<path d="" fill="#000000" transform="translate(0,0)"/>
<path d="" fill="#000000" transform="translate(0,0)"/>
<path d="" fill="#000000" transform="translate(0,0)"/>
<path d="" fill="#000000" transform="translate(0,0)"/>
<path d="" fill="#000000" transform="translate(0,0)"/>
<path d="" fill="#000000" transform="translate(0,0)"/>
<path d="" fill="#000000" transform="translate(0,0)"/>
<path d="" fill="#000000" transform="translate(0,0)"/>
<path d="" fill="#000000" transform="translate(0,0)"/>
<path d="" fill="#000000" transform="translate(0,0)"/>
<path d="" fill="#2B2B2B" transform="translate(0,0)"/>
<path d="" fill="#000000" transform="translate(0,0)"/>
<path d="" fill="#000000" transform="translate(0,0)"/>
<path d="" fill="#000000" transform="translate(0,0)"/>
<path d="" fill="#000000" transform="translate(0,0)"/>
<path d="" fill="#000000" transform="translate(0,0)"/>
<path d="" fill="#000000" transform="translate(0,0)"/>
<path d="" fill="#404040" transform="translate(0,0)"/>
<path d="" fill="#000000" transform="translate(0,0)"/>
<path d="" fill="#000000" transform="translate(0,0)"/>
<path d="" fill="#000000" transform="translate(0,0)"/>
<path d="" fill="#000000" transform="translate(0,0)"/>
<path d="" fill="#000000" transform="translate(0,0)"/>
<path d="" fill="#000000" transform="translate(0,0)"/>
<path d="" fill="#000000" transform="translate(0,0)"/>
<path d="" fill="#000000" transform="translate(0,0)"/>
<path d="" fill="#404040" transform="translate(0,0)"/>
<path d="" fill="#000000" transform="translate(0,0)"/>
<path d="" fill="#000000" transform="translate(0,0)"/>
<path d="" fill="#000000" transform="translate(0,0)"/>
<path d="" fill="#000000" transform="translate(0,0)"/>
<path d="" fill="#000000" transform="translate(0,0)"/>
<path d="" fill="#000000" transform="translate(0,0)"/>
<path d="" fill="#2B2B2B" transform="translate(0,0)"/>
<path d="" fill="#000000" transform="translate(0,0)"/>
<path d="" fill="#000000" transform="translate(0,0)"/>
<path d="" fill="#000000" transform="translate(0,0)"/>
<path d="" fill="#333333" transform="translate(0,0)"/>
<path d="" fill="#000000" transform="translate(0,0)"/>
<path d="" fill="#000000" transform="translate(0,0)"/>
<path d="" fill="#000000" transform="translate(0,0)"/>
<path d="" fill="#000000" transform="translate(0,0)"/>
<path d="" fill="#000000" transform="translate(0,0)"/>
<path d="" fill="#000000" transform="translate(0,0)"/>
<path d="" fill="#000000" transform="translate(0,0)"/>
<path d="" fill="#000000" transform="translate(0,0)"/>
<path d="" fill="#000000" transform="translate(0,0)"/>
<path d="" fill="#000000" transform="translate(0,0)"/>
<path d="" fill="#000000" transform="translate(0,0)"/>
<path d="" fill="#000000" transform="translate(0,0)"/>
<path d="" fill="#000000" transform="translate(0,0)"/>
<path d="" fill="#000000" transform="translate(0,0)"/>
<path d="" fill="#000000" transform="translate(0,0)"/>
<path d="" fill="#000000" transform="translate(0,0)"/>
<path d="" fill="#000000" transform="translate(0,0)"/>
<path d="" fill="#555555" transform="translate(0,0)"/>
<path d="" fill="#000000" transform="translate(0,0)"/>
<path d="" fill="#000000" transform="translate(0,0)"/>
<path d="" fill="#000000" transform="translate(0,0)"/>
<path d="" fill="#550055" transform="translate(0,0)"/>
<path d="" fill="#000000" transform="translate(0,0)"/>
<path d="" fill="#000000" transform="translate(0,0)"/>
<path d="" fill="#000000" transform="translate(0,0)"/>
<path d="" fill="#000000" transform="translate(0,0)"/>
<path d="" fill="#000000" transform="translate(0,0)"/>
<path d="" fill="#000000" transform="translate(0,0)"/>
<path d="" fill="#000000" transform="translate(0,0)"/>
<path d="" fill="#000000" transform="translate(0,0)"/>
<path d="" fill="#000000" transform="translate(0,0)"/>
<path d="" fill="#005500" transform="translate(0,0)"/>
<path d="" fill="#005500" transform="translate(0,0)"/>
<path d="" fill="#000000" transform="translate(0,0)"/>
<path d="" fill="#000000" transform="translate(0,0)"/>
<path d="" fill="#000000" transform="translate(0,0)"/>
<path d="" fill="#000000" transform="translate(0,0)"/>
<path d="" fill="#000000" transform="translate(0,0)"/>
<path d="" fill="#000000" transform="translate(0,0)"/>
<path d="" fill="#000000" transform="translate(0,0)"/>
<path d="" fill="#000000" transform="translate(0,0)"/>
<path d="" fill="#000000" transform="translate(0,0)"/>
<path d="" fill="#000000" transform="translate(0,0)"/>
<path d="" fill="#404040" transform="translate(0,0)"/>
<path d="" fill="#000000" transform="translate(0,0)"/>
<path d="" fill="#000000" transform="translate(0,0)"/>
<path d="" fill="#000000" transform="translate(0,0)"/>
<path d="" fill="#000000" transform="translate(0,0)"/>
<path d="" fill="#000000" transform="translate(0,0)"/>
<path d="" fill="#000000" transform="translate(0,0)"/>
<path d="" fill="#000000" transform="translate(0,0)"/>
<path d="" fill="#000000" transform="translate(0,0)"/>
<path d="" fill="#000000" transform="translate(0,0)"/>
<path d="" fill="#000000" transform="translate(0,0)"/>
<path d="" fill="#000000" transform="translate(0,0)"/>
<path d="" fill="#000000" transform="translate(0,0)"/>
<path d="" fill="#000000" transform="translate(0,0)"/>
<path d="" fill="#000000" transform="translate(0,0)"/>
<path d="" fill="#000000" transform="translate(0,0)"/>
<path d="" fill="#000000" transform="translate(0,0)"/>
<path d="" fill="#000000" transform="translate(0,0)"/>
<path d="" fill="#000000" transform="translate(0,0)"/>
<path d="" fill="#000000" transform="translate(0,0)"/>
<path d="" fill="#000000" transform="translate(0,0)"/>
<path d="" fill="#000000" transform="translate(0,0)"/>
<path d="" fill="#000000" transform="translate(0,0)"/>
<path d="" fill="#000000" transform="translate(0,0)"/>
<path d="" fill="#000000" transform="translate(0,0)"/>
<path d="" fill="#000000" transform="translate(0,0)"/>
<path d="" fill="#000000" transform="translate(0,0)"/>
<path d="" fill="#000000" transform="translate(0,0)"/>
<path d="" fill="#000000" transform="translate(0,0)"/>
<path d="" fill="#000000" transform="translate(0,0)"/>
<path d="" fill="#000000" transform="translate(0,0)"/>
<path d="" fill="#000000" transform="translate(0,0)"/>
<path d="" fill="#000000" transform="translate(0,0)"/>
<path d="" fill="#000000" transform="translate(0,0)"/>
<path d="" fill="#000000" transform="translate(0,0)"/>
<path d="" fill="#000000" transform="translate(0,0)"/>
<path d="" fill="#000000" transform="translate(0,0)"/>
<path d="" fill="#000000" transform="translate(0,0)"/>
<path d="" fill="#000000" transform="translate(0,0)"/>
<path d="" fill="#000000" transform="translate(0,0)"/>
<path d="" fill="#000000" transform="translate(0,0)"/>
<path d="" fill="#000000" transform="translate(0,0)"/>
<path d="" fill="#000000" transform="translate(0,0)"/>
<path d="" fill="#000000" transform="translate(0,0)"/>
<path d="" fill="#000000" transform="translate(0,0)"/>
<path d="" fill="#000000" transform="translate(0,0)"/>
<path d="" fill="#000000" transform="translate(0,0)"/>
<path d="" fill="#000000" transform="translate(0,0)"/>
<path d="" fill="#000000" transform="translate(0,0)"/>
<path d="" fill="#000000" transform="translate(0,0)"/>
<path d="" fill="#000000" transform="translate(0,0)"/>
<path d="" fill="#000000" transform="translate(0,0)"/>
<path d="" fill="#000000" transform="translate(0,0)"/>
<path d="" fill="#000000" transform="translate(0,0)"/>
<path d="" fill="#000000" transform="translate(0,0)"/>
<path d="" fill="#000000" transform="translate(0,0)"/>
<path d="" fill="#000000" transform="translate(0,0)"/>
<path d="" fill="#000000" transform="translate(0,0)"/>
<path d="" fill="#000000" transform="translate(0,0)"/>
<path d="" fill="#000000" transform="translate(0,0)"/>
<path d="" fill="#000000" transform="translate(0,0)"/>
<path d="" fill="#000000" transform="translate(0,0)"/>
<path d="" fill="#000000" transform="translate(0,0)"/>
<path d="" fill="#000000" transform="translate(0,0)"/>
<path d="" fill="#000000" transform="translate(0,0)"/>
<path d="" fill="#000000" transform="translate(0,0)"/>
<path d="" fill="#000000" transform="translate(0,0)"/>
<path d="" fill="#000000" transform="translate(0,0)"/>
<path d="" fill="#000000" transform="translate(0,0)"/>
<path d="" fill="#000000" transform="translate(0,0)"/>
<path d="" fill="#000000" transform="translate(0,0)"/>
<path d="" fill="#000000" transform="translate(0,0)"/>
<path d="" fill="#000000" transform="translate(0,0)"/>
<path d="" fill="#000000" transform="translate(0,0)"/>
<path d="" fill="#000000" transform="translate(0,0)"/>
<path d="" fill="#000000" transform="translate(0,0)"/>
<path d="" fill="#000000" transform="translate(0,0)"/>
<path d="" fill="#000000" transform="translate(0,0)"/>
<path d="" fill="#000000" transform="translate(0,0)"/>
<path d="" fill="#000000" transform="translate(0,0)"/>
<path d="" fill="#000000" transform="translate(0,0)"/>
<path d="" fill="#000000" transform="translate(0,0)"/>
<path d="" fill="#000000" transform="translate(0,0)"/>
<path d="" fill="#000000" transform="translate(0,0)"/>
<path d="" fill="#000000" transform="translate(0,0)"/>
<path d="" fill="#000000" transform="translate(0,0)"/>
<path d="" fill="#000000" transform="translate(0,0)"/>
<path d="" fill="#000000" transform="translate(0,0)"/>
<path d="" fill="#000000" transform="translate(0,0)"/>
<path d="" fill="#000000" transform="translate(0,0)"/>
<path d="" fill="#000000" transform="translate(0,0)"/>
<path d="" fill="#000000" transform="translate(0,0)"/>
<path d="" fill="#000000" transform="translate(0,0)"/>
<path d="" fill="#000000" transform="translate(0,0)"/>
<path d="" fill="#000000" transform="translate(0,0)"/>
<path d="" fill="#000000" transform="translate(0,0)"/>
<path d="" fill="#000000" transform="translate(0,0)"/>
<path d="" fill="#000000" transform="translate(0,0)"/>
<path d="" fill="#000000" transform="translate(0,0)"/>
<path d="" fill="#000000" transform="translate(0,0)"/>
<path d="" fill="#000000" transform="translate(0,0)"/>
<path d="" fill="#000000" transform="translate(0,0)"/>
<path d="" fill="#000000" transform="translate(0,0)"/>
<path d="" fill="#000000" transform="translate(0,0)"/>
<path d="" fill="#000000" transform="translate(0,0)"/>
<path d="" fill="#000000" transform="translate(0,0)"/>
<path d="" fill="#000000" transform="translate(0,0)"/>
<path d="" fill="#000000" transform="translate(0,0)"/>
<path d="" fill="#000000" transform="translate(0,0)"/>
<path d="" fill="#000000" transform="translate(0,0)"/>
<path d="" fill="#000000" transform="translate(0,0)"/>
<path d="" fill="#000000" transform="translate(0,0)"/>
<path d="" fill="#000000" transform="translate(0,0)"/>
<path d="" fill="#000000" transform="translate(0,0)"/>
<path d="" fill="#000000" transform="translate(0,0)"/>
<path d="" fill="#000000" transform="translate(0,0)"/>
<path d="" fill="#000000" transform="translate(0,0)"/>
<path d="" fill="#000000" transform="translate(0,0)"/>
<path d="" fill="#000000" transform="translate(0,0)"/>
<path d="" fill="#000000" transform="translate(0,0)"/>
<path d="" fill="#000000" transform="translate(0,0)"/>
<path d="" fill="#000000" transform="translate(0,0)"/>
<path d="" fill="#000000" transform="translate(0,0)"/>
<path d="" fill="#000000" transform="translate(0,0)"/>
<path d="" fill="#000000" transform="translate(0,0)"/>
<path d="" fill="#000000" transform="translate(0,0)"/>
<path d="" fill="#000000" transform="translate(0,0)"/>
<path d="" fill="#000000" transform="translate(0,0)"/>
<path d="" fill="#000000" transform="translate(0,0)"/>
<path d="" fill="#000000" transform="translate(0,0)"/>
<path d="" fill="#000000" transform="translate(0,0)"/>
<path d="" fill="#000000" transform="translate(0,0)"/>
<path d="" fill="#000000" transform="translate(0,0)"/>
<path d="" fill="#000000" transform="translate(0,0)"/>
<path d="" fill="#000000" transform="translate(0,0)"/>
<path d="" fill="#000000" transform="translate(0,0)"/>
<path d="" fill="#000000" transform="translate(0,0)"/>
<path d="" fill="#000000" transform="translate(0,0)"/>
<path d="" fill="#000000" transform="translate(0,0)"/>
<path d="" fill="#000000" transform="translate(0,0)"/>
<path d="" fill="#000000" transform="translate(0,0)"/>
<path d="" fill="#000000" transform="translate(0,0)"/>
<path d="" fill="#000000" transform="translate(0,0)"/>
<path d="" fill="#000000" transform="translate(0,0)"/>
<path d="" fill="#000000" transform="translate(0,0)"/>
<path d="" fill="#000000" transform="translate(0,0)"/>
<path d="" fill="#000000" transform="translate(0,0)"/>
<path d="" fill="#000000" transform="translate(0,0)"/>
<path d="" fill="#000000" transform="translate(0,0)"/>
<path d="" fill="#000000" transform="translate(0,0)"/>
<path d="" fill="#000000" transform="translate(0,0)"/>
<path d="" fill="#000000" transform="translate(0,0)"/>
<path d="" fill="#000000" transform="translate(0,0)"/>
<path d="" fill="#404040" transform="translate(0,0)"/>
<path d="" fill="#000000" transform="translate(0,0)"/>
<path d="" fill="#000000" transform="translate(0,0)"/>
<path d="" fill="#000000" transform="translate(0,0)"/>
<path d="" fill="#000000" transform="translate(0,0)"/>
<path d="" fill="#000000" transform="translate(0,0)"/>
<path d="" fill="#000000" transform="translate(0,0)"/>
<path d="" fill="#000000" transform="translate(0,0)"/>
<path d="" fill="#000000" transform="translate(0,0)"/>
<path d="" fill="#333333" transform="translate(0,0)"/>
<path d="" fill="#000000" transform="translate(0,0)"/>
<path d="" fill="#000000" transform="translate(0,0)"/>
<path d="" fill="#404040" transform="translate(0,0)"/>
<path d="" fill="#000000" transform="translate(0,0)"/>
<path d="" fill="#000000" transform="translate(0,0)"/>
<path d="" fill="#550000" transform="translate(0,0)"/>
<path d="" fill="#000000" transform="translate(0,0)"/>
<path d="" fill="#000000" transform="translate(0,0)"/>
<path d="" fill="#000000" transform="translate(0,0)"/>
<path d="" fill="#000000" transform="translate(0,0)"/>
<path d="" fill="#000000" transform="translate(0,0)"/>
<path d="" fill="#000000" transform="translate(0,0)"/>
<path d="" fill="#000000" transform="translate(0,0)"/>
<path d="" fill="#000000" transform="translate(0,0)"/>
<path d="" fill="#000000" transform="translate(0,0)"/>
<path d="" fill="#000000" transform="translate(0,0)"/>
<path d="" fill="#000000" transform="translate(0,0)"/>
<path d="" fill="#404040" transform="translate(0,0)"/>
<path d="" fill="#000000" transform="translate(0,0)"/>
<path d="" fill="#000000" transform="translate(0,0)"/>
<path d="" fill="#000000" transform="translate(0,0)"/>
<path d="" fill="#000000" transform="translate(0,0)"/>
<path d="" fill="#000000" transform="translate(0,0)"/>
<path d="" fill="#000000" transform="translate(0,0)"/>
<path d="" fill="#000000" transform="translate(0,0)"/>
</svg>
