<svg xmlns="http://www.w3.org/2000/svg" xmlns:xlink="http://www.w3.org/1999/xlink" width="100" zoomAndPan="magnify" viewBox="0 0 75 74.999997" height="100" preserveAspectRatio="xMidYMid meet" version="1.0"><defs><clipPath id="4e88777d87"><path d="M 20.226562 22.507812 L 54.726562 22.507812 L 54.726562 56.257812 L 20.226562 56.257812 Z M 20.226562 22.507812 " clip-rule="nonzero"/></clipPath></defs><rect x="-7.5" width="90" fill="#ffffff" y="-7.5" height="89.999996" fill-opacity="1"/><rect x="-7.5" width="90" fill="#ffffff" y="-7.5" height="89.999996" fill-opacity="1"/><g clip-path="url(#4e88777d87)"><path fill="#191919" d="M 20.714844 56.261719 L 54.238281 56.261719 C 54.371094 56.261719 54.488281 56.214844 54.582031 56.117188 C 54.679688 56.023438 54.726562 55.90625 54.726562 55.773438 L 54.726562 44.414062 C 54.726562 44.277344 54.679688 44.164062 54.582031 44.070312 C 54.488281 43.972656 54.371094 43.925781 54.238281 43.925781 C 52.320312 43.925781 50.660156 43.144531 49.4375 41.664062 C 48.941406 41.066406 48.324219 40.628906 47.59375 40.359375 C 47.992188 39.582031 48.457031 38.84375 48.992188 38.152344 C 49.96875 36.875 50.457031 35.433594 50.453125 33.828125 C 50.453125 29.8125 46.617188 26.699219 43.316406 26.699219 C 41.515625 26.699219 40.179688 27.007812 39.117188 27.671875 C 38.328125 28.164062 37.441406 28.285156 36.59375 28.019531 C 36.484375 27.5 36.316406 27.003906 36.09375 26.523438 C 35.871094 26.042969 35.597656 25.597656 35.269531 25.179688 C 34.945312 24.761719 34.574219 24.386719 34.164062 24.054688 C 33.753906 23.722656 33.308594 23.441406 32.832031 23.210938 C 32.355469 22.976562 31.863281 22.804688 31.34375 22.683594 C 30.828125 22.566406 30.308594 22.507812 29.777344 22.507812 C 29.25 22.511719 28.726562 22.570312 28.210938 22.691406 C 27.695312 22.8125 27.199219 22.988281 26.726562 23.222656 C 26.25 23.457031 25.808594 23.738281 25.398438 24.074219 C 24.988281 24.40625 24.621094 24.785156 24.296875 25.203125 C 23.972656 25.621094 23.699219 26.070312 23.476562 26.550781 C 23.257812 27.03125 23.09375 27.527344 22.984375 28.046875 C 22.878906 28.566406 22.832031 29.089844 22.84375 29.617188 C 22.855469 30.144531 22.929688 30.664062 23.058594 31.179688 C 23.191406 31.691406 23.378906 32.179688 23.621094 32.648438 C 23.867188 33.121094 24.160156 33.554688 24.503906 33.957031 C 24.527344 35.515625 25.011719 36.914062 25.964844 38.152344 C 26.496094 38.84375 26.964844 39.578125 27.359375 40.359375 C 26.628906 40.628906 26.011719 41.0625 25.515625 41.664062 C 24.296875 43.144531 22.636719 43.925781 20.714844 43.925781 C 20.582031 43.925781 20.464844 43.972656 20.371094 44.066406 C 20.273438 44.164062 20.226562 44.277344 20.226562 44.414062 L 20.226562 55.773438 C 20.226562 55.90625 20.273438 56.023438 20.371094 56.117188 C 20.464844 56.214844 20.582031 56.261719 20.714844 56.261719 Z M 23.820312 29.457031 C 23.820312 29.066406 23.859375 28.679688 23.933594 28.292969 C 24.011719 27.910156 24.125 27.539062 24.273438 27.175781 C 24.425781 26.8125 24.609375 26.46875 24.828125 26.144531 C 25.042969 25.816406 25.292969 25.515625 25.570312 25.238281 C 25.847656 24.960938 26.148438 24.714844 26.472656 24.496094 C 26.800781 24.28125 27.144531 24.097656 27.507812 23.945312 C 27.871094 23.796875 28.242188 23.683594 28.628906 23.605469 C 29.011719 23.53125 29.398438 23.492188 29.792969 23.492188 C 30.183594 23.492188 30.574219 23.53125 30.957031 23.605469 C 31.34375 23.683594 31.714844 23.796875 32.078125 23.945312 C 32.441406 24.097656 32.785156 24.28125 33.109375 24.496094 C 33.4375 24.714844 33.738281 24.960938 34.015625 25.238281 C 34.292969 25.515625 34.539062 25.816406 34.757812 26.144531 C 34.976562 26.46875 35.160156 26.8125 35.308594 27.175781 C 35.460938 27.535156 35.574219 27.910156 35.648438 28.292969 C 35.726562 28.679688 35.765625 29.066406 35.765625 29.457031 C 35.765625 29.851562 35.726562 30.238281 35.648438 30.621094 C 35.574219 31.007812 35.460938 31.378906 35.308594 31.742188 C 35.160156 32.101562 34.976562 32.445312 34.757812 32.773438 C 34.539062 33.097656 34.292969 33.398438 34.015625 33.675781 C 33.738281 33.953125 33.4375 34.203125 33.109375 34.417969 C 32.785156 34.636719 32.441406 34.820312 32.078125 34.96875 C 31.714844 35.121094 31.34375 35.234375 30.957031 35.308594 C 30.574219 35.386719 30.183594 35.425781 29.792969 35.425781 C 29.402344 35.425781 29.011719 35.386719 28.628906 35.308594 C 28.242188 35.230469 27.871094 35.117188 27.507812 34.96875 C 27.144531 34.820312 26.800781 34.632812 26.476562 34.417969 C 26.148438 34.199219 25.847656 33.953125 25.570312 33.675781 C 25.292969 33.398438 25.046875 33.097656 24.828125 32.769531 C 24.609375 32.445312 24.425781 32.101562 24.277344 31.742188 C 24.125 31.378906 24.011719 31.003906 23.9375 30.621094 C 23.859375 30.238281 23.820312 29.851562 23.820312 29.457031 Z M 26.742188 37.558594 C 26.152344 36.792969 25.765625 35.933594 25.585938 34.980469 C 26.101562 35.375 26.660156 35.6875 27.265625 35.921875 C 27.867188 36.160156 28.492188 36.308594 29.136719 36.371094 C 29.78125 36.429688 30.421875 36.402344 31.054688 36.285156 C 31.691406 36.167969 32.300781 35.964844 32.882812 35.679688 C 33.460938 35.390625 33.992188 35.03125 34.46875 34.597656 C 34.949219 34.160156 35.359375 33.667969 35.699219 33.117188 C 36.042969 32.570312 36.300781 31.984375 36.476562 31.363281 C 36.65625 30.738281 36.742188 30.105469 36.742188 29.457031 C 36.742188 29.324219 36.738281 29.191406 36.730469 29.058594 C 37.773438 29.253906 38.742188 29.070312 39.632812 28.5 C 40.535156 27.9375 41.707031 27.675781 43.316406 27.675781 C 46.105469 27.675781 49.472656 30.421875 49.472656 33.828125 C 49.476562 35.214844 49.058594 36.457031 48.214844 37.558594 C 46.734375 39.496094 45.871094 41.429688 45.421875 43.828125 C 45.210938 44.945312 44.78125 45.972656 44.136719 46.910156 C 43.488281 47.847656 42.683594 48.617188 41.714844 49.214844 C 41.28125 49.484375 40.839844 49.496094 40.394531 49.25 C 39.945312 49 39.722656 48.621094 39.722656 48.109375 L 39.722656 43 C 39.722656 42.703125 39.664062 42.417969 39.550781 42.144531 C 39.433594 41.871094 39.273438 41.628906 39.0625 41.417969 C 38.851562 41.210938 38.609375 41.050781 38.335938 40.9375 C 38.058594 40.824219 37.773438 40.765625 37.476562 40.765625 C 37.179688 40.765625 36.894531 40.824219 36.621094 40.9375 C 36.347656 41.050781 36.101562 41.210938 35.894531 41.417969 C 35.683594 41.628906 35.519531 41.871094 35.40625 42.144531 C 35.289062 42.417969 35.230469 42.703125 35.230469 43 L 35.230469 48.109375 C 35.230469 48.621094 35.007812 49 34.5625 49.25 C 34.113281 49.496094 33.671875 49.488281 33.238281 49.214844 C 32.269531 48.617188 31.460938 47.847656 30.816406 46.910156 C 30.171875 45.972656 29.742188 44.945312 29.53125 43.828125 C 29.082031 41.433594 28.222656 39.5 26.742188 37.558594 Z M 21.203125 44.886719 C 23.21875 44.765625 24.960938 43.871094 26.269531 42.285156 C 26.671875 41.800781 27.171875 41.457031 27.769531 41.25 C 28.132812 42.140625 28.398438 43.0625 28.570312 44.007812 C 28.808594 45.261719 29.289062 46.410156 30.011719 47.460938 C 30.734375 48.511719 31.636719 49.375 32.722656 50.046875 C 33.074219 50.265625 33.457031 50.382812 33.871094 50.394531 C 34.285156 50.402344 34.675781 50.304688 35.035156 50.101562 C 35.402344 49.902344 35.6875 49.625 35.898438 49.265625 C 36.109375 48.910156 36.210938 48.523438 36.207031 48.109375 L 36.207031 43 C 36.210938 42.832031 36.242188 42.671875 36.308594 42.515625 C 36.371094 42.363281 36.464844 42.226562 36.582031 42.109375 C 36.703125 41.988281 36.839844 41.898438 36.992188 41.835938 C 37.148438 41.773438 37.308594 41.738281 37.476562 41.738281 C 37.644531 41.738281 37.804688 41.773438 37.960938 41.835938 C 38.117188 41.898438 38.253906 41.988281 38.371094 42.109375 C 38.488281 42.226562 38.582031 42.363281 38.648438 42.515625 C 38.710938 42.671875 38.746094 42.832031 38.746094 43 L 38.746094 48.109375 C 38.746094 48.523438 38.851562 48.90625 39.058594 49.265625 C 39.269531 49.621094 39.554688 49.902344 39.917969 50.101562 C 40.28125 50.304688 40.667969 50.398438 41.082031 50.390625 C 41.496094 50.378906 41.878906 50.265625 42.230469 50.046875 C 43.316406 49.375 44.21875 48.511719 44.941406 47.460938 C 45.664062 46.410156 46.144531 45.261719 46.382812 44.007812 C 46.554688 43.0625 46.820312 42.140625 47.183594 41.25 C 47.78125 41.457031 48.28125 41.800781 48.683594 42.285156 C 49.992188 43.871094 51.734375 44.765625 53.746094 44.886719 L 53.746094 55.285156 L 21.203125 55.285156 Z M 33.152344 27.597656 L 28.738281 32.007812 C 28.644531 32.105469 28.527344 32.152344 28.394531 32.152344 C 28.257812 32.152344 28.144531 32.105469 28.046875 32.007812 L 26.433594 30.394531 C 26.335938 30.300781 26.289062 30.183594 26.289062 30.050781 C 26.289062 29.914062 26.335938 29.800781 26.429688 29.703125 C 26.527344 29.609375 26.640625 29.5625 26.777344 29.5625 C 26.914062 29.5625 27.027344 29.609375 27.125 29.703125 L 28.394531 30.972656 L 32.460938 26.90625 C 32.558594 26.8125 32.671875 26.765625 32.808594 26.765625 C 32.941406 26.765625 33.058594 26.8125 33.152344 26.90625 C 33.25 27.003906 33.296875 27.117188 33.296875 27.253906 C 33.296875 27.386719 33.25 27.503906 33.152344 27.597656 Z M 33.152344 27.597656 " fill-opacity="1" fill-rule="nonzero"/></g></svg>