<svg xmlns="http://www.w3.org/2000/svg" xmlns:xlink="http://www.w3.org/1999/xlink" width="100" zoomAndPan="magnify" viewBox="0 0 75 74.999997" height="100" preserveAspectRatio="xMidYMid meet" version="1.0"><defs><clipPath id="8ff8252c16"><path d="M 21.898438 38 L 54.898438 38 L 54.898438 52 L 21.898438 52 Z M 21.898438 38 " clip-rule="nonzero"/></clipPath></defs><rect x="-7.5" width="90" fill="#ffffff" y="-7.5" height="89.999996" fill-opacity="1"/><rect x="-7.5" width="90" fill="#ffffff" y="-7.5" height="89.999996" fill-opacity="1"/><g clip-path="url(#8ff8252c16)"><path fill="#000000" d="M 50.96875 51.847656 L 25.832031 51.847656 C 23.640625 51.847656 21.898438 50.109375 21.898438 47.917969 L 21.898438 42.503906 C 21.898438 41.277344 22.480469 40.054688 23.445312 39.28125 C 24.15625 38.636719 25.058594 38.378906 25.894531 38.570312 C 25.894531 38.570312 25.894531 38.570312 25.960938 38.570312 C 26.023438 38.636719 26.152344 38.636719 26.28125 38.636719 C 26.347656 38.636719 26.539062 38.699219 26.667969 38.699219 C 26.863281 38.765625 26.925781 38.894531 26.925781 39.085938 C 26.863281 39.28125 26.734375 39.410156 26.539062 39.34375 C 26.410156 39.34375 26.28125 39.28125 26.152344 39.28125 C 26.023438 39.28125 25.894531 39.28125 25.765625 39.214844 C 24.929688 39.085938 24.21875 39.410156 23.832031 39.730469 C 23.058594 40.375 22.542969 41.472656 22.542969 42.503906 L 22.542969 47.917969 C 22.542969 49.722656 24.027344 51.203125 25.832031 51.203125 L 50.96875 51.203125 C 52.773438 51.203125 54.253906 49.722656 54.253906 47.917969 L 54.253906 42.503906 C 54.253906 41.472656 53.738281 40.375 52.964844 39.730469 C 52.578125 39.410156 51.871094 39.023438 51.03125 39.214844 C 50.902344 39.214844 50.773438 39.28125 50.644531 39.28125 C 50.515625 39.28125 50.386719 39.28125 50.257812 39.34375 C 50.066406 39.34375 49.9375 39.28125 49.871094 39.085938 C 49.871094 38.894531 49.9375 38.765625 50.128906 38.699219 C 50.257812 38.636719 50.453125 38.636719 50.515625 38.636719 C 50.644531 38.636719 50.773438 38.570312 50.839844 38.570312 C 50.902344 38.570312 50.902344 38.570312 50.902344 38.570312 C 51.742188 38.378906 52.644531 38.636719 53.351562 39.214844 C 54.320312 39.988281 54.898438 41.277344 54.898438 42.503906 L 54.898438 47.917969 C 54.898438 50.109375 53.160156 51.847656 50.96875 51.847656 Z M 38.398438 39.925781 C 37.367188 39.925781 36.273438 39.859375 35.304688 39.859375 C 35.113281 39.859375 34.984375 39.730469 34.984375 39.539062 C 34.984375 39.34375 35.113281 39.214844 35.304688 39.214844 C 37.304688 39.28125 39.496094 39.28125 41.492188 39.214844 C 41.6875 39.214844 41.816406 39.34375 41.816406 39.539062 C 41.816406 39.730469 41.6875 39.859375 41.492188 39.859375 C 40.527344 39.925781 39.429688 39.925781 38.398438 39.925781 Z M 38.398438 39.925781 " fill-opacity="1" fill-rule="evenodd"/></g><path fill="#000000" d="M 29.570312 46.820312 C 28.988281 46.820312 28.410156 46.433594 28.085938 45.726562 C 27.3125 44.242188 26.734375 41.40625 26.605469 40.761719 C 26.605469 40.761719 26.605469 40.761719 26.605469 40.699219 C 26.539062 39.925781 26.347656 39.152344 26.023438 38.507812 C 26.023438 38.441406 26.023438 38.3125 26.089844 38.183594 C 26.089844 38.121094 26.21875 38.054688 26.347656 38.054688 L 35.628906 38.054688 C 35.691406 38.054688 35.820312 38.121094 35.886719 38.183594 C 35.949219 38.25 35.949219 38.378906 35.886719 38.507812 C 35.628906 39.28125 35.433594 40.117188 35.371094 40.761719 C 35.304688 41.601562 34.597656 44.308594 33.886719 45.726562 C 33.886719 45.726562 33.886719 45.789062 33.886719 45.789062 C 33.5 46.5 32.855469 46.949219 32.277344 46.820312 C 31.761719 46.757812 31.4375 46.371094 31.375 45.726562 C 31.308594 45.46875 31.375 44.953125 31.375 44.308594 C 31.503906 43.019531 31.632812 40.890625 31.117188 40.375 C 31.117188 40.3125 31.050781 40.3125 30.988281 40.3125 C 30.921875 40.3125 30.859375 40.375 30.792969 40.375 C 30.277344 40.890625 30.472656 43.019531 30.535156 44.308594 C 30.601562 44.953125 30.601562 45.46875 30.601562 45.726562 C 30.535156 46.304688 30.148438 46.757812 29.699219 46.820312 C 29.632812 46.820312 29.632812 46.820312 29.570312 46.820312 Z M 27.25 40.632812 C 27.378906 41.34375 27.894531 44.050781 28.667969 45.46875 C 28.925781 45.984375 29.375 46.242188 29.632812 46.175781 C 29.890625 46.175781 29.957031 45.855469 29.957031 45.660156 C 29.957031 45.46875 29.957031 44.886719 29.890625 44.371094 C 29.761719 42.375 29.699219 40.632812 30.34375 39.988281 C 30.535156 39.796875 30.730469 39.667969 30.988281 39.667969 C 31.246094 39.667969 31.4375 39.796875 31.632812 39.988281 C 32.277344 40.632812 32.210938 42.375 32.082031 44.371094 C 32.019531 44.886719 32.019531 45.46875 32.019531 45.660156 C 32.019531 45.855469 32.148438 46.175781 32.40625 46.175781 C 32.664062 46.242188 33.050781 45.984375 33.371094 45.46875 C 34.082031 44.050781 34.660156 41.34375 34.726562 40.699219 C 34.726562 40.699219 34.726562 40.632812 34.726562 40.632812 C 34.855469 40.117188 34.984375 39.410156 35.175781 38.699219 L 26.796875 38.699219 C 27.054688 39.28125 27.183594 39.988281 27.25 40.632812 Z M 27.25 40.632812 " fill-opacity="1" fill-rule="evenodd"/><path fill="#000000" d="M 34.015625 38.699219 L 28.023438 38.699219 C 27.894531 38.699219 27.828125 38.636719 27.765625 38.570312 C 27.699219 38.507812 27.699219 38.378906 27.699219 38.3125 L 27.957031 37.152344 C 28.023438 37.023438 28.152344 36.894531 28.28125 36.894531 L 33.695312 36.894531 C 33.824219 36.894531 33.953125 36.960938 34.015625 37.152344 L 34.339844 38.3125 C 34.339844 38.378906 34.339844 38.507812 34.273438 38.570312 C 34.210938 38.636719 34.144531 38.699219 34.015625 38.699219 Z M 28.410156 38.054688 L 33.566406 38.054688 L 33.4375 37.539062 L 28.539062 37.539062 Z M 28.410156 38.054688 " fill-opacity="1" fill-rule="evenodd"/><path fill="#000000" d="M 47.230469 46.820312 C 47.164062 46.820312 47.101562 46.820312 47.101562 46.820312 C 46.585938 46.757812 46.261719 46.304688 46.199219 45.726562 C 46.132812 45.46875 46.199219 44.953125 46.261719 44.308594 C 46.328125 43.019531 46.457031 40.890625 46.003906 40.375 C 45.941406 40.3125 45.875 40.3125 45.8125 40.3125 C 45.746094 40.3125 45.683594 40.3125 45.617188 40.375 C 45.167969 40.890625 45.296875 43.019531 45.359375 44.308594 C 45.425781 44.953125 45.425781 45.46875 45.425781 45.726562 C 45.296875 46.371094 44.972656 46.757812 44.523438 46.820312 C 43.941406 46.949219 43.234375 46.5 42.847656 45.789062 C 42.847656 45.789062 42.847656 45.726562 42.847656 45.726562 C 42.136719 44.308594 41.492188 41.601562 41.429688 40.761719 C 41.300781 40.117188 41.105469 39.28125 40.847656 38.507812 C 40.785156 38.378906 40.847656 38.25 40.914062 38.183594 C 40.976562 38.121094 41.042969 38.054688 41.171875 38.054688 L 50.453125 38.054688 C 50.515625 38.054688 50.644531 38.121094 50.710938 38.183594 C 50.773438 38.3125 50.773438 38.378906 50.710938 38.507812 C 50.453125 39.152344 50.257812 39.925781 50.195312 40.699219 C 50.195312 40.761719 50.195312 40.761719 50.195312 40.761719 C 50.066406 41.40625 49.484375 44.242188 48.648438 45.726562 C 48.390625 46.433594 47.808594 46.820312 47.230469 46.820312 Z M 45.8125 39.667969 C 46.070312 39.667969 46.261719 39.796875 46.457031 39.925781 C 47.101562 40.632812 47.035156 42.308594 46.90625 44.371094 C 46.84375 44.886719 46.84375 45.46875 46.84375 45.597656 C 46.84375 45.660156 46.84375 45.660156 46.84375 45.660156 C 46.84375 45.855469 46.90625 46.113281 47.164062 46.175781 C 47.421875 46.242188 47.875 45.984375 48.066406 45.46875 C 48.066406 45.46875 48.132812 45.46875 48.132812 45.46875 C 48.839844 44.050781 49.421875 41.34375 49.550781 40.632812 C 49.613281 39.988281 49.742188 39.28125 49.9375 38.699219 L 41.621094 38.699219 C 41.816406 39.410156 42.007812 40.117188 42.074219 40.632812 C 42.074219 40.632812 42.074219 40.632812 42.074219 40.699219 C 42.136719 41.34375 42.71875 44.050781 43.492188 45.46875 C 43.75 45.984375 44.136719 46.242188 44.394531 46.175781 C 44.652344 46.113281 44.78125 45.789062 44.78125 45.597656 C 44.84375 45.46875 44.78125 44.886719 44.78125 44.371094 C 44.585938 42.308594 44.585938 40.632812 45.167969 39.925781 C 45.359375 39.796875 45.554688 39.667969 45.8125 39.667969 Z M 45.8125 39.667969 " fill-opacity="1" fill-rule="evenodd"/><path fill="#000000" d="M 35.628906 36.25 L 26.347656 36.25 C 26.21875 36.25 26.089844 36.121094 26.023438 35.992188 C 25.960938 35.671875 25.765625 35.347656 25.445312 34.960938 C 25.378906 34.898438 25.378906 34.898438 25.378906 34.832031 C 25.058594 34.445312 24.800781 34.058594 24.800781 32.898438 C 24.800781 31.804688 25.25 30.773438 26.089844 30.128906 C 26.863281 29.484375 27.894531 29.160156 28.925781 29.355469 C 29.441406 29.417969 29.761719 29.613281 30.085938 29.804688 C 30.40625 30 30.601562 30.191406 30.988281 30.191406 C 31.375 30.191406 31.566406 30 31.890625 29.871094 C 32.210938 29.613281 32.535156 29.417969 33.113281 29.355469 C 34.082031 29.160156 35.113281 29.417969 35.886719 30.0625 C 36.722656 30.773438 37.238281 31.738281 37.238281 32.898438 C 37.238281 34.058594 36.980469 34.445312 36.53125 34.898438 L 36.53125 34.960938 C 36.273438 35.285156 36.078125 35.671875 35.949219 36.058594 C 35.886719 36.1875 35.757812 36.25 35.628906 36.25 Z M 26.605469 35.605469 L 35.433594 35.605469 C 35.5625 35.21875 35.757812 34.898438 36.015625 34.574219 L 36.078125 34.511719 C 36.402344 34.125 36.59375 33.867188 36.59375 32.898438 C 36.59375 31.933594 36.144531 31.160156 35.5 30.578125 C 34.789062 30.0625 34.015625 29.871094 33.242188 30 C 32.792969 30.0625 32.535156 30.191406 32.210938 30.386719 C 31.890625 30.578125 31.566406 30.835938 30.988281 30.835938 C 30.40625 30.835938 30.085938 30.578125 29.761719 30.386719 C 29.441406 30.191406 29.183594 30.0625 28.796875 30 C 28.023438 29.871094 27.121094 30.0625 26.476562 30.644531 C 25.832031 31.160156 25.445312 31.996094 25.445312 32.898438 C 25.445312 33.867188 25.636719 34.125 25.894531 34.511719 C 25.894531 34.511719 25.960938 34.574219 25.960938 34.574219 C 26.152344 34.832031 26.410156 35.15625 26.605469 35.605469 Z M 26.605469 35.605469 " fill-opacity="1" fill-rule="evenodd"/><path fill="#000000" d="M 50.453125 36.25 L 41.171875 36.25 C 41.042969 36.25 40.914062 36.1875 40.847656 36.058594 C 40.71875 35.671875 40.527344 35.285156 40.269531 34.960938 L 40.203125 34.898438 C 39.816406 34.445312 39.558594 34.058594 39.558594 32.898438 C 39.558594 31.738281 40.074219 30.773438 40.914062 30.0625 C 41.6875 29.417969 42.71875 29.160156 43.683594 29.355469 C 44.265625 29.417969 44.585938 29.675781 44.910156 29.871094 C 45.230469 30.0625 45.425781 30.191406 45.8125 30.191406 C 46.199219 30.191406 46.390625 30.0625 46.714844 29.871094 C 47.035156 29.675781 47.359375 29.417969 47.875 29.355469 C 48.90625 29.160156 49.9375 29.484375 50.710938 30.128906 C 51.546875 30.835938 52 31.804688 52 32.898438 C 52 34.058594 51.742188 34.445312 51.417969 34.898438 C 51.417969 34.898438 51.417969 34.960938 51.355469 34.960938 C 51.03125 35.347656 50.839844 35.671875 50.773438 36.058594 C 50.710938 36.121094 50.582031 36.25 50.453125 36.25 Z M 41.363281 35.605469 L 50.195312 35.605469 C 50.386719 35.15625 50.644531 34.832031 50.839844 34.574219 C 50.839844 34.511719 50.902344 34.511719 50.902344 34.445312 C 51.160156 34.125 51.355469 33.867188 51.355469 32.898438 C 51.355469 31.996094 50.96875 31.160156 50.324219 30.578125 C 49.679688 30.0625 48.777344 29.804688 48.003906 30 C 47.617188 30 47.359375 30.191406 47.035156 30.386719 C 46.714844 30.578125 46.390625 30.835938 45.8125 30.835938 C 45.230469 30.835938 44.910156 30.578125 44.585938 30.386719 C 44.265625 30.191406 44.007812 30 43.554688 30 C 42.78125 29.804688 41.945312 30.0625 41.300781 30.578125 C 40.65625 31.09375 40.203125 31.933594 40.203125 32.898438 C 40.203125 33.867188 40.398438 34.125 40.71875 34.511719 L 40.785156 34.511719 C 40.785156 34.511719 40.785156 34.574219 40.785156 34.574219 C 41.042969 34.898438 41.234375 35.21875 41.363281 35.605469 Z M 41.363281 35.605469 " fill-opacity="1" fill-rule="evenodd"/><path fill="#000000" d="M 48.777344 38.699219 L 42.78125 38.699219 C 42.652344 38.699219 42.589844 38.636719 42.523438 38.570312 C 42.460938 38.507812 42.460938 38.378906 42.460938 38.3125 L 42.78125 37.152344 C 42.847656 36.960938 42.976562 36.894531 43.105469 36.894531 L 48.519531 36.894531 C 48.648438 36.894531 48.777344 36.960938 48.839844 37.152344 L 49.097656 38.3125 C 49.097656 38.378906 49.097656 38.507812 49.035156 38.570312 C 48.96875 38.636719 48.839844 38.699219 48.777344 38.699219 Z M 43.234375 38.054688 L 48.390625 38.054688 L 48.261719 37.539062 L 43.363281 37.539062 Z M 43.234375 38.054688 " fill-opacity="1" fill-rule="evenodd"/><path fill="#000000" d="M 38.398438 37.925781 C 38.207031 37.925781 38.078125 37.796875 38.078125 37.605469 L 38.078125 31.996094 C 38.078125 31.804688 38.207031 31.675781 38.398438 31.675781 C 38.59375 31.675781 38.722656 31.804688 38.722656 31.996094 L 38.722656 37.605469 C 38.722656 37.796875 38.59375 37.925781 38.398438 37.925781 Z M 38.398438 37.925781 " fill-opacity="1" fill-rule="evenodd"/><path fill="#000000" d="M 38.398438 37.925781 C 38.269531 37.925781 38.207031 37.863281 38.140625 37.796875 L 36.722656 36.121094 C 36.59375 35.992188 36.660156 35.800781 36.789062 35.671875 C 36.917969 35.542969 37.109375 35.605469 37.238281 35.734375 L 38.398438 37.089844 L 39.558594 35.734375 C 39.6875 35.605469 39.882812 35.542969 40.011719 35.671875 C 40.140625 35.800781 40.203125 35.992188 40.074219 36.121094 L 38.65625 37.796875 C 38.59375 37.863281 38.464844 37.925781 38.398438 37.925781 Z M 38.398438 37.925781 " fill-opacity="1" fill-rule="evenodd"/><path fill="#000000" d="M 46.199219 27.164062 C 46.003906 27.164062 45.875 26.96875 45.875 26.839844 L 45.875 25.875 C 45.875 25.679688 46.003906 25.550781 46.199219 25.550781 C 46.390625 25.550781 46.519531 25.679688 46.519531 25.875 L 46.519531 26.839844 C 46.519531 26.96875 46.390625 27.164062 46.199219 27.164062 Z M 46.199219 27.164062 " fill-opacity="1" fill-rule="evenodd"/><path fill="#000000" d="M 46.199219 29.417969 C 46.003906 29.417969 45.875 29.289062 45.875 29.097656 L 45.875 28.195312 C 45.875 28 46.003906 27.871094 46.199219 27.871094 C 46.390625 27.871094 46.519531 28 46.519531 28.195312 L 46.519531 29.097656 C 46.519531 29.289062 46.390625 29.417969 46.199219 29.417969 Z M 46.199219 29.417969 " fill-opacity="1" fill-rule="evenodd"/><path fill="#000000" d="M 47.808594 27.808594 L 46.90625 27.808594 C 46.714844 27.808594 46.585938 27.613281 46.585938 27.484375 C 46.585938 27.292969 46.714844 27.164062 46.90625 27.164062 L 47.808594 27.164062 C 48.003906 27.164062 48.132812 27.292969 48.132812 27.484375 C 48.132812 27.613281 48.003906 27.808594 47.808594 27.808594 Z M 47.808594 27.808594 " fill-opacity="1" fill-rule="evenodd"/><path fill="#000000" d="M 45.488281 27.808594 L 44.585938 27.808594 C 44.394531 27.808594 44.265625 27.613281 44.265625 27.484375 C 44.265625 27.292969 44.394531 27.164062 44.585938 27.164062 L 45.488281 27.164062 C 45.683594 27.164062 45.8125 27.292969 45.8125 27.484375 C 45.8125 27.613281 45.683594 27.808594 45.488281 27.808594 Z M 45.488281 27.808594 " fill-opacity="1" fill-rule="evenodd"/><path fill="#000000" d="M 24.347656 28.96875 C 24.15625 28.96875 24.027344 28.773438 24.027344 28.644531 L 24.027344 27.742188 C 24.027344 27.550781 24.15625 27.421875 24.347656 27.421875 C 24.542969 27.421875 24.671875 27.550781 24.671875 27.742188 L 24.671875 28.644531 C 24.671875 28.773438 24.542969 28.96875 24.347656 28.96875 Z M 24.347656 28.96875 " fill-opacity="1" fill-rule="evenodd"/><path fill="#000000" d="M 24.347656 31.289062 C 24.15625 31.289062 24.027344 31.160156 24.027344 30.964844 L 24.027344 30.0625 C 24.027344 29.871094 24.15625 29.742188 24.347656 29.742188 C 24.542969 29.742188 24.671875 29.871094 24.671875 30.0625 L 24.671875 30.964844 C 24.671875 31.160156 24.542969 31.289062 24.347656 31.289062 Z M 24.347656 31.289062 " fill-opacity="1" fill-rule="evenodd"/><path fill="#000000" d="M 25.960938 29.675781 L 25.058594 29.675781 C 24.863281 29.675781 24.734375 29.546875 24.734375 29.355469 C 24.734375 29.160156 24.863281 29.03125 25.058594 29.03125 L 25.960938 29.03125 C 26.152344 29.03125 26.28125 29.160156 26.28125 29.355469 C 26.28125 29.546875 26.152344 29.675781 25.960938 29.675781 Z M 25.960938 29.675781 " fill-opacity="1" fill-rule="evenodd"/><path fill="#000000" d="M 23.640625 29.675781 L 22.738281 29.675781 C 22.542969 29.675781 22.414062 29.546875 22.414062 29.355469 C 22.414062 29.160156 22.542969 29.03125 22.738281 29.03125 L 23.640625 29.03125 C 23.832031 29.03125 23.960938 29.160156 23.960938 29.355469 C 23.960938 29.546875 23.832031 29.675781 23.640625 29.675781 Z M 23.640625 29.675781 " fill-opacity="1" fill-rule="evenodd"/></svg>