<svg xmlns="http://www.w3.org/2000/svg" xmlns:xlink="http://www.w3.org/1999/xlink" width="100" zoomAndPan="magnify" viewBox="0 0 75 74.999997" height="100" preserveAspectRatio="xMidYMid meet" version="1.0"><defs><clipPath id="fe6682a315"><path d="M 15.789062 18.300781 L 56.289062 18.300781 L 56.289062 59.550781 L 15.789062 59.550781 Z M 15.789062 18.300781 " clip-rule="nonzero"/></clipPath></defs><rect x="-7.5" width="90" fill="#ffffff" y="-7.5" height="89.999996" fill-opacity="1"/><rect x="-7.5" width="90" fill="#ffffff" y="-7.5" height="89.999996" fill-opacity="1"/><g clip-path="url(#fe6682a315)"><path fill="#000000" d="M 22.777344 41.546875 C 23.039062 41.335938 23.425781 41.382812 23.628906 41.652344 C 23.839844 41.921875 23.792969 42.3125 23.527344 42.523438 C 20.476562 44.945312 22.5 47.332031 26.378906 48.902344 C 25.847656 45.308594 25.375 42.25 24.128906 40.445312 C 23.296875 39.25 22.703125 37.960938 22.398438 36.589844 C 18.535156 35.449219 15.789062 31.835938 15.789062 27.640625 C 15.789062 22.496094 19.898438 18.324219 24.964844 18.324219 C 28.957031 18.324219 32.421875 20.933594 33.660156 24.675781 C 35.253906 25 36.738281 25.730469 38.085938 26.765625 C 42.808594 22.984375 50.167969 24.253906 52.945312 29.679688 C 55.921875 35.476562 54.214844 38.566406 52.269531 42.085938 C 51.144531 44.121094 49.933594 46.3125 49.621094 49.3125 C 52.417969 48.371094 55.066406 46.828125 55.066406 44.925781 C 55.066406 43.964844 54.359375 43.140625 53.585938 42.523438 C 53.320312 42.3125 53.273438 41.925781 53.476562 41.652344 C 53.6875 41.382812 54.070312 41.335938 54.335938 41.546875 C 55.429688 42.414062 56.289062 43.550781 56.289062 44.925781 C 56.289062 47.648438 52.945312 49.570312 49.546875 50.640625 C 49.503906 54.6875 48.382812 57.425781 46.875 58.699219 C 45.582031 59.792969 44.007812 59.804688 42.730469 58.671875 C 41.523438 57.609375 40.535156 55.453125 40.207031 52.121094 C 38.855469 52.171875 37.46875 52.160156 36.132812 52.085938 C 35.882812 54.78125 35.308594 58.46875 32.792969 59.039062 C 28.574219 59.996094 27.175781 54.199219 26.621094 50.527344 L 26.589844 50.308594 C 23.207031 49.074219 20.824219 47.195312 20.824219 44.925781 C 20.820312 43.550781 21.679688 42.414062 22.777344 41.546875 Z M 27.683594 49.378906 C 29.75 50.050781 32.253906 50.539062 35.011719 50.765625 L 35.050781 50.34375 C 35.382812 48.472656 36.273438 47.273438 37.265625 46.730469 C 38.164062 46.242188 39.207031 46.253906 40.027344 46.859375 C 40.773438 47.40625 41.296875 48.425781 41.308594 49.878906 C 41.3125 50.203125 41.320312 50.519531 41.332031 50.824219 C 43.929688 50.65625 46.316406 50.265625 48.363281 49.699219 C 48.601562 46.179688 49.953125 43.738281 51.199219 41.476562 C 52.972656 38.269531 54.527344 35.457031 51.859375 30.25 C 49.4375 25.523438 43.070312 24.480469 38.960938 27.644531 C 40.351562 29.15625 42.398438 29.859375 44.417969 29.511719 C 44.75 29.457031 45.066406 29.6875 45.121094 30.023438 C 45.175781 30.363281 44.949219 30.679688 44.617188 30.734375 C 43.285156 30.96875 41.941406 30.8125 40.726562 30.324219 C 39.53125 29.847656 38.460938 29.050781 37.640625 27.984375 C 36.917969 27.390625 36.1875 26.925781 35.453125 26.578125 C 34.964844 26.34375 34.480469 26.164062 33.996094 26.027344 C 35.0625 32.238281 29.886719 37.714844 23.730469 36.875 C 24.054688 37.96875 24.476562 38.753906 25.125 39.730469 C 26.636719 41.917969 27.109375 45.488281 27.683594 49.378906 Z M 36.230469 50.847656 C 37.507812 50.917969 38.828125 50.929688 40.117188 50.882812 C 40.101562 50.5625 40.09375 50.230469 40.089844 49.890625 C 40.082031 48.671875 39.574219 47.660156 38.632812 47.625 C 38.378906 47.613281 38.113281 47.679688 37.847656 47.824219 C 37.148438 48.207031 36.515625 49.105469 36.257812 50.5625 C 36.246094 50.667969 36.238281 50.761719 36.230469 50.847656 Z M 48.320312 50.992188 C 46.285156 51.527344 43.941406 51.898438 41.421875 52.0625 C 41.710938 54.996094 42.535156 56.851562 43.527344 57.734375 C 44.359375 58.46875 45.257812 58.449219 46.09375 57.746094 C 47.289062 56.738281 48.234375 54.445312 48.320312 50.992188 Z M 34.90625 52.003906 C 32.3125 51.789062 29.921875 51.347656 27.890625 50.738281 C 28.269531 53.070312 28.902344 55.507812 30.011719 56.871094 C 30.722656 57.746094 31.574219 58.046875 32.527344 57.828125 C 34.230469 57.445312 34.691406 54.34375 34.90625 52.003906 Z M 23.058594 21.640625 L 26.867188 21.640625 C 27.207031 21.640625 27.476562 21.921875 27.476562 22.261719 L 27.476562 25.085938 L 30.257812 25.085938 C 30.59375 25.085938 30.867188 25.363281 30.867188 25.707031 L 30.867188 29.574219 C 30.867188 29.917969 30.59375 30.199219 30.257812 30.199219 L 27.476562 30.199219 L 27.476562 33.019531 C 27.476562 33.363281 27.207031 33.640625 26.867188 33.640625 L 23.058594 33.640625 C 22.722656 33.640625 22.445312 33.363281 22.445312 33.019531 L 22.445312 30.199219 L 19.667969 30.199219 C 19.328125 30.199219 19.058594 29.917969 19.058594 29.574219 L 19.058594 25.707031 C 19.058594 25.363281 19.328125 25.085938 19.667969 25.085938 L 22.445312 25.085938 L 22.445312 22.261719 C 22.445312 21.917969 22.722656 21.640625 23.058594 21.640625 Z M 26.253906 22.882812 L 23.667969 22.882812 L 23.667969 25.707031 C 23.667969 26.050781 23.394531 26.328125 23.058594 26.328125 L 20.277344 26.328125 L 20.277344 28.953125 L 23.058594 28.953125 C 23.394531 28.953125 23.667969 29.234375 23.667969 29.574219 L 23.667969 32.398438 L 26.253906 32.398438 L 26.253906 29.574219 C 26.253906 29.234375 26.53125 28.953125 26.867188 28.953125 L 29.644531 28.953125 L 29.644531 26.328125 L 26.867188 26.328125 C 26.527344 26.328125 26.253906 26.050781 26.253906 25.707031 Z M 30.582031 21.933594 C 27.476562 18.777344 22.445312 18.777344 19.34375 21.933594 C 16.238281 25.085938 16.238281 30.199219 19.34375 33.351562 C 22.445312 36.503906 27.476562 36.503906 30.582031 33.351562 C 33.6875 30.199219 33.6875 25.085938 30.582031 21.933594 Z M 30.582031 21.933594 " fill-opacity="1" fill-rule="nonzero"/></g></svg>