<?xml version="1.0" encoding="UTF-8"?>
<svg version="1.1" xmlns="http://www.w3.org/2000/svg" width="370" height="454">
<path d="M0 0 C4.29779218 1.37130044 6.47051095 4.00995743 9.3203125 7.33203125 C10.54064951 8.6959571 11.76484014 10.05644157 12.9921875 11.4140625 C13.98895508 12.51935303 13.98895508 12.51935303 15.00585938 13.64697266 C19.07419902 18.05555034 23.32491196 22.28237192 27.5703125 26.51953125 C28.40191895 27.35524658 29.23352539 28.19096191 30.09033203 29.05200195 C34.39697905 33.35046471 38.77677633 37.4930641 43.390625 41.45996094 C45.99146533 43.7075486 48.49249438 46.05159157 51.0078125 48.39453125 C54.76152594 51.86799275 58.5767016 55.19493725 62.5703125 58.39453125 C67.70746101 62.51767077 72.49965846 66.94531657 77.24951172 71.50341797 C77.80525879 72.03080566 78.36100586 72.55819336 78.93359375 73.1015625 C79.66122925 73.80116089 79.66122925 73.80116089 80.40356445 74.51489258 C82.85686013 76.57507261 85.51187479 78.27516787 88.1953125 80.01953125 C91.20182021 75.52226955 94.20671112 71.0239332 97.21020508 66.5246582 C98.22898327 64.998982 99.24817807 63.4735839 100.26782227 61.94848633 C103.15920864 57.62347195 106.03802773 53.29050449 108.90704346 48.95062256 C110.09030644 47.17693338 111.29418163 45.41982574 112.50732422 43.66650391 C113.48016357 42.22670166 113.48016357 42.22670166 114.47265625 40.7578125 C115.03073975 39.94997314 115.58882324 39.14213379 116.16381836 38.30981445 C117.4833881 35.37990114 117.17010143 34.04540744 116.1953125 31.01953125 C115.29231225 28.82811051 115.29231225 28.82811051 114.1640625 26.69140625 C113.76574219 25.89089844 113.36742187 25.09039063 112.95703125 24.265625 C112.12217011 22.61399569 111.28110704 20.96548536 110.43359375 19.3203125 C107.90836294 14.21264501 105.48901547 8.85093319 106.1953125 3.01953125 C107.97205269 0.74380815 108.77006707 0.10676108 111.6328125 -0.48046875 C115.31146255 0.23731663 116.06794601 1.98101736 118.1953125 5.01953125 C119.36666463 7.41328067 120.43865202 9.74944432 121.4453125 12.20703125 C121.8475 13.1496582 121.8475 13.1496582 122.2578125 14.11132812 C124.1953125 18.73266103 124.1953125 18.73266103 124.1953125 21.01953125 C124.8553125 21.01953125 125.5153125 21.01953125 126.1953125 21.01953125 C126.60716797 19.76076172 126.60716797 19.76076172 127.02734375 18.4765625 C128.25019231 14.85709436 129.50869905 11.27219684 130.8828125 7.70703125 C131.56923828 5.85658203 131.56923828 5.85658203 132.26953125 3.96875 C134.1953125 1.01953125 134.1953125 1.01953125 137.78125 0.03515625 C141.1953125 0.01953125 141.1953125 0.01953125 143.1328125 1.08203125 C144.69896502 3.93795644 144.48007465 5.75771026 144.1953125 9.01953125 C143.18234895 12.15212387 141.82921714 15.09783825 140.4453125 18.08203125 C139.95224609 19.20834961 139.95224609 19.20834961 139.44921875 20.35742188 C131.25680914 38.36635037 120.19544078 54.93762611 109.1328125 71.26953125 C106.74359075 74.81472374 104.35799202 78.36234829 101.97265625 81.91015625 C101.39637482 82.76646133 100.82009338 83.62276642 100.22634888 84.50502014 C92.50075092 96.00191834 84.78931501 107.53190717 77.9453125 119.58203125 C77.44644531 120.45988281 76.94757813 121.33773437 76.43359375 122.2421875 C64.04756612 144.37617973 54.71022103 169.17691915 61.8203125 194.64453125 C64.26490381 201.89741797 67.73044926 210.55466801 73.1953125 216.01953125 C73.14890625 214.83359375 73.1025 213.64765625 73.0546875 212.42578125 C72.19259496 180.64066067 87.86575823 155.27499092 108.89453125 132.53125 C110.75365488 130.5016804 112.55120811 128.44288313 114.34375 126.35546875 C118.72213738 121.33828573 123.41533707 116.65327273 128.1328125 111.95703125 C129.41575195 110.66829102 129.41575195 110.66829102 130.72460938 109.35351562 C135.14761775 104.93725478 139.63334342 100.66745536 144.37475586 96.5949707 C147.15700478 94.18731987 149.82486703 91.66151261 152.5078125 89.14453125 C156.44467041 85.47678224 160.43040446 81.94767663 164.6328125 78.58203125 C169.6569433 74.55248821 174.32596618 70.22213589 179.01025391 65.81005859 C182.40759323 62.62765866 185.85864259 59.60310995 189.5078125 56.70703125 C195.30437067 52.07150476 200.64327746 46.98811781 206.00708008 41.8659668 C209.29747622 38.72733384 212.60310012 35.64087111 216.0546875 32.6796875 C221.19379326 28.22306506 225.96025767 23.40013236 230.7578125 18.58203125 C231.66466797 17.67904297 232.57152344 16.77605469 233.50585938 15.84570312 C238.13075893 11.21409596 242.58893687 6.55750027 246.71362305 1.47143555 C248.1953125 0.01953125 248.1953125 0.01953125 251.4453125 -0.73046875 C254.1953125 0.01953125 254.1953125 0.01953125 256.1328125 1.70703125 C257.48941236 4.65963095 257.07841845 5.93335779 256.1953125 9.01953125 C255.05859375 10.73046875 255.05859375 10.73046875 253.5078125 12.39453125 C252.87359375 13.08160156 252.239375 13.76867188 251.5859375 14.4765625 C250.79703125 15.31574219 250.008125 16.15492187 249.1953125 17.01953125 C248.18883536 18.12645182 247.18373271 19.23462304 246.1796875 20.34375 C238.22417425 29.07072812 229.85085011 37.22892094 221.15478516 45.21289062 C219.24376313 46.9748596 217.34803345 48.75173952 215.45703125 50.53515625 C209.4671732 56.1733846 203.39936914 61.56767975 196.97265625 66.7109375 C193.19788925 69.84861302 189.64055163 73.19710349 186.05957031 76.55200195 C180.9684364 81.29378929 175.64594535 85.69397893 170.1953125 90.01953125 C171.46312067 93.3899915 172.91258923 96.38523158 174.8125 99.44140625 C175.58956299 100.71479858 175.58956299 100.71479858 176.38232422 102.01391602 C176.93936035 102.92326904 177.49639648 103.83262207 178.0703125 104.76953125 C181.87316 110.98169181 185.3504623 117.13699147 188.1953125 123.8515625 C192.41578086 135.79132482 192.41578086 135.79132482 200.859375 144.4609375 C204.52918578 145.80681665 208.35624365 146.33193683 212.1953125 147.01953125 C230.42595217 155.12203777 244.23210809 170.44933335 251.9453125 188.63671875 C259.35433242 208.68737892 259.98187792 230.42209912 251.4296875 250.27734375 C246.73251862 260.47994905 240.66934605 268.71895454 232.5703125 276.51953125 C220.52357717 288.37933448 218.83852714 301.9015941 218.6953125 318.20703125 C218.02048833 351.18512062 208.70301566 382.4363652 185.7578125 406.95703125 C180.39420815 412.10534258 174.78520701 415.48987468 167.3828125 416.58203125 C163.4153782 415.88189579 161.93291467 414.97910117 159.1953125 412.01953125 C152.68618133 401.3682257 150.59374666 388.48660173 149.0703125 376.26953125 C148.82220825 374.33062012 148.82220825 374.33062012 148.5690918 372.35253906 C146.80997866 357.86860515 146.25498981 343.30430268 145.68894958 328.7339325 C145.98088385 312.28577326 145.98088385 312.28577326 139.1953125 298.01953125 C133.0543705 293.22959649 127.81151654 292.20713615 120.1953125 293.01953125 C114.84510185 294.69659898 111.27878071 297.275734 108.1953125 302.01953125 C107.8034375 302.61765625 107.4115625 303.21578125 107.0078125 303.83203125 C104.74164778 309.93324395 104.98881377 317.06691076 104.765625 323.51171875 C104.69412347 325.35768941 104.62199696 327.20363594 104.54931641 329.04956055 C104.51235657 330.00470551 104.47539673 330.95985046 104.43731689 331.94393921 C101.71484344 400.59869825 101.71484344 400.59869825 88.1953125 415.01953125 C84.88457049 416.67490226 81.76035188 416.61669027 78.1953125 416.01953125 C59.95903568 408.66473531 49.34532164 388.92442546 41.89526367 371.88598633 C34.53328037 354.20012761 31.96093626 336.42714393 31.66357422 317.359375 C31.3203665 297.28897437 27.15565933 286.3171059 13.1171875 271.8828125 C-2.24835662 255.51911296 -7.53450289 235.50813611 -7.109375 213.56640625 C-6.40606004 196.53572179 0.69941614 179.63407591 12.1953125 167.01953125 C12.91074219 166.21257812 13.62617187 165.405625 14.36328125 164.57421875 C24.55571607 153.70007132 36.07250137 147.33536985 50.1953125 143.01953125 C53.22760637 142.36967428 53.22760637 142.36967428 54.1875 140.37158203 C54.62449219 139.30399658 54.62449219 139.30399658 55.0703125 138.21484375 C55.58005615 137.01202759 55.58005615 137.01202759 56.10009766 135.78491211 C56.46151855 134.91358643 56.82293945 134.04226074 57.1953125 133.14453125 C63.16116298 119.32592769 70.71320937 106.46924578 79.05078125 93.953125 C80.36510365 92.10717262 80.36510365 92.10717262 80.1953125 90.01953125 C78.68379704 88.66855751 77.10717937 87.3902578 75.5078125 86.14453125 C71.06237129 82.5950262 66.84013383 78.91416465 62.6953125 75.01953125 C57.83748944 70.46401753 52.81555407 66.21116883 47.62109375 62.0390625 C44.89753687 59.77162465 42.42934093 57.35336734 39.97607422 54.80078125 C38.20500849 53.0292299 36.37112829 51.39144877 34.47265625 49.7578125 C30.3807954 46.20105918 26.39604839 42.54439872 22.4453125 38.83203125 C21.75574463 38.18419678 21.06617676 37.5363623 20.35571289 36.86889648 C-1.00426314 16.7201678 -1.00426314 16.7201678 -6.8046875 8.01953125 C-6.6171875 4.95703125 -6.6171875 4.95703125 -5.8046875 2.01953125 C-2.8046875 0.01953125 -2.8046875 0.01953125 0 0 Z M159.1953125 99.01953125 C158.7828125 99.44363281 158.3703125 99.86773437 157.9453125 100.3046875 C154.85559551 103.44268132 151.73003178 106.46882942 148.3828125 109.33203125 C143.39097096 113.62756483 138.80666606 118.32313223 134.1953125 123.01953125 C135.49140086 126.8354259 136.92631891 129.05118351 139.8828125 131.76953125 C144.14225862 135.84987817 147.68958742 140.2868024 151.1953125 145.01953125 C152.17371094 144.82037109 152.17371094 144.82037109 153.171875 144.6171875 C154.04585937 144.44058594 154.91984375 144.26398438 155.8203125 144.08203125 C156.67882812 143.90800781 157.53734375 143.73398438 158.421875 143.5546875 C164.1581103 142.44783646 169.74501889 141.77831779 175.5703125 141.45703125 C176.30636719 141.41384766 177.04242188 141.37066406 177.80078125 141.32617188 C179.59879318 141.22109326 181.39703208 141.11991032 183.1953125 141.01953125 C181.55070319 135.30568863 178.89362197 130.25390923 176.1328125 125.01953125 C175.6469165 124.0955957 175.16102051 123.17166016 174.66040039 122.21972656 C168.59992222 109.03610484 168.59992222 109.03610484 159.1953125 99.01953125 Z M121.48046875 135.6875 C120.40059416 136.85547314 119.32662305 138.02892497 118.2578125 139.20703125 C117.71962891 139.78517578 117.18144531 140.36332031 116.62695312 140.95898438 C113.71848541 144.13283632 111.25604582 147.2068156 109.1953125 151.01953125 C109.94296875 151.49003906 110.690625 151.96054688 111.4609375 152.4453125 C112.44578125 153.06792969 113.430625 153.69054687 114.4453125 154.33203125 C115.41984375 154.94691406 116.394375 155.56179687 117.3984375 156.1953125 C120.1953125 158.01953125 120.1953125 158.01953125 122.3046875 159.8125 C124.09828677 161.21452513 124.09828677 161.21452513 126.16015625 160.921875 C128.69820244 159.79656085 130.60512813 158.33404678 132.7578125 156.58203125 C135.20133868 154.60825546 137.57799771 152.76440778 140.1953125 151.01953125 C138.68810548 146.01748796 135.7012771 142.91558107 132.1953125 139.20703125 C131.64875 138.60955078 131.1021875 138.01207031 130.5390625 137.39648438 C129.13716661 135.89322592 127.67061073 134.450822 126.1953125 133.01953125 C123.79866372 132.78589041 123.79866372 132.78589041 121.48046875 135.6875 Z M133.1953125 170.01953125 C133.63230469 170.78523438 133.63230469 170.78523438 134.078125 171.56640625 C135.47236099 174.03920215 136.83571259 176.52752307 138.1953125 179.01953125 C138.95134766 180.37691406 138.95134766 180.37691406 139.72265625 181.76171875 C145.95920861 193.47310716 149.74954812 206.64397823 149.1953125 220.01953125 C148.5353125 221.00953125 147.8753125 221.99953125 147.1953125 223.01953125 C143.5703125 223.20703125 143.5703125 223.20703125 140.1953125 223.01953125 C138.95752242 220.5439511 138.89239152 218.23619897 138.65136719 215.51000977 C136.87791499 196.22686896 129.11893612 180.63013679 114.5703125 167.68359375 C110.57368103 164.38875174 107.11196014 161.76302332 102.1953125 160.01953125 C92.08704165 174.01559859 82.81603285 192.14726781 85.1953125 210.01953125 C85.87668558 213.59058294 86.64411063 217.13152783 87.453125 220.67578125 C90.15989935 232.87051199 90.15989935 232.87051199 87.1953125 238.01953125 C86.5353125 238.67953125 85.8753125 239.33953125 85.1953125 240.01953125 C80.24083576 239.93646218 77.37215581 238.92538321 73.82080078 235.4284668 C73.10899658 234.6691687 73.10899658 234.6691687 72.3828125 233.89453125 C71.87218262 233.3631958 71.36155273 232.83186035 70.83544922 232.28442383 C56.36053993 216.7338891 47.70713112 197.94703567 48.0078125 176.51953125 C48.00845703 175.64683594 48.00910156 174.77414063 48.00976562 173.875 C48.04976605 167.87493612 48.50012533 161.9778213 49.1953125 156.01953125 C34.91401138 158.87579147 22.91319468 170.67232964 14.94140625 182.28515625 C5.018395 197.82454747 2.04730355 214.78911031 5.1953125 232.95703125 C8.77231351 247.78563169 16.93305982 260.03348386 27.8203125 270.51953125 C38.00609992 280.49457824 42.19321006 292.72940377 42.40625 306.7890625 C42.44528442 308.72809448 42.44528442 308.72809448 42.48510742 310.70629883 C42.49835052 311.3804483 42.51159363 312.05459778 42.52523804 312.74917603 C43.19792078 343.83331293 50.54686542 375.03375531 72.43359375 398.41015625 C75.98873036 401.70418113 78.32294974 403.30670709 83.1953125 404.01953125 C93.26822122 376.55826385 93.35461489 342.96036026 93.72924805 313.95458984 C93.95944054 304.59843932 96.88503506 296.05740882 103.1953125 289.01953125 C111.94429571 282.16103185 120.0252252 280.32228288 130.9453125 281.421875 C139.20850922 282.94142921 146.15602279 287.2915434 151.1953125 294.01953125 C155.30915588 301.31909481 156.31401792 308.12683057 156.58984375 316.4296875 C156.65592811 318.1421213 156.72285955 319.85452257 156.79052734 321.56689453 C156.84282501 322.91560638 156.84282501 322.91560638 156.8961792 324.29156494 C157.50298268 339.45966123 158.41582196 354.55293031 160.0703125 369.64453125 C160.18301987 370.72264572 160.18301987 370.72264572 160.29800415 371.82254028 C161.92537597 388.37802904 161.92537597 388.37802904 167.1953125 404.01953125 C173.19603517 403.49005572 176.7539739 399.6050037 180.6171875 395.35546875 C192.00255408 380.87542199 199.75335274 364.89093931 204.1953125 347.01953125 C204.36643555 346.33197754 204.53755859 345.64442383 204.71386719 344.93603516 C207.46329215 333.19854158 207.61430398 321.27274433 207.6418457 309.27050781 C207.81882866 295.58266329 210.97302048 282.49976227 220.7109375 272.4140625 C222.5993564 270.5863051 224.4887023 268.75950505 226.37890625 266.93359375 C239.01073721 254.27155343 246.02042121 236.89372727 246.5703125 219.08203125 C245.88411971 199.15604826 237.8917208 182.09021427 223.5078125 168.39453125 C208.74387326 155.61547206 191.72382856 151.06786849 172.5390625 151.84033203 C157.43220651 152.99537706 144.39995883 160.25264927 133.1953125 170.01953125 Z " fill="#000000" transform="translate(57.8046875,5.98046875)"/>
<path d="M0 0 C1.00675781 -0.020625 2.01351562 -0.04125 3.05078125 -0.0625 C11.24109575 -0.10543743 17.38842925 1.43270866 23.62109375 6.99609375 C26.70164912 10.6914793 28.81774046 14.91183198 31.08447266 19.13891602 C34.29481344 25.07469524 38.08836011 30.14230137 42.5 35.25 C43.28375 36.301875 44.0675 37.35375 44.875 38.4375 C51.7753396 45.830721 60.3390587 51.28510133 70.5625 51.6875 C75.72026645 51.52692197 78.65452039 50.91236153 82.5 47.25 C87.43288152 41.65973464 89.92302882 36.1465268 92.0625 29.0625 C94.33742216 21.54031214 96.41688392 17.21953897 102.94921875 12.46875 C108.19313674 9.96323329 114.47456294 10.19427398 119.91796875 12.09375 C127.15650387 16.11364943 128.87565937 22.21521271 131.24707031 29.76293945 C133.85380508 38.01185635 136.83422776 43.75878834 143.125 49.75 C149.30747875 52.49776833 155.29569236 52.3695297 161.6640625 50.14453125 C177.42506324 42.70294482 186.82861571 29.13613802 194.83740234 14.16259766 C198.14873103 8.18070573 202.06607368 3.94017366 208.25390625 0.89453125 C212.9930339 -0.04645077 217.61605217 -0.08923994 222.4375 -0.0625 C223.46077393 -0.05831055 224.48404785 -0.05412109 225.53833008 -0.04980469 C233.85556911 0.07324882 241.45637596 1.02312556 249.5 3.25 C251.02753906 3.66765625 251.02753906 3.66765625 252.5859375 4.09375 C265.72349918 8.09363755 276.98013248 14.5472005 287.5 23.25 C288.18578125 23.80945313 288.8715625 24.36890625 289.578125 24.9453125 C292.25954847 27.3385456 293.42699524 28.87767573 294.125 32.4375 C293.5 35.25 293.5 35.25 291.875 37.25 C289.5 38.25 289.5 38.25 286.75 37.875 C283.87725901 36.4386295 282.2533966 35.2507493 279.9375 33.125 C262.85911145 17.59625729 240.35623217 11.87451081 217.76953125 11.94921875 C214.29844288 12.26854229 211.65005211 12.7410749 208.5 14.25 C207.27916938 16.47541731 207.27916938 16.47541731 206.5 19.25 C196.68092389 37.07508631 183.61796638 56.31173934 163.5 63.1875 C153.94929017 65.60158147 145.29107244 64.75241856 136.5 60.25 C125.99988041 53.40130608 122.01361396 42.85460111 118.59130859 31.3190918 C118.36137207 30.564104 118.13143555 29.80911621 117.89453125 29.03125 C117.69706299 28.35126953 117.49959473 27.67128906 117.29614258 26.97070312 C116.51058452 24.87990387 116.51058452 24.87990387 113.5 23.25 C110.44109858 23.00949193 110.44109858 23.00949193 107.5 24.25 C106.09372866 26.66878671 105.33427713 28.60598324 104.5 31.25 C100.53978424 43.50145399 96.20192478 54.62255475 84.5 61.25 C76.04824808 65.34357413 67.42356365 65.34741504 58.5 62.75 C40.09745008 55.93512022 28.36355915 39.34654618 18.5625 23.25 C18.16015137 22.59032227 17.75780273 21.93064453 17.34326172 21.25097656 C14.5 16.49114583 14.5 16.49114583 14.5 14.25 C-1.3212686 8.24554264 -21.54911811 13.46585833 -36.44384766 20.11816406 C-44.56591967 23.95251395 -51.54185746 28.46519118 -58.328125 34.3671875 C-60.5 36.25 -60.5 36.25 -63.5 38.25 C-66.82240324 37.9258631 -68.10776303 37.64223697 -70.5 35.25 C-71.125 32.625 -71.125 32.625 -70.5 29.25 C-59.68598477 13.64835574 -36.38028879 4.59933363 -18.5 1.25 C-12.3233325 0.15089375 -6.25465914 0.03203411 0 0 Z " fill="#000000" transform="translate(71.5,385.75)"/>
<path d="M0 0 C12.57009255 0.38642237 23.38271819 8.44659971 31.75 17.21875 C42.29207768 29.76018724 45.46669377 44.385047 44.5625 60.375 C43.56970136 66.40026072 42.29165461 73.44718855 38.5625 78.375 C35.10224535 79.42543445 32.90411932 80.00388406 29.5625 78.4375 C27.94018419 75.09147363 28.77494246 71.86852447 29.5625 68.375 C29.8925 67.4675 30.2225 66.56 30.5625 65.625 C33.94740952 54.62404406 32.68617833 44.51556232 27.875 34.25 C21.64588974 22.54227468 13.57172919 16.22819174 1 12.0625 C-0.01191406 11.75699219 -1.02382812 11.45148438 -2.06640625 11.13671875 C-4.4375 10.375 -4.4375 10.375 -5.4375 9.375 C-5.625 5.9375 -5.625 5.9375 -5.4375 2.375 C-3.4375 0.375 -3.4375 0.375 0 0 Z " fill="#000000" transform="translate(246.4375,171.625)"/>
<path d="M0 0 C1.875 1.625 1.875 1.625 3 4 C2.57446809 9.42553191 2.57446809 9.42553191 1 11 C-5.26386233 11.57998725 -5.26386233 11.57998725 -8.0625 9.375 C-9 7 -9 7 -8.3125 3.8125 C-6.38864041 -0.31005626 -4.36124255 -0.53185885 0 0 Z " fill="#000000" transform="translate(186,84)"/>
</svg>
