<svg xmlns="http://www.w3.org/2000/svg" xmlns:xlink="http://www.w3.org/1999/xlink" width="100" zoomAndPan="magnify" viewBox="0 0 75 74.999997" height="100" preserveAspectRatio="xMidYMid meet" version="1.0"><defs><clipPath id="5f1e95e8c7"><path d="M 22.5 22.554688 L 52.5 22.554688 L 52.5 52.554688 L 22.5 52.554688 Z M 22.5 22.554688 " clip-rule="nonzero"/></clipPath></defs><rect x="-7.5" width="90" fill="#ffffff" y="-7.5" height="89.999996" fill-opacity="1"/><rect x="-7.5" width="90" fill="#ffffff" y="-7.5" height="89.999996" fill-opacity="1"/><g clip-path="url(#5f1e95e8c7)"><path fill="#000000" d="M 44.90625 43.402344 C 44.820312 43.097656 44.726562 42.789062 44.621094 42.476562 C 44.621094 42.46875 44.617188 42.460938 44.613281 42.453125 C 44.015625 40.984375 43.800781 39.574219 43.96875 38.265625 C 44.117188 37.402344 44.183594 36.390625 44.15625 35.457031 L 47.261719 32.339844 L 47.691406 32.769531 C 47.898438 32.980469 48.175781 33.085938 48.449219 33.085938 C 48.722656 33.085938 48.996094 32.980469 49.203125 32.769531 C 49.40625 32.570312 49.515625 32.300781 49.515625 32.011719 C 49.515625 31.726562 49.40625 31.457031 49.203125 31.253906 L 48.164062 30.207031 L 50.523438 27.839844 L 50.609375 27.925781 C 50.808594 28.128906 51.078125 28.238281 51.363281 28.238281 C 51.648438 28.238281 51.917969 28.128906 52.121094 27.925781 C 52.320312 27.722656 52.433594 27.453125 52.433594 27.167969 C 52.433594 26.878906 52.320312 26.609375 52.121094 26.40625 L 50.257812 24.539062 C 49.839844 24.121094 49.164062 24.121094 48.746094 24.539062 C 48.546875 24.742188 48.433594 25.011719 48.433594 25.296875 C 48.433594 25.585938 48.546875 25.855469 48.746094 26.054688 L 48.832031 26.140625 L 46.472656 28.511719 L 45.433594 27.464844 C 45.015625 27.046875 44.335938 27.046875 43.917969 27.464844 C 43.503906 27.886719 43.503906 28.566406 43.917969 28.984375 L 44.347656 29.414062 L 42.769531 31 C 42.003906 30.203125 40.949219 29.9375 39.6875 30.226562 C 38.765625 30.4375 38.105469 30.859375 37.523438 31.230469 C 37.027344 31.542969 36.5625 31.839844 35.992188 31.988281 C 35.988281 31.992188 35.984375 31.992188 35.984375 31.992188 C 35.890625 32.015625 35.796875 32.039062 35.699219 32.054688 L 35.699219 27.636719 C 35.699219 26.644531 35.058594 25.808594 34.105469 25.550781 L 23.089844 22.589844 C 22.964844 22.554688 22.832031 22.582031 22.730469 22.660156 C 22.628906 22.738281 22.566406 22.859375 22.566406 22.992188 L 22.566406 29.597656 C 22.566406 29.804688 22.722656 29.984375 22.929688 30.011719 L 30.457031 30.980469 L 31.125 32.640625 C 30.378906 33.039062 29.886719 33.625 29.65625 34.394531 C 28.972656 36.699219 30.929688 39.898438 32.199219 41.433594 C 32.402344 41.699219 32.585938 41.984375 32.753906 42.289062 C 30.527344 42.988281 28.453125 44.191406 26.738281 45.777344 C 24.894531 47.480469 23.460938 49.632812 22.59375 51.996094 C 22.515625 52.210938 22.625 52.449219 22.839844 52.53125 C 22.886719 52.546875 22.933594 52.554688 22.980469 52.554688 C 23.152344 52.554688 23.308594 52.453125 23.371094 52.285156 C 24.996094 47.855469 28.628906 44.421875 33.117188 43.046875 C 33.40625 43.75 33.609375 44.53125 33.726562 45.382812 C 33.726562 45.390625 33.730469 45.398438 33.730469 45.40625 C 34.035156 46.929688 34.488281 48.28125 35.074219 49.421875 C 35.605469 50.464844 36.414062 51.8125 37.230469 52.328125 C 37.46875 52.476562 37.722656 52.554688 37.960938 52.554688 C 38.050781 52.554688 38.136719 52.546875 38.222656 52.523438 C 38.621094 52.417969 38.890625 52.09375 38.96875 51.628906 C 39.03125 51.25 38.941406 50.785156 38.800781 50.082031 C 38.765625 49.90625 38.726562 49.71875 38.6875 49.507812 C 38.503906 48.539062 38.332031 47.488281 38.324219 46.351562 C 38.304688 44.226562 38.660156 43.128906 38.925781 43.003906 C 39.222656 42.980469 40.074219 43.75 41.117188 45.601562 C 41.671875 46.589844 42.050781 47.585938 42.375 48.519531 C 42.441406 48.71875 42.503906 48.902344 42.5625 49.070312 C 42.789062 49.75 42.941406 50.199219 43.183594 50.492188 C 43.484375 50.859375 43.882812 51.003906 44.277344 50.894531 C 44.585938 50.808594 44.855469 50.570312 45.039062 50.226562 C 45.488281 49.371094 45.515625 47.796875 45.460938 46.628906 C 45.429688 45.953125 45.332031 45.242188 45.179688 44.507812 C 48.152344 46.277344 50.425781 49.007812 51.628906 52.285156 C 51.691406 52.453125 51.847656 52.554688 52.019531 52.554688 C 52.066406 52.554688 52.113281 52.546875 52.160156 52.53125 C 52.375 52.449219 52.484375 52.210938 52.40625 51.996094 C 51.046875 48.289062 48.386719 45.242188 44.90625 43.402344 Z M 49.332031 25.128906 C 49.378906 25.082031 49.441406 25.058594 49.503906 25.058594 C 49.5625 25.058594 49.625 25.082031 49.671875 25.128906 L 51.535156 26.996094 C 51.578125 27.042969 51.601562 27.101562 51.601562 27.167969 C 51.601562 27.230469 51.578125 27.292969 51.535156 27.335938 C 51.488281 27.382812 51.429688 27.40625 51.363281 27.40625 C 51.300781 27.40625 51.238281 27.382812 51.195312 27.335938 L 49.332031 25.46875 C 49.289062 25.421875 49.265625 25.363281 49.265625 25.296875 C 49.265625 25.234375 49.289062 25.171875 49.332031 25.128906 Z M 49.417969 26.730469 L 49.9375 27.25 L 47.578125 29.621094 L 47.058594 29.101562 Z M 44.507812 28.054688 C 44.550781 28.007812 44.613281 27.984375 44.675781 27.984375 C 44.738281 27.984375 44.800781 28.007812 44.84375 28.054688 L 48.617188 31.84375 C 48.660156 31.886719 48.6875 31.949219 48.6875 32.011719 C 48.6875 32.078125 48.660156 32.136719 48.617188 32.183594 C 48.523438 32.273438 48.371094 32.273438 48.277344 32.183594 L 44.507812 28.394531 C 44.414062 28.304688 44.414062 28.148438 44.507812 28.054688 Z M 46.675781 31.753906 L 41.207031 37.242188 C 41.039062 37.410156 40.769531 37.410156 40.601562 37.242188 L 39.464844 36.101562 C 39.300781 35.933594 39.300781 35.660156 39.464844 35.492188 L 39.871094 35.085938 L 40.285156 35.5 C 40.363281 35.582031 40.46875 35.621094 40.578125 35.621094 C 40.683594 35.621094 40.789062 35.582031 40.871094 35.5 C 41.03125 35.339844 41.03125 35.074219 40.871094 34.910156 L 40.457031 34.5 L 41.121094 33.832031 L 41.535156 34.246094 C 41.613281 34.328125 41.722656 34.367188 41.828125 34.367188 C 41.933594 34.367188 42.039062 34.328125 42.121094 34.246094 C 42.28125 34.082031 42.28125 33.820312 42.121094 33.65625 L 41.707031 33.242188 L 42.371094 32.574219 L 42.785156 32.988281 C 42.867188 33.070312 42.972656 33.113281 43.078125 33.113281 C 43.183594 33.113281 43.289062 33.070312 43.371094 32.988281 C 43.535156 32.828125 43.535156 32.5625 43.371094 32.402344 L 42.960938 31.988281 L 43.625 31.320312 L 44.035156 31.734375 C 44.117188 31.816406 44.222656 31.855469 44.328125 31.855469 C 44.433594 31.855469 44.542969 31.816406 44.621094 31.734375 C 44.785156 31.570312 44.785156 31.308594 44.621094 31.144531 L 44.210938 30.730469 L 44.933594 30.003906 Z M 37.464844 38.9375 L 39.125 36.9375 L 39.769531 37.582031 L 37.777344 39.25 Z M 23.398438 23.53125 L 33.890625 26.355469 C 34.476562 26.511719 34.867188 27.027344 34.867188 27.636719 L 34.867188 35.109375 C 34.867188 35.109375 32.652344 28.457031 32.652344 28.457031 C 32.601562 28.304688 32.472656 28.195312 32.3125 28.175781 L 23.398438 27.027344 Z M 31.132812 30.441406 C 31.078125 30.300781 30.949219 30.203125 30.800781 30.183594 L 23.398438 29.230469 L 23.398438 27.867188 L 31.949219 28.96875 L 32.996094 32.109375 C 32.609375 32.144531 32.261719 32.210938 31.90625 32.320312 C 31.902344 32.320312 31.898438 32.324219 31.894531 32.324219 Z M 44.304688 49.835938 C 44.234375 49.972656 44.140625 50.066406 44.058594 50.089844 C 43.96875 50.117188 43.882812 50.035156 43.824219 49.964844 C 43.679688 49.785156 43.539062 49.375 43.347656 48.800781 C 43.289062 48.632812 43.226562 48.445312 43.15625 48.242188 C 42.820312 47.273438 42.429688 46.234375 41.839844 45.191406 C 41.625 44.808594 41.1875 44.070312 40.679688 43.425781 C 39.917969 42.460938 39.300781 42.066406 38.730469 42.195312 C 38.71875 42.195312 38.707031 42.199219 38.695312 42.203125 C 38.136719 42.378906 37.796875 43.03125 37.617188 44.25 C 37.5 45.0625 37.488281 45.921875 37.492188 46.359375 C 37.503906 47.558594 37.679688 48.65625 37.871094 49.664062 C 37.914062 49.875 37.949219 50.070312 37.984375 50.246094 C 38.105469 50.835938 38.1875 51.261719 38.152344 51.488281 C 38.136719 51.582031 38.101562 51.695312 38.011719 51.71875 C 37.929688 51.738281 37.800781 51.703125 37.671875 51.621094 C 37.164062 51.304688 36.488281 50.363281 35.808594 49.042969 C 35.261719 47.972656 34.835938 46.699219 34.546875 45.253906 C 34.3125 43.539062 33.742188 42.082031 32.851562 40.917969 C 32.847656 40.914062 32.84375 40.910156 32.84375 40.90625 C 31.582031 39.386719 29.910156 36.460938 30.453125 34.632812 C 30.671875 33.898438 31.226562 33.402344 32.148438 33.117188 C 32.503906 33.007812 32.859375 32.945312 33.269531 32.925781 L 34.328125 36.109375 C 34.425781 36.402344 34.6875 36.589844 34.988281 36.589844 C 35.027344 36.589844 35.066406 36.585938 35.109375 36.578125 C 35.457031 36.523438 35.699219 36.234375 35.699219 35.882812 L 35.699219 32.898438 C 35.871094 32.875 36.039062 32.839844 36.203125 32.796875 C 36.898438 32.613281 37.441406 32.269531 37.964844 31.933594 C 38.542969 31.566406 39.089844 31.21875 39.871094 31.039062 C 40.859375 30.8125 41.617188 30.992188 42.183594 31.589844 L 38.878906 34.90625 C 38.511719 35.273438 38.421875 35.8125 38.601562 36.269531 L 36.585938 38.695312 C 36.449219 38.863281 36.460938 39.105469 36.609375 39.257812 L 36.742188 39.390625 L 34.917969 41.222656 C 34.753906 41.382812 34.753906 41.648438 34.917969 41.808594 C 34.996094 41.890625 35.105469 41.933594 35.210938 41.933594 C 35.316406 41.933594 35.421875 41.890625 35.503906 41.808594 L 37.328125 39.976562 L 37.457031 40.109375 C 37.539062 40.191406 37.644531 40.230469 37.753906 40.230469 C 37.847656 40.230469 37.941406 40.199219 38.019531 40.132812 L 40.433594 38.109375 C 40.585938 38.171875 40.746094 38.199219 40.90625 38.199219 C 41.226562 38.199219 41.550781 38.078125 41.796875 37.832031 L 43.328125 36.292969 C 43.308594 36.925781 43.25 37.566406 43.152344 38.132812 C 43.148438 38.136719 43.148438 38.144531 43.148438 38.148438 C 42.957031 39.601562 43.191406 41.152344 43.839844 42.753906 C 44.308594 44.152344 44.574219 45.46875 44.632812 46.667969 C 44.703125 48.152344 44.585938 49.308594 44.304688 49.835938 Z M 44.304688 49.835938 " fill-opacity="1" fill-rule="nonzero"/></g></svg>