<svg xmlns="http://www.w3.org/2000/svg" xmlns:xlink="http://www.w3.org/1999/xlink" width="100" zoomAndPan="magnify" viewBox="0 0 75 74.999997" height="100" preserveAspectRatio="xMidYMid meet" version="1.0"><defs><clipPath id="84879854ae"><path d="M 25 28 L 46 28 L 46 52.5 L 25 52.5 Z M 25 28 " clip-rule="nonzero"/></clipPath><clipPath id="80c130b909"><path d="M 29 22.5 L 41 22.5 L 41 28 L 29 28 Z M 29 22.5 " clip-rule="nonzero"/></clipPath><clipPath id="5e5776e4aa"><path d="M 46 22.5 L 51.082031 22.5 L 51.082031 52.5 L 46 52.5 Z M 46 22.5 " clip-rule="nonzero"/></clipPath><clipPath id="5bc452cafe"><path d="M 24.082031 37 L 33 37 L 33 46 L 24.082031 46 Z M 24.082031 37 " clip-rule="nonzero"/></clipPath><clipPath id="63a359ceba"><path d="M 42 22.5 L 44 22.5 L 44 25 L 42 25 Z M 42 22.5 " clip-rule="nonzero"/></clipPath></defs><rect x="-7.5" width="90" fill="#ffffff" y="-7.5" height="89.999996" fill-opacity="1"/><rect x="-7.5" width="90" fill="#ffffff" y="-7.5" height="89.999996" fill-opacity="1"/><g clip-path="url(#84879854ae)"><path fill="#000000" d="M 32.867188 52.488281 C 32.042969 52.488281 31.21875 51.902344 30.6875 50.90625 C 30.6875 50.90625 30.6875 50.847656 30.6875 50.847656 C 29.6875 48.859375 28.800781 45.34375 28.390625 43.585938 C 28.390625 43.46875 28.449219 43.410156 28.507812 43.351562 C 28.683594 43.117188 28.863281 43 29.097656 42.882812 C 29.628906 42.589844 30.214844 42.417969 30.804688 42.359375 C 30.335938 42.007812 29.921875 41.539062 29.628906 40.953125 C 29.273438 40.425781 29.097656 39.839844 29.039062 39.253906 C 28.800781 39.605469 28.449219 39.898438 28.09375 40.132812 C 28.035156 40.191406 27.917969 40.191406 27.859375 40.191406 C 27.742188 40.132812 27.683594 40.074219 27.683594 39.957031 C 27.328125 38.902344 26.859375 37.90625 26.328125 37.203125 C 26.328125 37.144531 26.269531 37.085938 26.210938 37.027344 C 25.679688 36.324219 25.265625 35.855469 25.265625 34.042969 C 25.328125 32.285156 26.035156 30.703125 27.386719 29.648438 C 28.625 28.65625 30.277344 28.1875 31.75 28.480469 C 32.574219 28.65625 33.105469 28.949219 33.574219 29.238281 C 34.046875 29.589844 34.515625 29.882812 35.222656 29.882812 C 35.929688 29.882812 36.34375 29.589844 36.816406 29.296875 C 37.285156 29.007812 37.875 28.65625 38.699219 28.480469 C 40.234375 28.1875 41.824219 28.65625 43.121094 29.648438 C 44.414062 30.761719 45.121094 32.285156 45.121094 34.042969 C 45.121094 35.855469 44.710938 36.324219 44.179688 37.027344 C 44.121094 37.085938 44.0625 37.144531 44.0625 37.203125 C 43.121094 38.433594 42.414062 40.542969 42.175781 42.882812 C 42 43.996094 40.941406 48.507812 39.703125 50.847656 C 39.113281 51.960938 38.171875 52.605469 37.285156 52.488281 C 36.636719 52.371094 36.167969 51.785156 36.050781 50.964844 C 35.992188 50.554688 36.050781 49.792969 36.109375 48.742188 C 36.285156 46.632812 36.519531 43 35.636719 42.066406 C 35.519531 41.949219 35.402344 41.890625 35.222656 41.890625 C 35.046875 41.890625 34.871094 41.949219 34.753906 42.125 C 33.871094 43.058594 34.105469 46.632812 34.28125 48.800781 C 34.339844 49.792969 34.398438 50.554688 34.339844 50.964844 C 34.222656 51.785156 33.75 52.371094 33.105469 52.488281 C 33.042969 52.488281 32.925781 52.488281 32.867188 52.488281 Z M 36.636719 50.847656 C 36.757812 51.433594 36.992188 51.84375 37.40625 51.902344 C 37.875 51.960938 38.640625 51.609375 39.230469 50.613281 C 40.410156 48.332031 41.410156 43.820312 41.585938 42.765625 C 41.882812 40.367188 42.589844 38.140625 43.589844 36.851562 C 43.648438 36.792969 43.707031 36.734375 43.707031 36.675781 C 44.238281 36.03125 44.535156 35.683594 44.535156 34.042969 C 44.535156 32.460938 43.886719 31.054688 42.707031 30.117188 C 41.585938 29.179688 40.171875 28.832031 38.820312 29.066406 C 38.113281 29.179688 37.640625 29.472656 37.167969 29.765625 C 36.636719 30.117188 36.109375 30.410156 35.285156 30.46875 C 35.222656 30.46875 35.222656 30.46875 35.222656 30.46875 C 34.339844 30.410156 33.808594 30.117188 33.28125 29.765625 C 32.808594 29.472656 32.335938 29.179688 31.628906 29.066406 C 30.335938 28.832031 28.863281 29.179688 27.742188 30.117188 C 26.5625 31.054688 25.914062 32.460938 25.914062 34.042969 C 25.914062 35.683594 26.210938 36.03125 26.679688 36.675781 C 26.742188 36.734375 26.800781 36.792969 26.859375 36.851562 C 27.328125 37.496094 27.800781 38.433594 28.09375 39.429688 C 28.625 38.960938 28.980469 38.375 29.214844 37.671875 C 29.214844 37.496094 29.390625 37.4375 29.570312 37.4375 C 29.6875 37.496094 29.804688 37.671875 29.746094 37.847656 C 29.449219 38.785156 29.628906 39.839844 30.15625 40.71875 C 30.628906 41.597656 31.453125 42.183594 32.398438 42.417969 C 32.574219 42.476562 32.632812 42.589844 32.632812 42.707031 C 32.632812 42.765625 32.632812 42.765625 32.632812 42.765625 C 32.632812 42.941406 32.457031 43.058594 32.277344 43 C 31.335938 42.765625 30.277344 42.941406 29.390625 43.410156 C 29.273438 43.46875 29.15625 43.527344 29.039062 43.644531 C 29.390625 45.402344 30.277344 48.742188 31.21875 50.613281 C 31.75 51.609375 32.515625 51.960938 32.984375 51.902344 C 33.398438 51.84375 33.691406 51.492188 33.75 50.90625 C 33.808594 50.554688 33.75 49.734375 33.691406 48.859375 C 33.515625 46.339844 33.28125 42.824219 34.339844 41.714844 C 34.578125 41.480469 34.871094 41.304688 35.222656 41.304688 C 35.578125 41.304688 35.871094 41.421875 36.109375 41.714844 C 37.167969 42.824219 36.933594 46.28125 36.757812 48.800781 C 36.636719 49.734375 36.578125 50.554688 36.636719 50.847656 Z M 34.046875 50.90625 Z M 34.046875 50.90625 " fill-opacity="1" fill-rule="evenodd"/></g><path fill="#000000" d="M 39.761719 44.582031 C 39.761719 44.582031 39.703125 44.582031 39.703125 44.582031 C 39.527344 44.523438 39.464844 44.40625 39.464844 44.230469 C 39.527344 44.054688 39.527344 43.878906 39.585938 43.703125 C 39.644531 43.527344 39.703125 43.351562 39.703125 43.175781 C 39.761719 43 39.878906 42.941406 40.054688 42.941406 C 40.234375 43 40.292969 43.117188 40.292969 43.292969 C 40.234375 43.46875 40.234375 43.644531 40.171875 43.820312 C 40.113281 43.996094 40.054688 44.171875 40.054688 44.347656 C 39.996094 44.464844 39.878906 44.582031 39.761719 44.582031 Z M 40.234375 42.007812 C 40.234375 42.007812 40.171875 42.007812 40.171875 42.007812 C 39.996094 41.949219 39.9375 41.832031 39.9375 41.65625 C 40.351562 39.078125 41.117188 37.144531 42.234375 35.800781 C 42.355469 35.683594 42.53125 35.625 42.648438 35.742188 C 42.765625 35.855469 42.765625 36.03125 42.707031 36.148438 C 41.648438 37.4375 40.941406 39.3125 40.527344 41.773438 C 40.46875 41.890625 40.351562 42.007812 40.234375 42.007812 Z M 27.328125 34.335938 C 27.210938 34.335938 27.035156 34.21875 27.035156 34.042969 C 27.035156 32.8125 27.566406 31.699219 28.507812 30.9375 C 29.390625 30.292969 30.453125 30 31.394531 30.175781 C 31.570312 30.234375 31.691406 30.351562 31.628906 30.527344 C 31.628906 30.703125 31.453125 30.761719 31.277344 30.761719 C 30.394531 30.585938 29.449219 30.996094 28.863281 31.40625 C 28.09375 32.050781 27.625 32.988281 27.625 34.042969 C 27.625 34.21875 27.507812 34.335938 27.328125 34.335938 Z M 27.328125 34.335938 " fill-opacity="1" fill-rule="evenodd"/><path fill="#000000" d="M 33.339844 34.160156 C 33.164062 34.160156 33.042969 34.042969 33.042969 33.867188 C 33.042969 33.632812 32.808594 33.398438 32.515625 33.398438 C 32.277344 33.398438 31.984375 33.632812 31.984375 33.867188 C 31.984375 34.042969 31.867188 34.160156 31.691406 34.160156 C 31.511719 34.160156 31.394531 34.042969 31.394531 33.867188 C 31.394531 33.28125 31.925781 32.8125 32.515625 32.8125 C 33.164062 32.8125 33.632812 33.28125 33.632812 33.867188 C 33.632812 34.042969 33.515625 34.160156 33.339844 34.160156 Z M 33.339844 34.160156 " fill-opacity="1" fill-rule="evenodd"/><path fill="#000000" d="M 38.699219 34.160156 C 38.523438 34.160156 38.40625 34.042969 38.40625 33.867188 C 38.40625 33.632812 38.171875 33.398438 37.875 33.398438 C 37.640625 33.398438 37.40625 33.632812 37.40625 33.867188 C 37.40625 34.042969 37.285156 34.160156 37.109375 34.160156 C 36.933594 34.160156 36.816406 34.042969 36.816406 33.867188 C 36.816406 33.28125 37.285156 32.8125 37.875 32.8125 C 38.464844 32.8125 38.996094 33.28125 38.996094 33.867188 C 38.996094 34.042969 38.878906 34.160156 38.699219 34.160156 Z M 38.699219 34.160156 " fill-opacity="1" fill-rule="evenodd"/><path fill="#000000" d="M 35.222656 37.613281 C 34.636719 37.613281 34.105469 37.144531 34.105469 36.558594 C 34.105469 36.382812 34.222656 36.265625 34.398438 36.265625 C 34.578125 36.265625 34.695312 36.382812 34.695312 36.558594 C 34.695312 36.792969 34.929688 37.027344 35.222656 37.027344 C 35.460938 37.027344 35.695312 36.792969 35.695312 36.558594 C 35.695312 36.382812 35.8125 36.265625 35.992188 36.265625 C 36.167969 36.265625 36.285156 36.382812 36.285156 36.558594 C 36.285156 37.144531 35.8125 37.613281 35.222656 37.613281 Z M 35.222656 37.613281 " fill-opacity="1" fill-rule="evenodd"/><g clip-path="url(#80c130b909)"><path fill="#000000" d="M 33.75 27.601562 C 32.632812 27.601562 31.511719 27.25 30.511719 26.546875 C 30.039062 26.195312 29.746094 25.726562 29.6875 25.140625 C 29.570312 24.613281 29.746094 24.027344 30.039062 23.558594 C 30.804688 22.5625 31.75 22.796875 32.574219 22.972656 C 32.984375 23.089844 33.339844 23.207031 33.75 23.207031 C 33.75 23.207031 33.808594 23.207031 33.808594 23.207031 C 34.164062 23.265625 34.339844 23.148438 34.636719 22.972656 C 35.046875 22.796875 35.578125 22.5625 36.699219 22.503906 C 37.816406 22.503906 38.9375 22.855469 39.878906 23.441406 C 40.351562 23.734375 40.644531 24.261719 40.703125 24.847656 C 40.820312 25.375 40.644531 25.960938 40.351562 26.429688 C 39.996094 26.898438 39.527344 27.191406 38.996094 27.25 C 38.40625 27.367188 37.875 27.25 37.40625 26.898438 C 37.050781 26.664062 36.578125 26.664062 36.167969 26.898438 C 35.460938 27.367188 34.636719 27.601562 33.75 27.601562 Z M 30.511719 23.910156 C 30.277344 24.261719 30.214844 24.671875 30.277344 25.082031 C 30.335938 25.492188 30.511719 25.84375 30.863281 26.078125 C 32.457031 27.191406 34.457031 27.367188 35.871094 26.429688 C 36.460938 26.078125 37.167969 26.078125 37.757812 26.429688 C 38.113281 26.664062 38.523438 26.78125 38.878906 26.722656 C 39.289062 26.664062 39.644531 26.429688 39.878906 26.078125 C 40.113281 25.785156 40.234375 25.316406 40.171875 24.90625 C 40.054688 24.496094 39.878906 24.144531 39.527344 23.910156 C 38.699219 23.382812 37.699219 23.089844 36.699219 23.089844 C 35.695312 23.089844 35.285156 23.324219 34.929688 23.5 C 34.636719 23.675781 34.28125 23.851562 33.75 23.792969 C 33.28125 23.792969 32.867188 23.675781 32.457031 23.558594 C 31.511719 23.324219 31.042969 23.265625 30.511719 23.910156 Z M 30.511719 23.910156 " fill-opacity="1" fill-rule="evenodd"/></g><g clip-path="url(#5e5776e4aa)"><path fill="#000000" d="M 50.777344 52.488281 C 50.71875 52.488281 50.660156 52.488281 50.601562 52.429688 L 48.597656 51.257812 C 48.539062 51.257812 48.480469 51.140625 48.480469 51.023438 C 48.480469 50.261719 48.421875 49.558594 48.363281 48.917969 L 48.363281 48.800781 C 48.304688 48.15625 48.246094 47.394531 48.070312 46.75 C 47.949219 46.046875 47.773438 45.34375 47.597656 44.640625 C 47.363281 43.410156 47.066406 42.125 46.949219 40.835938 C 46.714844 38.257812 47.007812 35.972656 47.890625 33.574219 C 48.65625 31.464844 48.539062 28.480469 48.363281 25.785156 L 48.128906 23.96875 C 48.007812 23.265625 48.539062 22.5625 49.246094 22.503906 C 49.953125 22.449219 50.601562 22.914062 50.660156 23.617188 C 50.957031 26.429688 51.132812 28.890625 50.835938 31.992188 C 50.71875 33.164062 50.660156 33.339844 50.308594 34.453125 C 48.894531 38.316406 49.421875 40.835938 50.191406 44.347656 C 50.308594 44.992188 50.425781 45.578125 50.542969 46.28125 C 50.71875 47.042969 50.835938 47.863281 50.957031 48.683594 C 51.015625 49.734375 51.074219 51.023438 51.074219 52.195312 C 51.074219 52.3125 51.015625 52.429688 50.898438 52.429688 C 50.835938 52.488281 50.777344 52.488281 50.777344 52.488281 Z M 49.070312 50.847656 L 50.484375 51.667969 C 50.425781 50.671875 50.367188 49.617188 50.367188 48.683594 C 50.308594 47.921875 50.191406 47.101562 50.011719 46.398438 C 49.894531 45.695312 49.71875 45.109375 49.601562 44.464844 C 48.894531 41.011719 48.304688 38.257812 49.777344 34.21875 C 50.128906 33.222656 50.191406 33.046875 50.308594 31.992188 C 50.542969 28.890625 50.367188 26.429688 50.128906 23.675781 C 50.070312 23.324219 49.71875 23.03125 49.304688 23.089844 C 49.128906 23.089844 48.953125 23.207031 48.835938 23.382812 C 48.714844 23.5 48.65625 23.675781 48.714844 23.851562 L 48.953125 25.667969 C 48.953125 25.726562 48.953125 25.726562 48.953125 25.726562 C 49.128906 28.480469 49.246094 31.582031 48.421875 33.808594 C 47.597656 36.089844 47.300781 38.316406 47.539062 40.777344 C 47.65625 42.007812 47.949219 43.292969 48.1875 44.523438 C 48.363281 45.226562 48.539062 45.929688 48.65625 46.632812 C 48.835938 47.335938 48.894531 48.097656 48.953125 48.800781 L 48.953125 48.859375 C 49.011719 49.5 49.070312 50.144531 49.070312 50.847656 Z M 50.601562 31.992188 Z M 50.601562 31.992188 " fill-opacity="1" fill-rule="evenodd"/></g><path fill="#000000" d="M 50.660156 48.976562 L 48.65625 48.976562 C 48.480469 48.976562 48.363281 48.859375 48.363281 48.683594 C 48.363281 48.507812 48.480469 48.390625 48.65625 48.390625 L 50.660156 48.390625 C 50.777344 48.390625 50.957031 48.507812 50.957031 48.683594 C 50.957031 48.859375 50.777344 48.976562 50.660156 48.976562 Z M 50.660156 48.976562 " fill-opacity="1" fill-rule="evenodd"/><path fill="#000000" d="M 48.65625 31.699219 L 45.828125 31.699219 C 45.300781 31.699219 44.886719 31.289062 44.886719 30.761719 L 44.886719 25.433594 C 44.886719 24.90625 45.300781 24.496094 45.828125 24.496094 L 48.539062 24.496094 C 48.65625 24.496094 48.777344 24.613281 48.835938 24.730469 L 48.953125 25.667969 C 48.953125 25.726562 48.953125 25.726562 48.953125 25.726562 C 49.070312 27.542969 49.1875 29.589844 48.953125 31.464844 C 48.894531 31.582031 48.777344 31.699219 48.65625 31.699219 Z M 45.828125 25.082031 C 45.59375 25.082031 45.476562 25.257812 45.476562 25.433594 L 45.476562 30.761719 C 45.476562 30.9375 45.59375 31.113281 45.828125 31.113281 L 48.363281 31.113281 C 48.539062 29.414062 48.480469 27.425781 48.363281 25.785156 L 48.246094 25.082031 Z M 45.828125 25.082031 " fill-opacity="1" fill-rule="evenodd"/><path fill="#000000" d="M 48.777344 30.410156 L 45.179688 30.410156 C 45.003906 30.410156 44.886719 30.292969 44.886719 30.117188 C 44.886719 29.941406 45.003906 29.824219 45.179688 29.824219 L 48.777344 29.824219 C 48.894531 29.824219 49.070312 29.941406 49.070312 30.117188 C 49.070312 30.292969 48.894531 30.410156 48.777344 30.410156 Z M 48.777344 30.410156 " fill-opacity="1" fill-rule="evenodd"/><path fill="#000000" d="M 48.777344 29.066406 L 45.179688 29.066406 C 45.003906 29.066406 44.886719 28.949219 44.886719 28.773438 C 44.886719 28.597656 45.003906 28.480469 45.179688 28.480469 L 48.777344 28.480469 C 48.894531 28.480469 49.070312 28.597656 49.070312 28.773438 C 49.070312 28.949219 48.894531 29.066406 48.777344 29.066406 Z M 48.777344 29.066406 " fill-opacity="1" fill-rule="evenodd"/><path fill="#000000" d="M 48.777344 27.71875 L 45.179688 27.71875 C 45.003906 27.71875 44.886719 27.601562 44.886719 27.425781 C 44.886719 27.25 45.003906 27.132812 45.179688 27.132812 L 48.777344 27.132812 C 48.894531 27.132812 49.070312 27.25 49.070312 27.425781 C 49.070312 27.601562 48.894531 27.71875 48.777344 27.71875 Z M 48.777344 27.71875 " fill-opacity="1" fill-rule="evenodd"/><path fill="#000000" d="M 48.65625 26.371094 L 45.179688 26.371094 C 45.003906 26.371094 44.886719 26.253906 44.886719 26.078125 C 44.886719 25.902344 45.003906 25.785156 45.179688 25.785156 L 48.65625 25.785156 C 48.777344 25.785156 48.953125 25.902344 48.953125 26.078125 C 48.953125 26.253906 48.777344 26.371094 48.65625 26.371094 Z M 48.65625 26.371094 " fill-opacity="1" fill-rule="evenodd"/><path fill="#000000" d="M 44.59375 48.859375 C 44.414062 48.859375 44.296875 48.742188 44.296875 48.566406 C 44.296875 47.980469 44.121094 47.511719 43.707031 47.160156 C 43.296875 46.75 42.824219 46.515625 42.234375 46.515625 C 42.058594 46.515625 41.941406 46.398438 41.941406 46.222656 C 41.941406 46.046875 42.058594 45.929688 42.234375 45.929688 C 42.824219 45.929688 43.296875 45.753906 43.707031 45.34375 C 43.707031 45.285156 43.707031 45.285156 43.707031 45.285156 C 44.0625 44.992188 44.296875 44.464844 44.296875 43.878906 C 44.296875 43.703125 44.414062 43.585938 44.59375 43.585938 C 44.769531 43.585938 44.886719 43.703125 44.886719 43.878906 C 44.886719 44.464844 45.121094 44.992188 45.476562 45.285156 C 45.476562 45.285156 45.476562 45.285156 45.476562 45.34375 C 45.886719 45.695312 46.417969 45.929688 46.949219 45.929688 C 47.066406 45.929688 47.242188 46.046875 47.242188 46.222656 C 47.242188 46.398438 47.066406 46.515625 46.949219 46.515625 C 46.417969 46.515625 45.886719 46.75 45.476562 47.160156 C 45.0625 47.511719 44.886719 48.039062 44.886719 48.566406 C 44.886719 48.742188 44.769531 48.859375 44.59375 48.859375 Z M 43.472656 46.222656 C 43.707031 46.339844 43.945312 46.515625 44.121094 46.75 C 44.296875 46.925781 44.472656 47.101562 44.59375 47.335938 C 44.710938 47.101562 44.886719 46.925781 45.0625 46.75 C 45.300781 46.515625 45.476562 46.339844 45.769531 46.222656 C 45.476562 46.105469 45.300781 45.929688 45.0625 45.753906 C 44.886719 45.578125 44.710938 45.34375 44.59375 45.109375 C 44.472656 45.34375 44.296875 45.578125 44.121094 45.753906 C 43.945312 45.929688 43.707031 46.105469 43.472656 46.222656 Z M 43.472656 46.222656 " fill-opacity="1" fill-rule="evenodd"/><g clip-path="url(#5bc452cafe)"><path fill="#000000" d="M 27.328125 45.929688 C 27.328125 45.929688 27.328125 45.929688 27.269531 45.929688 C 27.152344 45.871094 27.035156 45.753906 27.035156 45.636719 C 27.035156 45.636719 27.035156 45.578125 27.035156 45.578125 C 27.269531 44.582031 27.152344 43.585938 26.679688 42.648438 C 26.152344 41.832031 25.328125 41.1875 24.324219 40.894531 C 24.207031 40.835938 24.089844 40.71875 24.089844 40.601562 C 24.089844 40.601562 24.148438 40.542969 24.148438 40.542969 C 24.148438 40.367188 24.324219 40.25 24.5 40.308594 C 25.445312 40.601562 26.503906 40.484375 27.386719 39.957031 C 28.273438 39.488281 28.863281 38.667969 29.15625 37.671875 C 29.214844 37.496094 29.390625 37.378906 29.570312 37.4375 C 29.6875 37.496094 29.746094 37.613281 29.746094 37.730469 C 29.746094 37.789062 29.746094 37.789062 29.746094 37.789062 C 29.449219 38.785156 29.628906 39.78125 30.15625 40.71875 C 30.570312 41.597656 31.453125 42.183594 32.398438 42.417969 C 32.574219 42.476562 32.632812 42.589844 32.632812 42.707031 C 32.632812 42.765625 32.632812 42.765625 32.632812 42.765625 C 32.574219 42.941406 32.457031 43.058594 32.277344 43 C 31.335938 42.765625 30.277344 42.882812 29.390625 43.410156 C 28.507812 43.878906 27.859375 44.757812 27.625 45.695312 C 27.625 45.8125 27.507812 45.929688 27.328125 45.929688 Z M 25.914062 41.011719 C 26.445312 41.363281 26.859375 41.832031 27.210938 42.359375 C 27.210938 42.417969 27.210938 42.417969 27.210938 42.417969 C 27.507812 42.941406 27.683594 43.527344 27.742188 44.113281 C 28.09375 43.585938 28.507812 43.175781 29.097656 42.882812 C 29.628906 42.589844 30.214844 42.417969 30.804688 42.359375 C 30.335938 42.007812 29.921875 41.539062 29.628906 40.953125 C 29.273438 40.425781 29.097656 39.839844 29.039062 39.253906 C 28.683594 39.78125 28.214844 40.132812 27.683594 40.425781 C 27.152344 40.777344 26.5625 40.953125 25.914062 41.011719 Z M 25.914062 41.011719 " fill-opacity="1" fill-rule="evenodd"/></g><path fill="#000000" d="M 27.09375 26.664062 C 26.976562 26.664062 26.800781 26.546875 26.800781 26.371094 L 26.800781 25.375 C 26.800781 25.199219 26.976562 25.082031 27.09375 25.082031 C 27.269531 25.082031 27.386719 25.199219 27.386719 25.375 L 27.386719 26.371094 C 27.386719 26.546875 27.269531 26.664062 27.09375 26.664062 Z M 27.09375 26.664062 " fill-opacity="1" fill-rule="evenodd"/><path fill="#000000" d="M 27.09375 29.179688 C 26.976562 29.179688 26.800781 29.066406 26.800781 28.890625 L 26.800781 27.894531 C 26.800781 27.71875 26.976562 27.601562 27.09375 27.601562 C 27.269531 27.601562 27.386719 27.71875 27.386719 27.894531 L 27.386719 28.890625 C 27.386719 29.066406 27.269531 29.179688 27.09375 29.179688 Z M 27.09375 29.179688 " fill-opacity="1" fill-rule="evenodd"/><path fill="#000000" d="M 28.863281 27.425781 L 27.859375 27.425781 C 27.742188 27.425781 27.566406 27.308594 27.566406 27.132812 C 27.566406 26.957031 27.742188 26.839844 27.859375 26.839844 L 28.863281 26.839844 C 29.039062 26.839844 29.15625 26.957031 29.15625 27.132812 C 29.15625 27.308594 29.039062 27.425781 28.863281 27.425781 Z M 28.863281 27.425781 " fill-opacity="1" fill-rule="evenodd"/><path fill="#000000" d="M 26.328125 27.425781 L 25.328125 27.425781 C 25.207031 27.425781 25.03125 27.308594 25.03125 27.132812 C 25.03125 26.957031 25.207031 26.839844 25.328125 26.839844 L 26.328125 26.839844 C 26.503906 26.839844 26.621094 26.957031 26.621094 27.132812 C 26.621094 27.308594 26.503906 27.425781 26.328125 27.425781 Z M 26.328125 27.425781 " fill-opacity="1" fill-rule="evenodd"/><g clip-path="url(#63a359ceba)"><path fill="#000000" d="M 42.882812 24.203125 C 42.707031 24.203125 42.589844 24.085938 42.589844 23.910156 L 42.589844 23.03125 C 42.589844 22.855469 42.707031 22.738281 42.882812 22.738281 C 43.0625 22.738281 43.179688 22.855469 43.179688 23.03125 L 43.179688 23.910156 C 43.179688 24.085938 43.0625 24.203125 42.882812 24.203125 Z M 42.882812 24.203125 " fill-opacity="1" fill-rule="evenodd"/></g><path fill="#000000" d="M 42.882812 26.429688 C 42.707031 26.429688 42.589844 26.3125 42.589844 26.136719 L 42.589844 25.257812 C 42.589844 25.082031 42.707031 24.964844 42.882812 24.964844 C 43.0625 24.964844 43.179688 25.082031 43.179688 25.257812 L 43.179688 26.136719 C 43.179688 26.3125 43.0625 26.429688 42.882812 26.429688 Z M 42.882812 26.429688 " fill-opacity="1" fill-rule="evenodd"/><path fill="#000000" d="M 44.414062 24.847656 L 43.53125 24.847656 C 43.355469 24.847656 43.238281 24.730469 43.238281 24.554688 C 43.238281 24.378906 43.355469 24.261719 43.53125 24.261719 L 44.414062 24.261719 C 44.59375 24.261719 44.710938 24.378906 44.710938 24.554688 C 44.710938 24.730469 44.59375 24.847656 44.414062 24.847656 Z M 44.414062 24.847656 " fill-opacity="1" fill-rule="evenodd"/><path fill="#000000" d="M 42.234375 24.847656 L 41.351562 24.847656 C 41.175781 24.847656 41.058594 24.730469 41.058594 24.554688 C 41.058594 24.378906 41.175781 24.261719 41.351562 24.261719 L 42.234375 24.261719 C 42.414062 24.261719 42.53125 24.378906 42.53125 24.554688 C 42.53125 24.730469 42.414062 24.847656 42.234375 24.847656 Z M 42.234375 24.847656 " fill-opacity="1" fill-rule="evenodd"/></svg>