<svg xmlns="http://www.w3.org/2000/svg" xmlns:xlink="http://www.w3.org/1999/xlink" width="100" zoomAndPan="magnify" viewBox="0 0 75 74.999997" height="100" preserveAspectRatio="xMidYMid meet" version="1.0"><defs><clipPath id="3dbc6d98ce"><path d="M 16.90625 15.011719 L 61.15625 15.011719 L 61.15625 60 L 16.90625 60 Z M 16.90625 15.011719 " clip-rule="nonzero"/></clipPath></defs><rect x="-7.5" width="90" fill="#ffffff" y="-7.5" height="89.999996" fill-opacity="1"/><rect x="-7.5" width="90" fill="#ffffff" y="-7.5" height="89.999996" fill-opacity="1"/><g clip-path="url(#3dbc6d98ce)"><path fill="#000000" d="M 49.660156 26.421875 L 49.660156 29.078125 C 49.660156 29.503906 50.007812 29.851562 50.433594 29.851562 L 53.507812 29.851562 C 53.933594 29.851562 54.28125 29.503906 54.28125 29.078125 L 54.28125 26.421875 L 56.9375 26.421875 C 57.367188 26.421875 57.714844 26.078125 57.714844 25.648438 L 57.714844 22.578125 C 57.714844 22.148438 57.367188 21.804688 56.9375 21.804688 L 54.28125 21.804688 L 54.28125 19.148438 C 54.28125 18.722656 53.933594 18.375 53.507812 18.375 L 50.433594 18.375 C 50.007812 18.375 49.660156 18.722656 49.660156 19.148438 L 49.660156 21.804688 L 47.003906 21.804688 C 46.574219 21.804688 46.226562 22.148438 46.226562 22.578125 L 46.226562 25.648438 C 46.226562 26.078125 46.574219 26.421875 47.003906 26.421875 Z M 47.777344 23.351562 L 50.433594 23.351562 C 50.863281 23.351562 51.210938 23.007812 51.210938 22.578125 L 51.210938 19.925781 L 52.730469 19.925781 L 52.730469 22.578125 C 52.730469 23.007812 53.078125 23.351562 53.507812 23.351562 L 56.164062 23.351562 L 56.164062 24.875 L 53.507812 24.875 C 53.078125 24.875 52.730469 25.222656 52.730469 25.648438 L 52.730469 28.304688 L 51.210938 28.304688 L 51.210938 25.648438 C 51.210938 25.222656 50.863281 24.875 50.433594 24.875 L 47.777344 24.875 Z M 58.378906 42.394531 C 58.355469 42.386719 56.597656 41.660156 55.367188 40.074219 C 55.550781 39.5 55.765625 38.878906 56.027344 38.148438 C 56.769531 36.039062 57.601562 33.664062 57.753906 31.183594 C 59.804688 29.507812 61.117188 26.960938 61.117188 24.113281 C 61.117188 19.074219 57.015625 14.976562 51.972656 14.976562 C 48 14.976562 44.621094 17.523438 43.359375 21.066406 L 43.234375 21.105469 C 41.628906 21.632812 40.113281 22.132812 38.515625 22.132812 C 36.9375 22.132812 35.320312 21.59375 33.742188 21.0625 C 32.085938 20.515625 30.375 19.945312 28.597656 19.945312 C 27.382812 19.945312 26.28125 20.21875 25.238281 20.746094 C 24.6875 20.101562 24.191406 19.339844 23.871094 18.441406 C 23.757812 18.128906 23.453125 17.933594 23.128906 17.929688 C 22.796875 17.933594 22.503906 18.148438 22.402344 18.464844 C 22.359375 18.59375 21.308594 21.6875 17.40625 23.417969 C 17.117188 23.546875 16.9375 23.839844 16.949219 24.152344 C 16.957031 24.46875 17.160156 24.746094 17.460938 24.855469 C 17.480469 24.863281 18.808594 25.359375 20.167969 26.609375 C 18.597656 30.707031 20.085938 34.8125 21.296875 38.140625 C 21.867188 39.703125 22.457031 41.316406 22.457031 42.40625 C 22.457031 44.203125 22.65625 59.972656 29.484375 59.972656 C 33.457031 59.972656 34.628906 55.558594 35.570312 52.007812 C 36.429688 48.800781 37.199219 46.347656 38.640625 46.347656 C 39.710938 46.347656 40.28125 47.484375 41.179688 51.425781 C 41.984375 55 43.085938 59.898438 47.859375 59.898438 C 51.582031 59.898438 53.933594 55.570312 54.65625 47.386719 C 55.066406 46.589844 56.253906 44.628906 58.363281 43.839844 C 58.664062 43.726562 58.863281 43.441406 58.867188 43.121094 C 58.871094 42.800781 58.675781 42.511719 58.378906 42.394531 Z M 51.972656 16.523438 C 56.160156 16.523438 59.566406 19.929688 59.566406 24.113281 C 59.566406 28.300781 56.15625 31.703125 51.972656 31.703125 C 47.785156 31.703125 44.375 28.300781 44.375 24.113281 C 44.375 19.929688 47.78125 16.523438 51.972656 16.523438 Z M 23.128906 20.476562 C 24.183594 22.234375 25.710938 23.410156 26.828125 24.089844 C 25.035156 25.167969 23.847656 26.714844 23.160156 27.835938 C 22.039062 25.949219 20.527344 24.777344 19.425781 24.113281 C 21.328125 22.960938 22.476562 21.539062 23.128906 20.476562 Z M 47.859375 58.347656 C 44.585938 58.347656 43.617188 55.203125 42.691406 51.085938 C 41.828125 47.289062 41.078125 44.796875 38.640625 44.796875 C 35.894531 44.796875 34.96875 48.261719 34.070312 51.613281 C 33.011719 55.601562 32.066406 58.425781 29.484375 58.425781 C 25.464844 58.425781 24.007812 48.84375 24.007812 42.40625 C 24.007812 41.042969 23.398438 39.375 22.753906 37.613281 C 21.660156 34.609375 20.441406 31.246094 21.359375 27.9375 C 21.761719 28.480469 22.128906 29.109375 22.421875 29.832031 C 22.539062 30.125 22.824219 30.316406 23.140625 30.316406 C 23.453125 30.316406 23.738281 30.125 23.859375 29.832031 C 23.871094 29.792969 25.394531 26.125 28.816406 24.84375 C 29.113281 24.730469 29.3125 24.445312 29.316406 24.125 C 29.320312 23.808594 29.128906 23.519531 28.832031 23.398438 C 28.8125 23.390625 27.65625 22.914062 26.425781 21.90625 C 27.105469 21.640625 27.820312 21.496094 28.59375 21.496094 C 30.121094 21.496094 31.714844 22.023438 33.261719 22.539062 C 34.945312 23.101562 36.683594 23.683594 38.515625 23.683594 C 40.058594 23.683594 41.5 23.292969 42.921875 22.835938 C 42.863281 23.253906 42.824219 23.679688 42.824219 24.117188 C 42.824219 29.15625 46.925781 33.253906 51.96875 33.253906 C 53.449219 33.253906 54.84375 32.894531 56.078125 32.265625 C 55.792969 34.136719 55.144531 35.984375 54.539062 37.699219 C 54.46875 37.902344 54.40625 38.082031 54.339844 38.273438 C 54.195312 38.113281 53.992188 38.011719 53.765625 38.011719 L 53.757812 38.011719 C 53.425781 38.015625 53.132812 38.230469 53.03125 38.546875 C 52.996094 38.648438 52.171875 41.0625 49.121094 42.414062 C 48.832031 42.542969 48.648438 42.835938 48.660156 43.152344 C 48.671875 43.46875 48.875 43.746094 49.175781 43.851562 C 49.203125 43.863281 51.878906 44.84375 53.050781 47.742188 C 53.054688 47.75 53.058594 47.757812 53.0625 47.765625 C 52.640625 52.003906 51.414062 58.347656 47.859375 58.347656 Z M 53.789062 45.796875 C 52.964844 44.5 51.917969 43.640625 51.089844 43.109375 C 52.394531 42.273438 53.234375 41.289062 53.757812 40.492188 C 54.542969 41.703125 55.589844 42.550781 56.425781 43.09375 C 55.191406 43.890625 54.332031 44.953125 53.785156 45.792969 Z M 53.789062 45.796875 " fill-opacity="1" fill-rule="nonzero"/></g></svg>