<svg xmlns="http://www.w3.org/2000/svg" xmlns:xlink="http://www.w3.org/1999/xlink" width="100" zoomAndPan="magnify" viewBox="0 0 75 74.999997" height="100" preserveAspectRatio="xMidYMid meet" version="1.0"><defs><clipPath id="3045ae291a"><path d="M 37 23 L 51.351562 23 L 51.351562 36 L 37 36 Z M 37 23 " clip-rule="nonzero"/></clipPath><clipPath id="3e9a9e7db1"><path d="M 23.601562 23 L 50 23 L 50 52 L 23.601562 52 Z M 23.601562 23 " clip-rule="nonzero"/></clipPath></defs><rect x="-7.5" width="90" fill="#ffffff" y="-7.5" height="89.999996" fill-opacity="1"/><rect x="-7.5" width="90" fill="#ffffff" y="-7.5" height="89.999996" fill-opacity="1"/><g clip-path="url(#3045ae291a)"><path fill="#000000" d="M 43.414062 23.96875 C 42.289062 23.96875 41.253906 24.175781 40.308594 24.546875 C 39.675781 24.792969 39.011719 24.957031 38.332031 25.03125 C 38.078125 25.058594 37.875 25.261719 37.851562 25.515625 C 37.824219 25.769531 37.980469 26.007812 38.222656 26.085938 L 41.058594 27.011719 L 42.085938 30.175781 C 42.136719 30.339844 42.265625 30.46875 42.433594 30.523438 L 45.589844 31.554688 L 46.617188 34.71875 C 46.671875 34.882812 46.800781 35.011719 46.964844 35.066406 L 49.410156 35.863281 C 49.671875 35.945312 49.953125 35.824219 50.070312 35.574219 C 50.269531 35.148438 50.484375 34.691406 50.710938 34.21875 C 51.140625 33.320312 51.355469 32.335938 51.351562 31.296875 C 51.335938 27.261719 47.773438 23.972656 43.414062 23.96875 Z M 49.734375 33.75 C 49.582031 34.070312 49.433594 34.382812 49.292969 34.679688 L 47.5625 34.117188 L 46.535156 30.953125 C 46.484375 30.789062 46.355469 30.660156 46.1875 30.605469 L 43.03125 29.578125 L 42.003906 26.414062 C 41.949219 26.246094 41.820312 26.117188 41.65625 26.0625 L 40.421875 25.660156 C 40.875 25.5 41.847656 25.054688 43.402344 25.054688 C 47.199219 25.054688 50.253906 27.882812 50.265625 31.300781 C 50.269531 32.175781 50.089844 33 49.734375 33.75 Z M 49.734375 33.75 " fill-opacity="1" fill-rule="nonzero"/></g><g clip-path="url(#3e9a9e7db1)"><path fill="#000000" d="M 48.734375 37.054688 L 45.640625 36.046875 L 44.613281 32.882812 C 44.558594 32.714844 44.429688 32.585938 44.265625 32.53125 L 41.105469 31.503906 L 40.078125 28.339844 C 40.023438 28.175781 39.894531 28.042969 39.730469 27.992188 L 36.570312 26.960938 L 36.003906 25.210938 C 35.945312 25.035156 35.800781 24.898438 35.617188 24.851562 C 35.285156 24.769531 34.960938 24.667969 34.648438 24.546875 C 29.425781 22.503906 23.625 26.070312 23.605469 31.296875 C 23.601562 32.335938 23.816406 33.320312 24.242188 34.21875 C 28.507812 43.175781 27.449219 42.328125 28.175781 46.691406 L 28.679688 49.71875 C 29.101562 52.242188 32.890625 52.496094 33.6875 50.054688 L 35.988281 43.035156 C 36.460938 41.589844 38.496094 41.59375 38.96875 43.035156 L 41.265625 50.054688 C 42.066406 52.496094 45.855469 52.242188 46.273438 49.71875 L 46.777344 46.691406 C 47.394531 43 46.734375 43.050781 49.0625 37.789062 C 49.191406 37.496094 49.039062 37.152344 48.734375 37.054688 Z M 45.710938 46.515625 L 45.207031 49.539062 C 44.972656 50.941406 42.742188 51.082031 42.296875 49.714844 L 39.996094 42.695312 C 39.199219 40.261719 35.757812 40.253906 34.957031 42.695312 L 32.660156 49.714844 C 32.210938 51.082031 29.984375 50.941406 29.75 49.539062 L 29.246094 46.515625 C 28.523438 42.167969 29.582031 42.910156 25.222656 33.75 C 24.867188 33 24.6875 32.175781 24.6875 31.300781 C 24.707031 26.828125 29.746094 23.792969 34.253906 25.558594 C 34.515625 25.660156 34.789062 25.75 35.066406 25.828125 L 35.625 27.558594 C 35.679688 27.726562 35.808594 27.855469 35.972656 27.910156 L 39.132812 28.9375 L 40.160156 32.101562 C 40.214844 32.265625 40.34375 32.398438 40.507812 32.449219 L 43.667969 33.480469 L 44.695312 36.644531 C 44.75 36.808594 44.878906 36.9375 45.042969 36.992188 L 47.828125 37.898438 C 45.707031 42.804688 46.296875 42.992188 45.710938 46.515625 Z M 45.710938 46.515625 " fill-opacity="1" fill-rule="nonzero"/></g></svg>