<?xml version="1.0" encoding="UTF-8"?>
<svg xmlns="http://www.w3.org/2000/svg" width="1957" height="804" viewBox="0 0 1957 804" role="img" aria-labelledby="title desc">
  <title id="title">Lethbridge Landmark Line Art</title>
  <desc id="desc">Black and white vector silhouette illustration featuring Lethbridge landmarks including the High Level Bridge, Nikka Yuko Japanese Garden, Fort Whoop-Up, Galt Museum, University of Lethbridge, Indian Battle Park, coulees, river, trees, tipi, and monument.</desc>
  <path d="M 196 652 L 196 654 L 219 655 L 220 656 L 318 656 L 319 655 L 336 655 L 348 653 L 347 651 L 315 651 L 314 652 L 197 651 Z M 232 638 L 233 640 L 260 640 L 262 643 L 272 643 L 273 642 L 283 642 L 295 640 L 294 637 L 280 637 L 279 636 L 235 636 Z M 126 631 L 126 633 L 134 635 L 166 637 L 167 638 L 186 638 L 187 639 L 218 639 L 220 638 L 220 636 L 214 635 L 199 635 L 187 633 L 170 633 L 169 632 L 155 632 L 154 631 L 140 631 L 139 630 Z M 54 629 L 55 633 L 57 634 L 86 639 L 117 640 L 120 637 L 118 631 L 114 627 L 104 620 L 96 617 L 80 618 L 72 621 L 67 626 L 62 625 L 58 626 Z M 247 615 L 248 617 L 254 618 L 274 618 L 283 616 L 282 614 L 274 614 L 273 613 L 261 613 Z M 507 636 L 507 640 L 510 643 L 571 644 L 572 643 L 596 643 L 599 640 L 596 631 L 590 625 L 580 621 L 576 622 L 575 618 L 570 613 L 558 608 L 545 608 L 535 612 L 528 618 L 527 622 L 521 622 L 515 625 L 511 629 Z M 662 628 L 664 641 L 667 643 L 734 643 L 736 641 L 735 631 L 728 625 L 718 626 L 713 612 L 704 606 L 701 606 L 698 609 L 695 606 L 690 606 L 686 608 L 682 612 L 679 618 L 680 622 L 679 623 L 670 622 Z M 681 624 L 684 623 L 688 626 L 685 627 Z M 487 582 L 483 577 L 479 576 L 476 578 L 470 572 L 457 571 L 447 575 L 442 580 L 438 586 L 437 593 L 398 592 L 397 591 L 384 591 L 383 590 L 367 589 L 360 591 L 353 595 L 350 598 L 350 601 L 371 604 L 385 604 L 387 602 L 397 599 L 408 600 L 411 602 L 418 602 L 419 603 L 413 605 L 402 602 L 393 603 L 384 607 L 381 610 L 381 612 L 384 614 L 391 614 L 392 615 L 438 617 L 443 612 L 455 605 L 461 603 L 472 603 L 478 590 Z M 582 601 L 580 606 L 580 617 L 592 621 L 601 630 L 605 642 L 616 642 L 617 643 L 651 643 L 655 642 L 658 643 L 661 641 L 661 634 L 658 628 L 665 622 L 667 618 L 667 611 L 663 606 L 664 605 L 663 599 L 658 593 L 654 591 L 648 591 L 645 594 L 640 590 L 641 586 L 639 580 L 631 572 L 624 569 L 619 569 L 616 571 L 616 595 L 615 596 L 614 595 L 614 573 L 607 573 L 601 579 L 598 588 L 599 591 L 605 592 L 609 595 L 607 596 L 599 593 L 592 593 L 588 595 Z M 618 615 L 626 610 L 636 609 L 646 612 L 653 619 L 651 620 L 646 616 L 638 613 L 627 613 L 620 616 Z M 614 595 L 615 596 L 614 601 L 611 598 Z M 107 573 L 111 581 L 112 590 L 116 591 L 181 590 L 183 589 L 182 584 L 183 582 L 185 583 L 186 586 L 192 587 L 211 585 L 211 582 L 207 578 L 192 571 L 183 571 L 176 574 L 175 576 L 182 581 L 181 582 L 172 577 L 163 575 L 162 574 L 163 573 L 173 574 L 175 572 L 173 565 L 171 562 L 165 560 L 162 556 L 148 551 L 140 552 L 133 555 L 127 561 L 125 565 L 125 567 L 128 569 L 127 570 L 114 569 Z M 15 577 L 13 592 L 16 599 L 20 602 L 59 609 L 67 612 L 70 617 L 77 614 L 87 612 L 100 613 L 107 617 L 125 617 L 130 616 L 132 614 L 131 609 L 128 604 L 121 598 L 110 593 L 101 594 L 97 596 L 96 595 L 100 592 L 98 587 L 93 583 L 82 579 L 75 579 L 68 581 L 60 588 L 59 592 L 58 591 L 50 591 L 45 593 L 41 597 L 40 595 L 44 591 L 50 588 L 56 588 L 58 584 L 65 578 L 74 575 L 87 576 L 98 582 L 104 590 L 107 589 L 105 579 L 100 570 L 95 565 L 88 561 L 79 560 L 78 559 L 79 557 L 75 551 L 71 548 L 61 544 L 54 544 L 43 548 L 37 554 L 36 558 L 34 560 L 32 559 L 26 560 L 20 566 Z M 126 595 L 137 609 L 153 609 L 161 611 L 162 612 L 160 614 L 144 615 L 141 618 L 148 620 L 165 620 L 166 621 L 165 623 L 158 624 L 158 626 L 165 628 L 187 628 L 204 625 L 206 623 L 205 621 L 196 620 L 191 618 L 212 615 L 215 613 L 215 611 L 200 608 L 208 606 L 211 604 L 209 601 L 203 600 L 202 599 L 203 598 L 298 599 L 303 601 L 297 603 L 280 603 L 279 604 L 237 604 L 236 605 L 227 605 L 227 607 L 243 608 L 244 609 L 259 609 L 260 610 L 316 609 L 319 611 L 315 613 L 304 614 L 303 617 L 311 619 L 347 620 L 355 623 L 353 625 L 344 627 L 321 628 L 319 629 L 320 631 L 338 632 L 339 633 L 406 634 L 414 637 L 410 640 L 377 643 L 376 644 L 376 646 L 381 647 L 430 647 L 431 646 L 449 646 L 450 645 L 498 642 L 501 640 L 501 636 L 496 634 L 492 634 L 491 633 L 492 632 L 503 632 L 512 622 L 518 619 L 522 619 L 528 612 L 535 607 L 542 604 L 551 603 L 551 601 L 546 596 L 542 594 L 532 593 L 524 598 L 521 592 L 511 585 L 504 583 L 495 584 L 486 588 L 480 594 L 476 603 L 478 606 L 477 607 L 464 606 L 457 608 L 448 613 L 441 620 L 439 624 L 439 627 L 441 629 L 445 630 L 484 632 L 485 633 L 484 634 L 473 636 L 442 634 L 438 633 L 434 630 L 433 625 L 435 620 L 431 619 L 408 620 L 407 619 L 383 618 L 379 617 L 376 614 L 376 611 L 379 608 L 347 605 L 343 601 L 349 593 L 318 592 L 315 589 L 291 588 L 287 585 L 287 582 L 297 572 L 309 567 L 326 568 L 326 566 L 310 556 L 292 548 L 276 543 L 249 539 L 235 539 L 214 542 L 196 547 L 171 558 L 178 569 L 190 567 L 200 570 L 212 577 L 217 584 L 217 586 L 214 589 L 188 590 L 183 594 L 128 594 Z M 185 601 L 182 603 L 175 603 L 174 604 L 160 604 L 159 603 L 160 602 L 172 602 L 181 600 Z M 210 592 L 211 591 L 243 591 L 255 593 L 254 594 L 212 594 Z M 288 564 L 290 563 L 293 567 L 292 568 Z M 264 567 L 263 569 L 259 569 L 257 572 L 215 572 L 211 570 L 204 569 L 212 561 L 218 557 L 228 553 L 238 551 L 245 552 L 252 555 Z M 469 562 L 470 566 L 474 570 L 483 572 L 489 578 L 490 581 L 497 579 L 507 579 L 517 583 L 526 593 L 533 591 L 537 587 L 545 586 L 548 588 L 557 588 L 565 582 L 565 575 L 562 571 L 562 563 L 557 558 L 553 556 L 545 556 L 544 557 L 540 555 L 542 553 L 543 549 L 541 541 L 536 536 L 530 536 L 528 532 L 522 528 L 511 529 L 507 534 L 503 535 L 501 540 L 499 540 L 495 537 L 490 537 L 485 539 L 480 545 L 479 548 L 480 552 L 474 554 L 471 557 Z M 506 564 L 511 561 L 512 559 L 520 558 L 528 561 L 534 567 L 536 574 L 534 575 L 532 569 L 526 564 L 523 564 L 521 562 L 514 562 L 508 565 Z M 1392 477 L 1391 476 L 1382 476 L 1372 478 L 1360 483 L 1348 491 L 1324 499 L 1265 510 L 1242 516 L 1231 521 L 1226 527 L 1227 532 L 1237 538 L 1262 545 L 1316 555 L 1352 564 L 1366 570 L 1369 573 L 1368 576 L 1355 582 L 1327 589 L 1280 597 L 1211 605 L 1165 612 L 1115 623 L 1098 629 L 1090 633 L 1084 638 L 1082 643 L 1083 647 L 1088 652 L 1098 657 L 1115 663 L 1118 663 L 1135 670 L 1140 676 L 1133 682 L 1124 686 L 1069 701 L 1045 711 L 1037 719 L 1038 729 L 1043 734 L 1051 739 L 1064 745 L 1067 745 L 1069 743 L 1069 741 L 1067 739 L 1051 732 L 1043 725 L 1043 721 L 1047 717 L 1062 710 L 1126 692 L 1138 686 L 1144 681 L 1146 677 L 1145 671 L 1137 664 L 1097 650 L 1089 645 L 1088 643 L 1092 639 L 1099 635 L 1121 628 L 1156 620 L 1206 612 L 1275 604 L 1325 596 L 1350 590 L 1371 581 L 1375 577 L 1376 574 L 1375 570 L 1366 563 L 1360 562 L 1356 559 L 1320 549 L 1243 534 L 1232 528 L 1238 524 L 1263 517 L 1318 507 L 1337 502 L 1355 494 L 1370 484 L 1380 481 L 1390 480 L 1392 479 Z M 846 453 L 846 461 L 869 462 L 869 454 L 868 453 Z M 429 447 L 425 449 L 422 454 L 422 458 L 424 461 L 421 463 L 420 469 L 416 470 L 408 477 L 398 481 L 388 480 L 388 483 L 392 488 L 396 490 L 409 492 L 409 516 L 408 517 L 406 516 L 401 517 L 400 524 L 401 526 L 406 527 L 413 533 L 412 536 L 414 538 L 405 545 L 403 550 L 398 584 L 399 588 L 415 588 L 417 564 L 425 556 L 430 556 L 436 560 L 438 564 L 439 578 L 447 571 L 454 569 L 452 549 L 451 546 L 443 539 L 441 540 L 414 540 L 413 539 L 414 538 L 439 538 L 443 537 L 442 533 L 448 528 L 453 527 L 455 525 L 455 518 L 446 516 L 447 515 L 447 492 L 446 491 L 447 490 L 452 491 L 460 490 L 468 484 L 468 480 L 463 481 L 454 480 L 440 470 L 435 468 L 436 465 L 433 461 L 434 453 Z M 416 533 L 417 532 L 434 532 L 435 533 L 434 534 L 417 534 Z M 440 499 L 441 500 L 441 508 L 440 509 L 439 508 L 439 500 Z M 416 498 L 417 499 L 417 508 L 416 509 L 415 508 L 415 499 Z M 428 496 L 431 497 L 434 501 L 434 507 L 430 511 L 426 511 L 423 508 L 423 499 Z M 413 490 L 416 488 L 419 489 L 444 489 L 445 490 L 444 491 L 414 491 Z M 846 442 L 846 450 L 869 450 L 870 449 L 869 442 Z M 803 441 L 803 449 L 804 450 L 835 450 L 835 442 Z M 731 440 L 733 443 L 733 448 L 753 448 L 754 449 L 770 449 L 771 448 L 771 440 L 758 440 L 757 439 L 732 439 Z M 846 432 L 846 439 L 858 439 L 859 440 L 869 440 L 870 439 L 869 432 Z M 803 432 L 803 438 L 835 439 L 835 432 L 828 431 L 804 431 Z M 846 422 L 846 429 L 861 429 L 862 430 L 869 430 L 870 429 L 870 423 L 867 422 Z M 803 422 L 804 429 L 835 429 L 835 423 L 833 422 Z M 731 452 L 734 457 L 733 461 L 835 461 L 835 453 L 808 453 L 804 452 L 803 457 L 802 458 L 800 457 L 801 456 L 801 414 L 796 413 L 773 413 L 773 456 L 772 457 L 771 452 L 764 452 L 763 451 L 732 451 Z M 1878 386 L 1875 387 L 1875 394 L 1870 397 L 1870 399 L 1873 403 L 1869 404 L 1867 406 L 1867 408 L 1872 411 L 1868 414 L 1863 414 L 1861 416 L 1861 418 L 1866 421 L 1862 423 L 1861 426 L 1863 427 L 1868 426 L 1869 427 L 1863 431 L 1861 434 L 1854 435 L 1854 438 L 1860 441 L 1853 445 L 1853 448 L 1855 449 L 1862 449 L 1863 448 L 1864 450 L 1861 453 L 1854 456 L 1853 461 L 1847 462 L 1845 464 L 1845 466 L 1847 468 L 1853 469 L 1851 471 L 1852 473 L 1858 472 L 1860 474 L 1854 478 L 1849 479 L 1847 482 L 1850 484 L 1847 487 L 1841 488 L 1839 490 L 1839 493 L 1841 495 L 1846 496 L 1844 498 L 1845 500 L 1852 499 L 1853 502 L 1847 507 L 1843 507 L 1841 509 L 1842 511 L 1837 514 L 1835 509 L 1831 508 L 1827 505 L 1830 503 L 1831 500 L 1822 494 L 1826 493 L 1830 489 L 1830 485 L 1826 484 L 1824 480 L 1820 479 L 1825 474 L 1825 472 L 1823 470 L 1818 469 L 1821 467 L 1820 464 L 1817 462 L 1820 459 L 1816 456 L 1815 448 L 1813 447 L 1811 456 L 1808 458 L 1809 461 L 1811 462 L 1807 465 L 1807 467 L 1809 469 L 1807 471 L 1805 470 L 1803 471 L 1804 476 L 1809 478 L 1804 482 L 1800 482 L 1798 484 L 1798 486 L 1802 489 L 1801 491 L 1807 493 L 1802 495 L 1800 499 L 1796 500 L 1792 503 L 1793 506 L 1797 508 L 1797 511 L 1802 511 L 1803 513 L 1794 518 L 1796 521 L 1787 525 L 1787 528 L 1793 531 L 1792 534 L 1799 536 L 1796 539 L 1790 541 L 1790 543 L 1792 545 L 1784 549 L 1784 553 L 1790 554 L 1788 556 L 1782 557 L 1777 551 L 1772 550 L 1769 543 L 1764 540 L 1759 540 L 1757 545 L 1753 544 L 1751 549 L 1748 546 L 1739 545 L 1733 550 L 1732 554 L 1733 558 L 1728 563 L 1728 567 L 1730 571 L 1728 573 L 1718 577 L 1719 582 L 1722 582 L 1727 579 L 1757 569 L 1781 563 L 1820 556 L 1846 554 L 1847 553 L 1858 553 L 1859 552 L 1874 552 L 1875 551 L 1915 551 L 1916 552 L 1931 552 L 1941 554 L 1944 553 L 1945 550 L 1944 548 L 1941 547 L 1920 546 L 1919 545 L 1869 545 L 1868 544 L 1886 540 L 1912 540 L 1913 537 L 1917 540 L 1923 539 L 1923 537 L 1920 534 L 1923 532 L 1922 529 L 1915 525 L 1919 524 L 1921 522 L 1921 520 L 1918 517 L 1907 513 L 1902 508 L 1903 506 L 1908 509 L 1912 509 L 1913 508 L 1912 506 L 1917 505 L 1919 501 L 1916 497 L 1914 497 L 1908 493 L 1912 491 L 1912 487 L 1906 485 L 1908 483 L 1908 481 L 1901 479 L 1896 475 L 1897 473 L 1899 475 L 1905 474 L 1904 471 L 1909 470 L 1910 467 L 1908 464 L 1904 463 L 1898 459 L 1901 458 L 1903 456 L 1903 454 L 1901 452 L 1892 450 L 1890 447 L 1891 446 L 1895 447 L 1896 443 L 1899 442 L 1901 439 L 1900 437 L 1892 434 L 1894 432 L 1893 429 L 1888 428 L 1884 425 L 1889 424 L 1889 422 L 1893 419 L 1893 417 L 1891 415 L 1888 415 L 1886 412 L 1882 411 L 1883 409 L 1886 408 L 1886 405 L 1884 403 L 1882 404 L 1880 402 L 1883 400 L 1883 397 L 1879 394 Z M 1864 545 L 1865 544 L 1869 545 L 1868 546 Z M 1827 521 L 1832 522 L 1834 520 L 1836 523 L 1840 523 L 1841 526 L 1847 525 L 1850 526 L 1847 529 L 1841 531 L 1840 533 L 1842 535 L 1837 537 L 1831 534 L 1835 533 L 1836 529 L 1826 522 Z M 1877 473 L 1878 474 L 1878 491 L 1879 492 L 1879 536 L 1878 537 L 1876 536 L 1876 511 L 1868 505 L 1870 504 L 1876 507 L 1876 474 Z M 28 424 L 28 427 L 30 429 L 37 430 L 42 435 L 48 435 L 54 432 L 61 439 L 66 441 L 70 441 L 78 447 L 80 458 L 79 460 L 74 458 L 73 454 L 70 451 L 60 452 L 56 447 L 48 446 L 42 448 L 39 451 L 40 455 L 39 456 L 28 454 L 24 458 L 19 459 L 16 462 L 16 466 L 19 469 L 26 469 L 29 474 L 31 475 L 40 475 L 46 471 L 51 475 L 58 477 L 62 481 L 57 482 L 54 485 L 54 490 L 57 492 L 61 492 L 63 494 L 72 493 L 79 498 L 79 518 L 83 516 L 92 516 L 92 496 L 91 493 L 93 491 L 109 489 L 110 484 L 117 478 L 123 475 L 127 475 L 133 478 L 137 477 L 140 474 L 142 475 L 147 474 L 148 475 L 141 479 L 141 496 L 143 498 L 142 499 L 137 499 L 133 501 L 131 495 L 123 493 L 113 498 L 109 503 L 108 502 L 103 503 L 99 507 L 99 510 L 102 513 L 107 515 L 116 515 L 121 522 L 120 531 L 116 532 L 112 535 L 113 541 L 120 541 L 121 542 L 120 543 L 110 543 L 108 541 L 110 537 L 107 528 L 103 524 L 100 523 L 98 524 L 93 519 L 84 518 L 77 521 L 73 526 L 69 523 L 70 521 L 68 517 L 64 514 L 62 514 L 60 517 L 57 512 L 50 511 L 42 514 L 37 519 L 35 527 L 29 529 L 25 534 L 23 545 L 26 552 L 29 555 L 32 555 L 41 545 L 46 542 L 54 540 L 61 540 L 68 542 L 75 546 L 80 551 L 83 558 L 90 558 L 95 560 L 106 571 L 113 567 L 123 566 L 125 559 L 132 551 L 134 552 L 144 548 L 156 550 L 157 544 L 158 551 L 165 556 L 169 557 L 185 548 L 202 542 L 226 537 L 246 536 L 247 537 L 258 537 L 271 539 L 291 545 L 315 556 L 330 566 L 326 573 L 319 570 L 307 571 L 296 577 L 292 582 L 293 584 L 314 585 L 315 586 L 318 584 L 320 588 L 356 590 L 374 583 L 394 582 L 395 581 L 396 571 L 394 569 L 388 567 L 388 563 L 386 559 L 381 555 L 371 553 L 366 554 L 358 559 L 357 558 L 358 553 L 362 548 L 369 548 L 376 541 L 380 543 L 391 542 L 395 536 L 394 532 L 386 526 L 387 524 L 386 520 L 381 514 L 376 512 L 370 512 L 365 514 L 362 511 L 365 509 L 365 503 L 360 498 L 355 498 L 350 493 L 342 493 L 338 495 L 336 498 L 331 498 L 326 503 L 326 509 L 332 510 L 335 513 L 334 514 L 329 514 L 327 512 L 316 513 L 312 517 L 311 523 L 318 526 L 325 531 L 327 531 L 332 526 L 336 527 L 339 530 L 340 544 L 344 544 L 348 552 L 347 553 L 340 552 L 340 562 L 350 562 L 355 565 L 365 575 L 364 581 L 362 580 L 363 576 L 348 564 L 339 564 L 338 565 L 336 563 L 337 562 L 336 530 L 331 529 L 329 531 L 329 534 L 327 535 L 308 523 L 292 516 L 296 515 L 296 441 L 297 438 L 323 433 L 338 427 L 343 420 L 347 419 L 351 412 L 351 408 L 343 411 L 332 413 L 319 413 L 299 408 L 288 402 L 277 391 L 270 390 L 278 388 L 279 379 L 263 382 L 247 382 L 246 383 L 207 383 L 206 382 L 188 382 L 187 381 L 168 380 L 152 376 L 152 382 L 154 384 L 155 388 L 151 394 L 142 403 L 137 406 L 127 405 L 125 410 L 119 411 L 120 413 L 119 415 L 115 412 L 108 411 L 103 413 L 100 417 L 95 415 L 91 418 L 89 425 L 93 429 L 100 431 L 99 434 L 94 438 L 88 439 L 87 438 L 86 413 L 94 404 L 101 405 L 107 401 L 112 400 L 114 397 L 114 394 L 111 391 L 105 391 L 102 387 L 96 387 L 92 391 L 86 392 L 81 391 L 80 384 L 77 381 L 73 381 L 69 383 L 66 388 L 63 388 L 60 391 L 58 390 L 53 391 L 50 394 L 51 399 L 55 401 L 59 401 L 63 405 L 71 404 L 80 414 L 80 422 L 79 423 L 71 415 L 64 415 L 60 418 L 57 418 L 54 413 L 48 413 L 45 417 L 41 417 L 37 421 L 31 421 Z M 336 577 L 335 578 L 328 578 L 322 582 L 320 581 L 329 575 L 334 575 Z M 359 544 L 360 546 L 357 548 L 356 546 Z M 122 544 L 123 543 L 127 544 L 132 551 L 131 552 Z M 350 542 L 352 544 L 351 547 L 349 544 Z M 305 539 L 310 542 L 309 547 L 303 544 Z M 167 537 L 168 538 L 168 547 L 167 548 L 166 547 L 166 538 Z M 174 538 L 177 536 L 180 537 L 177 539 Z M 297 535 L 299 537 L 298 542 L 296 541 Z M 316 534 L 329 543 L 329 552 L 328 553 L 329 558 L 328 559 L 314 549 L 314 546 L 316 545 L 324 553 L 326 553 L 327 548 L 315 540 Z M 278 530 L 282 529 L 288 533 L 288 537 L 286 538 L 280 536 Z M 350 529 L 353 527 L 360 527 L 365 531 L 370 530 L 374 531 L 370 537 L 360 530 L 356 529 L 351 530 Z M 266 527 L 267 526 L 272 527 L 274 529 L 273 530 L 274 532 L 272 534 L 267 533 Z M 207 527 L 206 531 L 194 534 L 193 533 L 193 530 L 196 528 L 203 526 Z M 66 526 L 67 527 L 62 531 L 61 530 Z M 296 525 L 298 524 L 308 529 L 310 531 L 310 535 L 308 536 L 298 531 Z M 208 527 L 213 524 L 220 525 L 219 530 L 210 530 Z M 243 524 L 244 523 L 257 524 L 258 530 L 257 531 L 245 530 L 243 528 Z M 185 524 L 185 526 L 182 528 L 178 529 L 173 528 L 183 523 Z M 226 524 L 230 522 L 237 522 L 238 528 L 236 530 L 235 529 L 227 530 Z M 163 520 L 165 519 L 167 521 L 167 523 L 169 524 L 165 526 Z M 164 519 L 158 521 L 158 527 L 156 529 L 149 528 L 150 521 L 161 517 Z M 142 517 L 140 529 L 128 529 L 127 528 L 127 526 L 136 516 Z M 141 516 L 142 515 L 147 516 L 146 517 Z M 263 515 L 265 514 L 285 519 L 288 521 L 288 525 L 285 526 L 275 522 L 266 521 L 263 519 Z M 220 514 L 219 519 L 200 522 L 195 524 L 193 523 L 194 519 L 219 513 Z M 188 516 L 174 522 L 172 521 L 172 516 L 174 514 L 183 513 L 184 515 Z M 129 513 L 132 515 L 127 520 L 126 519 L 127 514 Z M 226 513 L 227 512 L 253 512 L 258 514 L 257 515 L 258 518 L 257 519 L 227 518 Z M 122 512 L 124 513 L 123 518 L 119 514 Z M 192 513 L 194 511 L 200 512 L 195 514 Z M 336 515 L 338 513 L 346 510 L 347 512 L 350 512 L 357 517 L 354 519 L 347 514 L 342 514 L 340 516 Z M 142 499 L 144 498 L 148 501 L 145 503 Z M 115 472 L 116 474 L 110 479 L 109 477 L 111 475 L 111 473 Z M 52 470 L 57 469 L 59 472 L 55 473 Z M 81 460 L 79 474 L 76 474 L 72 478 L 65 476 L 61 471 L 62 469 L 63 470 L 70 470 L 79 464 L 79 460 L 80 459 Z M 267 457 L 287 457 L 288 458 L 288 513 L 289 514 L 288 515 L 266 508 L 266 458 Z M 193 458 L 194 457 L 256 457 L 258 459 L 258 506 L 259 507 L 256 508 L 255 507 L 236 506 L 223 508 L 214 508 L 213 507 L 196 507 L 194 508 L 193 507 Z M 183 457 L 185 459 L 184 462 L 184 494 L 185 495 L 184 506 L 185 507 L 182 509 L 173 510 L 172 509 L 172 458 L 173 457 Z M 234 441 L 235 440 L 238 441 L 257 441 L 258 448 L 257 449 L 235 449 L 234 448 Z M 193 441 L 194 440 L 225 440 L 226 441 L 226 448 L 225 449 L 194 449 L 193 448 Z M 266 441 L 267 440 L 286 439 L 288 444 L 288 448 L 287 449 L 267 449 L 266 448 Z M 149 442 L 151 440 L 162 439 L 163 440 L 163 448 L 150 450 L 149 449 Z M 172 439 L 173 438 L 184 439 L 185 440 L 185 448 L 184 449 L 173 448 L 172 447 Z M 59 432 L 63 431 L 66 436 L 64 437 Z M 109 432 L 103 437 L 102 436 L 103 432 L 105 430 Z M 321 423 L 322 422 L 326 423 L 325 424 Z M 80 422 L 81 423 L 80 439 L 78 440 L 72 438 L 68 432 L 75 430 L 79 426 Z M 120 414 L 121 415 L 128 415 L 132 418 L 135 418 L 142 422 L 144 428 L 139 433 L 130 435 L 132 437 L 139 437 L 140 438 L 141 455 L 146 459 L 149 459 L 150 457 L 162 457 L 163 458 L 163 511 L 162 512 L 159 512 L 153 515 L 149 514 L 155 511 L 155 507 L 147 502 L 149 501 L 149 475 L 147 474 L 154 470 L 154 465 L 147 461 L 143 461 L 140 457 L 133 457 L 130 459 L 127 458 L 122 459 L 120 457 L 122 455 L 122 453 L 120 451 L 115 449 L 108 450 L 104 453 L 103 456 L 101 455 L 97 456 L 92 462 L 92 465 L 97 470 L 105 470 L 107 472 L 103 477 L 99 477 L 89 473 L 88 448 L 94 442 L 103 441 L 107 439 L 113 432 L 121 435 L 125 435 L 130 431 L 135 432 L 140 428 L 140 425 L 137 422 L 132 421 L 127 417 L 120 419 L 119 418 Z M 133 410 L 134 409 L 142 417 L 147 419 L 165 423 L 181 424 L 182 425 L 224 426 L 225 427 L 266 427 L 267 426 L 301 425 L 313 423 L 320 424 L 296 428 L 255 429 L 254 430 L 184 428 L 183 427 L 160 425 L 144 421 L 138 417 L 133 412 Z M 75 403 L 76 402 L 86 402 L 89 404 L 84 409 L 81 409 Z M 165 401 L 166 405 L 164 407 L 163 405 Z M 163 396 L 165 399 L 164 402 L 162 399 Z M 160 387 L 161 386 L 165 387 L 164 388 Z M 865 347 L 865 354 L 869 351 L 877 350 L 879 362 L 891 363 L 891 351 L 892 350 L 891 347 L 880 345 Z M 1136 293 L 1137 296 L 1159 296 L 1160 295 L 1160 293 Z M 1145 269 L 1143 272 L 1143 288 L 1144 289 L 1151 289 L 1152 287 L 1152 272 L 1149 269 Z M 1134 265 L 1134 290 L 1141 289 L 1137 286 L 1137 270 L 1141 269 L 1144 266 L 1150 266 L 1153 270 L 1156 268 L 1158 269 L 1158 286 L 1155 287 L 1154 289 L 1155 290 L 1161 289 L 1160 265 L 1159 264 L 1136 264 Z M 1664 251 L 1664 256 L 1666 258 L 1689 263 L 1689 254 L 1688 253 L 1669 250 Z M 845 235 L 848 247 L 846 262 L 857 258 L 866 262 L 875 262 L 881 259 L 889 252 L 889 250 L 883 250 L 872 247 L 864 238 L 860 236 Z M 26 132 L 26 137 L 31 139 L 31 145 L 26 149 L 26 155 L 46 158 L 49 160 L 45 210 L 44 211 L 43 235 L 42 236 L 42 248 L 40 260 L 40 271 L 39 272 L 38 293 L 36 304 L 33 355 L 37 356 L 39 353 L 40 328 L 42 315 L 53 336 L 45 353 L 51 351 L 55 342 L 59 349 L 63 348 L 58 335 L 67 316 L 69 318 L 70 350 L 50 356 L 44 355 L 40 358 L 35 358 L 31 360 L 15 363 L 13 365 L 13 367 L 15 369 L 51 362 L 132 342 L 170 336 L 183 336 L 184 335 L 222 336 L 223 337 L 237 338 L 263 344 L 292 354 L 310 362 L 339 377 L 384 403 L 471 443 L 501 459 L 592 513 L 630 532 L 668 548 L 711 564 L 731 570 L 734 572 L 817 599 L 852 608 L 869 611 L 891 613 L 892 614 L 902 614 L 903 615 L 940 617 L 980 623 L 1009 632 L 1025 641 L 1031 647 L 1032 651 L 1028 655 L 1018 659 L 983 665 L 942 669 L 910 674 L 880 682 L 861 692 L 854 700 L 852 706 L 855 715 L 861 721 L 881 731 L 909 741 L 916 745 L 920 749 L 920 753 L 915 758 L 898 765 L 884 768 L 882 770 L 882 772 L 885 774 L 896 772 L 913 766 L 924 758 L 927 750 L 925 745 L 915 737 L 881 724 L 864 715 L 859 710 L 858 706 L 860 702 L 865 697 L 880 689 L 904 682 L 939 676 L 1000 669 L 1019 665 L 1030 661 L 1038 653 L 1038 647 L 1036 643 L 1030 637 L 1013 627 L 982 617 L 953 612 L 946 612 L 943 609 L 943 606 L 950 599 L 960 594 L 977 589 L 995 586 L 1012 585 L 1013 584 L 1041 583 L 1042 582 L 1067 582 L 1068 581 L 1124 581 L 1125 580 L 1168 579 L 1194 575 L 1206 571 L 1216 566 L 1222 560 L 1223 552 L 1221 548 L 1214 541 L 1201 533 L 1175 522 L 1156 516 L 1152 513 L 1162 509 L 1180 505 L 1221 499 L 1231 499 L 1232 498 L 1287 493 L 1308 489 L 1314 486 L 1314 482 L 1312 480 L 1288 465 L 1289 464 L 1352 464 L 1353 465 L 1395 465 L 1396 466 L 1412 466 L 1413 467 L 1417 466 L 1421 468 L 1385 494 L 1355 514 L 1327 529 L 1326 533 L 1331 536 L 1386 542 L 1422 549 L 1444 557 L 1452 564 L 1453 569 L 1447 576 L 1436 583 L 1409 594 L 1379 603 L 1295 623 L 1277 629 L 1260 637 L 1251 645 L 1249 649 L 1249 653 L 1255 660 L 1269 666 L 1301 672 L 1332 674 L 1333 675 L 1355 675 L 1356 676 L 1941 675 L 1944 674 L 1945 672 L 1943 668 L 1888 668 L 1884 664 L 1885 662 L 1884 656 L 1881 653 L 1876 651 L 1876 647 L 1871 641 L 1862 639 L 1856 643 L 1851 643 L 1849 639 L 1844 635 L 1845 634 L 1844 628 L 1840 625 L 1838 626 L 1833 621 L 1827 621 L 1822 623 L 1816 630 L 1815 629 L 1808 629 L 1802 635 L 1790 634 L 1789 633 L 1790 632 L 1802 630 L 1802 621 L 1803 620 L 1802 590 L 1799 588 L 1790 586 L 1740 587 L 1738 588 L 1734 594 L 1731 609 L 1728 617 L 1728 622 L 1743 622 L 1744 623 L 1743 624 L 1639 624 L 1638 623 L 1640 620 L 1668 620 L 1669 621 L 1718 621 L 1721 620 L 1721 594 L 1720 593 L 1682 593 L 1681 592 L 1682 590 L 1671 590 L 1670 589 L 1671 582 L 1684 581 L 1685 582 L 1684 583 L 1684 590 L 1713 590 L 1713 583 L 1712 582 L 1686 582 L 1685 581 L 1687 579 L 1706 579 L 1707 578 L 1705 526 L 1704 525 L 1702 453 L 1700 451 L 1693 449 L 1681 451 L 1678 453 L 1677 457 L 1677 485 L 1676 486 L 1673 578 L 1667 580 L 1667 589 L 1666 590 L 1659 591 L 1659 606 L 1657 617 L 1637 616 L 1635 618 L 1633 616 L 1589 538 L 1584 527 L 1581 525 L 1600 491 L 1600 489 L 1598 488 L 1596 489 L 1581 518 L 1580 515 L 1584 505 L 1590 482 L 1587 481 L 1585 490 L 1580 504 L 1579 503 L 1579 489 L 1577 489 L 1577 505 L 1576 506 L 1572 497 L 1569 483 L 1566 482 L 1565 485 L 1574 512 L 1573 515 L 1560 491 L 1557 490 L 1556 492 L 1572 520 L 1573 525 L 1521 623 L 1519 621 L 1524 612 L 1518 608 L 1524 607 L 1527 602 L 1521 600 L 1518 596 L 1523 595 L 1527 588 L 1525 585 L 1523 585 L 1514 579 L 1520 578 L 1521 577 L 1520 574 L 1523 572 L 1522 568 L 1518 567 L 1519 566 L 1518 564 L 1513 563 L 1511 561 L 1514 560 L 1519 555 L 1519 553 L 1513 549 L 1513 546 L 1509 546 L 1507 544 L 1511 543 L 1513 539 L 1512 537 L 1507 535 L 1509 533 L 1509 529 L 1505 526 L 1506 521 L 1503 518 L 1502 511 L 1500 511 L 1499 518 L 1496 520 L 1497 526 L 1495 528 L 1493 528 L 1493 532 L 1496 534 L 1494 536 L 1491 536 L 1489 539 L 1494 545 L 1489 547 L 1490 549 L 1484 552 L 1484 555 L 1487 556 L 1487 559 L 1492 561 L 1490 563 L 1486 564 L 1485 567 L 1480 568 L 1478 570 L 1480 573 L 1483 574 L 1482 578 L 1490 580 L 1486 583 L 1480 585 L 1481 588 L 1480 590 L 1473 592 L 1473 596 L 1479 600 L 1478 601 L 1479 604 L 1483 603 L 1486 604 L 1482 608 L 1477 609 L 1474 612 L 1475 614 L 1479 615 L 1469 618 L 1465 609 L 1460 608 L 1457 605 L 1452 605 L 1445 610 L 1442 616 L 1439 614 L 1431 614 L 1427 617 L 1425 621 L 1425 627 L 1419 633 L 1419 638 L 1421 640 L 1420 641 L 1378 654 L 1374 656 L 1374 660 L 1379 661 L 1406 651 L 1437 642 L 1490 632 L 1521 630 L 1522 629 L 1557 629 L 1558 628 L 1570 628 L 1571 629 L 1595 628 L 1600 629 L 1603 624 L 1636 623 L 1637 624 L 1636 629 L 1603 629 L 1602 636 L 1604 638 L 1777 638 L 1778 639 L 1786 639 L 1811 643 L 1835 649 L 1865 660 L 1875 666 L 1877 666 L 1878 667 L 1877 668 L 1538 668 L 1537 669 L 1377 670 L 1376 669 L 1326 668 L 1325 667 L 1298 665 L 1271 660 L 1262 657 L 1256 653 L 1255 650 L 1262 643 L 1276 636 L 1300 628 L 1344 617 L 1348 617 L 1404 602 L 1429 593 L 1443 586 L 1453 579 L 1458 573 L 1459 564 L 1457 560 L 1452 555 L 1444 550 L 1428 544 L 1402 538 L 1366 534 L 1365 533 L 1357 533 L 1356 532 L 1347 532 L 1340 530 L 1383 503 L 1454 453 L 1495 430 L 1543 407 L 1577 394 L 1580 394 L 1600 387 L 1635 379 L 1660 375 L 1687 373 L 1688 372 L 1703 372 L 1704 371 L 1770 372 L 1781 374 L 1759 383 L 1737 394 L 1702 415 L 1622 471 L 1620 475 L 1622 477 L 1625 477 L 1707 419 L 1750 394 L 1784 379 L 1820 368 L 1854 362 L 1906 361 L 1907 362 L 1925 363 L 1938 366 L 1944 365 L 1944 361 L 1938 359 L 1909 356 L 1908 355 L 1885 354 L 1884 355 L 1863 355 L 1862 356 L 1839 358 L 1811 364 L 1797 369 L 1788 368 L 1787 367 L 1787 357 L 1788 356 L 1840 353 L 1841 352 L 1852 352 L 1863 350 L 1920 351 L 1921 350 L 1921 284 L 1918 282 L 1910 282 L 1909 281 L 1867 276 L 1865 277 L 1865 298 L 1864 299 L 1801 290 L 1741 297 L 1740 296 L 1740 274 L 1736 271 L 1727 271 L 1719 268 L 1708 269 L 1707 268 L 1686 266 L 1669 261 L 1647 257 L 1643 255 L 1642 253 L 1645 252 L 1658 256 L 1662 256 L 1663 207 L 1661 206 L 1638 204 L 1635 201 L 1627 201 L 1626 202 L 1616 199 L 1610 199 L 1597 196 L 1588 196 L 1571 202 L 1567 202 L 1558 205 L 1558 225 L 1560 225 L 1561 226 L 1560 227 L 1546 226 L 1539 224 L 1499 227 L 1498 231 L 1483 245 L 1455 249 L 1454 251 L 1429 254 L 1427 256 L 1426 261 L 1406 266 L 1405 267 L 1405 291 L 1408 293 L 1415 294 L 1415 320 L 1398 323 L 1398 344 L 1400 346 L 1435 348 L 1436 349 L 1436 365 L 1434 366 L 1428 364 L 1423 364 L 1422 365 L 1404 365 L 1403 366 L 1380 366 L 1379 367 L 1375 366 L 1372 368 L 1372 385 L 1371 386 L 1338 390 L 1313 395 L 1312 394 L 1314 392 L 1322 390 L 1321 385 L 1322 382 L 1324 385 L 1324 389 L 1332 389 L 1335 385 L 1334 381 L 1336 379 L 1336 375 L 1334 371 L 1327 367 L 1326 360 L 1318 354 L 1312 354 L 1308 356 L 1307 358 L 1303 359 L 1300 363 L 1300 370 L 1301 371 L 1292 373 L 1290 375 L 1290 377 L 1285 379 L 1280 386 L 1278 384 L 1206 384 L 1205 383 L 1206 382 L 1280 382 L 1281 379 L 1289 371 L 1292 370 L 1292 331 L 1296 327 L 1296 324 L 1294 322 L 1286 319 L 1284 316 L 1207 316 L 1206 312 L 1209 309 L 1210 305 L 1204 301 L 1204 296 L 1202 294 L 1178 294 L 1177 295 L 1179 299 L 1198 298 L 1199 299 L 1198 301 L 1146 301 L 1145 300 L 1130 300 L 1129 299 L 1129 285 L 1130 284 L 1130 271 L 1129 270 L 1130 263 L 1129 262 L 1130 261 L 1161 261 L 1162 260 L 1165 261 L 1165 298 L 1166 299 L 1174 299 L 1174 265 L 1177 262 L 1178 257 L 1172 253 L 1170 244 L 1167 239 L 1163 235 L 1156 231 L 1157 222 L 1152 217 L 1152 204 L 1149 203 L 1148 204 L 1148 217 L 1142 223 L 1144 226 L 1144 231 L 1138 234 L 1132 240 L 1129 245 L 1128 251 L 1121 254 L 1121 256 L 1126 261 L 1126 293 L 1125 294 L 1126 300 L 1125 301 L 1090 301 L 1089 305 L 1094 310 L 1094 314 L 1092 316 L 1011 316 L 1009 319 L 1004 320 L 1004 322 L 1009 327 L 1009 332 L 1005 335 L 999 344 L 999 347 L 1001 350 L 1006 350 L 1010 353 L 1010 357 L 1009 358 L 1005 353 L 1000 354 L 996 349 L 993 348 L 985 349 L 978 356 L 978 364 L 972 366 L 970 369 L 969 374 L 972 379 L 971 380 L 956 382 L 945 385 L 945 388 L 949 390 L 969 386 L 1004 384 L 1005 383 L 1044 384 L 1045 385 L 1054 385 L 1055 386 L 1064 386 L 1065 387 L 1086 389 L 1136 400 L 1173 412 L 1200 423 L 1257 453 L 1287 472 L 1292 474 L 1304 483 L 1285 487 L 1226 492 L 1225 493 L 1208 494 L 1182 498 L 1160 503 L 1147 508 L 1145 511 L 1143 511 L 1098 495 L 1070 488 L 1067 486 L 1067 431 L 1063 425 L 1061 425 L 1057 430 L 1057 443 L 1056 444 L 1055 439 L 1052 435 L 1047 439 L 1046 443 L 1045 439 L 1041 434 L 1039 434 L 1036 438 L 1035 442 L 1032 434 L 1029 433 L 1025 437 L 1024 441 L 1022 434 L 1020 431 L 1018 431 L 1013 440 L 1012 435 L 1008 430 L 1006 431 L 1003 436 L 1000 431 L 997 429 L 993 433 L 992 438 L 991 433 L 987 428 L 985 428 L 981 434 L 976 427 L 974 427 L 970 433 L 965 426 L 963 426 L 960 430 L 959 435 L 958 430 L 954 425 L 948 430 L 943 424 L 939 428 L 939 469 L 936 470 L 933 467 L 936 463 L 936 460 L 934 458 L 934 456 L 936 454 L 936 451 L 934 448 L 936 445 L 936 441 L 934 439 L 936 436 L 934 433 L 936 430 L 935 425 L 936 413 L 934 411 L 936 409 L 936 404 L 934 402 L 942 400 L 943 395 L 901 361 L 893 361 L 892 365 L 878 364 L 873 360 L 876 359 L 876 354 L 869 354 L 868 356 L 846 354 L 846 390 L 896 393 L 897 394 L 913 394 L 914 395 L 932 395 L 938 397 L 937 398 L 925 398 L 924 397 L 909 397 L 908 396 L 894 396 L 893 395 L 846 393 L 846 396 L 849 397 L 916 400 L 917 401 L 928 401 L 930 403 L 929 405 L 925 403 L 906 403 L 905 402 L 887 402 L 886 401 L 868 401 L 867 400 L 846 399 L 846 401 L 855 401 L 856 402 L 855 403 L 846 403 L 846 409 L 889 409 L 890 410 L 907 409 L 908 410 L 928 410 L 930 412 L 929 413 L 919 413 L 918 412 L 847 411 L 846 412 L 846 419 L 869 420 L 870 417 L 883 417 L 884 418 L 898 418 L 909 420 L 928 420 L 930 422 L 929 424 L 928 423 L 900 422 L 900 430 L 927 430 L 930 433 L 929 440 L 928 435 L 926 433 L 900 433 L 900 441 L 927 441 L 928 442 L 927 444 L 900 443 L 900 451 L 916 451 L 917 452 L 927 451 L 929 453 L 928 455 L 900 454 L 900 462 L 928 462 L 929 464 L 928 465 L 900 465 L 900 469 L 898 470 L 897 469 L 897 420 L 872 419 L 872 470 L 871 471 L 870 470 L 870 466 L 868 464 L 847 464 L 846 465 L 846 472 L 844 473 L 843 472 L 843 229 L 842 228 L 845 225 L 845 222 L 842 219 L 839 219 L 836 222 L 836 225 L 839 228 L 838 229 L 838 428 L 837 429 L 838 435 L 838 466 L 837 471 L 838 472 L 837 473 L 835 472 L 835 464 L 732 464 L 730 465 L 729 463 L 731 460 L 731 457 L 727 454 L 729 452 L 728 450 L 731 447 L 731 444 L 728 442 L 729 439 L 727 437 L 731 434 L 732 436 L 757 436 L 758 437 L 770 437 L 771 436 L 771 428 L 732 427 L 731 430 L 727 426 L 731 421 L 732 424 L 771 425 L 771 416 L 732 415 L 731 418 L 727 414 L 731 409 L 732 412 L 744 412 L 745 413 L 771 413 L 772 411 L 803 411 L 804 412 L 803 419 L 835 420 L 835 412 L 804 412 L 803 411 L 804 410 L 834 410 L 835 409 L 834 402 L 813 402 L 812 401 L 820 399 L 835 400 L 835 398 L 732 392 L 733 394 L 732 400 L 733 401 L 799 403 L 812 405 L 811 406 L 788 406 L 787 405 L 732 403 L 733 406 L 732 410 L 730 405 L 727 402 L 731 397 L 730 393 L 726 390 L 727 389 L 804 393 L 805 394 L 818 394 L 819 395 L 832 395 L 833 396 L 835 395 L 835 392 L 773 388 L 772 387 L 758 387 L 757 386 L 743 386 L 742 385 L 726 385 L 720 380 L 722 379 L 725 382 L 735 382 L 736 383 L 835 389 L 835 352 L 729 342 L 710 339 L 679 337 L 636 391 L 637 396 L 643 397 L 641 401 L 641 406 L 643 408 L 641 411 L 641 416 L 643 419 L 641 421 L 641 429 L 643 431 L 641 434 L 641 440 L 643 442 L 641 444 L 641 449 L 643 451 L 641 453 L 641 456 L 643 458 L 640 464 L 638 463 L 638 436 L 639 435 L 638 425 L 634 419 L 629 424 L 627 429 L 626 424 L 621 419 L 617 424 L 616 429 L 614 423 L 611 419 L 609 419 L 607 421 L 604 428 L 603 424 L 599 418 L 597 418 L 595 420 L 592 427 L 591 423 L 587 417 L 585 417 L 581 422 L 580 427 L 578 421 L 574 416 L 569 421 L 568 426 L 564 418 L 562 416 L 560 416 L 555 426 L 554 420 L 548 414 L 544 420 L 544 476 L 542 477 L 494 448 L 456 429 L 427 417 L 407 407 L 479 379 L 510 369 L 539 362 L 566 358 L 590 357 L 591 356 L 617 356 L 618 357 L 634 357 L 635 358 L 654 359 L 656 356 L 654 353 L 651 352 L 646 353 L 637 351 L 637 343 L 638 342 L 643 349 L 646 349 L 640 340 L 641 338 L 643 337 L 657 337 L 658 339 L 651 348 L 651 350 L 653 350 L 659 342 L 660 343 L 660 351 L 662 351 L 664 348 L 664 342 L 665 341 L 666 343 L 668 343 L 668 341 L 666 339 L 671 338 L 674 334 L 667 334 L 666 333 L 673 321 L 674 322 L 673 331 L 675 331 L 675 323 L 677 322 L 684 332 L 690 333 L 692 332 L 683 270 L 684 264 L 713 270 L 713 279 L 712 280 L 712 288 L 710 296 L 706 334 L 712 335 L 719 324 L 727 337 L 734 337 L 738 327 L 741 325 L 750 338 L 755 339 L 751 298 L 748 282 L 748 277 L 752 276 L 770 279 L 772 281 L 770 316 L 769 317 L 767 340 L 771 341 L 773 339 L 776 331 L 778 330 L 782 338 L 782 342 L 789 343 L 790 342 L 789 339 L 794 330 L 801 340 L 800 342 L 796 342 L 796 343 L 801 343 L 806 345 L 807 343 L 802 311 L 800 286 L 805 285 L 826 289 L 828 287 L 829 272 L 824 269 L 819 269 L 728 250 L 723 250 L 627 230 L 622 230 L 601 225 L 596 225 L 580 221 L 538 214 L 517 209 L 512 209 L 501 206 L 479 203 L 473 201 L 468 201 L 352 179 L 335 177 L 313 172 L 279 167 L 262 163 L 205 154 L 194 151 L 45 126 L 40 124 L 37 124 Z M 1482 622 L 1484 625 L 1483 627 L 1481 626 Z M 1679 593 L 1680 594 L 1680 616 L 1679 617 L 1663 617 L 1662 616 L 1662 595 L 1663 594 L 1677 594 Z M 1782 591 L 1783 593 L 1774 627 L 1773 628 L 1747 628 L 1746 627 L 1748 623 L 1755 594 L 1757 592 L 1780 592 Z M 1752 620 L 1752 622 L 1754 623 L 1767 623 L 1769 622 L 1769 620 L 1765 619 Z M 1754 614 L 1754 616 L 1759 617 L 1772 616 L 1772 614 L 1764 614 L 1763 613 L 1755 613 Z M 1755 609 L 1755 611 L 1773 611 L 1774 610 L 1773 608 L 1756 608 Z M 1775 603 L 1774 602 L 1757 603 L 1756 605 L 1774 606 Z M 1759 598 L 1759 600 L 1776 600 L 1777 599 L 1776 596 L 1772 597 L 1763 596 Z M 1603 591 L 1605 594 L 1604 597 L 1602 594 Z M 768 563 L 769 564 L 769 575 L 768 576 L 767 575 L 767 564 Z M 1568 552 L 1569 555 L 1566 560 L 1565 557 Z M 704 537 L 705 538 L 705 551 L 706 552 L 705 554 L 703 553 L 703 546 L 701 545 L 703 544 Z M 1581 536 L 1584 541 L 1592 564 L 1603 589 L 1602 592 L 1599 587 L 1580 539 Z M 1579 529 L 1581 535 L 1579 537 L 1579 582 L 1591 622 L 1589 623 L 1587 620 L 1579 588 L 1577 585 L 1567 622 L 1564 623 L 1563 621 L 1576 582 L 1576 539 L 1575 539 L 1573 546 L 1569 553 L 1568 550 L 1576 532 Z M 828 479 L 829 478 L 836 478 L 837 481 L 836 482 L 830 481 Z M 843 479 L 852 477 L 936 476 L 937 477 L 971 478 L 972 479 L 1000 481 L 1053 490 L 1102 503 L 1105 505 L 1120 509 L 1188 534 L 1210 546 L 1217 553 L 1217 557 L 1213 561 L 1203 566 L 1188 570 L 1165 572 L 1164 573 L 1148 573 L 1144 567 L 1137 566 L 1137 562 L 1135 558 L 1131 556 L 1124 556 L 1119 560 L 1117 565 L 1116 564 L 1107 565 L 1103 569 L 1101 575 L 1093 575 L 1090 571 L 1086 569 L 1091 568 L 1094 564 L 1094 562 L 1086 557 L 1090 555 L 1090 552 L 1088 548 L 1083 547 L 1083 544 L 1086 542 L 1085 538 L 1082 538 L 1080 536 L 1082 534 L 1082 532 L 1078 530 L 1080 527 L 1077 524 L 1076 519 L 1074 519 L 1073 524 L 1070 526 L 1070 528 L 1072 530 L 1068 532 L 1068 534 L 1071 536 L 1064 539 L 1064 541 L 1068 544 L 1065 548 L 1061 549 L 1059 551 L 1059 554 L 1064 557 L 1062 559 L 1058 559 L 1054 562 L 1058 566 L 1058 568 L 1064 569 L 1058 575 L 1035 567 L 999 552 L 926 516 L 888 499 L 861 489 L 846 485 L 843 483 L 844 482 Z M 811 473 L 812 472 L 824 472 L 825 473 L 824 474 L 812 474 Z M 799 473 L 804 472 L 812 474 L 811 475 L 804 475 Z M 554 483 L 556 481 L 593 474 L 629 471 L 630 470 L 645 470 L 646 469 L 727 470 L 728 471 L 749 472 L 790 478 L 824 485 L 873 500 L 911 516 L 1004 561 L 1040 575 L 1034 577 L 1020 577 L 1019 578 L 992 580 L 964 586 L 956 589 L 944 596 L 939 601 L 936 611 L 877 606 L 875 601 L 869 597 L 867 591 L 864 589 L 855 588 L 847 593 L 846 589 L 840 585 L 841 584 L 840 578 L 835 576 L 832 572 L 829 571 L 822 573 L 816 579 L 809 576 L 802 577 L 796 585 L 782 581 L 781 580 L 782 579 L 786 579 L 786 577 L 782 574 L 788 571 L 788 567 L 781 563 L 785 560 L 785 558 L 780 554 L 782 553 L 782 550 L 780 548 L 780 544 L 775 542 L 777 540 L 777 537 L 773 535 L 774 531 L 772 530 L 773 528 L 770 524 L 769 519 L 767 521 L 767 524 L 764 527 L 765 530 L 762 532 L 762 535 L 764 536 L 758 540 L 762 544 L 755 547 L 755 549 L 757 550 L 753 553 L 753 556 L 757 558 L 754 561 L 751 561 L 749 563 L 750 566 L 756 569 L 754 571 L 751 571 L 734 565 L 733 559 L 730 556 L 725 556 L 719 552 L 726 551 L 728 549 L 726 546 L 728 544 L 728 541 L 718 537 L 724 534 L 724 532 L 717 527 L 720 524 L 720 521 L 718 519 L 714 519 L 712 517 L 716 515 L 716 512 L 710 510 L 712 508 L 712 506 L 708 504 L 710 501 L 706 497 L 705 492 L 703 493 L 703 497 L 699 501 L 701 504 L 697 505 L 697 508 L 699 510 L 692 512 L 695 516 L 698 517 L 696 519 L 690 519 L 688 521 L 688 523 L 693 526 L 686 528 L 686 531 L 691 533 L 687 535 L 683 535 L 680 537 L 680 539 L 684 541 L 683 543 L 688 545 L 687 547 L 684 547 L 630 525 L 592 506 Z M 1687 454 L 1688 455 L 1688 462 L 1694 462 L 1696 464 L 1698 464 L 1699 468 L 1698 469 L 1688 469 L 1688 479 L 1687 480 L 1687 577 L 1686 578 L 1677 578 L 1676 572 L 1677 571 L 1679 502 L 1680 501 L 1680 470 L 1681 466 L 1685 464 L 1684 461 L 1682 462 L 1681 461 L 1681 456 L 1683 454 Z M 1056 448 L 1057 449 L 1057 483 L 1056 484 L 1055 483 L 1055 449 Z M 1046 447 L 1047 448 L 1047 481 L 1046 482 L 1045 481 L 1045 448 Z M 1035 446 L 1036 447 L 1036 479 L 1035 480 L 1034 479 L 1034 447 Z M 1024 445 L 1025 446 L 1025 477 L 1024 478 L 1023 477 L 1023 446 Z M 981 445 L 982 446 L 982 465 L 980 472 L 979 471 L 979 453 Z M 1013 444 L 1014 445 L 1014 476 L 1013 477 L 1012 476 L 1012 445 Z M 992 442 L 993 443 L 993 473 L 992 474 L 991 473 L 991 443 Z M 959 439 L 960 440 L 960 470 L 959 471 L 958 470 L 958 440 Z M 720 437 L 721 438 L 720 442 L 719 441 Z M 627 434 L 629 435 L 629 463 L 628 464 L 626 463 L 627 457 L 627 436 L 626 435 Z M 616 433 L 617 434 L 617 464 L 616 465 L 615 464 L 615 434 Z M 604 433 L 605 434 L 605 466 L 604 467 L 603 466 L 603 434 Z M 592 432 L 593 433 L 593 467 L 592 468 L 591 467 L 591 433 Z M 580 431 L 581 432 L 581 469 L 580 470 L 579 469 L 579 432 Z M 568 431 L 569 432 L 569 471 L 568 472 L 567 471 L 567 432 Z M 555 430 L 556 431 L 556 474 L 555 475 L 554 474 L 554 431 Z M 732 429 L 734 431 L 732 435 L 731 434 Z M 732 417 L 733 418 L 732 422 L 731 421 Z M 723 401 L 721 404 L 722 409 L 720 411 L 694 413 L 693 417 L 694 422 L 716 421 L 719 420 L 718 416 L 720 414 L 720 412 L 721 411 L 723 413 L 721 416 L 722 420 L 721 423 L 701 424 L 693 426 L 694 434 L 696 433 L 719 432 L 719 426 L 721 424 L 723 425 L 721 427 L 722 431 L 721 435 L 694 436 L 694 445 L 720 444 L 721 441 L 723 443 L 720 453 L 719 447 L 694 447 L 693 448 L 693 455 L 694 456 L 720 456 L 721 455 L 722 457 L 720 464 L 719 459 L 694 459 L 692 463 L 691 462 L 691 414 L 682 414 L 672 416 L 672 462 L 671 463 L 670 462 L 670 459 L 650 459 L 649 460 L 648 459 L 650 456 L 670 456 L 670 448 L 651 448 L 650 449 L 649 448 L 650 446 L 655 445 L 670 445 L 670 437 L 664 438 L 650 438 L 649 437 L 655 435 L 670 435 L 670 426 L 656 427 L 649 429 L 648 428 L 650 425 L 670 424 L 670 416 L 650 417 L 649 416 L 650 415 L 685 412 L 686 411 L 696 411 L 697 410 L 707 410 L 708 409 L 719 409 L 719 403 L 722 400 Z M 1168 404 L 1188 400 L 1209 399 L 1210 398 L 1228 398 L 1229 397 L 1272 398 L 1273 399 L 1284 399 L 1318 404 L 1359 414 L 1393 426 L 1426 442 L 1437 449 L 1442 454 L 1434 460 L 1376 459 L 1375 458 L 1275 457 L 1245 439 L 1206 419 Z M 676 396 L 677 395 L 685 395 L 686 396 L 685 397 L 677 397 Z M 378 392 L 379 391 L 393 391 L 394 392 L 391 395 L 391 397 L 394 397 L 398 400 L 400 400 L 402 396 L 404 398 L 407 397 L 407 395 L 404 392 L 405 391 L 428 391 L 429 392 L 400 403 L 398 403 Z M 724 390 L 721 392 L 722 398 L 717 400 L 672 404 L 656 407 L 649 407 L 648 406 L 650 404 L 676 402 L 700 398 L 719 397 L 720 388 L 721 387 Z M 655 387 L 656 389 L 653 392 L 652 390 Z M 1134 385 L 1135 384 L 1138 387 L 1144 381 L 1152 381 L 1155 383 L 1161 383 L 1162 384 L 1161 385 L 1162 398 L 1159 400 L 1157 399 L 1157 389 L 1156 387 L 1150 384 L 1143 386 L 1140 389 L 1139 395 L 1134 393 Z M 1604 380 L 1576 388 L 1535 404 L 1484 429 L 1449 450 L 1426 435 L 1399 422 L 1360 408 L 1325 399 L 1366 392 L 1374 392 L 1402 388 L 1412 388 L 1413 387 L 1423 387 L 1424 386 L 1434 386 L 1435 385 L 1448 385 L 1449 384 L 1524 381 L 1525 380 L 1551 380 L 1552 379 L 1603 379 Z M 1172 382 L 1173 381 L 1198 381 L 1200 379 L 1202 383 L 1201 388 L 1278 388 L 1279 387 L 1280 389 L 1279 390 L 1201 390 L 1201 392 L 1199 393 L 1198 392 L 1198 383 L 1173 383 Z M 1046 378 L 1047 377 L 1058 377 L 1059 379 L 1058 380 Z M 657 385 L 665 375 L 666 377 L 664 380 L 678 378 L 681 379 L 680 381 L 677 382 L 661 383 L 658 386 Z M 1010 376 L 1012 374 L 1015 376 L 1014 377 Z M 1427 369 L 1427 379 L 1426 380 L 1382 384 L 1381 385 L 1376 384 L 1376 372 L 1377 371 L 1419 369 L 1420 368 Z M 721 387 L 714 389 L 680 392 L 655 396 L 648 395 L 652 391 L 653 393 L 665 391 L 684 390 L 690 388 L 715 386 L 715 384 L 709 378 L 700 378 L 691 380 L 685 379 L 688 377 L 705 375 L 700 369 L 701 368 Z M 706 367 L 708 366 L 720 378 L 718 379 Z M 669 370 L 672 366 L 680 368 L 679 370 L 672 371 Z M 1316 365 L 1317 370 L 1314 375 L 1314 379 L 1321 380 L 1322 381 L 1321 383 L 1318 381 L 1313 381 L 1307 373 L 1309 372 L 1312 374 Z M 1001 365 L 994 367 L 989 373 L 988 372 L 988 370 L 992 365 L 994 364 Z M 1537 364 L 1537 373 L 1536 374 L 1503 375 L 1502 376 L 1491 376 L 1490 375 L 1490 367 L 1492 365 L 1523 364 L 1524 363 L 1536 363 Z M 699 366 L 688 369 L 686 368 L 687 366 L 695 365 L 696 363 Z M 666 362 L 667 364 L 664 367 L 663 365 Z M 418 360 L 437 386 L 436 388 L 435 387 L 409 387 L 407 385 L 404 387 L 403 386 Z M 672 354 L 673 356 L 668 362 L 667 360 Z M 678 357 L 680 355 L 685 356 L 686 353 L 692 359 L 691 360 L 688 358 L 680 358 L 679 359 Z M 515 351 L 518 354 L 514 358 L 513 356 Z M 1443 349 L 1455 351 L 1455 366 L 1454 367 L 1442 365 L 1442 350 Z M 1458 347 L 1460 348 L 1460 377 L 1459 378 L 1457 377 L 1457 348 Z M 677 347 L 678 349 L 675 352 L 674 350 Z M 1490 344 L 1492 345 L 1493 348 L 1493 361 L 1492 362 L 1490 361 L 1490 349 L 1489 348 Z M 1037 345 L 1041 346 L 1039 347 L 1039 367 L 1049 367 L 1049 347 L 1040 345 L 1041 344 L 1051 344 L 1052 345 L 1051 351 L 1052 367 L 1053 368 L 1052 370 L 1036 370 L 1035 369 L 1036 368 L 1036 346 Z M 1253 341 L 1263 341 L 1267 344 L 1267 373 L 1266 374 L 1264 372 L 1265 371 L 1264 347 L 1260 344 L 1256 344 L 1251 348 L 1250 344 Z M 680 342 L 682 341 L 696 355 L 694 356 L 683 345 L 681 345 L 679 347 L 678 345 Z M 617 341 L 619 343 L 620 349 L 618 351 L 612 350 L 611 349 Z M 1556 341 L 1536 344 L 1529 344 L 1528 343 L 1546 340 L 1555 340 Z M 1246 340 L 1249 341 L 1249 372 L 1248 376 L 1250 377 L 1260 377 L 1261 376 L 1269 377 L 1269 341 L 1270 340 L 1273 341 L 1273 376 L 1276 378 L 1275 379 L 1243 379 L 1242 378 L 1245 376 L 1245 341 Z M 1232 340 L 1233 341 L 1233 373 L 1232 374 L 1229 373 L 1229 347 L 1225 344 L 1220 344 L 1215 348 L 1215 373 L 1214 374 L 1213 373 L 1213 346 L 1214 344 L 1218 341 L 1226 341 L 1229 343 Z M 1209 340 L 1212 341 L 1212 376 L 1213 377 L 1229 377 L 1231 375 L 1237 378 L 1236 379 L 1207 379 L 1206 378 L 1209 376 L 1209 342 L 1208 341 Z M 1173 340 L 1187 340 L 1189 342 L 1189 368 L 1190 369 L 1189 370 L 1173 370 L 1172 369 L 1172 341 Z M 1175 342 L 1175 367 L 1187 367 L 1187 343 L 1186 342 Z M 1110 340 L 1124 340 L 1126 342 L 1125 343 L 1125 366 L 1126 367 L 1125 370 L 1109 370 L 1108 369 L 1109 341 Z M 1113 342 L 1111 343 L 1111 367 L 1122 368 L 1123 367 L 1123 343 L 1122 342 Z M 1064 340 L 1065 341 L 1065 377 L 1067 377 L 1067 348 L 1072 342 L 1081 341 L 1090 347 L 1090 377 L 1093 378 L 1088 383 L 1075 382 L 1061 379 L 1063 376 L 1063 369 L 1062 368 L 1063 367 L 1063 341 Z M 1076 344 L 1071 349 L 1071 377 L 1085 377 L 1085 349 L 1082 345 Z M 586 340 L 588 345 L 588 350 L 587 351 L 580 351 L 579 350 Z M 565 340 L 570 348 L 574 350 L 572 352 L 564 352 L 563 351 Z M 1555 340 L 1556 339 L 1564 339 L 1565 340 L 1564 341 L 1556 341 Z M 1514 339 L 1518 340 L 1518 359 L 1517 360 L 1513 359 L 1513 340 Z M 1639 338 L 1640 339 L 1640 371 L 1637 373 L 1636 372 L 1636 339 Z M 1566 339 L 1567 338 L 1572 339 L 1571 340 Z M 536 337 L 539 356 L 516 362 L 515 360 L 520 356 L 525 356 L 524 354 L 525 351 Z M 1660 335 L 1661 336 L 1661 368 L 1657 370 L 1656 369 L 1656 336 Z M 432 335 L 439 377 L 438 380 L 420 355 L 428 340 Z M 391 335 L 393 340 L 394 374 L 395 375 L 394 379 L 379 355 Z M 1170 335 L 1171 334 L 1192 334 L 1193 336 L 1192 337 L 1191 336 L 1171 336 Z M 1105 335 L 1106 334 L 1128 334 L 1129 335 L 1128 336 L 1106 336 Z M 1039 335 L 1040 334 L 1045 335 L 1044 336 Z M 592 349 L 592 340 L 593 339 L 600 348 L 603 347 L 603 345 L 595 336 L 596 334 L 600 335 L 602 339 L 605 335 L 612 335 L 615 337 L 606 350 L 605 349 L 603 350 L 593 350 Z M 566 336 L 567 334 L 585 334 L 586 335 L 575 350 L 573 349 L 574 347 Z M 1685 333 L 1686 334 L 1685 365 L 1681 367 L 1680 366 L 1680 335 L 1679 334 Z M 1021 333 L 1024 333 L 1026 336 L 1024 340 L 1024 343 L 1026 345 L 1026 368 L 1024 370 L 1025 376 L 1024 377 L 1020 376 L 1021 370 L 1019 368 L 1020 367 L 1019 346 L 1021 344 L 1020 338 Z M 398 332 L 403 339 L 401 348 L 402 368 L 404 366 L 405 349 L 407 344 L 415 355 L 412 363 L 401 381 L 400 380 L 399 356 L 398 355 L 398 338 L 397 337 Z M 504 332 L 505 331 L 513 331 L 514 336 L 531 333 L 533 334 L 523 348 L 520 350 Z M 1708 330 L 1710 330 L 1712 332 L 1712 364 L 1711 365 L 1706 364 L 1706 332 Z M 493 330 L 494 333 L 482 350 L 476 342 L 471 332 L 472 331 Z M 1538 330 L 1539 329 L 1547 329 L 1558 331 L 1591 333 L 1593 335 L 1592 336 L 1575 335 L 1565 333 L 1544 332 Z M 428 329 L 429 332 L 419 350 L 417 351 L 405 334 L 409 331 Z M 1206 336 L 1209 333 L 1209 330 L 1206 329 L 1207 328 L 1279 328 L 1280 329 L 1274 330 L 1272 332 L 1272 334 L 1274 335 L 1273 338 L 1243 338 L 1242 337 L 1208 338 Z M 1211 330 L 1212 335 L 1242 335 L 1244 333 L 1245 335 L 1269 335 L 1270 334 L 1269 330 L 1234 330 L 1233 331 L 1231 330 Z M 1743 327 L 1749 328 L 1749 364 L 1748 365 L 1742 364 L 1742 328 Z M 390 327 L 391 328 L 377 350 L 375 349 L 363 329 L 375 327 Z M 1826 325 L 1830 326 L 1830 349 L 1829 350 L 1825 349 L 1825 326 Z M 253 325 L 255 334 L 250 335 L 248 332 Z M 1792 323 L 1794 325 L 1793 326 L 1793 351 L 1788 353 L 1787 352 L 1787 324 Z M 254 335 L 260 334 L 260 323 L 261 322 L 276 340 L 282 340 L 280 336 L 284 330 L 285 331 L 285 341 L 289 343 L 291 333 L 293 337 L 296 338 L 296 335 L 291 325 L 295 323 L 302 322 L 308 323 L 296 341 L 295 344 L 296 346 L 293 348 L 279 342 L 275 342 Z M 133 334 L 132 336 L 120 338 L 95 345 L 93 344 L 102 336 L 105 338 L 110 337 L 110 335 L 106 331 L 115 321 L 116 322 L 116 336 L 121 335 L 122 333 L 122 322 L 123 321 L 128 330 L 127 334 L 130 333 Z M 1203 321 L 1204 320 L 1283 320 L 1284 321 L 1283 322 L 1204 322 Z M 799 319 L 801 320 L 802 334 L 801 335 L 796 327 Z M 782 319 L 784 331 L 783 334 L 779 327 Z M 773 319 L 776 327 L 772 335 L 771 334 L 771 326 Z M 1121 318 L 1122 319 L 1122 328 L 1120 329 L 1119 328 Z M 1113 318 L 1114 319 L 1114 328 L 1113 329 L 1112 328 L 1112 319 Z M 649 318 L 651 319 L 658 332 L 657 334 L 641 334 L 640 333 Z M 1177 318 L 1184 317 L 1185 319 L 1184 320 Z M 1114 318 L 1115 317 L 1121 318 L 1120 319 Z M 787 317 L 792 325 L 792 328 L 788 336 L 786 328 L 786 318 Z M 600 317 L 601 318 L 601 330 L 600 331 L 594 330 L 593 329 Z M 264 318 L 265 317 L 266 318 L 284 319 L 285 323 L 277 333 Z M 1131 334 L 1132 332 L 1135 332 L 1135 328 L 1137 324 L 1140 321 L 1146 319 L 1148 316 L 1150 318 L 1156 320 L 1161 325 L 1162 330 L 1160 332 L 1167 333 L 1165 335 L 1132 335 Z M 1139 332 L 1158 332 L 1156 325 L 1151 322 L 1144 323 L 1140 327 Z M 605 316 L 614 329 L 613 331 L 605 331 L 604 330 L 604 317 Z M 1799 316 L 1800 315 L 1807 315 L 1816 317 L 1826 317 L 1835 319 L 1862 321 L 1866 323 L 1865 324 L 1851 323 L 1850 322 L 1842 322 L 1814 318 L 1805 318 Z M 1009 321 L 1010 320 L 1097 320 L 1097 315 L 1099 314 L 1100 315 L 1100 334 L 1099 335 L 1100 338 L 1100 366 L 1099 373 L 1124 373 L 1133 371 L 1135 369 L 1135 339 L 1136 338 L 1139 340 L 1138 341 L 1139 369 L 1140 369 L 1140 342 L 1141 341 L 1142 342 L 1142 368 L 1156 368 L 1156 341 L 1161 338 L 1162 339 L 1162 370 L 1165 370 L 1168 373 L 1167 374 L 1098 375 L 1097 377 L 1099 381 L 1125 381 L 1126 382 L 1125 383 L 1099 383 L 1097 385 L 1095 379 L 1095 375 L 1097 373 L 1097 337 L 1094 338 L 1081 338 L 1080 337 L 1078 338 L 1060 338 L 1058 335 L 1065 330 L 1026 330 L 1025 331 L 1022 330 L 1020 331 L 1016 329 L 1017 328 L 1073 328 L 1078 325 L 1082 328 L 1090 330 L 1095 334 L 1097 334 L 1097 322 L 1010 322 Z M 1064 334 L 1064 335 L 1091 335 L 1091 333 L 1079 329 L 1073 330 Z M 797 314 L 798 316 L 794 322 L 790 316 Z M 404 313 L 405 314 L 404 322 L 400 323 L 399 322 Z M 775 312 L 782 313 L 778 322 L 776 321 L 774 316 Z M 1097 312 L 1098 311 L 1103 312 L 1102 313 Z M 748 311 L 751 327 L 750 332 L 743 322 Z M 725 311 L 727 316 L 727 327 L 728 328 L 727 332 L 721 321 Z M 713 311 L 716 316 L 717 321 L 711 332 L 710 326 Z M 576 311 L 585 329 L 584 330 L 568 331 L 567 328 Z M 1199 310 L 1200 311 L 1200 373 L 1203 377 L 1201 380 L 1199 375 L 1171 375 L 1170 374 L 1171 373 L 1198 373 L 1198 311 Z M 731 310 L 738 320 L 738 323 L 732 333 L 730 320 L 730 311 Z M 140 309 L 141 311 L 131 328 L 123 312 Z M 76 309 L 99 332 L 84 348 L 79 349 L 76 348 L 76 331 L 75 330 L 75 310 Z M 1537 309 L 1537 328 L 1536 329 L 1510 331 L 1500 333 L 1490 333 L 1481 335 L 1462 336 L 1461 337 L 1434 339 L 1433 340 L 1424 340 L 1414 342 L 1404 342 L 1403 343 L 1402 342 L 1402 327 L 1406 325 L 1450 320 L 1458 318 L 1466 318 L 1518 310 L 1526 310 L 1535 308 Z M 745 307 L 746 309 L 743 313 L 741 309 L 743 307 Z M 734 306 L 738 309 L 740 314 L 742 315 L 741 317 L 738 315 L 733 307 Z M 504 324 L 516 306 L 532 328 L 528 329 L 518 327 L 505 327 Z M 519 316 L 517 316 L 517 323 L 518 323 Z M 724 305 L 725 306 L 724 309 L 719 316 L 714 307 L 717 305 Z M 683 305 L 685 309 L 685 316 L 687 325 L 686 328 L 677 315 Z M 483 305 L 494 325 L 493 327 L 473 327 L 472 326 Z M 1093 305 L 1094 304 L 1202 304 L 1203 305 L 1202 306 L 1094 306 Z M 643 304 L 645 306 L 648 314 L 641 327 L 640 326 L 640 319 Z M 80 305 L 82 304 L 83 305 L 111 306 L 116 308 L 116 312 L 103 328 Z M 67 304 L 68 306 L 57 329 L 55 331 L 43 307 L 50 305 Z M 657 303 L 659 316 L 659 325 L 658 326 L 652 315 L 652 312 Z M 663 302 L 672 314 L 670 320 L 664 329 L 663 328 L 663 313 L 662 312 L 662 303 Z M 295 302 L 306 315 L 305 316 L 298 316 L 291 314 Z M 791 299 L 798 309 L 797 311 L 787 308 Z M 679 299 L 681 302 L 677 309 L 674 311 L 673 310 L 674 300 Z M 412 299 L 429 324 L 428 325 L 409 324 L 408 323 L 408 311 L 405 314 L 404 312 Z M 778 298 L 781 305 L 781 308 L 775 310 L 774 308 Z M 377 298 L 384 309 L 390 322 L 389 323 L 365 324 L 364 323 Z M 665 297 L 671 299 L 669 305 L 664 298 Z M 611 297 L 613 300 L 616 319 L 615 324 L 605 309 Z M 569 297 L 574 308 L 567 321 L 566 320 L 566 311 L 567 310 L 567 301 Z M 291 297 L 293 299 L 291 305 L 290 304 Z M 656 296 L 657 298 L 650 310 L 647 306 L 644 298 Z M 583 296 L 585 301 L 585 314 L 586 315 L 585 322 L 578 308 Z M 1799 296 L 1799 314 L 1796 316 L 1785 316 L 1784 317 L 1734 321 L 1723 323 L 1712 323 L 1701 325 L 1691 325 L 1690 326 L 1660 328 L 1659 329 L 1649 329 L 1638 331 L 1628 331 L 1627 332 L 1617 332 L 1616 333 L 1606 333 L 1605 334 L 1596 334 L 1595 333 L 1595 319 L 1599 317 L 1693 307 L 1694 306 L 1722 304 L 1723 303 L 1792 296 L 1793 295 Z M 739 294 L 745 302 L 744 304 L 738 302 L 738 295 Z M 590 294 L 600 309 L 592 324 L 590 320 L 590 308 L 589 307 L 589 295 Z M 781 291 L 782 292 L 781 299 L 779 295 L 779 293 Z M 737 291 L 738 293 L 736 296 L 736 301 L 732 302 L 731 300 Z M 1430 290 L 1431 291 L 1430 294 L 1431 297 L 1431 314 L 1430 316 L 1431 317 L 1429 319 L 1420 320 L 1419 319 L 1419 293 L 1421 291 Z M 775 290 L 777 293 L 775 300 L 774 299 L 774 291 Z M 720 290 L 725 300 L 722 302 L 715 302 L 714 301 Z M 126 291 L 127 290 L 138 302 L 137 303 L 125 302 L 124 299 L 126 295 Z M 675 290 L 676 289 L 681 295 L 677 296 L 675 294 Z M 592 290 L 595 289 L 602 291 L 608 291 L 609 293 L 605 301 L 602 304 Z M 796 288 L 798 296 L 797 303 L 793 296 L 793 293 Z M 582 288 L 583 290 L 576 303 L 569 290 Z M 475 288 L 481 299 L 481 303 L 472 319 L 471 312 L 472 311 L 473 293 Z M 785 287 L 789 294 L 789 297 L 786 303 L 784 293 Z M 528 287 L 530 290 L 531 303 L 534 317 L 533 322 L 523 308 L 524 305 L 523 294 Z M 492 287 L 494 293 L 494 309 L 495 310 L 495 317 L 494 318 L 485 301 Z M 1456 286 L 1457 287 L 1457 314 L 1447 316 L 1446 315 L 1446 288 L 1451 286 Z M 289 287 L 292 286 L 295 289 L 295 292 L 294 293 Z M 282 286 L 287 292 L 285 296 L 285 313 L 278 314 L 264 312 L 263 311 L 266 306 Z M 123 286 L 125 288 L 123 292 L 122 291 Z M 240 285 L 252 311 L 243 313 L 228 313 L 227 312 Z M 499 284 L 513 302 L 501 321 L 500 320 L 500 308 L 498 298 L 498 285 Z M 786 282 L 794 284 L 791 291 L 789 290 L 785 283 Z M 777 282 L 780 283 L 778 290 L 776 285 Z M 1484 281 L 1485 282 L 1485 310 L 1482 312 L 1475 313 L 1473 311 L 1474 306 L 1473 284 L 1475 282 Z M 742 281 L 743 282 L 743 289 L 745 287 L 746 288 L 747 293 L 746 299 L 743 295 L 742 291 L 739 288 Z M 670 281 L 673 284 L 672 293 L 666 294 L 663 292 Z M 724 280 L 725 281 L 724 283 L 725 291 L 724 292 L 721 286 L 722 282 Z M 716 280 L 718 282 L 719 286 L 715 294 L 714 290 Z M 651 279 L 657 292 L 646 294 L 645 292 Z M 501 280 L 502 279 L 512 280 L 513 285 L 525 282 L 526 284 L 518 296 L 515 298 Z M 1622 278 L 1630 278 L 1639 280 L 1639 293 L 1640 294 L 1640 308 L 1639 309 L 1636 308 L 1636 282 L 1629 280 L 1622 280 L 1621 279 Z M 1542 279 L 1543 278 L 1550 279 L 1550 305 L 1551 306 L 1553 306 L 1553 280 L 1555 278 L 1558 278 L 1559 279 L 1559 307 L 1607 311 L 1608 312 L 1607 313 L 1595 313 L 1594 312 L 1573 311 L 1563 309 L 1539 308 L 1538 305 L 1539 304 L 1542 305 Z M 491 278 L 492 279 L 491 284 L 485 295 L 483 296 L 476 281 L 480 279 L 490 279 Z M 728 277 L 735 287 L 730 296 L 728 291 L 728 281 L 727 280 Z M 424 277 L 429 305 L 429 313 L 430 314 L 429 317 L 415 296 L 415 293 Z M 387 277 L 389 281 L 389 294 L 390 295 L 390 308 L 391 309 L 390 314 L 380 295 L 380 291 Z M 367 277 L 375 292 L 375 295 L 364 316 L 363 311 L 364 310 L 364 300 L 365 299 L 366 278 Z M 1526 276 L 1539 278 L 1539 304 L 1538 305 L 1529 305 L 1528 306 L 1525 305 L 1525 277 Z M 1503 275 L 1517 277 L 1517 306 L 1516 307 L 1504 309 L 1502 308 L 1502 276 Z M 731 273 L 736 273 L 741 275 L 737 283 L 734 281 L 730 275 Z M 674 273 L 675 274 L 674 279 L 672 277 Z M 394 273 L 409 294 L 409 297 L 397 317 L 394 297 L 394 282 L 393 281 L 393 274 Z M 722 272 L 723 275 L 720 281 L 717 274 Z M 679 272 L 682 284 L 681 290 L 677 284 Z M 420 272 L 421 274 L 414 288 L 411 290 L 409 287 L 409 274 L 413 272 Z M 118 273 L 119 272 L 122 275 L 120 276 Z M 648 270 L 650 275 L 646 284 L 645 283 L 646 271 Z M 597 270 L 609 286 L 608 287 L 590 284 Z M 655 269 L 657 279 L 656 283 L 653 277 L 653 273 Z M 577 269 L 582 283 L 577 285 L 571 285 L 570 284 L 575 270 Z M 117 280 L 117 300 L 115 302 L 104 300 L 81 299 L 79 297 L 92 282 L 106 269 Z M 57 269 L 66 291 L 67 297 L 65 299 L 46 300 L 45 299 L 46 294 L 55 270 Z M 398 268 L 405 270 L 405 278 L 404 279 L 397 270 Z M 661 267 L 668 277 L 662 287 L 660 278 L 660 268 Z M 386 267 L 387 271 L 379 286 L 379 288 L 377 289 L 368 270 Z M 773 267 L 774 266 L 776 269 L 774 270 Z M 1426 264 L 1428 266 L 1428 285 L 1425 287 L 1410 289 L 1409 288 L 1409 270 L 1411 268 L 1422 266 Z M 249 264 L 251 270 L 251 282 L 252 283 L 252 298 L 251 299 L 242 280 Z M 231 264 L 238 281 L 228 302 L 227 301 L 227 293 L 228 292 L 229 271 Z M 749 262 L 750 261 L 752 264 L 750 265 Z M 663 261 L 675 263 L 675 265 L 670 273 L 668 272 L 662 262 Z M 302 261 L 304 265 L 306 288 L 309 303 L 308 309 L 303 304 L 299 297 L 296 295 L 298 294 L 298 288 L 291 275 Z M 741 261 L 743 260 L 745 263 L 743 264 Z M 654 260 L 655 262 L 651 269 L 649 262 Z M 735 260 L 736 259 L 738 262 L 736 263 Z M 606 259 L 608 262 L 609 277 L 610 278 L 609 280 L 603 272 Z M 580 259 L 582 262 L 582 270 L 581 271 L 578 264 Z M 124 258 L 128 269 L 126 281 L 121 276 L 123 275 L 123 259 Z M 727 258 L 729 257 L 730 260 L 728 261 Z M 572 257 L 575 265 L 571 274 L 570 270 Z M 510 257 L 525 277 L 524 278 L 503 275 L 500 273 Z M 298 257 L 299 259 L 291 268 L 290 267 L 290 260 Z M 257 257 L 278 282 L 275 288 L 260 307 L 258 300 L 258 287 L 257 286 L 257 269 L 256 268 L 256 258 Z M 720 257 L 722 256 L 723 259 L 721 260 Z M 485 256 L 492 273 L 489 275 L 478 276 L 477 275 L 478 270 L 481 265 L 483 257 Z M 587 255 L 595 266 L 588 279 L 586 268 L 586 256 Z M 1125 255 L 1126 254 L 1167 254 L 1168 255 L 1167 256 L 1126 256 Z M 712 255 L 714 254 L 716 256 L 716 258 L 714 259 L 712 257 Z M 412 254 L 421 266 L 420 267 L 411 266 L 409 264 Z M 705 254 L 708 253 L 709 256 L 706 257 Z M 261 253 L 263 252 L 284 255 L 286 257 L 286 274 L 281 278 Z M 137 252 L 138 253 L 139 269 L 143 295 L 142 298 L 128 283 L 130 278 L 133 282 L 133 285 L 135 287 L 138 287 L 132 272 Z M 699 251 L 701 253 L 700 256 L 698 255 Z M 612 251 L 618 253 L 640 256 L 644 258 L 642 280 L 639 295 L 639 303 L 637 310 L 636 327 L 632 351 L 625 351 L 624 350 L 622 328 L 619 315 L 611 259 L 611 252 Z M 248 251 L 249 256 L 240 275 L 233 260 L 232 254 Z M 692 250 L 694 251 L 693 255 L 691 254 Z M 1483 250 L 1483 276 L 1482 277 L 1463 279 L 1437 284 L 1431 283 L 1431 258 L 1432 257 L 1456 254 L 1479 249 Z M 683 249 L 684 248 L 686 249 L 687 252 L 684 253 Z M 589 248 L 599 249 L 603 251 L 597 262 L 588 250 Z M 676 248 L 678 247 L 679 250 L 677 251 Z M 579 247 L 580 250 L 577 258 L 575 256 L 573 249 Z M 668 247 L 671 246 L 672 249 L 669 250 Z M 65 245 L 66 246 L 66 260 L 67 261 L 67 279 L 66 280 L 59 263 L 59 260 Z M 48 245 L 55 262 L 45 288 L 44 287 L 44 279 L 45 278 L 45 267 L 46 266 L 47 246 Z M 659 245 L 663 244 L 664 248 L 661 249 L 659 247 Z M 291 245 L 292 244 L 298 251 L 292 252 Z M 489 243 L 491 247 L 491 259 L 490 260 L 486 250 Z M 404 243 L 407 246 L 406 264 L 405 265 L 397 264 L 395 261 Z M 651 243 L 654 242 L 656 244 L 656 246 L 652 247 Z M 480 242 L 483 249 L 483 252 L 478 264 L 477 263 L 477 256 Z M 642 242 L 646 241 L 647 245 L 646 246 L 643 245 Z M 378 241 L 382 249 L 386 262 L 382 264 L 370 265 L 369 263 Z M 521 240 L 523 243 L 523 249 L 526 263 L 525 270 L 512 253 L 516 247 L 517 248 L 517 256 L 520 258 L 520 248 L 521 247 L 520 241 Z M 135 240 L 136 244 L 130 264 L 127 258 L 125 249 Z M 634 240 L 637 239 L 639 241 L 639 243 L 635 244 Z M 1497 237 L 1498 238 L 1498 270 L 1488 275 L 1487 274 L 1487 246 Z M 628 237 L 631 239 L 629 242 L 626 241 L 626 239 Z M 528 237 L 565 243 L 569 245 L 567 266 L 566 267 L 564 297 L 563 298 L 560 340 L 559 341 L 559 349 L 557 354 L 550 355 L 544 354 L 535 291 L 533 284 L 533 278 L 531 271 L 530 258 L 528 251 L 528 244 L 527 243 Z M 496 237 L 507 253 L 507 255 L 498 269 L 495 248 L 495 238 Z M 619 237 L 621 236 L 623 238 L 623 240 L 620 241 Z M 123 236 L 124 235 L 128 236 L 127 237 Z M 612 234 L 615 236 L 614 240 L 611 239 Z M 72 234 L 102 264 L 101 267 L 75 293 L 74 292 L 73 263 L 72 262 L 72 239 L 71 238 Z M 602 234 L 606 233 L 607 237 L 603 238 Z M 499 232 L 512 234 L 517 236 L 515 242 L 510 249 L 498 234 Z M 488 232 L 489 235 L 485 245 L 483 242 L 481 234 L 484 232 Z M 595 231 L 598 233 L 598 235 L 596 237 L 594 235 Z M 585 231 L 589 230 L 590 234 L 586 235 Z M 77 231 L 80 230 L 107 234 L 116 234 L 118 236 L 118 249 L 115 253 L 118 257 L 117 270 L 116 271 L 110 265 L 111 262 L 110 260 L 106 261 Z M 64 230 L 65 235 L 57 256 L 52 245 L 49 234 L 53 232 Z M 1536 228 L 1537 229 L 1537 265 L 1533 267 L 1503 270 L 1502 269 L 1502 232 L 1507 230 Z M 578 228 L 581 229 L 580 234 L 577 232 Z M 1538 268 L 1539 267 L 1549 267 L 1550 268 L 1617 275 L 1617 236 L 1561 228 L 1560 227 L 1561 226 L 1572 226 L 1604 232 L 1618 233 L 1620 235 L 1620 247 L 1635 249 L 1639 251 L 1636 253 L 1620 250 L 1620 276 L 1616 278 L 1615 277 L 1597 276 L 1596 275 L 1572 273 L 1564 271 L 1555 271 Z M 568 227 L 569 226 L 572 227 L 573 231 L 569 232 Z M 1148 226 L 1151 225 L 1152 227 L 1149 228 Z M 559 226 L 562 225 L 564 229 L 560 230 Z M 372 225 L 374 228 L 376 237 L 370 252 L 369 246 Z M 384 224 L 385 225 L 385 242 L 386 243 L 385 249 L 380 238 L 380 233 Z M 287 238 L 285 250 L 263 248 L 258 246 L 275 224 Z M 124 225 L 125 224 L 131 230 L 125 231 Z M 553 223 L 556 225 L 555 229 L 553 229 L 551 227 L 551 225 Z M 417 223 L 419 228 L 420 243 L 422 251 L 422 258 L 421 259 L 412 247 L 412 232 L 414 226 Z M 241 223 L 243 226 L 249 246 L 243 248 L 233 249 L 232 248 L 239 226 Z M 544 223 L 547 222 L 548 226 L 545 227 Z M 390 222 L 402 239 L 393 256 L 391 254 L 391 241 L 389 229 Z M 536 221 L 537 220 L 540 221 L 541 225 L 537 226 Z M 423 220 L 465 227 L 471 227 L 476 229 L 459 376 L 462 376 L 465 374 L 466 356 L 469 338 L 478 351 L 479 355 L 468 371 L 468 373 L 472 372 L 475 369 L 479 361 L 482 358 L 486 365 L 490 366 L 490 364 L 484 354 L 495 337 L 497 342 L 497 362 L 498 363 L 503 362 L 502 345 L 501 344 L 501 337 L 502 336 L 513 349 L 510 357 L 511 358 L 513 357 L 514 359 L 508 364 L 498 366 L 495 368 L 478 373 L 446 386 L 444 382 L 437 328 L 435 321 L 432 291 L 430 284 L 428 262 L 424 240 L 424 232 L 422 223 Z M 528 218 L 532 220 L 530 224 L 528 224 L 526 222 L 526 220 Z M 516 218 L 521 217 L 523 219 L 522 220 L 523 222 L 519 223 Z M 505 216 L 509 215 L 512 217 L 513 220 L 512 221 L 506 220 Z M 392 214 L 410 218 L 409 228 L 404 235 L 391 216 Z M 382 214 L 383 216 L 378 229 L 376 227 L 373 217 L 375 215 Z M 494 215 L 496 213 L 501 214 L 502 218 L 501 219 L 495 218 Z M 483 212 L 489 211 L 490 216 L 489 217 L 484 216 Z M 286 210 L 287 211 L 287 228 L 286 229 L 278 220 Z M 473 210 L 477 209 L 480 214 L 474 215 Z M 463 208 L 466 207 L 468 209 L 468 212 L 464 213 Z M 235 206 L 237 209 L 239 218 L 234 231 L 233 230 L 233 220 Z M 453 206 L 454 205 L 459 206 L 460 207 L 458 212 L 454 211 Z M 292 205 L 297 206 L 300 238 L 301 239 L 300 246 L 291 236 L 291 219 L 292 218 L 292 207 L 291 206 Z M 246 205 L 248 218 L 248 228 L 247 229 L 243 218 L 243 214 Z M 444 205 L 448 204 L 450 206 L 449 209 L 446 210 L 444 208 Z M 434 203 L 438 202 L 440 204 L 440 207 L 435 208 Z M 1589 201 L 1590 202 L 1590 225 L 1589 226 L 1588 225 L 1588 202 Z M 422 201 L 428 200 L 430 202 L 430 206 L 429 207 L 423 206 Z M 302 200 L 332 204 L 368 211 L 352 374 L 355 376 L 358 375 L 360 341 L 362 335 L 374 353 L 374 356 L 360 378 L 363 379 L 365 377 L 369 369 L 375 360 L 377 359 L 393 385 L 392 387 L 391 386 L 388 387 L 368 387 L 364 385 L 361 381 L 358 381 L 320 360 L 299 351 L 297 349 L 298 347 L 302 348 L 301 342 L 311 326 L 312 327 L 315 355 L 321 357 L 316 314 L 313 300 L 311 277 L 308 262 L 307 247 L 306 246 L 306 238 L 305 237 L 302 202 L 301 201 Z M 76 223 L 100 199 L 118 217 L 118 229 L 117 230 L 90 226 L 82 226 L 77 225 Z M 58 199 L 65 224 L 51 228 L 50 225 Z M 411 197 L 417 199 L 418 203 L 417 204 L 410 203 L 409 202 Z M 400 197 L 404 196 L 405 201 L 401 202 L 399 200 Z M 253 196 L 272 220 L 271 223 L 256 242 L 254 235 L 253 209 L 252 208 L 252 197 Z M 388 195 L 389 194 L 395 195 L 396 200 L 395 201 L 389 200 Z M 378 193 L 383 192 L 384 198 L 383 199 L 379 198 Z M 257 193 L 258 192 L 277 196 L 283 196 L 287 198 L 287 202 L 278 214 L 275 216 Z M 245 192 L 246 194 L 243 206 L 241 209 L 239 206 L 236 195 L 239 193 Z M 125 191 L 126 192 L 126 199 L 125 200 L 124 199 L 124 192 Z M 370 190 L 372 190 L 374 192 L 373 197 L 369 193 Z M 360 189 L 361 188 L 365 189 L 366 194 L 361 195 Z M 349 188 L 355 187 L 356 193 L 355 194 L 350 193 Z M 130 187 L 133 200 L 133 210 L 135 221 L 134 226 L 125 217 Z M 339 186 L 344 185 L 345 191 L 344 192 L 341 191 Z M 332 183 L 336 185 L 336 188 L 334 190 L 331 189 Z M 317 182 L 318 181 L 325 182 L 327 184 L 327 187 L 324 188 L 323 187 L 325 185 L 318 187 Z M 119 180 L 120 182 L 119 183 L 119 208 L 118 209 L 106 197 L 105 194 Z M 53 180 L 56 189 L 56 193 L 52 206 L 51 205 L 51 193 Z M 305 180 L 306 179 L 312 180 L 313 185 L 312 186 L 306 185 Z M 63 178 L 64 179 L 64 201 L 63 202 L 60 194 L 60 188 Z M 288 177 L 289 176 L 296 177 L 297 183 L 296 184 L 290 183 Z M 128 176 L 129 181 L 126 192 L 124 186 L 124 179 Z M 278 175 L 279 174 L 284 175 L 285 180 L 279 181 Z M 136 173 L 154 175 L 185 181 L 191 181 L 222 187 L 228 187 L 231 189 L 219 326 L 220 327 L 226 326 L 228 328 L 231 328 L 231 326 L 227 320 L 228 318 L 252 317 L 253 318 L 243 333 L 216 329 L 177 329 L 176 330 L 150 332 L 139 335 L 135 335 L 132 333 L 136 330 L 140 320 L 144 315 L 145 316 L 146 330 L 152 329 L 137 187 L 136 186 L 136 176 L 135 175 Z M 266 173 L 267 172 L 273 173 L 274 178 L 267 179 Z M 252 170 L 253 169 L 257 171 L 261 171 L 262 177 L 260 178 L 253 176 Z M 239 169 L 246 168 L 247 174 L 246 175 L 241 174 Z M 228 167 L 233 166 L 236 168 L 236 171 L 234 173 L 231 173 L 228 171 L 229 170 Z M 70 166 L 97 195 L 72 221 L 71 220 L 70 189 L 69 188 L 69 167 Z M 213 164 L 214 163 L 222 164 L 223 170 L 222 171 L 214 170 Z M 75 164 L 77 163 L 84 165 L 119 170 L 120 173 L 102 191 L 100 191 Z M 62 163 L 63 164 L 58 182 L 56 178 L 54 166 Z M 201 162 L 202 161 L 208 162 L 209 163 L 208 167 L 203 168 L 201 166 Z M 185 159 L 186 158 L 194 159 L 196 161 L 196 165 L 195 166 L 186 165 Z M 170 156 L 172 155 L 180 157 L 181 163 L 180 164 L 171 163 Z M 154 154 L 155 153 L 164 154 L 165 160 L 164 161 L 155 160 Z M 136 151 L 137 150 L 148 151 L 149 157 L 148 158 L 138 157 L 136 155 L 137 154 Z M 118 147 L 119 146 L 130 148 L 131 154 L 130 155 L 119 154 Z M 102 145 L 103 144 L 112 145 L 113 152 L 112 153 L 103 151 Z M 86 142 L 87 141 L 96 142 L 98 144 L 98 149 L 95 150 L 87 148 Z M 74 140 L 75 139 L 80 140 L 81 146 L 80 147 L 75 146 Z M 69 138 L 72 140 L 70 145 L 68 144 Z M 49 136 L 51 134 L 57 136 L 62 136 L 63 143 L 59 144 L 50 142 Z M 43 133 L 46 135 L 45 141 L 42 140 Z M 36 133 L 37 134 L 37 141 L 34 143 L 33 136 Z" fill="#111111" fill-rule="evenodd"/>
</svg>